<svg width="480" height="1049" viewBox="0 0 480 1049" fill="none" xmlns="http://www.w3.org/2000/svg"><g filter="url(#filter0_f_19_195)"><circle cx="302.5" cy="431.5" r="131.5" fill="#8851F8"/></g><g filter="url(#filter1_f_19_195)"><ellipse cx="118.5" cy="613" rx="131.5" ry="132" fill="#4226C3"/></g><g filter="url(#filter2_f_19_195)"><ellipse cx="421.5" cy="627" rx="121.5" ry="122" fill="#F10160"/></g><g style="mix-blend-mode:overlay" opacity=".3"><path d="M286.649 427.597l-61.686 57.767 27.304-50.339 34.382-7.428z" stroke="#515153" stroke-width=".5"/><path d="M286.649 427.597l37.724 73.756-99.41-15.989 61.686-57.767z" stroke="#939598" stroke-width=".5"/><path d="M286.648 427.597l53.777 19.801-16.053 53.955-37.724-73.756z" stroke="#515153" stroke-width=".5"/><path d="M337.176 458.321l-10.206 34.3m-40.322-65.024l10.228 19.997m-24.449-6.676l14.222-13.321m-34.565 7.763l.182-.335 34.382-7.428 27.649 10.182" stroke="#fff" stroke-width="2" stroke-linecap="round" stroke-linejoin="round"/><path d="M139.59 456.529l2.84.142 75.554 30.229-78.394-30.371z" stroke="#505153" stroke-width=".5" stroke-linecap="round" stroke-linejoin="round"/><path d="M139.59 456.529l78.394 30.371-68.034 56.498-10.36-86.869z" stroke="#747578" stroke-width=".5" stroke-linecap="round" stroke-linejoin="round"/><path d="M139.59 456.529l10.36 86.869-79.352-38.401 68.992-48.468z" stroke="#747578" stroke-width=".5" stroke-linecap="round" stroke-linejoin="round"/><path d="M123.68 530.684l-53.082-25.686m0 0l8.236-5.786" stroke="#fff" stroke-width="2" stroke-linecap="round" stroke-linejoin="round"/><path d="M232.279 358.89l43.231 18.475 19.228 47.571-62.459-66.046z" stroke="#515153" stroke-width=".5" stroke-linecap="round" stroke-linejoin="round"/><path d="M232.28 358.89l62.459 66.046-110.197 8.767 47.738-74.813z" stroke="#939598" stroke-width=".5" stroke-linecap="round" stroke-linejoin="round"/><path d="M232.279 358.89l-47.738 74.813-4.97-49.729 52.708-25.084z" stroke="#747578" stroke-width=".5" stroke-linecap="round" stroke-linejoin="round"/><path d="M294.739 424.936l-110.197 8.768m47.737-74.814l62.459 66.046m-110.196 8.767l47.738-74.813m-52.709 25.084l52.708-25.084 43.232 18.475 19.227 47.571m-110.197 8.767l-4.97-49.729" stroke="#fff" stroke-width="2" stroke-linecap="round" stroke-linejoin="round"/><path d="M402.116 497.21l31.379 4.528 35.312 74.422-66.691-78.95z" stroke="#515153" stroke-width=".5" stroke-linecap="round" stroke-linejoin="round"/><path d="M402.116 497.21l-54.436 83.385-17.984-75.612 72.42-7.773z" stroke="#747578" stroke-width=".5" stroke-linecap="round" stroke-linejoin="round"/><path d="M402.117 497.21l66.691 78.95-121.127 4.435 54.436-83.385z" stroke="#939598" stroke-width=".5" stroke-linecap="round" stroke-linejoin="round"/><path d="M402.116 497.21l12.8 15.151m-85.22-7.378l17.531-1.881m42.643-4.578l12.244-1.314 31.379 4.528 13.616 28.696m-115.315-16.637l-2.098-8.814m139.11 71.177l-7.367.27" stroke="#fff" stroke-width="2" stroke-linecap="round" stroke-linejoin="round"/><path d="M387.437 392.374l-21.104 92.128-64.287-57.724 85.391-34.404z" stroke="#747578" stroke-width=".5" stroke-linecap="round" stroke-linejoin="round"/><path d="M387.437 392.374l76.496 60.749-97.6 31.379 21.104-92.128z" stroke="#747578" stroke-width=".5" stroke-linecap="round" stroke-linejoin="round"/><path d="M302.046 426.778l57.008-22.968m57.6 64.511l-50.321 16.181-64.287-57.724m64.287 57.724l5.76-25.141" stroke="#fff" stroke-width="2" stroke-linecap="round" stroke-linejoin="round"/><path d="M169.121 286l85.052 60.681-109.723 27.973L169.121 286zm-.001 0l-24.671 88.654-46.128-41.247L169.12 286z" stroke="#747578" stroke-width=".5" stroke-linecap="round" stroke-linejoin="round"/><path d="M254.172 346.681l-109.723 27.973-46.128-41.247M169.12 286l85.052 60.681M144.45 374.654L169.121 286m-70.8 47.407L169.12 286" stroke="#fff" stroke-width="2" stroke-linecap="round" stroke-linejoin="round"/><path d="M350.357 289.096l15.198 90.82-102.794-33.05 87.596-57.77z" stroke="#747578" stroke-width=".5" stroke-linecap="round" stroke-linejoin="round"/><path d="M350.356 289.096l75.142 51.105-59.944 39.715-15.198-90.82z" stroke="#747578" stroke-width=".5" stroke-linecap="round" stroke-linejoin="round"/><path d="M262.761 346.866l87.596-57.77m-.001 0l15.198 90.82m-15.198-90.82l75.142 51.105m.001 0l-59.944 39.715-102.794-33.05" stroke="#fff" stroke-width="2" stroke-linecap="round" stroke-linejoin="round"/><path d="M92.835 414.156l-76.146 78.757 54.261-65.319 21.885-13.438zm.002 0l85.266 22.547-36.256 68.9-49.01-91.447z" stroke="#515153" stroke-width=".5" stroke-linecap="round" stroke-linejoin="round"/><path d="M92.835 414.156l49.01 91.447-125.156-12.69 76.146-78.757z" stroke="#939598" stroke-width=".5" stroke-linecap="round" stroke-linejoin="round"/><path d="M141.845 505.603l-125.156-12.69m96.507-40.766l28.65 53.456m-125.157-12.69l30.716-31.767m-30.716 31.767l25.836-31.101m108.518-32.262l27.058 7.153m0 0l-5.796 11.016" stroke="#fff" stroke-width="2" stroke-linecap="round" stroke-linejoin="round"/><path d="M115.781 568.614l33.314-19.612 67.086 69.463-100.4-49.851z" stroke="#fff" stroke-width=".5" stroke-linecap="round" stroke-linejoin="round"/><path d="M115.781 568.614l-79.11 34.931 112.423-54.543-33.313 19.612z" stroke="#505153" stroke-width=".5" stroke-linecap="round" stroke-linejoin="round"/><path d="M115.781 568.614l100.4 49.851-121.776 72.277 21.376-122.128zm0 0L94.405 690.742l-57.734-87.197 79.11-34.931z" stroke="#747578" stroke-width=".5" stroke-linecap="round" stroke-linejoin="round"/><path d="M94.405 690.742l-57.734-87.197m123.09 48.408l-65.355 38.789m0 0l11.072-63.267m-68.808-23.93l17.867-8.671m-17.867 8.671l16.267-7.182" stroke="#fff" stroke-width="2" stroke-linecap="round" stroke-linejoin="round"/><path d="M317.656 609.11l-92.331 11.289 118.334-34.357-26.003 23.068z" stroke="#fff" stroke-width=".5" stroke-linecap="round" stroke-linejoin="round"/><path d="M317.656 609.11l26.004-23.068 68.76 100.649-94.764-77.581z" stroke="#505153" stroke-width=".5" stroke-linecap="round" stroke-linejoin="round"/><path d="M317.656 609.11l94.764 77.581-137.34 49.377 42.576-126.958zm-.001 0l-42.576 126.958-49.754-115.669 92.33-11.289z" stroke="#747578" stroke-width=".5" stroke-linecap="round" stroke-linejoin="round"/><path d="M412.42 686.691l-137.34 49.377m0 .001l42.576-126.959 19.131-16.972m-61.708 143.931l-49.754-115.67m0 0l107.183-31.118m24.572 16.401l55.341 81.009" stroke="#fff" stroke-width="2" stroke-linecap="round" stroke-linejoin="round"/><path d="M225.325 620.399l92.33-11.289 94.764 77.581" stroke="#fff" stroke-width="2" stroke-linecap="round" stroke-linejoin="round"/><path d="M390.979 498.927l-114.308 53.079 89.534-62.06 24.774 8.981z" stroke="#515153" stroke-width=".5" stroke-linecap="round" stroke-linejoin="round"/><path d="M390.978 498.927l95.028 53.339-84.483 83.089-10.545-136.428z" stroke="#747578" stroke-width=".5" stroke-linecap="round" stroke-linejoin="round"/><path d="M390.979 498.927l10.545 136.428-124.853-83.349 114.308-53.079z" stroke="#939598" stroke-width=".5" stroke-linecap="round" stroke-linejoin="round"/><path d="M390.977 498.927l10.545 136.428m.001 0l-99.505-66.427m183.987-16.662l-84.483 83.089m-72.346-107.732l61.803-28.696m-62.527 17.186l37.752-26.167 24.774 8.981 95.028 53.339" stroke="#fff" stroke-width="2" stroke-linecap="round" stroke-linejoin="round"/><path d="M56.88 354.479l82.698 24.051 15.262 67.92-97.96-91.971z" stroke="#505153" stroke-width=".5" stroke-linecap="round" stroke-linejoin="round"/><path d="M56.882 354.479l97.959 91.971L-15 469.682l71.882-115.203z" stroke="#939598" stroke-width=".5" stroke-linecap="round" stroke-linejoin="round"/><path d="M56.882 354.479L-15 469.682l15.294-75.53 56.588-39.673z" stroke="#747578" stroke-width=".5" stroke-linecap="round" stroke-linejoin="round"/><path d="M154.841 446.45L-15 469.682m0 0l71.882-115.203m-.002 0l97.96 91.971M-15 469.682l15.294-75.53 56.588-39.673 82.697 24.051m.001 0l15.262 67.92" stroke="#fff" stroke-width="2" stroke-linecap="round" stroke-linejoin="round"/><path d="M441.544 363.108L333.908 451.68l35.512-67.606 72.124-20.966zm.001 0l69.42 44.097-6.516 78.776-62.904-122.873z" stroke="#515153" stroke-width=".5" stroke-linecap="round" stroke-linejoin="round"/><path d="M441.544 363.108l62.904 122.873-170.54-34.301 107.636-88.572z" stroke="#939598" stroke-width=".5" stroke-linecap="round" stroke-linejoin="round"/><path d="M504.448 485.98l-170.54-34.3m0 0l107.635-88.572m.002 0l62.904 122.873M333.908 451.68l35.512-67.606 72.123-20.966 69.42 44.097" stroke="#fff" stroke-width="2" stroke-linecap="round" stroke-linejoin="round"/><path d="M153.604 522.123l-8.743-11.108 121.202 42.123-112.459-31.015z" stroke="#505153" stroke-width=".5" stroke-linecap="round" stroke-linejoin="round"/><path d="M153.604 522.123L47.558 601.354l97.304-90.339 8.742 11.108zm0 0l112.46 31.015-81.376 110.055-31.084-141.07z" stroke="#515153" stroke-width=".5" stroke-linecap="round" stroke-linejoin="round"/><path d="M153.604 522.123l31.084 141.07-137.13-61.839 106.046-79.231z" stroke="#939598" stroke-width=".5" stroke-linecap="round" stroke-linejoin="round"/><path d="M184.688 663.193l-137.13-61.839m0 0l92.487-85.865m115.648 51.675l-71.005 96.029m-137.13-61.839l84.528-63.157m30.664 25.429l21.938 99.567" stroke="#fff" stroke-width="2" stroke-linecap="round" stroke-linejoin="round"/><path d="M233.681 430.337l-109.98 131.804 39.153-111.743 70.827-20.061z" stroke="#747578" stroke-width=".5" stroke-linecap="round" stroke-linejoin="round"/><path d="M233.68 430.337l90.927 24.831 7.246 114.892-98.173-139.723z" stroke="#515153" stroke-width=".5" stroke-linecap="round" stroke-linejoin="round"/><path d="M233.681 430.337l98.173 139.723-208.153-7.919 109.98-131.804z" stroke="#939598" stroke-width=".5" stroke-linecap="round" stroke-linejoin="round"/><path d="M331.854 570.06l-208.153-7.919m0 0l109.98-131.804m-.001 0l98.173 139.723m-208.152-7.919l39.153-111.743 70.827-20.061 90.927 24.831m-.001 0l7.246 114.892" stroke="#fff" stroke-width="2" stroke-linecap="round" stroke-linejoin="round"/></g><defs><filter id="filter0_f_19_195" x="-129" y="0" width="863" height="863" filterUnits="userSpaceOnUse" color-interpolation-filters="sRGB"><feFlood flood-opacity="0" result="BackgroundImageFix"/><feBlend in="SourceGraphic" in2="BackgroundImageFix" result="shape"/><feGaussianBlur stdDeviation="150" result="effect1_foregroundBlur_19_195"/></filter><filter id="filter1_f_19_195" x="-313" y="181" width="863" height="864" filterUnits="userSpaceOnUse" color-interpolation-filters="sRGB"><feFlood flood-opacity="0" result="BackgroundImageFix"/><feBlend in="SourceGraphic" in2="BackgroundImageFix" result="shape"/><feGaussianBlur stdDeviation="150" result="effect1_foregroundBlur_19_195"/></filter><filter id="filter2_f_19_195" x="0" y="205" width="843" height="844" filterUnits="userSpaceOnUse" color-interpolation-filters="sRGB"><feFlood flood-opacity="0" result="BackgroundImageFix"/><feBlend in="SourceGraphic" in2="BackgroundImageFix" result="shape"/><feGaussianBlur stdDeviation="150" result="effect1_foregroundBlur_19_195"/></filter></defs></svg>