<svg width="158" height="60" viewBox="0 0 158 60" fill="none" xmlns="http://www.w3.org/2000/svg"><path d="M30 0l25.98 15v30L30 60 4.02 45V15L30 0z" fill="#1F0060"/><g filter="url(#filter0_d_1_15434)"><path d="M25.13 41.792h-5.962l4.741-14.413 2.958 9.178-1.737 5.235z" fill="#7685FF"/></g><g filter="url(#filter1_d_1_15434)"><path d="M41.044 41.768H35.06l8.638-23.38h5.868l-8.52 23.38z" fill="#5E4DFF"/></g><g filter="url(#filter2_d_1_15434)"><path d="M17.148 18.224h-6.713l5.446 14.484 3.075-8.897-1.808-5.587z" fill="#9CA6FF"/></g><g filter="url(#filter3_d_1_15434)"><path d="M32.923 18.2h-6.056l4.93 14.601 3.121-8.427-1.995-6.173z" fill="#7685FF"/></g><path d="M92.123 13.62c.16.547.333 1.167.52 1.86.2.68.407 1.387.62 2.12l.68 2.2c.227.733.447 1.413.66 2.04.173-.68.347-1.42.52-2.22.187-.8.36-1.627.52-2.48.16-.853.313-1.7.46-2.54.16-.853.307-1.673.44-2.46h3.24a136.678 136.678 0 01-1.62 7.06 98.77 98.77 0 01-1.96 6.8h-2.86c-.467-1.28-.92-2.62-1.36-4.02a527.47 527.47 0 01-1.3-4.24l-1.28 4.24c-.427 1.4-.873 2.74-1.34 4.02h-2.86a106.632 106.632 0 01-1.98-6.8 152.03 152.03 0 01-1.6-7.06h3.38a142.947 142.947 0 00.94 5c.173.853.347 1.68.52 2.48.187.8.373 1.54.56 2.22.24-.653.473-1.347.7-2.08.227-.733.447-1.467.66-2.2.213-.733.407-1.44.58-2.12l.5-1.82h2.66zm16.825-1.48h3.12V26h-3.12v-5.88h-5.24V26h-3.12V12.14h3.12v5.3h5.24v-5.3zm5.127 0h3.12V26h-3.12V12.14zm15.408 0v2.66h-4.18V26h-3.12V14.8h-4.18v-2.66h11.48zm.806 13.86V12.14h9.36v2.62h-6.24v2.72h5.54v2.56h-5.54v3.34h6.7V26h-9.82zM71.841 48V34.14h9.28v2.62h-6.16v2.9h5.48v2.62h-5.48V48h-3.12zm10.284-13.86h3.12V48h-3.12V34.14zM96.553 48a69.771 69.771 0 00-2.9-4.7 47.762 47.762 0 00-3.32-4.38V48h-3.08V34.14h2.54c.44.44.927.98 1.46 1.62.534.64 1.074 1.327 1.62 2.06a52.21 52.21 0 011.66 2.26c.547.773 1.06 1.52 1.54 2.24v-8.18h3.1V48h-2.62zm13.898 0c-.147-.48-.314-.973-.5-1.48l-.52-1.52h-5.4a76.705 76.705 0 01-.54 1.52c-.174.507-.334 1-.48 1.48h-3.24a246.46 246.46 0 011.48-4.14c.466-1.267.92-2.46 1.36-3.58.453-1.12.893-2.18 1.32-3.18.44-1.013.893-2 1.36-2.96h2.98c.453.96.9 1.947 1.34 2.96.44 1 .88 2.06 1.32 3.18.453 1.12.913 2.313 1.38 3.58.466 1.267.96 2.647 1.48 4.14h-3.34zm-3.74-10.72c-.067.2-.167.473-.3.82l-.46 1.2c-.174.453-.367.953-.58 1.5-.2.547-.407 1.12-.62 1.72h3.94c-.214-.6-.42-1.173-.62-1.72a41.29 41.29 0 00-.58-1.5l-.46-1.2c-.134-.347-.24-.62-.32-.82zM123.685 48a70.016 70.016 0 00-2.9-4.7 47.816 47.816 0 00-3.32-4.38V48h-3.08V34.14h2.54c.44.44.926.98 1.46 1.62.533.64 1.073 1.327 1.62 2.06.56.72 1.113 1.473 1.66 2.26.546.773 1.06 1.52 1.54 2.24v-8.18h3.1V48h-2.62zm10.937.28c-2.253 0-3.973-.627-5.16-1.88-1.173-1.253-1.76-3.033-1.76-5.34 0-1.147.18-2.167.54-3.06.36-.907.853-1.667 1.48-2.28a6.122 6.122 0 012.24-1.42 8.083 8.083 0 012.82-.48c.587 0 1.12.047 1.6.14.48.08.9.18 1.26.3.36.107.66.22.9.34.24.12.413.213.52.28l-.9 2.52a7.507 7.507 0 00-1.5-.58c-.56-.16-1.2-.24-1.92-.24-.48 0-.953.08-1.42.24-.453.16-.86.42-1.22.78-.347.347-.627.8-.84 1.36-.213.56-.32 1.24-.32 2.04 0 .64.067 1.24.2 1.8.147.547.373 1.02.68 1.42.32.4.733.72 1.24.96.507.227 1.12.34 1.84.34.453 0 .86-.027 1.22-.08.36-.053.68-.113.96-.18.28-.08.527-.167.74-.26.213-.093.407-.18.58-.26l.86 2.5c-.44.267-1.06.507-1.86.72-.8.213-1.727.32-2.78.32zm5.449-.28V34.14h9.36v2.62h-6.24v2.72h5.54v2.56h-5.54v3.34h6.7V48h-9.82z" fill="#fff"/><defs><filter id="filter0_d_1_15434" x="16.168" y="20.379" width="15.699" height="22.413" filterUnits="userSpaceOnUse" color-interpolation-filters="sRGB"><feFlood flood-opacity="0" result="BackgroundImageFix"/><feColorMatrix in="SourceAlpha" values="0 0 0 0 0 0 0 0 0 0 0 0 0 0 0 0 0 0 127 0" result="hardAlpha"/><feOffset dx="1" dy="-3"/><feGaussianBlur stdDeviation="2"/><feComposite in2="hardAlpha" operator="out"/><feColorMatrix values="0 0 0 0 0.462745 0 0 0 0 0.521569 0 0 0 0 1 0 0 0 0.4 0"/><feBlend in2="BackgroundImageFix" result="effect1_dropShadow_1_15434"/><feBlend in="SourceGraphic" in2="effect1_dropShadow_1_15434" result="shape"/></filter><filter id="filter1_d_1_15434" x="28.059" y="14.389" width="22.507" height="31.38" filterUnits="userSpaceOnUse" color-interpolation-filters="sRGB"><feFlood flood-opacity="0" result="BackgroundImageFix"/><feColorMatrix in="SourceAlpha" values="0 0 0 0 0 0 0 0 0 0 0 0 0 0 0 0 0 0 127 0" result="hardAlpha"/><feOffset dx="-3"/><feGaussianBlur stdDeviation="2"/><feComposite in2="hardAlpha" operator="out"/><feColorMatrix values="0 0 0 0 0.368627 0 0 0 0 0.301961 0 0 0 0 1 0 0 0 0.4 0"/><feBlend in2="BackgroundImageFix" result="effect1_dropShadow_1_15434"/><feBlend in="SourceGraphic" in2="effect1_dropShadow_1_15434" result="shape"/></filter><filter id="filter2_d_1_15434" x="7.435" y="17.224" width="16.521" height="22.483" filterUnits="userSpaceOnUse" color-interpolation-filters="sRGB"><feFlood flood-opacity="0" result="BackgroundImageFix"/><feColorMatrix in="SourceAlpha" values="0 0 0 0 0 0 0 0 0 0 0 0 0 0 0 0 0 0 127 0" result="hardAlpha"/><feOffset dx="1" dy="3"/><feGaussianBlur stdDeviation="2"/><feComposite in2="hardAlpha" operator="out"/><feColorMatrix values="0 0 0 0 0.611765 0 0 0 0 0.65098 0 0 0 0 1 0 0 0 0.4 0"/><feBlend in2="BackgroundImageFix" result="effect1_dropShadow_1_15434"/><feBlend in="SourceGraphic" in2="effect1_dropShadow_1_15434" result="shape"/></filter><filter id="filter3_d_1_15434" x="23.867" y="17.201" width="16.052" height="22.601" filterUnits="userSpaceOnUse" color-interpolation-filters="sRGB"><feFlood flood-opacity="0" result="BackgroundImageFix"/><feColorMatrix in="SourceAlpha" values="0 0 0 0 0 0 0 0 0 0 0 0 0 0 0 0 0 0 127 0" result="hardAlpha"/><feOffset dx="1" dy="3"/><feGaussianBlur stdDeviation="2"/><feComposite in2="hardAlpha" operator="out"/><feColorMatrix values="0 0 0 0 0.462745 0 0 0 0 0.521569 0 0 0 0 1 0 0 0 0.4 0"/><feBlend in2="BackgroundImageFix" result="effect1_dropShadow_1_15434"/><feBlend in="SourceGraphic" in2="effect1_dropShadow_1_15434" result="shape"/></filter></defs></svg>