<svg width="626" height="374" viewBox="0 0 626 374" fill="none" xmlns="http://www.w3.org/2000/svg"><g filter="url(#filter0_f_1_13786)"><ellipse cx="81.516" cy="103.912" rx="21.559" ry="21.534" fill="#8851F8"/></g><g filter="url(#filter1_f_1_13786)"><ellipse cx="181.767" cy="263.804" rx="21.559" ry="21.534" fill="#8851F8"/></g><g filter="url(#filter2_f_1_13786)"><ellipse cx="545.044" cy="292.875" rx="21.559" ry="21.534" fill="#8851F8"/></g><g filter="url(#filter3_f_1_13786)"><ellipse cx="348.854" cy="81.301" rx="21.559" ry="21.534" fill="#8851F8"/></g><g filter="url(#filter4_f_1_13786)"><ellipse cx="477.671" cy="156.133" rx="21.559" ry="21.534" fill="#8851F8"/></g><g filter="url(#filter5_f_1_13786)"><ellipse cx="320.286" cy="211.583" rx="21.559" ry="21.534" fill="#8851F8"/></g><path opacity=".5" fill-rule="evenodd" clip-rule="evenodd" d="M437.345 57.694l8.876-5.113 8.877 5.113v10.214l-8.877 5.113-8.876-5.113V57.694zM446.221 49l11.979 6.9v12.18l10.602 6.107 9.798-5.644 10.616 6.115 10.615-6.115 10.221 5.887 11.578-6.67 10.957 6.313 10.957-6.312 11.979 6.9v13.802l-11.979 6.9-10.957-6.312-10.161 5.854v12.634l-10.615 6.115v12.5l-10.957 6.312v10.267l10.616 6.115v13.801l-10.615 6.115v12.5l-10.289 5.927v13.055l-11.979 6.9-11.979-6.9v-12.493l-9.558-5.506-11.096 6.392v12.779l-11.979 6.901-11.979-6.901v-13.801l11.74-6.763v-11.94l-9.248-5.327-10.777 6.208-11.979-6.901v-12.315l-10.936-6.3v-12.767l-10.134-5.838-10.777 6.208-9.916-5.712-10.161 5.853v12.501l-11.979 6.901-10.777-6.208-10.777 6.208-11.979-6.901v-12.315l-10.938-6.301v-13.801l11.259-6.485v-11.81l10.553-6.078V75.052l11.979-6.9 11.979 6.9v12.609l8.177 4.71 10.922-6.291V74.27l11.979-6.9 10.617 6.116 10.616-6.116 11.08 6.383 10.491-6.043V55.9l11.979-6.9 10.616 6.115L446.221 49zm10.606 80.883l9.473-5.456v-10.588l-10.323-5.946-8.734 5.03v11.439l9.584 5.521zm.009-59.008l-8.876 5.114v10.214l8.876 5.113 8.877-5.113V75.989l-8.877-5.114zm-21.552.321l-8.877 5.113v10.215l8.877 5.113 8.876-5.114V76.31l-8.876-5.113zm-10.616 18.295l-8.877 5.113v10.214l8.877 5.113 8.876-5.113V94.604l-8.876-5.113zm12.677 5.113l8.876-5.113 8.876 5.113v10.214l-8.876 5.113-8.876-5.113V94.604zm-12.356-42.023l-8.876 5.113v10.214l8.876 5.113 8.876-5.113V57.694l-8.876-5.113zm-20.134 23.408l8.876-5.114 8.876 5.114v10.214l-8.876 5.113-8.876-5.113V75.989zm116.775-4.647l-8.876 5.113v10.214l8.876 5.113 8.877-5.113V76.455l-8.877-5.113zm-30.675 5.895l8.876-5.113 8.877 5.113V87.45l-8.877 5.113-8.876-5.113V77.237zm19.492 13.181l-8.877 5.113v10.214l8.877 5.113 8.876-5.113V95.531l-8.876-5.113zm-21.552.321l-8.876 5.113v10.215l8.876 5.113 8.876-5.113V95.852l-8.876-5.113zm-10.616 18.295l-8.877 5.113v10.214l8.877 5.113 8.876-5.113v-10.214l-8.876-5.113zm12.676 5.113l8.876-5.113 8.877 5.113v10.214l-8.877 5.113-8.876-5.113v-10.214zm43.713-37.692l8.876-5.113 8.876 5.113v10.214l-8.876 5.113-8.876-5.113V76.455zM478.6 72.124l-8.876 5.113v10.214l8.876 5.113 8.876-5.113V77.237l-8.876-5.113zM458.465 95.53l8.876-5.113 8.876 5.113v10.214l-8.876 5.113-8.876-5.113V95.531zM361.33 76.064l8.876-5.113 8.877 5.113v10.214l-8.877 5.113-8.876-5.113V76.064zm30.109-5.113l-8.876 5.113v10.214l8.876 5.113 8.876-5.113V76.064l-8.876-5.113zm1.739 23.407l8.876-5.113 8.876 5.113v10.214l-8.876 5.114-8.876-5.114V94.358zm-21.553.321l8.876-5.113 8.877 5.113v10.214l-8.877 5.114-8.876-5.114V94.679zm-10.616 18.295l8.876-5.113 8.876 5.113v10.214l-8.876 5.113-8.876-5.113v-10.214zm30.43-5.113l-8.876 5.113v10.214l8.876 5.113 8.876-5.113v-10.214l-8.876-5.113zm-32.49-18.616l-8.877 5.113v10.214l8.877 5.114 8.876-5.114V94.358l-8.876-5.113zm67.439 24.732l8.876-5.113 8.876 5.113v10.214l-8.876 5.113-8.876-5.113v-10.214zm19.492 13.181l-8.876 5.113v10.214l8.876 5.114 8.877-5.114v-10.214l-8.877-5.113zm-30.429 5.434l8.877-5.113 8.876 5.113v10.214l-8.876 5.113-8.877-5.113v-10.214zm-10.616 18.294l8.876-5.113 8.877 5.113v10.215l-8.877 5.113-8.876-5.113v-10.215zm-18.598 19.341l-8.877 5.113v10.214l8.877 5.113 8.876-5.113V175.34l-8.876-5.113zm.63-3.218v-12.223l-11.979-6.901-11.492 6.62-10.814-6.229-11.979 6.901v13.801l11.979 6.901 11.493-6.621 10.183 5.866v12.224l11.979 6.9 11.979-6.9v-13.801l-11.349-6.538zm-20.855-10.43l8.876-5.113 8.876 5.113v10.214l-8.876 5.113-8.876-5.113v-10.214zm-13.43-4.722l-8.876 5.113v10.215l8.876 5.113 8.877-5.113V156.97l-8.877-5.113zm73.806-.971l8.876-5.113 8.876 5.113v10.215l-8.876 5.113-8.876-5.113v-10.215zm19.327 13.869l-8.876 5.113v10.214l8.876 5.114 8.876-5.114v-10.214l-8.876-5.113zm-20.616 24.656l8.876-5.114 8.876 5.114v10.214l-8.876 5.113-8.876-5.113v-10.214zm-11.065-80.547l-8.877 5.113v10.214l8.877 5.113 8.876-5.113v-10.214l-8.876-5.113zm-20.135 23.407l8.876-5.113 8.876 5.113v10.214l-8.876 5.114-8.876-5.114v-10.214zm94.976-5.038l-8.876 5.113v10.214l8.876 5.114 8.877-5.114v-10.214l-8.877-5.113zm-20.512 33.929V150.84l9.897-5.701 9.251 5.33v10.879l-9.412 5.422-9.736-5.608zm22.251-10.521l8.877-5.113 8.876 5.113v10.214l-8.876 5.113-8.877-5.113v-10.214zm-32.168 18.616l8.877-5.114 8.876 5.114v10.214l-8.876 5.113-8.877-5.113v-10.214zm21.553 0l8.876-5.114 8.877 5.114v10.214l-8.877 5.113-8.876-5.113v-10.214zm-1.412 13.868l-8.876 5.113v10.214l8.876 5.113 8.877-5.113v-10.214l-8.877-5.113zm-19.819-50.779l8.876-5.113 8.876 5.113v10.214l-8.876 5.114-8.876-5.114v-10.214zm-2.384 13.182l-8.876 5.113v10.214l8.876 5.113 8.876-5.113v-10.214l-8.876-5.113zm101.76 104.074l8.876-5.114 8.876 5.114v10.214l-8.876 5.113-8.876-5.113v-10.214zm8.876-8.695l11.979 6.901v13.801l-11.232 6.47v11.451l10.615 6.115v13.801l-10.615 6.115v12.501l-11.98 6.9-10.776-6.208-10.777 6.208-11.979-6.9v-12.316l-10.938-6.3v-13.801l11.259-6.486V267.35l11.979-6.9 10.616 6.115 9.87-5.685v-13.072l11.979-6.901zm-31.046 46.852l8.876-5.113 8.876 5.113v10.214l-8.876 5.114-8.876-5.114v-10.214zm-10.616 18.295l8.876-5.113 8.876 5.113v10.214l-8.876 5.113-8.876-5.113v-10.214zm30.429-5.113l-8.876 5.113v10.214l8.876 5.113 8.877-5.113v-10.214l-8.877-5.113zm10.616-18.616l-8.877 5.113v10.215l8.877 5.113 8.876-5.113v-10.215l-8.876-5.113zm-19.492-13.181l8.876-5.113 8.877 5.113v10.214l-8.877 5.113-8.876-5.113v-10.214zm-12.356-5.113l-8.876 5.113v10.214l8.876 5.113 8.876-5.113v-10.214l-8.876-5.113zm-20.135 23.407l8.876-5.113 8.877 5.113v10.215l-8.877 5.113-8.876-5.113v-10.215zM327.149 71.733l-8.876 5.113V87.06l8.876 5.113 8.876-5.113V76.846l-8.876-5.113zm1.803 23.873l8.877-5.113 8.876 5.113v10.215l-8.876 5.113-8.877-5.113V95.606zm19.492 13.182l-8.876 5.113v10.214l8.876 5.113 8.876-5.113v-10.214l-8.876-5.113zm-21.553.321l-8.876 5.113v10.214l8.876 5.113 8.876-5.113v-10.214l-8.876-5.113zm-10.616 18.294l-8.876 5.113v10.215l8.876 5.113 8.876-5.113v-10.215l-8.876-5.113zm12.677 5.113l8.877-5.113 8.876 5.113v10.215l-8.876 5.113-8.877-5.113v-10.215zm-21.232-36.91l8.876-5.113 8.876 5.113v10.215l-8.876 5.113-8.876-5.113V95.606zm-2.383 13.182l-8.876 5.113v10.214l8.876 5.113 8.877-5.113v-10.214l-8.877-5.113zm7.067 59.908l8.877-5.113 8.876 5.113v10.214l-8.876 5.113-8.877-5.113v-10.214zm8.877-8.694l11.979 6.9v13.675l8.823 5.083 10.617-6.116 11.979 6.901v12.18l10.613 6.114v13.801l-10.613 6.114v12.502l-10.652 6.136v12.725l10.175 5.862v13.801l-11.379 6.554v11.816l-11.979 6.9-.152-.087v11.557l-11.979 6.9-11.979-6.9v-13.801l11.979-6.901.152.088V281.54l-10.174-5.86v-13.291l-10.175-5.861v-13.801l10.651-6.135v-13.237l10.616-6.116v-11.063l-9.797-5.643-9.307 5.362v12.5l-11.979 6.901-10.777-6.208-10.777 6.208-11.979-6.901V206.08l-10.938-6.3v-13.801l11.26-6.487v-11.808l11.979-6.901 10.616 6.116 10.616-6.116 10.612 6.113 11.969-6.894zm-22.581 4.362l-8.877 5.113v10.215l8.877 5.113 8.876-5.113v-10.215l-8.876-5.113zm1.739 23.408l8.876-5.113 8.876 5.113v10.214l-8.876 5.113-8.876-5.113v-10.214zm-21.553.321l8.876-5.113 8.876 5.113v10.214l-8.876 5.113-8.876-5.113v-10.214zm-10.616 18.295l8.876-5.114 8.876 5.114v10.214l-8.876 5.113-8.876-5.113v-10.214zm30.43-5.114l-8.877 5.114v10.214l8.877 5.113 8.876-5.113v-10.214l-8.876-5.114zm-21.232-36.91l-8.876 5.113v10.215l8.876 5.113 8.876-5.113v-10.215l-8.876-5.113zm-20.136 23.408l8.876-5.113 8.877 5.113v10.214l-8.877 5.113-8.876-5.113v-10.214zm86.491.466l8.877-5.113 8.876 5.113v10.214l-8.876 5.114-8.877-5.114v-10.214zm19.49 13.182l-8.876 5.113v10.214l8.876 5.113 8.876-5.113v-10.214l-8.876-5.113zm-21.551.321l-8.876 5.113v10.214l8.876 5.113 8.876-5.113v-10.214l-8.876-5.113zm-10.616 18.294l-8.876 5.113v10.214l8.876 5.114 8.876-5.114v-10.214l-8.876-5.113zm-19.527 24.486l8.877-5.114 8.876 5.114v10.214l-8.876 5.113-8.877-5.113v-10.214zm19.051 14.038l-8.876 5.113v10.214l8.876 5.113 8.877-5.113v-10.214l-8.877-5.113zm13.153-33.411l8.877-5.113 8.876 5.113v10.214l-8.876 5.114-8.877-5.114v-10.214zm-1.775 14.259l-8.876 5.114v10.214l8.876 5.113 8.876-5.113v-10.214l-8.876-5.114zm1.299 24.265l8.876-5.113 8.876 5.113v10.214l-8.876 5.113-8.876-5.113v-10.214zm-2.503 13.257l-8.876 5.113v10.214l8.876 5.114 8.876-5.114v-10.214l-8.876-5.113zm-21.007 23.483l8.876-5.113 8.877 5.113v10.214l-8.877 5.114-8.876-5.114v-10.214zm11.63-117.287l-8.876 5.113v10.214l8.876 5.114 8.876-5.114v-10.214l-8.876-5.113zM139.834 203.09l8.876-5.113 8.877 5.113v10.215l-8.877 5.113-8.876-5.113V203.09zm8.876-8.694l11.98 6.901v11.832l10.522 6.061 11.152-6.424 11.979 6.901v12.834l10.289 5.927v12.179l10.615 6.115v13.801l-10.615 6.115v12.501l-10.68 6.152v12.438l-11.74 6.763v11.607L170.233 333l-11.979-6.901v-13.801l11.74-6.763v-10.133l-10.873-6.263v-12.315l-10.938-6.301V258.6l-11.059-6.371v-13.801l10.957-6.312v-10.48l-11.35-6.538v-13.801l11.979-6.901zm11.35 21.951l-8.876 5.113v10.214l8.876 5.113 8.876-5.113V221.46l-8.876-5.113zm13.427 5.113l8.877-5.113 8.876 5.113v10.214l-8.876 5.113-8.877-5.113V221.46zm10.289 18.761l8.877-5.113 8.876 5.113v10.214l-8.876 5.113-8.877-5.113v-10.214zm19.492 13.181l-8.876 5.114v10.214l8.876 5.113 8.876-5.113v-10.214l-8.876-5.114zm-21.553.321l-8.876 5.114v10.214l8.876 5.113 8.876-5.113v-10.214l-8.876-5.114zM171.1 272.018l-8.876 5.113v10.214l8.876 5.113 8.876-5.113v-10.214l-8.876-5.113zm12.676 5.113l8.877-5.113 8.876 5.113v10.214l-8.876 5.113-8.877-5.113v-10.214zm-1.803 13.478l-8.876 5.113v10.214l8.876 5.113 8.876-5.113v-10.214l-8.876-5.113zm-20.616 23.483l8.876-5.113 8.876 5.113v10.214l-8.876 5.113-8.876-5.113v-10.214zm10.064-78.984l-8.876 5.113v10.214l8.876 5.113 8.877-5.113v-10.214l-8.877-5.113zm-11.258 18.294l-8.877 5.114v10.214l8.877 5.113 8.876-5.113v-10.214l-8.876-5.114zm-19.936-13.181l8.876-5.113 8.876 5.113v10.214l-8.876 5.113-8.876-5.113v-10.214zm-26.225-128.622l-8.876 5.113v10.215l8.876 5.113 8.876-5.113v-10.215l-8.876-5.113zm-12.356 5.26l-9.003-5.186-8.75 5.039v10.215l8.877 5.113 8.876-5.113v-10.068zm-19.995-2.436l8.991-5.179V98.205l-9.678-5.575-9.452 5.445v10.508l10.14 5.84zm-12.119 20.621v11.97l10.938 6.301v12.315l10.482 6.038v12.162l11.979 6.9 11.979-6.9v-11.823l11.072-6.377v-12.501l10.615-6.115v-12.019l11.572-6.666V115.82l10.175-5.861v-12.9l9.685-5.58 10.814 6.23 11.979-6.901V77.006l-11.979-6.9-11.492 6.62-10.813-6.23-11.487 6.618-8.897-5.125v-12.18l-11.979-6.9-10.616 6.115-10.616-6.116-11.98 6.901v11.809l-9.773 5.63-10.72-6.175-10.616 6.115-10.616-6.115-11.98 6.9v11.81L26 96.267v13.801l10.936 6.3v12.315l11.98 6.901 10.777-6.208 9.839 5.667zm24.213-36.531v10.067l9.004 5.187 8.749-5.04V98.513l-8.877-5.114-8.876 5.114zm21.996 36.494l8.877-5.113 8.876 5.113v10.214l-8.876 5.113-8.877-5.113v-10.214zm-12.677-4.793l-8.876 5.114v10.214l8.876 5.113 8.876-5.113v-10.214l-8.876-5.114zm-10.615 18.295l-8.877 5.113v10.214l8.877 5.113 8.876-5.113v-10.214l-8.876-5.113zm12.677 5.113l8.876-5.113 8.877 5.113v10.214l-8.877 5.113-8.876-5.113v-10.214zm-2.195 13.087l-8.876 5.113v10.214l8.876 5.113 8.876-5.113v-10.214l-8.876-5.113zm-21.42-36.815l-8.876 5.113v10.214l8.876 5.113 8.876-5.113v-10.214l-8.876-5.113zM115.3 61.602l8.876-5.113 8.876 5.113v10.215l-8.876 5.113-8.876-5.114V61.603zm63.544 12.085l-8.876 5.113v10.214l8.876 5.113 8.876-5.113V78.8l-8.876-5.113zm-31.182 5.504l8.877-5.114 8.876 5.114v10.214l-8.876 5.113-8.877-5.113V79.19zm-12.871-4.407l-8.876 5.113v10.214l8.876 5.113 8.877-5.113V79.897l-8.877-5.113zm-21.552.32l-8.877 5.114v10.214l8.877 5.113 8.876-5.113V80.218l-8.876-5.113zm2.061 23.409l8.876-5.114 8.876 5.114v10.214l-8.876 5.113-8.876-5.113V98.513zm12.015 17.809l8.876-5.113 8.876 5.113v10.214l-8.876 5.113-8.876-5.113v-10.214zm19.051-23.484l-8.877 5.114v10.214l8.877 5.113 8.876-5.113V97.952l-8.876-5.114zM102.943 56.49l-8.876 5.114v10.214l8.876 5.113 8.876-5.113V61.603l-8.876-5.114zM82.808 79.897l8.876-5.113 8.876 5.113v10.214l-8.876 5.113-8.876-5.113V79.897zm-42.447-.13l8.877-5.114 8.876 5.114V89.98l-8.876 5.113-8.877-5.113V79.767zm30.109-5.113l-8.876 5.113V89.98l8.876 5.113 8.876-5.113V79.767l-8.876-5.113zM59.533 93.269l-8.877 5.113v10.214l8.877 5.113 8.876-5.113V98.382l-8.876-5.113zm-10.618 18.295l-8.876 5.113v10.214l8.876 5.113 8.877-5.113v-10.214l-8.877-5.113zm12.679 5.113l8.876-5.113 8.876 5.113v10.214l-8.876 5.113-8.876-5.113v-10.214zM37.979 92.948l-8.876 5.113v10.214l8.876 5.114 8.876-5.114V98.061l-8.876-5.113z" fill="#4226C3"/><path d="M309.781 205.636l10.427-6.007 10.428 6.007v12.007l-10.428 6.007-10.427-6.007v-12.007zm-138.622 51.968l10.427-6.007 10.428 6.007v12.007l-10.428 6.007-10.427-6.007v-12.007zm363.276 29.071l10.428-6.007 10.427 6.007v12.007l-10.427 6.007-10.428-6.007v-12.007zM70.907 97.712l10.427-6.007 10.428 6.007v12.008l-10.428 6.007-10.427-6.007V97.712zm266.944-22.544l10.428-6.007 10.427 6.007v12.007l-10.427 6.007-10.428-6.007V75.168zm129.657 74.897l10.428-6.007 10.428 6.007v12.008l-10.428 6.007-10.428-6.007v-12.008z" fill="#8851F8" stroke="#4226C3" stroke-width="3.103"/><g filter="url(#filter6_i_1_13786)"><ellipse cx="81.515" cy="103.912" rx="5.39" ry="5.384" fill="#fff"/></g><g filter="url(#filter7_i_1_13786)"><ellipse cx="348.314" cy="81.301" rx="5.39" ry="5.384" fill="#fff"/></g><g filter="url(#filter8_i_1_13786)"><ellipse cx="477.67" cy="156.132" rx="5.39" ry="5.384" fill="#fff"/></g><g filter="url(#filter9_i_1_13786)"><ellipse cx="320.286" cy="211.583" rx="5.39" ry="5.384" fill="#fff"/></g><g filter="url(#filter10_i_1_13786)"><ellipse cx="181.663" cy="263.551" rx="5.39" ry="5.384" fill="#fff"/></g><g filter="url(#filter11_i_1_13786)"><ellipse cx="544.941" cy="292.622" rx="5.39" ry="5.384" fill="#fff"/></g><g filter="url(#filter12_i_1_13786)"><path d="M348.349 82.188a1.179 1.179 0 10.469-2.312l-.469 2.312zM211.142 68.919l-.107-1.174.107 1.174zM80.434 103.712c-.26.598.015 1.292.613 1.551l9.738 4.223a1.18 1.18 0 00.938-2.164l-8.656-3.753 3.753-8.657a1.18 1.18 0 00-2.164-.938l-4.222 9.738zm268.149-22.68c.235-1.156.234-1.156.233-1.156h-.003a.239.239 0 00-.012-.003l-.046-.01a702.325 702.325 0 00-13.901-2.57 850.555 850.555 0 00-34.721-5.31c-27.67-3.638-62.138-6.681-89.098-4.238l.213 2.349c26.686-2.419 60.938.594 88.578 4.228a848.435 848.435 0 0134.623 5.296c4.341.756 7.818 1.4 10.209 1.853a447.547 447.547 0 013.453.67l.179.035.045.01.011.001h.002c.001.001.001.001.235-1.155zM211.035 67.745c-26.334 2.386-58.842 11.236-84.713 19.462a836.436 836.436 0 00-32.324 11.024 682.848 682.848 0 00-9.482 3.528c-1.109.423-1.967.754-2.547.979-.29.113-.512.199-.66.258l-.169.066-.043.017-.01.004a.004.004 0 01-.004.001l.433 1.097.434 1.097.002-.001.01-.004.042-.016.165-.065.654-.255a418.5 418.5 0 012.533-.974c2.21-.842 5.425-2.05 9.449-3.515a832.827 832.827 0 0132.232-10.993c25.842-8.217 58.146-17 84.211-19.361l-.213-2.35z" fill="#F10160"/></g><g filter="url(#filter13_i_1_13786)"><path d="M478.488 155.407a1.18 1.18 0 00-1.543-.631l-9.789 4.104a1.18 1.18 0 00.912 2.175l8.701-3.648 3.648 8.701a1.18 1.18 0 002.176-.912l-4.105-9.789zm-51.213 66.674l.544 1.046-.544-1.046zM320.75 210.499a1.18 1.18 0 00-.928 2.168l.928-2.168zm156.651-54.636l-1.092-.446v.001l-.003.006-.011.027a4.445 4.445 0 01-.044.106l-.178.423c-.158.372-.394.922-.705 1.629a198.533 198.533 0 01-2.748 5.951c-2.402 4.995-5.907 11.811-10.319 19.097-8.86 14.629-21.25 30.933-35.57 38.378l1.088 2.092c14.937-7.766 27.61-24.57 36.499-39.248 4.462-7.367 8.002-14.253 10.428-19.297a201.174 201.174 0 002.78-6.022c.316-.717.557-1.278.719-1.66l.184-.436.047-.114.012-.029a.069.069 0 01.003-.008l.001-.002-1.091-.448zm-50.67 65.172c-9.076 4.718-20.204 6.471-31.876 6.395-11.661-.076-23.781-1.976-34.777-4.487-10.991-2.51-20.83-5.623-27.921-8.11a240.503 240.503 0 01-8.369-3.102 155.986 155.986 0 01-2.844-1.15l-.147-.062a.8.8 0 00-.036-.015l-.008-.004-.002-.001-.465 1.084c-.464 1.084-.463 1.085-.463 1.085l.003.001.011.005.039.016.155.066a149.962 149.962 0 002.893 1.17c1.992.783 4.876 1.879 8.452 3.133 7.15 2.507 17.076 5.649 28.177 8.183 11.096 2.534 23.397 4.469 35.287 4.546 11.88.077 23.435-1.698 32.979-6.661l-1.088-2.092z" fill="#F10160"/></g><g filter="url(#filter14_i_1_13786)"><path d="M182.204 262.439a1.18 1.18 0 10-.874 2.191l.874-2.191zm178.237 49.548l-.097 1.175.097-1.175zm185.329-18.48a1.18 1.18 0 00-.364-1.628l-8.963-5.686a1.18 1.18 0 10-1.263 1.992l7.966 5.054-5.054 7.967a1.179 1.179 0 101.992 1.263l5.686-8.962zm-364.003-29.972c-.437 1.095-.437 1.095-.436 1.096l.004.001.015.006.059.024.232.092a467.193 467.193 0 004.424 1.721 922.929 922.929 0 0013.08 4.905 1114.042 1114.042 0 0044.578 15.285c35.676 11.377 80.451 23.526 116.621 26.497l.193-2.351c-35.889-2.948-80.451-15.025-116.097-26.394a1111.998 1111.998 0 01-44.483-15.251 916.89 916.89 0 01-13.045-4.893 544.277 544.277 0 01-3.5-1.357l-.903-.356-.229-.091-.058-.022a.114.114 0 00-.014-.006l-.003-.001c-.001-.001-.001-.001-.438 1.095zm178.577 49.627c36.306 2.982 82.502-1.814 119.56-7.337a1092.869 1092.869 0 0046.463-7.971 895.53 895.53 0 0013.695-2.76 520.838 520.838 0 004.886-1.05l.062-.013.016-.004.004-.001-.256-1.151-.259-1.151-.003.001a.13.13 0 01-.015.003l-.06.014-.241.053c-.213.047-.53.117-.948.207-.836.182-2.071.448-3.671.784-3.198.672-7.85 1.626-13.659 2.753a1092.692 1092.692 0 01-46.362 7.953c-37.026 5.518-82.997 10.278-119.019 7.319l-.193 2.351z" fill="#F10160"/></g><rect x="393.448" y="96.475" width="168.781" height="36.598" rx="4.264" fill="#E5D9FF"/><g clip-path="url(#clip0_1_13786)"><path d="M412.212 125.009a10.21 10.21 0 0010.235-10.235 10.21 10.21 0 00-10.235-10.235 10.21 10.21 0 00-10.235 10.235 10.21 10.21 0 0010.235 10.235z" fill="#8851F8"/><path d="M410.938 117.959h-1.559l1.24-3.77.773 2.401-.454 1.369zm4.162-.006h-1.565l2.259-6.115h1.535l-2.229 6.115zm-6.249-6.158h-1.756l1.424 3.788.804-2.327-.472-1.461zm4.124-.007h-1.584l1.289 3.819.817-2.204-.522-1.615z" fill="#fff"/></g><path d="M433.298 112.142l-2.13-7.444h1.72l1.232 5.172h.061l1.36-5.172h1.472l1.355 5.183h.066l1.232-5.183h1.719l-2.13 7.444h-1.534l-1.417-4.867h-.058l-1.414 4.867h-1.534zm8.929 0v-7.444h4.929v1.298h-3.355v1.773h3.028v1.298h-3.028v3.075h-1.574zm12.555-4.838h-1.592a1.57 1.57 0 00-.178-.549c-.09-.162-.205-.3-.345-.414a1.533 1.533 0 00-.487-.262c-.182-.06-.38-.09-.593-.09-.385 0-.721.095-1.007.287-.286.189-.507.465-.665.828-.157.361-.236.8-.236 1.316 0 .531.079.977.236 1.338.16.361.383.633.669.817.286.184.617.277.992.277.211 0 .406-.028.585-.084a1.41 1.41 0 00.833-.64c.094-.155.16-.332.196-.53l1.592.007a2.962 2.962 0 01-.967 1.835 3.098 3.098 0 01-.981.589 3.607 3.607 0 01-1.283.215c-.664 0-1.258-.151-1.781-.451a3.207 3.207 0 01-1.236-1.305c-.3-.569-.451-1.259-.451-2.068 0-.812.153-1.502.458-2.072a3.2 3.2 0 011.243-1.301c.524-.3 1.113-.45 1.767-.45.431 0 .831.06 1.199.181.371.121.699.298.985.531.286.23.519.512.698.847.182.334.298.717.349 1.148z" fill="#03010F"/><path d="M432.456 119.444v4.962h-1.049v-4.962h1.049zm1.876 2.811v2.151H433.3v-3.721h.984v.656h.043c.083-.216.221-.388.415-.514a1.26 1.26 0 01.705-.191c.258 0 .484.057.676.17.192.113.342.274.448.484.107.209.16.457.16.747v2.369h-1.032v-2.185c.001-.228-.057-.406-.175-.533-.118-.13-.28-.194-.487-.194a.748.748 0 00-.368.089.626.626 0 00-.247.262.916.916 0 00-.09.41zm5.192-1.57v.775h-2.241v-.775h2.241zm-1.732-.892h1.032v3.47c0 .095.014.169.044.223a.242.242 0 00.121.109.496.496 0 00.184.031.887.887 0 00.145-.012l.112-.022.162.768a2.954 2.954 0 01-.218.056 1.74 1.74 0 01-.342.041 1.562 1.562 0 01-.654-.099.916.916 0 01-.434-.354 1.082 1.082 0 01-.152-.606v-3.605zm4.061 4.686c-.383 0-.713-.078-.989-.233a1.59 1.59 0 01-.635-.664c-.148-.287-.223-.627-.223-1.02 0-.382.075-.718.223-1.008.149-.289.358-.514.628-.676.271-.161.589-.242.955-.242.245 0 .474.04.685.119.213.077.399.194.558.351.159.157.284.354.373.591.088.236.133.512.133.829v.283h-3.143v-.639h2.171a.787.787 0 00-.097-.395.689.689 0 00-.269-.269.767.767 0 00-.395-.099.79.79 0 00-.416.109.754.754 0 00-.281.288.817.817 0 00-.105.4v.608c0 .184.034.343.102.477.07.134.167.238.293.31a.881.881 0 00.449.109.99.99 0 00.315-.048.626.626 0 00.399-.383l.955.063c-.048.23-.148.43-.298.601-.149.17-.341.302-.577.397a2.163 2.163 0 01-.811.141zm2.382-.073v-3.721h1v.649h.039a.957.957 0 01.342-.523c.16-.12.344-.18.552-.18a1.432 1.432 0 01.325.037v.915a1.426 1.426 0 00-.201-.038 1.698 1.698 0 00-.235-.017.826.826 0 00-.407.099.741.741 0 00-.282.271.796.796 0 00-.101.403v2.105h-1.032zm4.314.073c-.383 0-.712-.078-.988-.233a1.583 1.583 0 01-.635-.664c-.149-.287-.223-.627-.223-1.02 0-.382.074-.718.223-1.008.148-.289.358-.514.627-.676a1.84 1.84 0 01.955-.242c.246 0 .474.04.686.119.213.077.399.194.557.351.16.157.284.354.373.591.089.236.133.512.133.829v.283h-3.142v-.639h2.171a.787.787 0 00-.097-.395.695.695 0 00-.269-.269.77.77 0 00-.395-.099.791.791 0 00-.417.109.769.769 0 00-.281.288.816.816 0 00-.104.4v.608c0 .184.034.343.102.477a.738.738 0 00.293.31.877.877 0 00.448.109c.115 0 .22-.016.315-.048a.654.654 0 00.245-.145.638.638 0 00.155-.238l.955.063c-.049.23-.148.43-.298.601-.149.17-.341.302-.577.397a2.168 2.168 0 01-.812.141zm5.479-2.733l-.945.058a.485.485 0 00-.104-.218.567.567 0 00-.211-.158.723.723 0 00-.308-.06.756.756 0 00-.405.102c-.109.066-.164.155-.164.266 0 .089.035.164.106.225.071.062.193.111.366.148l.674.136c.362.074.631.194.809.359a.84.84 0 01.266.649c0 .244-.071.458-.215.642a1.396 1.396 0 01-.587.431 2.226 2.226 0 01-.855.153c-.493 0-.885-.103-1.177-.308a1.2 1.2 0 01-.512-.843l1.016-.053c.03.15.105.265.222.344a.816.816 0 00.454.116c.18 0 .326-.035.436-.104.111-.071.168-.162.169-.274a.283.283 0 00-.118-.23.87.87 0 00-.359-.141l-.645-.128c-.363-.073-.634-.199-.811-.378a.938.938 0 01-.264-.686c0-.239.064-.445.193-.618a1.25 1.25 0 01.551-.399c.237-.094.515-.141.833-.141.47 0 .84.099 1.11.298.271.199.429.469.475.812zm2.714-1.061v.775h-2.241v-.775h2.241zm-1.732-.892h1.032v3.47c0 .095.014.169.043.223.029.051.07.088.122.109a.496.496 0 00.184.031.887.887 0 00.145-.012l.112-.022.162.768a2.954 2.954 0 01-.218.056 1.74 1.74 0 01-.342.041 1.56 1.56 0 01-.654-.099.916.916 0 01-.434-.354 1.082 1.082 0 01-.152-.606v-3.605zm5.045 4.684c-.238 0-.449-.042-.635-.124a1.021 1.021 0 01-.441-.371 1.108 1.108 0 01-.16-.615c0-.207.038-.381.114-.521a.912.912 0 01.31-.339c.131-.086.28-.151.446-.194.168-.044.344-.075.528-.092.217-.023.391-.044.524-.063a.751.751 0 00.288-.092.204.204 0 00.09-.18v-.014a.445.445 0 00-.146-.356c-.095-.084-.231-.126-.407-.126-.186 0-.333.041-.443.123a.568.568 0 00-.218.305l-.955-.077a1.29 1.29 0 01.286-.586c.142-.167.325-.294.55-.383.226-.091.488-.136.785-.136.207 0 .405.024.594.073.19.048.359.123.506.225.149.102.266.233.351.393.086.158.129.348.129.569v2.51h-.979v-.516h-.029c-.06.116-.14.219-.24.308-.1.087-.221.156-.361.206a1.507 1.507 0 01-.487.073zm.296-.713c.151 0 .285-.03.402-.089a.723.723 0 00.274-.248.636.636 0 00.099-.351v-.395a.564.564 0 01-.133.058 2.333 2.333 0 01-.187.046l-.208.037-.189.026a1.29 1.29 0 00-.318.085.514.514 0 00-.211.158.382.382 0 00-.075.242c0 .14.051.248.153.322a.663.663 0 00.393.109zm4.282.715c-.381 0-.709-.081-.984-.242a1.645 1.645 0 01-.63-.679 2.198 2.198 0 01-.218-.998c0-.381.074-.716.221-1.003a1.63 1.63 0 01.632-.676c.273-.163.598-.245.974-.245.325 0 .609.059.853.177s.437.283.579.497c.142.213.221.463.235.751h-.974a.748.748 0 00-.218-.448.623.623 0 00-.458-.173.694.694 0 00-.419.131.832.832 0 00-.276.376 1.61 1.61 0 00-.099.598c0 .238.032.44.096.606.067.167.16.293.279.381.12.087.259.13.419.13a.69.69 0 00.318-.072.625.625 0 00.235-.211.803.803 0 00.123-.337h.974a1.521 1.521 0 01-.232.751 1.405 1.405 0 01-.57.504 1.903 1.903 0 01-.86.182zm4.005 0c-.381 0-.709-.081-.984-.242a1.645 1.645 0 01-.63-.679 2.198 2.198 0 01-.218-.998c0-.381.073-.716.22-1.003a1.64 1.64 0 01.633-.676c.273-.163.598-.245.974-.245.325 0 .609.059.853.177s.437.283.579.497c.142.213.22.463.235.751h-.974a.753.753 0 00-.218-.448.623.623 0 00-.458-.173c-.16 0-.3.044-.419.131a.841.841 0 00-.277.376 1.61 1.61 0 00-.099.598c0 .238.032.44.097.606a.839.839 0 00.279.381c.119.087.259.13.419.13a.682.682 0 00.317-.072.61.61 0 00.235-.211.804.804 0 00.124-.337h.974a1.522 1.522 0 01-.233.751 1.402 1.402 0 01-.569.504 1.903 1.903 0 01-.86.182zm4.004 0c-.376 0-.701-.08-.976-.24a1.632 1.632 0 01-.632-.674 2.163 2.163 0 01-.223-1.005c0-.385.074-.721.223-1.008a1.62 1.62 0 01.632-.674c.275-.161.6-.242.976-.242.377 0 .701.081.974.242.275.16.487.385.635.674.149.287.223.623.223 1.008 0 .381-.074.716-.223 1.005-.148.288-.36.513-.635.674-.273.16-.597.24-.974.24zm.005-.8a.642.642 0 00.429-.145.903.903 0 00.259-.402c.06-.17.09-.363.09-.579 0-.217-.03-.41-.09-.579a.9.9 0 00-.259-.403.638.638 0 00-.429-.147.659.659 0 00-.436.147.917.917 0 00-.264.403 1.78 1.78 0 00-.087.579c0 .216.029.409.087.579.06.169.148.303.264.402a.663.663 0 00.436.145zm4.885-.857v-2.137h1.032v3.721h-.991v-.676h-.039a1.094 1.094 0 01-.419.526c-.194.132-.43.199-.71.199-.248 0-.467-.057-.656-.17a1.171 1.171 0 01-.444-.482 1.673 1.673 0 01-.16-.749v-2.369h1.033v2.185c.001.22.06.393.176.521a.603.603 0 00.468.191.68.68 0 00.611-.341.782.782 0 00.099-.419zm2.89-.567v2.151h-1.032v-3.721h.984v.656h.043c.083-.216.221-.388.415-.514.193-.127.428-.191.705-.191.258 0 .483.057.676.17.192.113.341.274.448.484.107.209.16.457.16.747v2.369h-1.032v-2.185c.001-.228-.057-.406-.175-.533-.118-.13-.28-.194-.487-.194a.745.745 0 00-.368.089.62.62 0 00-.247.262.916.916 0 00-.09.41zm5.192-1.57v.775h-2.241v-.775h2.241zm-1.733-.892h1.033v3.47c0 .095.014.169.043.223.029.051.07.088.121.109a.505.505 0 00.185.031.887.887 0 00.145-.012l.111-.022.163.768a3.094 3.094 0 01-.218.056 1.74 1.74 0 01-.342.041 1.56 1.56 0 01-.654-.099.916.916 0 01-.434-.354 1.09 1.09 0 01-.153-.606v-3.605zm5.455 1.953l-.945.058a.485.485 0 00-.104-.218.551.551 0 00-.211-.158.718.718 0 00-.307-.06.756.756 0 00-.405.102c-.11.066-.165.155-.165.266 0 .089.036.164.107.225.071.062.193.111.366.148l.673.136c.362.074.632.194.81.359a.844.844 0 01.266.649c0 .244-.072.458-.216.642a1.393 1.393 0 01-.586.431 2.226 2.226 0 01-.855.153c-.493 0-.885-.103-1.178-.308a1.198 1.198 0 01-.511-.843l1.015-.053c.031.15.105.265.223.344a.814.814 0 00.453.116.81.81 0 00.436-.104c.112-.071.168-.162.17-.274a.284.284 0 00-.119-.23.864.864 0 00-.358-.141l-.645-.128c-.363-.073-.634-.199-.812-.378a.938.938 0 01-.264-.686c0-.239.065-.445.194-.618.131-.172.314-.306.55-.399.238-.094.515-.141.834-.141.47 0 .84.099 1.109.298.272.199.43.469.475.812z" fill="#03010F" fill-opacity=".8"/><path d="M503.015 117.232v-4.095h.815v4.095h-.815zm-1.638-1.642v-.811h4.095v.811h-4.095zm9.655 3.459v-7.753h.497v7.753h-.497zm1.554-5.349a.89.89 0 00-.4-.666c-.234-.159-.529-.239-.885-.239-.254 0-.474.04-.66.121a1.02 1.02 0 00-.433.327.772.772 0 00-.151.47c0 .147.034.274.103.381a.92.92 0 00.275.27c.115.07.238.13.37.178.131.047.257.085.378.116l.606.157c.198.048.401.114.609.197.208.083.401.192.578.327.178.135.321.303.43.503.111.2.167.439.167.718 0 .351-.091.663-.273.935a1.815 1.815 0 01-.784.646c-.341.157-.754.236-1.239.236-.464 0-.866-.074-1.205-.221a1.863 1.863 0 01-.797-.627 1.816 1.816 0 01-.318-.969h.939a.96.96 0 00.218.56c.129.147.294.257.494.33.202.071.423.106.663.106.265 0 .5-.041.706-.124.208-.085.371-.202.49-.351a.83.83 0 00.179-.53.651.651 0 00-.157-.452 1.175 1.175 0 00-.421-.291 4.162 4.162 0 00-.597-.202l-.733-.2c-.497-.136-.89-.335-1.181-.597-.289-.263-.433-.61-.433-1.042 0-.357.097-.669.29-.936.194-.266.457-.473.788-.621a2.703 2.703 0 011.121-.224c.42 0 .79.074 1.111.221.323.148.578.351.763.609.186.256.283.551.291.884h-.902zm4.374-1.629v6.203h-.939v-5.264h-.036l-1.485.969v-.896l1.548-1.012h.912zm2.51 5.355l-.046.33c-.03.242-.081.495-.154.757-.071.265-.144.51-.221.736-.075.226-.136.406-.185.539h-.642l.109-.509c.047-.212.092-.449.136-.711.045-.263.078-.53.1-.803l.031-.339h.872zm1.136-.364v-.757l2.681-4.234h.597v1.115h-.379l-1.917 3.034v.049h3.674v.793h-4.656zm2.941 1.212v-1.442l.006-.345v-4.416h.888v6.203h-.894zm2.64-1.212v-.757l2.68-4.234h.597v1.115h-.379l-1.917 3.034v.049h3.674v.793h-4.655zm2.941 1.212v-1.442l.006-.345v-4.416h.887v6.203h-.893zm4.935.085a2.506 2.506 0 01-.818-.152 1.918 1.918 0 01-.726-.484c-.219-.227-.393-.53-.524-.912-.13-.382-.194-.858-.194-1.43 0-.541.053-1.021.16-1.441.109-.42.266-.775.47-1.063.204-.291.45-.512.739-.664.288-.151.613-.227.972-.227.369 0 .698.073.984.218.287.146.519.347.697.603.18.256.294.548.342.875h-.924a1.191 1.191 0 00-.372-.633c-.186-.163-.428-.245-.727-.245-.454 0-.809.198-1.063.594-.253.395-.38.946-.382 1.65h.046a1.695 1.695 0 01.92-.736c.196-.068.402-.103.618-.103.36 0 .685.088.976.264.292.173.526.414.699.721a2.1 2.1 0 01.261 1.054c0 .395-.09.754-.27 1.075a1.98 1.98 0 01-.751.763c-.323.186-.701.277-1.133.273zm-.003-.788c.238 0 .451-.058.639-.175.188-.118.336-.275.445-.473.11-.198.164-.419.164-.663a1.33 1.33 0 00-.16-.651 1.212 1.212 0 00-.437-.467 1.16 1.16 0 00-.63-.173 1.217 1.217 0 00-.899.388 1.399 1.399 0 00-.273.418 1.336 1.336 0 00.064 1.139c.109.198.257.357.445.478.19.12.404.179.642.179zm3.585.76a.59.59 0 01-.427-.175.587.587 0 01-.178-.43c0-.166.059-.307.178-.424a.586.586 0 01.427-.179c.166 0 .308.06.428.179a.572.572 0 01.178.424.574.574 0 01-.085.306.632.632 0 01-.218.218.58.58 0 01-.303.081zm3.695.028c-.434 0-.818-.075-1.151-.224a1.897 1.897 0 01-.779-.618 1.494 1.494 0 01-.278-.897 1.582 1.582 0 01.612-1.278c.189-.149.401-.244.636-.285v-.036a1.249 1.249 0 01-.742-.497 1.45 1.45 0 01-.276-.884c-.002-.317.082-.6.251-.848.172-.251.407-.447.706-.591a2.337 2.337 0 011.021-.215c.377 0 .715.073 1.011.218.299.144.534.34.706.591.172.248.259.53.261.845a1.47 1.47 0 01-.285.884 1.261 1.261 0 01-.733.497v.036c.232.041.441.136.627.285a1.6 1.6 0 01.448.554c.113.22.171.462.173.724a1.52 1.52 0 01-.285.897 1.89 1.89 0 01-.781.618 2.757 2.757 0 01-1.142.224zm0-.767c.256 0 .478-.042.666-.127.188-.087.333-.207.436-.36a.983.983 0 00.158-.545 1.025 1.025 0 00-.17-.573 1.136 1.136 0 00-.445-.391 1.424 1.424 0 00-.645-.142c-.245 0-.462.048-.651.142-.19.095-.34.226-.449.391a1.002 1.002 0 00-.16.573.96.96 0 00.148.545c.103.153.25.273.439.36.19.085.414.127.673.127zm0-2.886c.206 0 .388-.041.548-.124a.943.943 0 00.518-.863.966.966 0 00-.139-.509.875.875 0 00-.373-.336 1.206 1.206 0 00-.554-.122c-.214 0-.402.041-.564.122a.878.878 0 00-.372.336.935.935 0 00-.13.509.95.95 0 00.133.518.943.943 0 00.376.345 1.2 1.2 0 00.557.124zm5.646-2.635v6.203h-.939v-5.264h-.036l-1.484.969v-.896l1.548-1.012h.911z" fill="#000"/><rect x="495.882" y="105.573" width="57.402" height="18.402" rx="2.995" stroke="#00934C" stroke-width=".833"/><rect x="235.318" y="151.085" width="169.831" height="36.825" rx="4.291" fill="#E5D9FF"/><g clip-path="url(#clip1_1_13786)"><path d="M254.198 179.796a10.274 10.274 0 0010.299-10.298 10.275 10.275 0 00-10.299-10.299 10.274 10.274 0 00-10.298 10.299 10.273 10.273 0 0010.298 10.298z" fill="#8851F8"/><path d="M252.915 172.702h-1.569l1.248-3.793.779 2.416-.458 1.377zm4.189-.006h-1.575l2.274-6.153h1.544l-2.243 6.153zm-6.289-6.196h-1.767l1.434 3.812.809-2.342-.476-1.47zm4.151-.006h-1.593l1.297 3.842.822-2.217-.526-1.625z" fill="#fff"/></g><path d="M275.415 166.852l-2.143-7.49h1.73l1.24 5.205h.062l1.368-5.205h1.481l1.364 5.216h.066l1.239-5.216h1.73l-2.143 7.49h-1.543l-1.426-4.897h-.059l-1.423 4.897h-1.543zm8.985 0v-7.49h4.959v1.306h-3.376v1.785h3.047v1.305h-3.047v3.094H284.4zm12.632-4.867h-1.601a1.566 1.566 0 00-.18-.553 1.416 1.416 0 00-.347-.417 1.54 1.54 0 00-.49-.263 1.876 1.876 0 00-.596-.091c-.388 0-.726.096-1.013.289-.288.19-.511.468-.67.833-.158.364-.237.805-.237 1.324 0 .534.079.983.237 1.346.161.363.386.638.673.823.288.185.621.278.999.278.212 0 .408-.028.589-.084.182-.056.345-.138.486-.245a1.43 1.43 0 00.351-.399c.095-.156.161-.334.198-.534l1.601.008a2.994 2.994 0 01-.972 1.846 3.112 3.112 0 01-.988.593c-.38.144-.811.216-1.291.216-.668 0-1.265-.152-1.792-.454a3.219 3.219 0 01-1.243-1.313c-.303-.573-.454-1.266-.454-2.081 0-.816.154-1.511.461-2.084a3.201 3.201 0 011.251-1.309 3.497 3.497 0 011.777-.454c.434 0 .836.061 1.207.183.373.122.703.3.991.534.288.231.522.516.702.852.183.336.3.722.351 1.156z" fill="#03010F"/><path d="M274.568 174.15v4.993h-1.056v-4.993h1.056zm1.888 2.828v2.165h-1.039v-3.745h.99v.661h.044c.083-.218.222-.39.417-.517.195-.128.431-.192.709-.192.26 0 .487.056.68.17.194.114.344.277.451.488.108.21.161.46.161.751v2.384h-1.038v-2.199c.001-.229-.057-.408-.176-.536-.119-.13-.282-.195-.49-.195a.75.75 0 00-.371.09.631.631 0 00-.248.263.898.898 0 00-.09.412zm5.224-1.58v.781h-2.255v-.781h2.255zm-1.743-.897h1.038v3.491a.48.48 0 00.044.225.24.24 0 00.122.109.485.485 0 00.185.032.91.91 0 00.147-.012l.112-.022.163.773a3.005 3.005 0 01-.219.056 1.688 1.688 0 01-.344.041c-.25.01-.47-.023-.658-.1a.92.92 0 01-.437-.355 1.088 1.088 0 01-.153-.61v-3.628zm4.086 4.715c-.385 0-.717-.078-.995-.234a1.603 1.603 0 01-.639-.668c-.149-.289-.224-.631-.224-1.026 0-.385.075-.723.224-1.014.15-.291.36-.518.632-.681.273-.162.593-.243.96-.243.247 0 .477.039.69.119.215.078.402.196.561.354.161.157.286.356.376.594.089.238.134.516.134.834v.286h-3.163v-.644h2.185a.799.799 0 00-.098-.398.7.7 0 00-.27-.27.769.769 0 00-.398-.1.792.792 0 00-.702.4.824.824 0 00-.105.402v.612c0 .185.035.345.103.48.07.135.168.239.295.312.127.074.277.11.451.11a.971.971 0 00.317-.049.647.647 0 00.246-.146.644.644 0 00.156-.239l.961.063a1.315 1.315 0 01-.3.605c-.15.171-.343.304-.58.4a2.195 2.195 0 01-.817.141zm2.396-.073v-3.745h1.007v.654h.039a.97.97 0 01.344-.527.905.905 0 01.556-.18 1.375 1.375 0 01.327.036v.922a1.883 1.883 0 00-.439-.056.83.83 0 00-.41.1.742.742 0 00-.283.273.791.791 0 00-.102.405v2.118h-1.039zm4.342.073c-.385 0-.717-.078-.995-.234a1.603 1.603 0 01-.639-.668c-.149-.289-.224-.631-.224-1.026 0-.385.075-.723.224-1.014a1.67 1.67 0 01.632-.681c.273-.162.593-.243.961-.243.247 0 .477.039.69.119.214.078.401.196.56.354.161.157.286.356.376.594.089.238.134.516.134.834v.286h-3.162v-.644h2.184a.798.798 0 00-.097-.398.703.703 0 00-.271-.27.768.768 0 00-.397-.1.793.793 0 00-.703.4.813.813 0 00-.104.402v.612c0 .185.034.345.102.48.07.135.168.239.295.312.127.074.277.11.451.11a.971.971 0 00.317-.049.62.62 0 00.402-.385l.961.063a1.315 1.315 0 01-.3.605c-.15.171-.343.304-.58.4a2.195 2.195 0 01-.817.141zm5.512-2.75l-.95.059a.505.505 0 00-.105-.22.57.57 0 00-.212-.158.717.717 0 00-.31-.061.761.761 0 00-.407.102c-.111.067-.166.156-.166.268 0 .09.036.165.107.227.072.062.195.112.369.149l.677.136c.364.075.636.196.815.361a.853.853 0 01.268.654c0 .245-.072.461-.217.646-.143.185-.34.33-.59.434a2.258 2.258 0 01-.861.153c-.496 0-.891-.103-1.185-.309a1.207 1.207 0 01-.514-.849l1.021-.053a.526.526 0 00.225.346c.118.078.27.117.456.117a.807.807 0 00.438-.105c.113-.071.17-.163.171-.275a.284.284 0 00-.119-.232.853.853 0 00-.361-.141l-.649-.13c-.365-.073-.638-.2-.816-.38a.94.94 0 01-.266-.69c0-.241.065-.448.195-.622.132-.174.316-.308.553-.402.239-.094.519-.141.839-.141.473 0 .845.1 1.117.299.273.2.432.473.477.817zm2.732-1.068v.781h-2.255v-.781h2.255zm-1.743-.897h1.038v3.491a.48.48 0 00.044.225.24.24 0 00.122.109.485.485 0 00.185.032.91.91 0 00.147-.012l.112-.022.163.773a3.005 3.005 0 01-.219.056 1.688 1.688 0 01-.344.041c-.25.01-.47-.023-.658-.1a.92.92 0 01-.437-.355 1.088 1.088 0 01-.153-.61v-3.628zm5.076 4.713a1.56 1.56 0 01-.639-.124 1.037 1.037 0 01-.443-.373 1.115 1.115 0 01-.161-.62c0-.208.038-.382.114-.524a.94.94 0 01.312-.341c.132-.086.282-.151.449-.195.169-.044.346-.075.532-.093.217-.023.393-.044.526-.063a.738.738 0 00.29-.093.205.205 0 00.091-.18v-.015a.447.447 0 00-.147-.358c-.096-.085-.232-.127-.409-.127-.187 0-.336.041-.447.124a.576.576 0 00-.219.307l-.961-.078a1.312 1.312 0 01.842-.975c.227-.091.49-.136.79-.136.208 0 .407.024.597.073.192.049.362.124.509.226.15.103.268.235.354.395.086.16.129.351.129.573v2.526h-.985v-.519h-.029c-.06.117-.141.22-.241.31a1.142 1.142 0 01-.364.207 1.49 1.49 0 01-.49.073zm.298-.717c.152 0 .287-.03.404-.09a.724.724 0 00.276-.249.638.638 0 00.1-.353v-.398a.571.571 0 01-.134.059 2.364 2.364 0 01-.188.046l-.21.037-.19.027a1.244 1.244 0 00-.319.085.512.512 0 00-.212.158.384.384 0 00-.076.244c0 .142.051.25.154.324.104.074.235.11.395.11zm4.309.719c-.384 0-.714-.081-.99-.243a1.653 1.653 0 01-.634-.683 2.212 2.212 0 01-.219-1.005c0-.383.074-.72.222-1.009.149-.291.361-.518.636-.68.275-.164.601-.246.98-.246.327 0 .613.059.858.178.246.118.44.285.583.499.143.215.222.467.236.756h-.98a.751.751 0 00-.219-.451.63.63 0 00-.461-.173.697.697 0 00-.422.132.844.844 0 00-.278.378c-.066.165-.1.366-.1.602 0 .239.033.442.098.609.067.168.16.295.28.383a.697.697 0 00.422.132.698.698 0 00.32-.073.63.63 0 00.236-.212.818.818 0 00.124-.339h.98a1.525 1.525 0 01-.234.755 1.408 1.408 0 01-.573.508 1.922 1.922 0 01-.865.182zm4.029 0c-.383 0-.713-.081-.989-.243a1.653 1.653 0 01-.634-.683 2.2 2.2 0 01-.22-1.005c0-.383.074-.72.222-1.009.15-.291.362-.518.637-.68.274-.164.601-.246.98-.246.326 0 .612.059.858.178.245.118.439.285.583.499.143.215.221.467.236.756h-.98a.758.758 0 00-.22-.451.628.628 0 00-.46-.173.695.695 0 00-.422.132.836.836 0 00-.278.378c-.067.165-.1.366-.1.602 0 .239.032.442.098.609.066.168.16.295.28.383.12.088.261.132.422.132a.694.694 0 00.319-.073.626.626 0 00.237-.212.832.832 0 00.124-.339h.98a1.525 1.525 0 01-.234.755 1.408 1.408 0 01-.573.508 1.927 1.927 0 01-.866.182zm4.03 0c-.379 0-.706-.08-.983-.241a1.658 1.658 0 01-.636-.678 2.19 2.19 0 01-.224-1.012c0-.386.075-.724.224-1.014a1.64 1.64 0 01.636-.678c.277-.162.604-.243.983-.243s.705.081.98.243c.276.161.489.387.639.678.149.29.224.628.224 1.014 0 .384-.075.721-.224 1.012-.15.29-.363.515-.639.678-.275.161-.601.241-.98.241zm.005-.804a.646.646 0 00.431-.146.907.907 0 00.261-.405c.06-.171.091-.365.091-.583 0-.218-.031-.412-.091-.583a.899.899 0 00-.261-.404.638.638 0 00-.431-.149c-.174 0-.32.05-.439.149a.915.915 0 00-.266.404 1.81 1.81 0 00-.087.583c0 .218.029.412.087.583.06.17.149.305.266.405a.672.672 0 00.439.146zm4.915-.863v-2.151h1.039v3.745h-.997v-.68h-.039a1.113 1.113 0 01-.422.529c-.195.133-.433.2-.715.2-.25 0-.47-.057-.66-.171a1.167 1.167 0 01-.447-.485 1.68 1.68 0 01-.16-.753v-2.385h1.038v2.2c.002.221.061.395.178.524a.607.607 0 00.471.192.678.678 0 00.614-.343.793.793 0 00.1-.422zm2.908-.571v2.165h-1.039v-3.745h.99v.661h.044c.083-.218.222-.39.417-.517.195-.128.432-.192.71-.192.26 0 .486.056.68.17.193.114.344.277.451.488.107.21.161.46.161.751v2.384h-1.039v-2.199c.002-.229-.057-.408-.175-.536-.119-.13-.282-.195-.49-.195-.14 0-.264.03-.371.09a.627.627 0 00-.249.263.925.925 0 00-.09.412zm5.224-1.58v.781h-2.255v-.781h2.255zm-1.743-.897h1.039v3.491c0 .096.014.171.044.225a.237.237 0 00.121.109.49.49 0 00.186.032.899.899 0 00.146-.012l.112-.022.164.773a3.056 3.056 0 01-.22.056 1.68 1.68 0 01-.344.041c-.25.01-.469-.023-.658-.1a.918.918 0 01-.436-.355 1.088 1.088 0 01-.154-.61v-3.628zm5.489 1.965l-.951.059a.484.484 0 00-.105-.22.563.563 0 00-.212-.158.714.714 0 00-.31-.061.764.764 0 00-.407.102c-.11.067-.166.156-.166.268 0 .09.036.165.108.227.071.062.194.112.368.149l.678.136c.364.075.635.196.814.361a.85.85 0 01.268.654c0 .245-.072.461-.217.646-.143.185-.34.33-.59.434a2.254 2.254 0 01-.861.153c-.495 0-.89-.103-1.184-.309a1.205 1.205 0 01-.515-.849l1.022-.053a.524.524 0 00.224.346.817.817 0 00.456.117.813.813 0 00.439-.105c.112-.071.169-.163.17-.275a.284.284 0 00-.119-.232.847.847 0 00-.361-.141l-.648-.13c-.366-.073-.638-.2-.817-.38a.943.943 0 01-.266-.69c0-.241.065-.448.195-.622.132-.174.316-.308.554-.402.238-.094.518-.141.838-.141.473 0 .845.1 1.117.299.273.2.432.473.478.817z" fill="#03010F" fill-opacity=".8"/><path d="M347.788 169.481v.792h-2.767v-.792h2.767zm5.4 4.297v-7.802h.5v7.802h-.5zm1.563-5.382a.889.889 0 00-.402-.671c-.236-.16-.532-.24-.89-.24-.256 0-.478.04-.664.122a1.019 1.019 0 00-.436.329.773.773 0 00-.153.472c0 .148.035.276.104.384a.93.93 0 00.277.271c.116.071.24.131.372.18.132.047.259.085.381.116l.61.158c.199.049.403.115.612.199.209.083.403.193.582.329.179.136.323.304.433.506.112.201.168.441.168.722 0 .353-.092.667-.275.942-.18.274-.444.49-.789.649-.343.158-.759.237-1.246.237-.468 0-.872-.074-1.213-.222a1.865 1.865 0 01-.802-.631 1.824 1.824 0 01-.32-.975h.945a.967.967 0 00.219.564c.13.148.296.259.497.332.203.071.426.107.667.107.267 0 .503-.042.711-.125a1.2 1.2 0 00.493-.354c.12-.152.18-.33.18-.533a.655.655 0 00-.158-.454 1.17 1.17 0 00-.424-.293 4.2 4.2 0 00-.6-.204l-.738-.201c-.5-.136-.896-.337-1.188-.601-.291-.264-.436-.613-.436-1.048 0-.36.097-.674.292-.942.195-.268.459-.476.793-.624a2.7 2.7 0 011.127-.226c.423 0 .796.074 1.119.222.325.149.581.353.768.613.187.258.284.555.292.89h-.908zm4.402-1.64v6.242h-.945v-5.297h-.037l-1.493.975v-.902l1.557-1.018h.918zm2.525 5.388l-.045.333a5.492 5.492 0 01-.156.762 18.424 18.424 0 01-.408 1.283h-.646l.109-.512c.047-.214.093-.452.138-.717.044-.264.078-.533.1-.807l.031-.342h.877zm1.144-.365v-.762l2.697-4.261h.6v1.122h-.381l-1.929 3.054v.048h3.697v.799h-4.684zm2.959 1.219v-1.451l.006-.347v-4.444h.893v6.242h-.899zm2.656-1.219v-.762l2.697-4.261h.601v1.122h-.381l-1.929 3.054v.048h3.696v.799h-4.684zm2.959 1.219v-1.451l.006-.347v-4.444h.893v6.242h-.899zm4.966.085a2.524 2.524 0 01-.822-.152 1.93 1.93 0 01-.732-.488c-.219-.227-.395-.533-.527-.917-.13-.384-.195-.864-.195-1.439 0-.544.054-1.028.161-1.45a3.27 3.27 0 01.473-1.07c.205-.293.453-.515.743-.667a2.07 2.07 0 01.979-.229c.371 0 .702.073.99.219.289.147.522.349.701.607.181.258.296.552.344.881h-.929a1.2 1.2 0 00-.375-.637c-.187-.165-.431-.247-.731-.247-.458 0-.814.199-1.07.597-.254.398-.382.952-.384 1.661h.046c.107-.177.239-.327.396-.451a1.842 1.842 0 011.152-.393c.361 0 .689.088.981.265.295.175.529.417.704.725.175.309.262.663.262 1.061 0 .398-.09.759-.271 1.082a1.992 1.992 0 01-.756.768c-.325.187-.705.278-1.14.274zm-.003-.792c.24 0 .454-.059.643-.177a1.27 1.27 0 00.448-.475c.11-.2.165-.422.165-.668 0-.24-.054-.458-.162-.655a1.213 1.213 0 00-.438-.469 1.17 1.17 0 00-.634-.174 1.217 1.217 0 00-.905.39 1.387 1.387 0 00-.275.421 1.348 1.348 0 00.064 1.145c.11.2.259.36.448.482.191.12.407.18.646.18zm3.608.765a.591.591 0 01-.43-.177.59.59 0 01-.18-.433c0-.166.06-.309.18-.426.12-.12.263-.18.43-.18.167 0 .31.06.43.18.12.117.179.26.179.426a.578.578 0 01-.085.308.63.63 0 01-.219.219.582.582 0 01-.305.083zm3.717.027c-.437 0-.823-.075-1.158-.225a1.904 1.904 0 01-.783-.622 1.495 1.495 0 01-.28-.902 1.59 1.59 0 01.615-1.286c.191-.151.404-.246.64-.287v-.036a1.26 1.26 0 01-.747-.5 1.469 1.469 0 01-.277-.89 1.457 1.457 0 01.253-.853c.173-.252.409-.45.71-.595a2.35 2.35 0 011.027-.216c.38 0 .719.073 1.018.219.301.145.538.343.71.595.173.25.26.533.262.85a1.483 1.483 0 01-.286.89 1.27 1.27 0 01-.738.5v.036c.234.041.444.136.631.287.189.148.339.334.451.557a1.6 1.6 0 01.174.729 1.528 1.528 0 01-.287.902 1.894 1.894 0 01-.786.622c-.333.15-.716.225-1.149.225zm0-.771c.258 0 .482-.043.671-.128.189-.087.335-.208.439-.363a.99.99 0 00.158-.548 1.023 1.023 0 00-.171-.576 1.127 1.127 0 00-.448-.393 1.412 1.412 0 00-.649-.144c-.246 0-.464.048-.655.144a1.13 1.13 0 00-.451.393c-.11.166-.164.358-.162.576a.962.962 0 00.15.548c.103.155.251.276.442.363.191.085.416.128.676.128zm0-2.904c.207 0 .391-.042.552-.125a.955.955 0 00.521-.869.97.97 0 00-.14-.512.897.897 0 00-.375-.338 1.223 1.223 0 00-.558-.122c-.215 0-.404.041-.567.122a.889.889 0 00-.374.338.94.94 0 00-.132.512.949.949 0 00.135.521.946.946 0 00.377.348c.163.083.35.125.561.125zm5.682-2.652v6.242h-.945v-5.297h-.037l-1.493.975v-.902l1.557-1.018h.918z" fill="#000"/><rect x="339.687" y="160.267" width="56.461" height="18.461" rx="3.014" stroke="red" stroke-width=".838"/><defs><filter id="filter0_f_1_13786" x=".989" y="23.411" width="161.053" height="161.002" filterUnits="userSpaceOnUse" color-interpolation-filters="sRGB"><feFlood flood-opacity="0" result="BackgroundImageFix"/><feBlend in="SourceGraphic" in2="BackgroundImageFix" result="shape"/><feGaussianBlur stdDeviation="29.483" result="effect1_foregroundBlur_1_13786"/></filter><filter id="filter1_f_1_13786" x="101.24" y="183.303" width="161.053" height="161.002" filterUnits="userSpaceOnUse" color-interpolation-filters="sRGB"><feFlood flood-opacity="0" result="BackgroundImageFix"/><feBlend in="SourceGraphic" in2="BackgroundImageFix" result="shape"/><feGaussianBlur stdDeviation="29.483" result="effect1_foregroundBlur_1_13786"/></filter><filter id="filter2_f_1_13786" x="464.518" y="212.374" width="161.053" height="161.002" filterUnits="userSpaceOnUse" color-interpolation-filters="sRGB"><feFlood flood-opacity="0" result="BackgroundImageFix"/><feBlend in="SourceGraphic" in2="BackgroundImageFix" result="shape"/><feGaussianBlur stdDeviation="29.483" result="effect1_foregroundBlur_1_13786"/></filter><filter id="filter3_f_1_13786" x="268.327" y=".8" width="161.053" height="161.002" filterUnits="userSpaceOnUse" color-interpolation-filters="sRGB"><feFlood flood-opacity="0" result="BackgroundImageFix"/><feBlend in="SourceGraphic" in2="BackgroundImageFix" result="shape"/><feGaussianBlur stdDeviation="29.483" result="effect1_foregroundBlur_1_13786"/></filter><filter id="filter4_f_1_13786" x="397.145" y="75.632" width="161.053" height="161.002" filterUnits="userSpaceOnUse" color-interpolation-filters="sRGB"><feFlood flood-opacity="0" result="BackgroundImageFix"/><feBlend in="SourceGraphic" in2="BackgroundImageFix" result="shape"/><feGaussianBlur stdDeviation="29.483" result="effect1_foregroundBlur_1_13786"/></filter><filter id="filter5_f_1_13786" x="239.76" y="131.082" width="161.053" height="161.002" filterUnits="userSpaceOnUse" color-interpolation-filters="sRGB"><feFlood flood-opacity="0" result="BackgroundImageFix"/><feBlend in="SourceGraphic" in2="BackgroundImageFix" result="shape"/><feGaussianBlur stdDeviation="29.483" result="effect1_foregroundBlur_1_13786"/></filter><filter id="filter6_i_1_13786" x="76.125" y="96.17" width="10.78" height="13.126" filterUnits="userSpaceOnUse" color-interpolation-filters="sRGB"><feFlood flood-opacity="0" result="BackgroundImageFix"/><feBlend in="SourceGraphic" in2="BackgroundImageFix" result="shape"/><feColorMatrix in="SourceAlpha" values="0 0 0 0 0 0 0 0 0 0 0 0 0 0 0 0 0 0 127 0" result="hardAlpha"/><feOffset dy="-2.359"/><feGaussianBlur stdDeviation="1.179"/><feComposite in2="hardAlpha" operator="arithmetic" k2="-1" k3="1"/><feColorMatrix values="0 0 0 0 0 0 0 0 0 0 0 0 0 0 0 0 0 0 0.25 0"/><feBlend in2="shape" result="effect1_innerShadow_1_13786"/></filter><filter id="filter7_i_1_13786" x="342.924" y="73.559" width="10.78" height="13.126" filterUnits="userSpaceOnUse" color-interpolation-filters="sRGB"><feFlood flood-opacity="0" result="BackgroundImageFix"/><feBlend in="SourceGraphic" in2="BackgroundImageFix" result="shape"/><feColorMatrix in="SourceAlpha" values="0 0 0 0 0 0 0 0 0 0 0 0 0 0 0 0 0 0 127 0" result="hardAlpha"/><feOffset dy="-2.359"/><feGaussianBlur stdDeviation="1.179"/><feComposite in2="hardAlpha" operator="arithmetic" k2="-1" k3="1"/><feColorMatrix values="0 0 0 0 0 0 0 0 0 0 0 0 0 0 0 0 0 0 0.25 0"/><feBlend in2="shape" result="effect1_innerShadow_1_13786"/></filter><filter id="filter8_i_1_13786" x="472.28" y="148.39" width="10.78" height="13.126" filterUnits="userSpaceOnUse" color-interpolation-filters="sRGB"><feFlood flood-opacity="0" result="BackgroundImageFix"/><feBlend in="SourceGraphic" in2="BackgroundImageFix" result="shape"/><feColorMatrix in="SourceAlpha" values="0 0 0 0 0 0 0 0 0 0 0 0 0 0 0 0 0 0 127 0" result="hardAlpha"/><feOffset dy="-2.359"/><feGaussianBlur stdDeviation="1.179"/><feComposite in2="hardAlpha" operator="arithmetic" k2="-1" k3="1"/><feColorMatrix values="0 0 0 0 0 0 0 0 0 0 0 0 0 0 0 0 0 0 0.25 0"/><feBlend in2="shape" result="effect1_innerShadow_1_13786"/></filter><filter id="filter9_i_1_13786" x="314.897" y="203.841" width="10.78" height="13.126" filterUnits="userSpaceOnUse" color-interpolation-filters="sRGB"><feFlood flood-opacity="0" result="BackgroundImageFix"/><feBlend in="SourceGraphic" in2="BackgroundImageFix" result="shape"/><feColorMatrix in="SourceAlpha" values="0 0 0 0 0 0 0 0 0 0 0 0 0 0 0 0 0 0 127 0" result="hardAlpha"/><feOffset dy="-2.359"/><feGaussianBlur stdDeviation="1.179"/><feComposite in2="hardAlpha" operator="arithmetic" k2="-1" k3="1"/><feColorMatrix values="0 0 0 0 0 0 0 0 0 0 0 0 0 0 0 0 0 0 0.25 0"/><feBlend in2="shape" result="effect1_innerShadow_1_13786"/></filter><filter id="filter10_i_1_13786" x="176.274" y="255.809" width="10.78" height="13.126" filterUnits="userSpaceOnUse" color-interpolation-filters="sRGB"><feFlood flood-opacity="0" result="BackgroundImageFix"/><feBlend in="SourceGraphic" in2="BackgroundImageFix" result="shape"/><feColorMatrix in="SourceAlpha" values="0 0 0 0 0 0 0 0 0 0 0 0 0 0 0 0 0 0 127 0" result="hardAlpha"/><feOffset dy="-2.359"/><feGaussianBlur stdDeviation="1.179"/><feComposite in2="hardAlpha" operator="arithmetic" k2="-1" k3="1"/><feColorMatrix values="0 0 0 0 0 0 0 0 0 0 0 0 0 0 0 0 0 0 0.25 0"/><feBlend in2="shape" result="effect1_innerShadow_1_13786"/></filter><filter id="filter11_i_1_13786" x="539.551" y="284.88" width="10.78" height="13.126" filterUnits="userSpaceOnUse" color-interpolation-filters="sRGB"><feFlood flood-opacity="0" result="BackgroundImageFix"/><feBlend in="SourceGraphic" in2="BackgroundImageFix" result="shape"/><feColorMatrix in="SourceAlpha" values="0 0 0 0 0 0 0 0 0 0 0 0 0 0 0 0 0 0 127 0" result="hardAlpha"/><feOffset dy="-2.359"/><feGaussianBlur stdDeviation="1.179"/><feComposite in2="hardAlpha" operator="arithmetic" k2="-1" k3="1"/><feColorMatrix values="0 0 0 0 0 0 0 0 0 0 0 0 0 0 0 0 0 0 0.25 0"/><feBlend in2="shape" result="effect1_innerShadow_1_13786"/></filter><filter id="filter12_i_1_13786" x="80.336" y="64.506" width="269.427" height="45.077" filterUnits="userSpaceOnUse" color-interpolation-filters="sRGB"><feFlood flood-opacity="0" result="BackgroundImageFix"/><feBlend in="SourceGraphic" in2="BackgroundImageFix" result="shape"/><feColorMatrix in="SourceAlpha" values="0 0 0 0 0 0 0 0 0 0 0 0 0 0 0 0 0 0 127 0" result="hardAlpha"/><feOffset dy="-2.359"/><feGaussianBlur stdDeviation="1.179"/><feComposite in2="hardAlpha" operator="arithmetic" k2="-1" k3="1"/><feColorMatrix values="0 0 0 0 0 0 0 0 0 0 0 0 0 0 0 0 0 0 0.3 0"/><feBlend in2="shape" result="effect1_innerShadow_1_13786"/></filter><filter id="filter13_i_1_13786" x="319.107" y="152.325" width="163.578" height="77.466" filterUnits="userSpaceOnUse" color-interpolation-filters="sRGB"><feFlood flood-opacity="0" result="BackgroundImageFix"/><feBlend in="SourceGraphic" in2="BackgroundImageFix" result="shape"/><feColorMatrix in="SourceAlpha" values="0 0 0 0 0 0 0 0 0 0 0 0 0 0 0 0 0 0 127 0" result="hardAlpha"/><feOffset dy="-2.359"/><feGaussianBlur stdDeviation="1.179"/><feComposite in2="hardAlpha" operator="arithmetic" k2="-1" k3="1"/><feColorMatrix values="0 0 0 0 0 0 0 0 0 0 0 0 0 0 0 0 0 0 0.3 0"/><feBlend in2="shape" result="effect1_innerShadow_1_13786"/></filter><filter id="filter14_i_1_13786" x="180.587" y="259.996" width="365.366" height="54.081" filterUnits="userSpaceOnUse" color-interpolation-filters="sRGB"><feFlood flood-opacity="0" result="BackgroundImageFix"/><feBlend in="SourceGraphic" in2="BackgroundImageFix" result="shape"/><feColorMatrix in="SourceAlpha" values="0 0 0 0 0 0 0 0 0 0 0 0 0 0 0 0 0 0 127 0" result="hardAlpha"/><feOffset dy="-2.359"/><feGaussianBlur stdDeviation="1.179"/><feComposite in2="hardAlpha" operator="arithmetic" k2="-1" k3="1"/><feColorMatrix values="0 0 0 0 0 0 0 0 0 0 0 0 0 0 0 0 0 0 0.3 0"/><feBlend in2="shape" result="effect1_innerShadow_1_13786"/></filter><clipPath id="clip0_1_13786"><path fill="#fff" transform="translate(401.977 104.539)" d="M0 0h20.47v20.47H0z"/></clipPath><clipPath id="clip1_1_13786"><path fill="#fff" transform="translate(243.9 159.199)" d="M0 0h20.597v20.597H0z"/></clipPath></defs></svg>