<svg width="553" height="506" viewBox="0 0 553 506" fill="none" xmlns="http://www.w3.org/2000/svg"><path opacity=".2" fill-rule="evenodd" clip-rule="evenodd" d="M84.39 6.075L46.476 27.94v41.694L84.212 91.4l35.441-20.44V26.412L84.39 6.075zm1.962 133.776V98.475l37.258-21.488 33.269 19.188v46.846l-31.818 18.351-38.012-21.923-.697.402zm75.692 6.893l-31.819 18.351v42.862l32.604 18.804 33.934-19.57v-40.424l-34.719-20.023zm44.611 67.802l32.644 18.828v37.924l-37.25 21.484-34.599-19.954v-35.671l39.205-22.611zm-6.057-3.493l.79.456-33.938 19.573v-.911l33.148-19.118zm43.963 20.024l33.956-19.584 31.253 18.044v44.824l-31.941 18.421-33.268-19.187v-42.518zm107.534-64.027v37.966l-37.156 21.429-31.824-18.373v-41.144l34.385-19.852 34.595 19.974zm36.113-68.513v41.925L354.5 159.924l-34.159-19.722v-39.838l35.534-20.494 32.333 18.667zm-35.896-69.469v45.195l-34.197 19.743-37.479-21.616V29.731l36.413-21 35.263 20.337zm1.654-5.12L395.488 0l40.858 23.564 36.252-20.908 43.176 24.902v44.934L553 93.962v49.803l-39.885 23.003v41.189l37.225 21.47v49.803l-37.225 21.469v40.627l38.555 22.237v49.803l-37.226 21.47v46.262L471.268 506l-39.219-22.619L392.83 506l-40.858-23.565-36.253 20.909-39.872-22.996-39.872 22.996-34.935-20.149L161.5 506l-38.555-22.236L84.39 506l-43.176-24.902v-43.401L1.33 414.694v-49.803l42.543-24.536v-38.122L3.988 279.23v-49.803l39.885-23.004v-39.486l-.697.402L0 142.437V92.634l41.214-23.77V24.902L84.39 0l39.22 22.62L162.829 0l40.766 23.511L239.5 3l38.66 22.085 38.889-22.429 36.917 21.292zm6.259 49.246V27.558l-.993-.573 36.256-20.91 35.591 20.527-1.657.956V71.52l-36.05 20.791-33.147-19.117zm34.545 68.694V99.192l.718.414 36.252-20.908 34.907 20.133v41.188l-37.577 21.672-34.3-19.803zm-37 63.562v-39.9l32.936-19.016 34.936 20.149v38.529L391.5 224.924l-33.73-19.474zm-42.738 27.125L317.5 234l37.989-21.933 31.389 18.103v44.191l-32.604 18.805-38.555-22.237-.687.397v-38.751zM206.006 71.805v-43.61L239.5 9.06l34.372 19.636v42.608L239.5 90.94l-33.494-19.135zm-8.563 86.841l-31.322-18.065V97.708l36.537-21.072 31.837 18.362-.507.292v42.279l-36.545 21.077zm9.892 5.822l30.124-17.373 39.705 22.9.066-.038v36.204l-36.504 21.054-33.391-19.258v-43.489zm-5.262 3.035v37.419l-.048-.028v-37.363l.048-.028zm-3.709-140.934L162.829 6.075l-35.263 20.337v45.313L161.5 91.297l36.864-21.26V26.568zm229.728 453.019v-41.891l-38.23-22.049-30.967 17.86v44.934l-1.657.956 35.592 20.527 35.262-20.337zm3.292-131.289l-35.263 20.338v39.655l35.928 20.721 33.269-19.187V367.87l-33.934-19.571zm-43.176 19.572l-33.934-19.572-35.263 20.338v36.999l37.566 21.666 31.631-18.243v-41.188zm-38.555-65.639l-38.838-22.4-27.72 15.987.02.012v47.029l30.124 17.374 36.414-21.002v-37zm121.615 197.693l-35.262-20.337V436.93l35.085-20.234 37.403 21.572.688-.398v40.189l-37.914 21.866zm40.979-69.897l-37.686-21.735V367.87l37.022-21.353 34.825 20.086v43.723l-34.161 19.702zm-4.394-90.997l-39.065 22.53-32.783-18.907v-41.955l32.604-18.804 38.555 22.236.689-.397v35.297zm-81.091-36.798v40.422l-32.295 18.626-35.572-20.515V300.7l32.605-18.805 35.262 20.338zm-229.999-.767v43.754l-32.983 19.022-33.555-19.352v-44.191l32.604-18.804 33.934 19.571zm5.286 41.142l-.024-.014v-38.832l.048-.028v38.86l-.024.014zm5.266 3.038l.02-.012v-44.935l36.845-21.249 28.383 16.369-.02.012v44.729l-37.023 21.353-28.205-16.267zm-41.58 23.981l34.995-20.183 31.929 18.415v40.74l-32.841 18.94-34.083-19.657v-38.255zm-78.053.543l37.866-21.838 33.981 19.599v39.599l-36.584 21.1-35.263-20.337V370.17zm33.301-29.816v-38.121l-35.264-20.338-36.584 21.099v39.6l33.982 19.599 37.866-21.839zM49.135 205.662l36.584 21.099 35.264-20.338v-38.888l-36.05-20.791-35.798 20.646v38.272zm41.205 24.509v.912l30.643-17.673v-.912L90.34 230.171zm0 6.986v35.67l35.264 20.339 32.604-18.805v-38.738l-32.604-18.804-35.264 20.338zm-81.09-4.691l34.623-19.968v1.656l37.225 21.469v38.739l-37.225 21.469v.328L9.25 276.19v-43.724zM41.417 74.822l38.352 22.12v43.217l-36.593 21.105-37.914-21.867V95.673l36.155-20.851zm236.412 224.035l-.024.014v40.927l.048.027v-40.954l-.024-.014zM195.08 432.586l.651-.375-30.94-17.844v.327l-37.225 21.47v44.19l33.934 19.571 34.274-19.767-.694-.4v-47.172zm154.574 2.456l-34.113-19.675-37.736 21.764v38.271l37.914 21.867 33.935-19.572v-42.655zm-231.33 45.312v-42.657L83.061 417.36l-36.585 21.1v39.599l37.914 21.866 33.934-19.571zm117.651 17.236l-31.299-18.052v-46.733l30.844-17.789 36.366 20.974v40.889l-35.911 20.711zM78.439 409.826l-37.225 21.469v.327L6.592 411.655v-43.724l37.914-21.867 33.933 19.57v44.192zm160.193-40.044v40.75l33.911 19.558v-1.451l37.226-21.47v-40.065l-31.94-18.421-37.89 21.853-1.307-.754zm157.49-96.953l35.262 20.337 32.604-18.805v-40.066l-37.226-21.469v-.328l-30.64 17.672v42.659zM507.853 167.53l-36.098-20.819-39.73 22.914v36.036l36.584 21.1 38.555-22.236.689.397V167.53zm1.97-98.47l.689.397v-38.86L472.598 8.731 438.664 28.3v46.286l30.788 17.757 40.371-23.284zm37.914 71.665l-36.641 21.133-36.536-21.072v-39.655l40.168-23.167 33.009 19.038v43.723zm-74.506 95.104v36.999l38.838 22.4 33.009-19.038v-43.724l-33.009-19.037-38.838 22.4zM243.232 96.033v40.003l39.883 23.002v1.45l31.115-17.945v-41.906l-39.49-22.776-31.508 18.172zm0 47.732l-.507.292 34.439 19.863.689-.397v-1.445l-34.621-19.968v1.655z" fill="#4226C3"/><rect x="14.592" y="114.215" width="268.555" height="184.604" rx="10" fill="#E5D9FF"/><g clip-path="url(#clip0_1_13970)"><path d="M52.592 193.017c9.975 0 18-8.025 18-18s-8.025-18-18-18-18 8.025-18 18 8.025 18 18 18z" fill="#8851F8"/><path d="M50.69 181.017h-3.098l2.464-7 1.536 4.458-.902 2.542zm6.79 0h-2.888l4.169-11h2.831l-4.111 11zm-10.736-11h-3.152l2.557 7 1.443-4.3-.848-2.7zm7.857 0h-3.009l2.45 7 1.55-4.04-.991-2.96z" fill="#fff"/></g><path d="M86.038 184.017l-4.994-17.454h4.031l2.89 12.127h.144l3.188-12.127h3.452l3.178 12.153h.154l2.889-12.153h4.031l-4.994 17.454H96.41l-3.323-11.412h-.137l-3.315 11.412h-3.597zm20.939 0v-17.454h11.556v3.042h-7.866v4.159h7.099v3.043h-7.099v7.21h-3.69zm29.439-11.344h-3.733a3.651 3.651 0 00-.417-1.287 3.3 3.3 0 00-.81-.971 3.566 3.566 0 00-1.142-.614 4.368 4.368 0 00-1.389-.213c-.904 0-1.691.225-2.361.673-.671.444-1.19 1.091-1.56 1.944-.369.846-.554 1.875-.554 3.085 0 1.244.185 2.29.554 3.136.375.847.898 1.486 1.568 1.918.671.432 1.446.648 2.327.648a4.59 4.59 0 001.372-.197 3.6 3.6 0 001.134-.571c.329-.255.602-.565.818-.929.222-.363.375-.778.46-1.244l3.733.017a6.961 6.961 0 01-2.267 4.304c-.642.58-1.409 1.04-2.301 1.381-.886.335-1.889.503-3.009.503-1.556 0-2.948-.353-4.176-1.057-1.221-.705-2.187-1.725-2.897-3.06-.705-1.335-1.057-2.951-1.057-4.849 0-1.904.358-3.523 1.074-4.858.716-1.335 1.687-2.352 2.914-3.051 1.228-.705 2.608-1.057 4.142-1.057 1.012 0 1.949.142 2.813.426a7.148 7.148 0 012.31 1.244 6.405 6.405 0 011.636 1.986c.426.784.699 1.682.818 2.693z" fill="#03010F"/><path d="M216.159 181.017v-11.636h7.704v2.028h-5.244v2.773h4.733v2.028h-4.733v4.807h-2.46zm9.359 0v-11.636h4.591c.879 0 1.629.157 2.25.471a3.27 3.27 0 011.426 1.324c.33.568.495 1.237.495 2.006 0 .773-.167 1.437-.5 1.994-.334.553-.817.977-1.449 1.273-.629.295-1.39.443-2.284.443h-3.074v-1.977h2.676c.47 0 .86-.065 1.17-.193.311-.129.542-.322.694-.58.155-.257.232-.578.232-.96 0-.387-.077-.712-.232-.977a1.433 1.433 0 00-.699-.603c-.311-.14-.703-.21-1.176-.21h-1.66v9.625h-2.46zm6.284-5.295l2.892 5.295h-2.716l-2.829-5.295h2.653zm14.909-.523c0 1.269-.24 2.348-.721 3.239-.477.89-1.129 1.57-1.955 2.039-.822.466-1.746.699-2.772.699-1.035 0-1.963-.235-2.785-.704-.822-.47-1.471-1.15-1.948-2.04-.478-.89-.716-1.968-.716-3.233 0-1.269.238-2.349.716-3.239.477-.89 1.126-1.568 1.948-2.034.822-.47 1.75-.704 2.785-.704 1.026 0 1.95.234 2.772.704.826.466 1.478 1.144 1.955 2.034.481.89.721 1.97.721 3.239zm-2.494 0c0-.822-.123-1.515-.369-2.08-.243-.564-.585-.992-1.029-1.284-.443-.291-.962-.437-1.556-.437-.595 0-1.114.146-1.557.437-.443.292-.788.72-1.034 1.284-.243.565-.364 1.258-.364 2.08 0 .822.121 1.515.364 2.079.246.565.591.993 1.034 1.285.443.291.962.437 1.557.437.594 0 1.113-.146 1.556-.437.444-.292.786-.72 1.029-1.285.246-.564.369-1.257.369-2.079zm4.317-5.818h3.034l3.204 7.818h.137l3.204-7.818h3.034v11.636h-2.386v-7.574h-.096l-3.012 7.517h-1.625l-3.011-7.545h-.097v7.602h-2.386v-11.636z" fill="#03010F" fill-opacity=".8"/><path d="M41.87 237.199v-21.818h1.398v21.818h-1.397zm3.708-14.617c-.068-.687-.36-1.221-.878-1.602-.517-.381-1.219-.571-2.105-.571-.602 0-1.11.085-1.525.256-.415.165-.733.395-.955.69a1.664 1.664 0 00-.324 1.006 1.44 1.44 0 00.196.818c.148.233.35.435.605.605.256.165.551.31.887.435a9.41 9.41 0 001.074.307l1.568.375c.761.17 1.46.397 2.096.681a6.39 6.39 0 011.654 1.049c.466.414.826.903 1.082 1.466.261.562.395 1.207.4 1.934-.005 1.068-.278 1.995-.818 2.779-.534.778-1.306 1.383-2.318 1.815-1.005.426-2.218.639-3.639.639-1.409 0-2.636-.216-3.682-.647-1.04-.432-1.852-1.072-2.437-1.918-.58-.852-.884-1.906-.912-3.162h3.57c.04.585.208 1.074.504 1.466a2.8 2.8 0 001.201.878c.506.193 1.077.289 1.713.289.626 0 1.168-.09 1.628-.272.466-.182.827-.435 1.083-.759.255-.324.383-.696.383-1.116 0-.392-.116-.722-.35-.989-.227-.267-.562-.494-1.005-.682a10.238 10.238 0 00-1.61-.511l-1.901-.477c-1.472-.358-2.634-.918-3.486-1.679-.852-.762-1.276-1.787-1.27-3.077-.006-1.057.276-1.98.844-2.77.574-.79 1.36-1.406 2.36-1.849 1-.444 2.137-.665 3.41-.665 1.295 0 2.426.221 3.392.665.971.443 1.727 1.059 2.267 1.849.54.79.818 1.705.835 2.744h-3.537zm12.471-5.258c.898 0 1.761.15 2.59.452.836.301 1.58.781 2.234 1.44.659.659 1.179 1.534 1.56 2.625.386 1.085.582 2.418.588 3.997 0 1.483-.168 2.807-.503 3.972-.33 1.159-.804 2.145-1.424 2.957a6.213 6.213 0 01-2.241 1.858c-.875.42-1.852.631-2.932.631-1.165 0-2.193-.225-3.085-.674a5.79 5.79 0 01-2.156-1.849 5.76 5.76 0 01-.98-2.642h3.639c.142.636.44 1.131.895 1.483.454.346 1.017.52 1.687.52 1.136 0 2-.495 2.591-1.483.59-.994.89-2.355.895-4.083h-.12a4.168 4.168 0 01-1.056 1.321 4.918 4.918 0 01-1.526.844 5.453 5.453 0 01-1.815.299c-1.029 0-1.946-.242-2.753-.725a5.201 5.201 0 01-1.91-1.994c-.465-.847-.698-1.813-.698-2.898-.006-1.17.264-2.213.81-3.128.545-.915 1.307-1.63 2.284-2.148.983-.522 2.125-.781 3.426-.775zm.026 2.898c-.574 0-1.086.136-1.535.409a3.015 3.015 0 00-1.056 1.099c-.256.46-.381.975-.375 1.543 0 .574.125 1.091.375 1.551a3 3 0 001.04 1.091c.443.267.948.4 1.516.4a2.906 2.906 0 002.13-.895c.274-.284.487-.61.64-.98a3.138 3.138 0 00-.162-2.693 3.002 3.002 0 00-1.056-1.108 2.823 2.823 0 00-1.517-.417zm16.014 15.034c-1.313 0-2.48-.213-3.503-.639-1.017-.432-1.815-1.02-2.395-1.765a4.011 4.011 0 01-.87-2.531c0-.727.166-1.395.495-2.003a4.449 4.449 0 011.364-1.525 4.49 4.49 0 011.926-.784v-.12c-.932-.187-1.688-.639-2.267-1.355-.58-.721-.87-1.56-.87-2.514 0-.903.265-1.707.793-2.412.528-.71 1.253-1.267 2.173-1.67.927-.41 1.978-.614 3.154-.614s2.224.204 3.145.614c.926.409 1.653.968 2.181 1.679.529.704.796 1.505.802 2.403-.006.96-.302 1.798-.887 2.514a3.807 3.807 0 01-2.25 1.355v.12a4.416 4.416 0 011.9.784 4.449 4.449 0 011.364 1.525c.341.608.515 1.276.52 2.003a4.053 4.053 0 01-.877 2.531c-.58.745-1.381 1.333-2.404 1.765-1.017.426-2.182.639-3.494.639zm0-2.711c.585 0 1.096-.105 1.534-.315a2.52 2.52 0 001.023-.886c.25-.381.375-.818.375-1.313a2.37 2.37 0 00-.384-1.338 2.631 2.631 0 00-1.04-.92c-.437-.228-.94-.341-1.508-.341-.563 0-1.066.113-1.509.341a2.618 2.618 0 00-1.048.92c-.25.387-.375.833-.375 1.338 0 .495.122.932.366 1.313.245.375.589.67 1.032.886.443.21.954.315 1.534.315zm0-7.798c.488 0 .923-.099 1.304-.298a2.25 2.25 0 00.895-.827c.216-.352.324-.758.324-1.219a2.183 2.183 0 00-1.21-2.002c-.376-.199-.813-.299-1.313-.299-.495 0-.932.1-1.313.299-.38.193-.679.463-.895.809-.21.341-.315.739-.315 1.193 0 .461.108.867.324 1.219.216.352.514.628.895.827.38.199.815.298 1.304.298zm10.046 10.27l7.236-14.318v-.119h-8.43v-3.017H95.19v3.059l-7.244 14.395h-3.81zm12.74.222a1.99 1.99 0 01-1.45-.597 1.99 1.99 0 01-.596-1.449c0-.557.199-1.034.596-1.432a1.993 1.993 0 011.45-.596c.545 0 1.022.199 1.431.596.41.398.614.875.614 1.432 0 .375-.097.719-.29 1.031a2.208 2.208 0 01-.742.742 1.951 1.951 0 01-1.014.273zm11.132.162c-1.466-.006-2.727-.367-3.784-1.083-1.051-.716-1.861-1.753-2.429-3.111-.563-1.358-.841-2.991-.835-4.9 0-1.904.281-3.526.844-4.867.568-1.341 1.377-2.36 2.428-3.059 1.057-.705 2.316-1.057 3.776-1.057s2.716.352 3.767 1.057c1.057.704 1.869 1.727 2.438 3.068.568 1.335.849 2.954.843 4.858 0 1.915-.284 3.551-.852 4.909-.562 1.358-1.369 2.395-2.42 3.111-1.052.716-2.31 1.074-3.776 1.074zm0-3.06c1 0 1.798-.503 2.395-1.509.597-1.005.892-2.514.886-4.525 0-1.324-.136-2.426-.409-3.307-.267-.881-.648-1.543-1.142-1.986a2.49 2.49 0 00-1.73-.665c-.994 0-1.79.498-2.386 1.492-.597.994-.898 2.483-.904 4.466 0 1.341.134 2.46.401 3.358.273.892.656 1.562 1.15 2.011a2.524 2.524 0 001.739.665zm16.523 3.06c-1.465-.006-2.727-.367-3.784-1.083-1.051-.716-1.86-1.753-2.429-3.111-.562-1.358-.84-2.991-.835-4.9 0-1.904.281-3.526.844-4.867.568-1.341 1.378-2.36 2.429-3.059 1.057-.705 2.315-1.057 3.775-1.057 1.461 0 2.716.352 3.768 1.057 1.056.704 1.869 1.727 2.437 3.068.568 1.335.849 2.954.844 4.858 0 1.915-.284 3.551-.852 4.909-.563 1.358-1.37 2.395-2.421 3.111-1.051.716-2.31 1.074-3.776 1.074zm0-3.06c1 0 1.799-.503 2.395-1.509.597-1.005.892-2.514.887-4.525 0-1.324-.137-2.426-.409-3.307-.267-.881-.648-1.543-1.142-1.986a2.494 2.494 0 00-1.731-.665c-.994 0-1.789.498-2.386 1.492-.596.994-.898 2.483-.903 4.466 0 1.341.133 2.46.4 3.358.273.892.657 1.562 1.151 2.011a2.522 2.522 0 001.738.665z" fill="#03010F"/><path d="M38.721 256.5c-.732-.003-1.363-.183-1.891-.541-.526-.358-.93-.877-1.215-1.556-.281-.679-.42-1.495-.418-2.45 0-.952.141-1.763.422-2.433.284-.671.69-1.181 1.215-1.53.528-.352 1.157-.528 1.887-.528s1.359.176 1.884.528c.529.352.935.864 1.219 1.534.284.668.425 1.477.422 2.429 0 .957-.142 1.776-.426 2.455-.282.679-.685 1.197-1.21 1.555-.526.358-1.155.537-1.889.537zm0-1.53c.5 0 .9-.251 1.198-.754.298-.503.446-1.257.443-2.263 0-.662-.068-1.213-.204-1.653-.134-.441-.324-.772-.571-.993a1.244 1.244 0 00-.866-.333c-.497 0-.894.249-1.193.746-.298.497-.448 1.242-.451 2.233 0 .67.066 1.23.2 1.679.136.446.328.781.575 1.006.247.221.537.332.87.332zm5.567 1.449a.999.999 0 01-.724-.298.998.998 0 01-.299-.725c0-.278.1-.517.298-.716a.995.995 0 01.725-.298c.273 0 .511.099.716.298a.964.964 0 01.307.716.96.96 0 01-.145.516 1.109 1.109 0 01-.37.371.985.985 0 01-.508.136zm5.566.081c-.733-.003-1.363-.183-1.892-.541-.525-.358-.93-.877-1.214-1.556-.281-.679-.42-1.495-.418-2.45 0-.952.14-1.763.422-2.433.284-.671.689-1.181 1.215-1.53.528-.352 1.157-.528 1.887-.528s1.358.176 1.884.528c.528.352.934.864 1.219 1.534.284.668.424 1.477.422 2.429 0 .957-.142 1.776-.427 2.455-.28.679-.684 1.197-1.21 1.555-.525.358-1.155.537-1.888.537zm0-1.53c.5 0 .9-.251 1.198-.754.298-.503.446-1.257.443-2.263 0-.662-.068-1.213-.205-1.653-.133-.441-.323-.772-.57-.993a1.244 1.244 0 00-.866-.333c-.497 0-.895.249-1.193.746-.298.497-.449 1.242-.452 2.233 0 .67.067 1.23.2 1.679.137.446.329.781.576 1.006.247.221.537.332.87.332zm8.028 1.457c-.603 0-1.14-.11-1.611-.332a2.81 2.81 0 01-1.117-.916 2.353 2.353 0 01-.43-1.338h1.79c.02.338.162.612.426.822.264.21.578.316.942.316.29 0 .545-.064.767-.192.224-.131.399-.311.524-.541.128-.233.192-.5.192-.802 0-.306-.066-.576-.196-.809a1.389 1.389 0 00-.533-.546 1.577 1.577 0 00-.78-.2c-.256 0-.504.053-.746.158a1.344 1.344 0 00-.558.43l-1.64-.294.413-4.602h5.335v1.508h-3.814l-.226 2.186h.052c.153-.215.384-.394.694-.536a2.45 2.45 0 011.04-.214c.525 0 .994.124 1.406.371.412.247.737.587.976 1.019.239.429.357.923.354 1.483.002.588-.134 1.11-.41 1.568a2.894 2.894 0 01-1.146 1.074c-.488.258-1.057.387-1.704.387zm7.896 0a3.94 3.94 0 01-1.3-.225 2.957 2.957 0 01-1.116-.721c-.33-.332-.591-.772-.784-1.321-.19-.548-.286-1.221-.286-2.02.003-.732.087-1.387.252-1.964.167-.58.406-1.071.716-1.474a3.126 3.126 0 011.12-.921 3.277 3.277 0 011.462-.319c.582 0 1.097.113 1.543.34a2.84 2.84 0 011.568 2.216h-1.82a1.217 1.217 0 00-.447-.716c-.228-.173-.509-.26-.844-.26-.568 0-1 .248-1.296.742-.292.494-.441 1.166-.447 2.016h.06c.13-.259.306-.479.528-.661a2.42 2.42 0 01.763-.422c.287-.099.59-.149.908-.149a2.606 2.606 0 012.335 1.364c.233.423.35.907.35 1.453 0 .591-.139 1.116-.414 1.577-.273.46-.655.821-1.146 1.082-.49.258-1.057.386-1.705.383zm-.009-1.448a1.443 1.443 0 001.292-.759 1.61 1.61 0 00.191-.784c0-.29-.063-.55-.191-.78a1.42 1.42 0 00-1.278-.754c-.214 0-.411.04-.593.119a1.498 1.498 0 00-.788.827 1.53 1.53 0 00-.115.592c0 .281.063.539.191.772.131.232.307.419.529.558.224.139.478.209.762.209zm4.45-.205v-1.453l3.643-5.74h1.253v2.011h-.742l-2.297 3.635v.068h5.178v1.479h-7.036zm4.188 1.534v-1.977l.034-.644v-6.106h1.73v8.727h-1.764zm7.302.119c-.636 0-1.203-.109-1.7-.328-.495-.221-.885-.525-1.172-.912a2.292 2.292 0 01-.439-1.346h1.858c.011.213.081.4.209.562.13.159.304.283.52.371.216.088.459.132.728.132.282 0 .53-.05.746-.149a1.22 1.22 0 00.507-.413c.122-.177.184-.38.184-.61a1.02 1.02 0 00-.197-.618 1.257 1.257 0 00-.553-.426 2.16 2.16 0 00-.853-.153h-.814v-1.355h.814c.279 0 .524-.049.737-.145.216-.097.384-.23.503-.401a1.04 1.04 0 00.18-.605 1.045 1.045 0 00-.593-.967 1.41 1.41 0 00-.648-.141c-.25 0-.478.046-.686.137a1.196 1.196 0 00-.499.379.998.998 0 00-.2.579h-1.768c.008-.503.152-.946.43-1.329a2.79 2.79 0 011.125-.899c.475-.219 1.01-.328 1.607-.328.602 0 1.129.109 1.58.328a2.59 2.59 0 011.053.886c.253.369.378.784.375 1.244.003.489-.149.897-.456 1.223-.304.327-.7.534-1.189.622v.069c.642.082 1.131.305 1.466.669.338.361.506.812.503 1.355.003.497-.14.939-.43 1.325-.287.386-.684.69-1.19.912-.505.222-1.085.332-1.738.332z" fill="#03010F" fill-opacity=".8"/><rect x="90.592" y="243.308" width="34" height="17" rx="8.5" fill="#7231FF"/><path d="M97.862 255.308l-2.081-7.273h1.68l1.203 5.054h.06l1.329-5.054h1.438l1.324 5.064h.064l1.204-5.064h1.68l-2.081 7.273h-1.499l-1.385-4.755h-.057l-1.381 4.755h-1.498zm8.724 0v-7.273h4.815v1.268h-3.278v1.733h2.958v1.268h-2.958v3.004h-1.537zm12.266-4.726h-1.555a1.55 1.55 0 00-.174-.537 1.38 1.38 0 00-.338-.405 1.476 1.476 0 00-.475-.255 1.83 1.83 0 00-.579-.089c-.377 0-.705.094-.984.281-.279.184-.496.454-.65.809-.154.353-.231.781-.231 1.286 0 .518.077.954.231 1.307.157.352.374.619.654.799.279.179.602.269.969.269.206 0 .397-.027.572-.081a1.52 1.52 0 00.472-.238 1.39 1.39 0 00.341-.387c.092-.152.156-.325.192-.519l1.555.007c-.04.334-.141.656-.302.966a2.888 2.888 0 01-.642.828 3.036 3.036 0 01-.959.575c-.369.14-.787.21-1.254.21-.648 0-1.228-.147-1.74-.441a3.118 3.118 0 01-1.207-1.275c-.294-.556-.441-1.23-.441-2.02 0-.793.15-1.468.448-2.024a3.114 3.114 0 011.214-1.272 3.412 3.412 0 011.726-.44c.422 0 .812.059 1.172.178.362.118.683.291.963.518.279.225.506.501.681.827.178.327.292.701.341 1.123z" fill="#fff"/><g filter="url(#filter0_d_1_13970)"><rect x="227.31" y="233.743" width="312.428" height="156.714" rx="10" fill="#E5D9FF" shape-rendering="crispEdges"/><g clip-path="url(#clip1_1_13970)"><path d="M265.31 307.1c9.975 0 18-8.025 18-18s-8.025-18-18-18-18 8.025-18 18 8.025 18 18 18z" fill="#fff"/><path fill-rule="evenodd" clip-rule="evenodd" d="M268.958 285.106c-.203.01-.477.043-.686.081a4.596 4.596 0 00-.807.231l-.087.036c-.07.029-.262.121-.291.138l-.062.036a2.847 2.847 0 00-.76.618 2.163 2.163 0 00-.501 1.174 2.788 2.788 0 00-.009.417c.029.327.143.61.357.888l.039.049.048.053c.164.18.377.351.659.527a4.641 4.641 0 00.321.186l.11.059.12.063.246.127.073.038.069.036c.536.277.769.468.853.697a.35.35 0 01.023.129.46.46 0 01-.034.214c-.108.269-.428.472-.866.548a3.623 3.623 0 01-.963.002 4.643 4.643 0 01-1.399-.401 2.52 2.52 0 00-.15-.067 36.23 36.23 0 00-.221.984c-.01.038-.028.122-.042.185l-.039.171a2.476 2.476 0 00-.068.346.078.078 0 00.025.015l.081.029a6.874 6.874 0 002.381.384c.645-.013 1.178-.107 1.705-.302.114-.043.168-.066.309-.134.224-.108.405-.22.592-.368a3.331 3.331 0 00.357-.347c.023-.023.08-.099.137-.182.168-.241.282-.51.345-.807a2.27 2.27 0 00.013-.909c-.11-.532-.453-.966-1.074-1.359a6.502 6.502 0 00-.53-.301l-.395-.201-.17-.087-.045-.024a4.983 4.983 0 01-.308-.182c-.258-.176-.375-.335-.375-.515 0-.138.058-.255.183-.367.184-.165.462-.264.833-.297.239-.022.686.005.932.055l.087.017a4.89 4.89 0 01.913.282c.007 0 .015-.02.025-.067l.031-.143.042-.184.053-.23.104-.457.041-.181a12.99 12.99 0 00.052-.23c.008-.028.031-.131.031-.136 0-.007-.292-.102-.391-.127l-.09-.024a6.701 6.701 0 00-.791-.148 6.541 6.541 0 00-1.036-.038zm-16.631.236a.838.838 0 00-.017.124c.002.003.018.008.035.01.1.015.459.096.656.149.313.084.443.125.785.248.472.169.663.266.812.41.07.068.114.128.156.213.061.124.084.202.287.95l.058.211.062.23.087.315.105.385.08.293.064.236.118.431.137.5.072.266.128.467.077.279.097.356.086.315.132.483c.026.1.061.226.076.28l.097.355.032.117c.004.011.063.011 1.111.011h1.106l.019-.044a6.427 6.427 0 01.117-.262c0-.002.015-.039.034-.081l.097-.221.161-.365.12-.273.069-.158a27.153 27.153 0 00.109-.246l.107-.24.058-.135.068-.155.074-.167.073-.165.068-.154.223-.506.142-.323.034-.075c.049-.116.075-.175.089-.204a2.14 2.14 0 00.048-.109l.134-.305a141.338 141.338 0 01.435-.987 1.12 1.12 0 00.032-.073l.035-.079a8.86 8.86 0 00.101-.229l.069-.158.142-.322.177-.401.23-.523a59.83 59.83 0 00.262-.595l.085-.189c.003-.007-.22-.008-1.101-.008h-1.105l-.008.018-.103.245-.131.315-.115.277a5.237 5.237 0 01-.083.197.105.105 0 01-.01.028c-.006.011-.046.108-.091.215l-.273.658-.142.342-.14.335-.117.279-.09.217-.105.254-.118.282a42.311 42.311 0 00-.199.48 5.428 5.428 0 01-.066.158l-.058.138-.09.217-.226.544a.302.302 0 01-.028.058c-.003.001-.008-.008-.01-.022l-.015-.07a52.422 52.422 0 01-.128-.638c-.03-.156-.07-.352-.087-.437l-.058-.29-.045-.222-.132-.659-.076-.381-.035-.171-.125-.625-.046-.23a3.55 3.55 0 00-.026-.131l-.034-.168-.035-.174-.046-.226a.917.917 0 00-.634-.756 1.006 1.006 0 00-.191-.044c-.082-.013-.108-.013-1.896-.013h-1.813l-.02.118zm10.744-.11a56.923 56.923 0 01-.105.465l-.035.158-.028.125-.044.197a43.19 43.19 0 01-.1.447l-.025.112-.041.184-.042.184-.03.138-.143.638-.059.263-.056.25-.059.263-.044.197a77.278 77.278 0 01-.164.734l-.062.276-.083.371-.118.526-.124.557a9.66 9.66 0 01-.049.217l-.045.199a31.433 31.433 0 01-.091.408 43.845 43.845 0 01-.12.539l-.042.187a.443.443 0 00-.016.104c.004.003.477.004 1.053.004l1.046-.002.022-.099.04-.177.034-.155.045-.204.053-.233.115-.513.121-.546.114-.509.1-.451.032-.141.041-.187.059-.264a27.766 27.766 0 00.1-.448l.056-.25.222-.995a60.441 60.441 0 01.128-.575l.045-.204.06-.266.051-.23.045-.201.042-.191.124-.555.077-.344c.004-.011-.049-.011-1.047-.011-.834 0-1.051.001-1.053.008zm11.612-.001a.89.89 0 00-.652.394 1.995 1.995 0 00-.171.309l-.157.358-.07.158-.052.118a6.003 6.003 0 01-.066.152l-.069.157-.097.221-.052.118-.066.151a7.749 7.749 0 01-.062.142l-.146.332-.069.158c-.022.048-.048.11-.059.136a22.405 22.405 0 01-.557 1.269l-.045.102c-.013.026-.164.371-.224.511l-.061.138c-.053.118-.192.437-.226.515l-.165.376a146.466 146.466 0 00-.413.941l-.137.312a39.044 39.044 0 01-.268.611c-.014.03-.023.058-.019.061.003.003.499.004 1.103.004l1.098-.002.017-.046.147-.405.048-.131.052-.141a36.177 36.177 0 01.163-.449c0-.001.607-.002 1.348-.002h1.348l.004.015.02.09a29.935 29.935 0 00.105.474l.083.375.033.151.015.069.97.002c.533 0 .972-.001.975-.004.004-.004-.009-.068-.07-.343a11.208 11.208 0 01-.035-.158l-.034-.158a59.291 59.291 0 01-.104-.473l-.105-.474-.034-.158-.035-.157-.069-.316-.034-.158-.052-.237-.053-.236a9.69 9.69 0 01-.034-.158l-.035-.158-.069-.316-.035-.157-.052-.237-.052-.237-.035-.158a7.927 7.927 0 00-.034-.157l-.07-.316a9.69 9.69 0 00-.034-.158l-.052-.237-.052-.236a11.208 11.208 0 01-.07-.316l-.037-.171-.035-.158-.031-.144-.104-.474-.052-.236-.052-.237a11.208 11.208 0 01-.07-.316l-.042-.194a3.74 3.74 0 00-.024-.103 88.997 88.997 0 00-1.93.002zm.465 2.189l.055.247.028.121.104.464.042.184.184.818.041.181.125.556c.026.112.05.223.051.232 0 .002-.394.005-.876.005-.566 0-.877-.003-.877-.007a11.46 11.46 0 00.086-.233l.084-.221.128-.338.097-.257.135-.358.035-.092c.011-.026.088-.229.12-.316.028-.075.138-.366.15-.394l.038-.102.067-.178.082-.217.059-.158c.016-.039.016-.039.022-.019l.02.082z" fill="url(#paint0_linear_1_13970)"/></g><path d="M300.817 281.554V296.1h-3.076v-11.627h-.085l-3.331 2.088v-2.727l3.601-2.28h2.891zm3.457 14.546v-2.216l5.177-4.794c.441-.426.81-.81 1.108-1.151.303-.341.533-.674.689-1.001a2.49 2.49 0 00.235-1.073c0-.426-.098-.793-.292-1.1a1.91 1.91 0 00-.795-.718 2.498 2.498 0 00-1.144-.256c-.445 0-.833.09-1.164.27-.332.18-.587.438-.767.775-.18.336-.27.736-.27 1.2h-2.919c0-.952.215-1.778.646-2.479a4.314 4.314 0 011.811-1.626c.777-.384 1.671-.576 2.685-.576 1.041 0 1.948.185 2.72.554.776.365 1.38.872 1.811 1.52.431.649.646 1.392.646 2.23 0 .55-.109 1.092-.326 1.627-.214.535-.595 1.129-1.144 1.782-.549.649-1.323 1.428-2.322 2.337l-2.124 2.081v.1h6.108v2.514h-10.369zm17.974.199c-1.061 0-2.005-.183-2.834-.547-.824-.37-1.475-.876-1.953-1.52-.474-.649-.717-1.397-.732-2.244h3.097c.019.355.135.667.348.937.218.265.507.471.866.618.36.147.765.22 1.215.22.469 0 .883-.083 1.243-.248.36-.166.641-.396.845-.689.204-.294.305-.633.305-1.016 0-.388-.109-.732-.326-1.03-.213-.303-.521-.54-.924-.71-.397-.171-.871-.256-1.42-.256h-1.357v-2.258h1.357c.464 0 .873-.081 1.229-.242.359-.161.639-.383.838-.667.199-.289.298-.625.298-1.009a1.749 1.749 0 00-.987-1.612 2.36 2.36 0 00-1.08-.235c-.416 0-.798.076-1.143.228a1.993 1.993 0 00-.831.632c-.209.274-.32.596-.334.966h-2.947c.014-.838.253-1.577.717-2.216.464-.639 1.089-1.139 1.875-1.499.791-.364 1.683-.547 2.677-.547 1.004 0 1.882.183 2.635.547.753.365 1.338.857 1.755 1.478a3.55 3.55 0 01.625 2.073c.004.815-.249 1.494-.76 2.039-.507.544-1.167.89-1.982 1.037v.113c1.07.138 1.885.509 2.443 1.115.564.602.843 1.355.838 2.259a3.547 3.547 0 01-.717 2.209c-.478.644-1.139 1.15-1.981 1.52-.843.369-1.809.554-2.898.554zm7.587-2.756v-2.422l6.072-9.567h2.088v3.353h-1.236l-3.828 6.058v.113h8.63v2.465h-11.726zm6.981 2.557v-3.296l.057-1.072v-10.178h2.884V296.1h-2.941zm13.219.184c-.468 0-.871-.165-1.207-.497a1.66 1.66 0 01-.497-1.207c0-.464.166-.862.497-1.193a1.657 1.657 0 011.207-.497c.455 0 .853.165 1.194.497.341.331.511.729.511 1.193 0 .312-.081.599-.242.859a1.833 1.833 0 01-.617.618 1.626 1.626 0 01-.846.227zm5.957 0c-.468 0-.871-.165-1.207-.497a1.66 1.66 0 01-.497-1.207c0-.464.166-.862.497-1.193a1.657 1.657 0 011.207-.497c.455 0 .853.165 1.194.497.341.331.511.729.511 1.193 0 .312-.08.599-.241.859a1.845 1.845 0 01-.618.618 1.626 1.626 0 01-.846.227zm5.957 0c-.468 0-.871-.165-1.207-.497a1.66 1.66 0 01-.497-1.207c0-.464.166-.862.497-1.193a1.657 1.657 0 011.207-.497c.455 0 .853.165 1.194.497.341.331.511.729.511 1.193 0 .312-.08.599-.241.859a1.845 1.845 0 01-.618.618 1.626 1.626 0 01-.846.227zm5.958 0c-.469 0-.872-.165-1.208-.497a1.66 1.66 0 01-.497-1.207c0-.464.166-.862.497-1.193a1.657 1.657 0 011.208-.497c.454 0 .852.165 1.193.497.341.331.511.729.511 1.193 0 .312-.08.599-.241.859a1.845 1.845 0 01-.618.618 1.625 1.625 0 01-.845.227zm13.417.015c-1.003 0-1.898-.185-2.684-.554-.781-.37-1.402-.879-1.861-1.527-.459-.649-.698-1.392-.717-2.23h2.983c.033.563.27 1.02.71 1.37.44.351.963.526 1.569.526.483 0 .91-.107 1.279-.32.374-.218.665-.518.873-.902.214-.388.32-.833.32-1.335 0-.511-.109-.961-.327-1.349a2.31 2.31 0 00-.887-.91 2.614 2.614 0 00-1.3-.333c-.426 0-.841.087-1.243.262-.398.176-.708.415-.93.718l-2.735-.49.689-7.671h8.892v2.514h-6.356l-.377 3.644h.085c.256-.36.642-.658 1.158-.895a4.105 4.105 0 011.733-.355c.876 0 1.657.206 2.344.618a4.452 4.452 0 011.626 1.697c.398.715.594 1.539.59 2.472.004.98-.223 1.851-.682 2.614a4.804 4.804 0 01-1.911 1.789c-.814.431-1.761.647-2.841.647zm13.161 0a6.587 6.587 0 01-2.166-.377 4.929 4.929 0 01-1.861-1.2c-.549-.554-.985-1.288-1.307-2.202-.317-.914-.476-2.036-.476-3.366.005-1.222.145-2.313.419-3.274.28-.966.677-1.785 1.194-2.458a5.215 5.215 0 011.867-1.534c.725-.355 1.537-.533 2.437-.533.97 0 1.827.19 2.571.569.743.374 1.34.883 1.789 1.527a4.64 4.64 0 01.824 2.166h-3.032c-.119-.507-.367-.905-.746-1.193-.379-.289-.848-.434-1.406-.434-.947 0-1.667.412-2.16 1.236-.487.824-.736 1.944-.745 3.36h.099c.218-.431.511-.798.881-1.101a4.016 4.016 0 011.271-.703 4.582 4.582 0 011.513-.249c.862 0 1.629.204 2.301.611a4.326 4.326 0 011.591 1.662c.388.705.582 1.512.582 2.422 0 .984-.229 1.86-.689 2.627a4.768 4.768 0 01-1.91 1.804c-.814.431-1.761.644-2.841.64zm-.014-2.415a2.402 2.402 0 002.152-1.264c.213-.389.319-.824.319-1.307s-.106-.916-.319-1.3a2.363 2.363 0 00-2.131-1.257c-.355 0-.684.066-.987.199a2.464 2.464 0 00-.788.554 2.656 2.656 0 00-.718 1.811c0 .469.107.897.32 1.285.218.389.511.699.88.931.375.232.798.348 1.272.348zm8.21 2.216l6.03-11.932v-.1h-7.024v-2.514h10.206v2.55l-6.037 11.996h-3.175zm16.452.199c-1.093 0-2.066-.178-2.919-.533-.847-.36-1.512-.85-1.995-1.47a3.347 3.347 0 01-.725-2.11c0-.606.138-1.162.412-1.669.28-.511.658-.935 1.137-1.271a3.734 3.734 0 011.605-.653v-.1c-.777-.156-1.407-.532-1.89-1.129a3.248 3.248 0 01-.724-2.095c0-.753.22-1.423.661-2.01.44-.592 1.044-1.056 1.811-1.392.771-.341 1.647-.512 2.627-.512.981 0 1.854.171 2.621.512.772.341 1.378.807 1.818 1.399.441.587.663 1.255.668 2.003-.005.8-.251 1.498-.739 2.095a3.167 3.167 0 01-1.875 1.129v.1a3.67 3.67 0 011.584.653c.478.336.857.76 1.137 1.271.284.507.428 1.063.433 1.669a3.383 3.383 0 01-.732 2.11c-.483.62-1.15 1.11-2.003 1.47-.847.355-1.818.533-2.912.533zm0-2.259c.488 0 .914-.088 1.279-.263.364-.18.649-.426.852-.738.208-.318.313-.682.313-1.094 0-.421-.107-.793-.32-1.115a2.192 2.192 0 00-.866-.767c-.365-.19-.784-.284-1.258-.284-.468 0-.887.094-1.257.284-.369.184-.66.44-.873.767a2.003 2.003 0 00-.313 1.115c0 .412.102.776.306 1.094.203.312.49.558.859.738.369.175.795.263 1.278.263zm0-6.499c.408 0 .77-.082 1.087-.248.317-.166.566-.395.746-.689.18-.294.27-.632.27-1.016a1.818 1.818 0 00-1.009-1.669 2.308 2.308 0 00-1.094-.248c-.411 0-.776.083-1.093.248a1.834 1.834 0 00-.746.675 1.858 1.858 0 00-.263.994c0 .384.09.722.27 1.016.18.294.429.523.746.689.317.166.679.248 1.086.248z" fill="#03010F"/><path d="M497.306 285.492v-2.029h9.557v2.029H503.3v9.608h-2.432v-9.608h-3.562zm21.292 3.79c0 1.268-.24 2.348-.721 3.238-.477.89-1.129 1.57-1.955 2.04-.822.466-1.746.699-2.772.699-1.034 0-1.963-.235-2.784-.705-.822-.469-1.472-1.149-1.949-2.039-.478-.891-.716-1.968-.716-3.233 0-1.269.238-2.349.716-3.239.477-.89 1.127-1.568 1.949-2.034.821-.47 1.75-.705 2.784-.705 1.026 0 1.95.235 2.772.705.826.466 1.478 1.144 1.955 2.034.481.89.721 1.97.721 3.239zm-2.494 0c0-.822-.123-1.516-.369-2.08-.243-.564-.585-.992-1.029-1.284-.443-.292-.962-.438-1.556-.438-.595 0-1.114.146-1.557.438-.443.292-.788.72-1.034 1.284-.243.564-.364 1.258-.364 2.08 0 .822.121 1.515.364 2.079.246.564.591.993 1.034 1.284.443.292.962.438 1.557.438.594 0 1.113-.146 1.556-.438.444-.291.786-.72 1.029-1.284.246-.564.369-1.257.369-2.079z" fill="#03010F" fill-opacity=".8"/><path d="M254.588 351.282v-21.819h1.398v21.819h-1.398zm3.707-14.617c-.068-.687-.36-1.222-.877-1.602-.518-.381-1.219-.571-2.106-.571-.602 0-1.11.085-1.525.255-.415.165-.733.395-.955.691-.216.295-.324.63-.324 1.005-.011.313.054.586.196.819.148.233.35.434.606.605.255.165.551.309.886.434.335.12.693.222 1.074.307l1.568.375c.761.171 1.46.398 2.097.682a6.391 6.391 0 011.653 1.048c.466.415.827.904 1.082 1.466.262.563.395 1.208.401 1.935-.006 1.068-.278 1.994-.818 2.778-.534.779-1.307 1.384-2.318 1.816-1.006.426-2.219.639-3.64.639-1.409 0-2.636-.216-3.681-.648-1.04-.432-1.853-1.071-2.438-1.917-.579-.853-.883-1.907-.912-3.162h3.571c.04.585.208 1.073.503 1.466a2.79 2.79 0 001.202.877c.505.194 1.076.29 1.713.29.625 0 1.167-.091 1.628-.273.466-.181.826-.434 1.082-.758a1.75 1.75 0 00.384-1.117c0-.392-.117-.721-.35-.988-.227-.267-.562-.495-1.006-.682a10.119 10.119 0 00-1.61-.511l-1.901-.478c-1.472-.358-2.633-.917-3.486-1.679-.852-.761-1.275-1.787-1.27-3.076-.005-1.057.276-1.98.844-2.77.574-.79 1.361-1.406 2.361-1.85 1-.443 2.136-.664 3.409-.664 1.295 0 2.426.221 3.392.664.972.444 1.727 1.06 2.267 1.85.54.79.818 1.704.835 2.744h-3.537zm12.471-5.258c.898 0 1.762.15 2.591.451.835.301 1.58.782 2.233 1.441.659.659 1.179 1.534 1.56 2.625.386 1.085.582 2.417.588 3.997 0 1.483-.168 2.807-.503 3.971-.33 1.159-.804 2.145-1.423 2.958a6.23 6.23 0 01-2.242 1.858c-.875.42-1.852.63-2.932.63-1.164 0-2.193-.224-3.085-.673a5.786 5.786 0 01-2.156-1.849 5.75 5.75 0 01-.98-2.642h3.639c.142.636.44 1.13.895 1.483.454.346 1.017.519 1.687.519 1.137 0 2-.494 2.591-1.483.591-.994.89-2.355.895-4.082h-.119a4.177 4.177 0 01-1.057 1.321 4.916 4.916 0 01-1.526.844 5.45 5.45 0 01-1.815.298c-1.028 0-1.946-.241-2.753-.724a5.196 5.196 0 01-1.909-1.995c-.466-.846-.699-1.812-.699-2.897-.005-1.171.265-2.213.81-3.128a5.702 5.702 0 012.284-2.148c.983-.523 2.125-.781 3.426-.775zm.026 2.897c-.574 0-1.085.137-1.534.409-.443.273-.796.64-1.057 1.1-.256.46-.381.974-.375 1.542 0 .574.125 1.091.375 1.552.256.454.602.818 1.04 1.09.443.268.949.401 1.517.401a2.92 2.92 0 002.13-.895c.273-.284.486-.611.64-.98a3.04 3.04 0 00.23-1.176 3.15 3.15 0 00-.392-1.517 2.996 2.996 0 00-1.057-1.108 2.816 2.816 0 00-1.517-.418zm16.014 15.034c-1.312 0-2.48-.213-3.503-.639-1.017-.432-1.815-1.02-2.395-1.764a4.014 4.014 0 01-.869-2.531c0-.728.165-1.395.494-2.003a4.459 4.459 0 011.364-1.526 4.502 4.502 0 011.926-.784v-.119c-.932-.188-1.687-.639-2.267-1.355-.58-.722-.869-1.56-.869-2.514 0-.904.264-1.708.792-2.412.529-.711 1.253-1.267 2.174-1.671.926-.409 1.977-.613 3.153-.613s2.224.204 3.145.613c.926.409 1.653.969 2.182 1.679.528.705.795 1.506.801 2.404-.006.96-.301 1.798-.887 2.514a3.81 3.81 0 01-2.25 1.355v.119a4.429 4.429 0 011.901.784 4.459 4.459 0 011.364 1.526c.341.608.514 1.275.52 2.003a4.058 4.058 0 01-.878 2.531c-.58.744-1.381 1.332-2.404 1.764-1.017.426-2.181.639-3.494.639zm0-2.71c.585 0 1.097-.105 1.534-.315a2.517 2.517 0 001.023-.887c.25-.38.375-.818.375-1.312 0-.506-.128-.952-.384-1.338a2.638 2.638 0 00-1.039-.921c-.438-.227-.941-.34-1.509-.34-.562 0-1.065.113-1.509.34a2.63 2.63 0 00-1.048.921c-.25.386-.375.832-.375 1.338 0 .494.122.932.367 1.312.244.375.588.671 1.031.887.443.21.954.315 1.534.315zm0-7.798c.489 0 .923-.1 1.304-.298.381-.199.679-.475.895-.827.216-.352.324-.759.324-1.219a2.182 2.182 0 00-1.21-2.003c-.375-.199-.813-.298-1.313-.298-.494 0-.932.099-1.312.298a2.202 2.202 0 00-.895.81c-.211.341-.316.739-.316 1.193 0 .46.108.867.324 1.219.216.352.514.628.895.827.381.198.815.298 1.304.298zm10.046 10.27l7.236-14.318v-.12h-8.429v-3.017h12.247v3.06l-7.244 14.395h-3.81zm12.74.221a1.992 1.992 0 01-1.449-.596 1.992 1.992 0 01-.597-1.449c0-.557.199-1.034.597-1.432a1.989 1.989 0 011.449-.597c.545 0 1.022.199 1.431.597.409.398.614.875.614 1.432 0 .375-.097.719-.29 1.031a2.2 2.2 0 01-.741.742 1.96 1.96 0 01-1.014.272zm11.132.162c-1.466-.005-2.727-.366-3.784-1.082-1.051-.716-1.861-1.753-2.429-3.111-.562-1.358-.841-2.991-.835-4.9 0-1.904.281-3.526.844-4.867.568-1.341 1.378-2.361 2.429-3.06 1.057-.704 2.315-1.056 3.775-1.056 1.461 0 2.716.352 3.767 1.056 1.057.705 1.87 1.728 2.438 3.069.568 1.335.849 2.954.844 4.858 0 1.914-.284 3.551-.853 4.909-.562 1.358-1.369 2.394-2.42 3.11-1.051.716-2.31 1.074-3.776 1.074zm0-3.059c1 0 1.799-.503 2.395-1.509.597-1.006.892-2.514.887-4.525 0-1.324-.137-2.427-.409-3.307-.268-.881-.648-1.543-1.143-1.986a2.49 2.49 0 00-1.73-.665c-.994 0-1.789.497-2.386 1.492-.597.994-.898 2.483-.903 4.466 0 1.34.133 2.46.4 3.357.273.893.656 1.563 1.151 2.012a2.522 2.522 0 001.738.665zm16.524 3.059c-1.466-.005-2.727-.366-3.784-1.082-1.051-.716-1.861-1.753-2.429-3.111-.563-1.358-.841-2.991-.836-4.9 0-1.904.282-3.526.844-4.867.568-1.341 1.378-2.361 2.429-3.06 1.057-.704 2.316-1.056 3.776-1.056s2.716.352 3.767 1.056c1.057.705 1.869 1.728 2.437 3.069.569 1.335.85 2.954.844 4.858 0 1.914-.284 3.551-.852 4.909-.563 1.358-1.37 2.394-2.421 3.11-1.051.716-2.309 1.074-3.775 1.074zm0-3.059c1 0 1.798-.503 2.395-1.509.596-1.006.892-2.514.886-4.525 0-1.324-.136-2.427-.409-3.307-.267-.881-.648-1.543-1.142-1.986a2.492 2.492 0 00-1.73-.665c-.995 0-1.79.497-2.387 1.492-.596.994-.897 2.483-.903 4.466 0 1.34.134 2.46.401 3.357.272.893.656 1.563 1.15 2.012a2.522 2.522 0 001.739.665z" fill="#03010F"/></g><defs><clipPath id="clip0_1_13970"><path fill="#fff" transform="translate(34.592 157.017)" d="M0 0h36v36H0z"/></clipPath><clipPath id="clip1_1_13970"><path fill="#fff" transform="translate(247.31 271.1)" d="M0 0h36v36H0z"/></clipPath><linearGradient id="paint0_linear_1_13970" x1="252.31" y1="289.098" x2="278.308" y2="289.098" gradientUnits="userSpaceOnUse"><stop stop-color="#181B60"/><stop offset="1" stop-color="#00279C"/></linearGradient><filter id="filter0_d_1_13970" x="218.31" y="224.743" width="324.428" height="168.714" filterUnits="userSpaceOnUse" color-interpolation-filters="sRGB"><feFlood flood-opacity="0" result="BackgroundImageFix"/><feColorMatrix in="SourceAlpha" values="0 0 0 0 0 0 0 0 0 0 0 0 0 0 0 0 0 0 127 0" result="hardAlpha"/><feOffset dx="-3" dy="-3"/><feGaussianBlur stdDeviation="3"/><feComposite in2="hardAlpha" operator="out"/><feColorMatrix values="0 0 0 0 0 0 0 0 0 0 0 0 0 0 0 0 0 0 0.25 0"/><feBlend in2="BackgroundImageFix" result="effect1_dropShadow_1_13970"/><feBlend in="SourceGraphic" in2="effect1_dropShadow_1_13970" result="shape"/></filter></defs></svg>