<svg width="554" height="506" viewBox="0 0 554 506" fill="none" xmlns="http://www.w3.org/2000/svg"><path opacity=".2" fill-rule="evenodd" clip-rule="evenodd" d="M48.21 28.943L84.39 8.076l35.264 20.338v42.545L84.213 91.4 48.21 70.637V28.943zm-4.335 185.21v-47.218l-.7.403L0 142.437V92.633l41.215-23.77V24.902L84.39 0l39.219 22.62L162.83 0l43.176 24.902v47.59l37.225 21.47v43.401l35.263 20.338 32.603-18.804V93.962l41.217-23.772V24.902L395.49 0l40.858 23.564L472.6 2.656l43.176 24.902v44.934l37.225 21.47v49.803l-39.884 23.003v46.057l-39.884 23.004v36.999l39.884 23.003v45.496l38.555 22.236v49.803l-37.225 21.47v46.262l-43.176 24.901-39.222-22.62L392.828 506l-43.176-24.902V435.04l-39.883-23.003v-44.934l-31.939-18.421-35.929 20.722v42.633l-37.225 21.47v47.591L161.5 506l-38.555-22.237L84.39 506l-43.176-24.902v-43.402L1.33 414.694v-49.803l42.545-24.538v-44.522l37.224-21.469v-38.74l-37.224-21.469zm353.575-74.135V98.476l34.292-19.778 34.907 20.133v41.188l-34.598 19.955-34.601-19.956zm-37.225 68.704v-42.953l31.916-18.408 34.624 19.97v39.092l-35.263 20.338-31.277-18.039zm-43.458 26.186l.282.163 36.253-20.909 33.579 19.366v40.834l-32.604 18.804-37.51-21.634v-36.624zm34.217-68.139v38.888l-35.466 20.455-32.403-18.689v-44.311l30.764-17.743 37.105 21.4zm37.226-70.06v44.309l-30.766 17.744-39.351-22.695V98.003l36.18-20.867L388.21 96.71zm-78.439 134.164v43.486l-31.941 18.422-33.268-19.187v-41.19l33.932-19.57 31.277 18.039zM205.503 215.21l32.063 18.492v38.595l-35.518 20.485-34.597-19.954v-35.672l38.052-21.946zm-41.725-67.466l32.984 19.024v40.423l-33.931 19.57-32.604-18.804v-40.862l33.551-19.351zm-6.899-51.037v44.314l-33.551 19.35-36.277-20.923-.285.164V98.236l36.382-20.983 33.731 19.454zm42.131-27.044L161.962 91.03l-34.395-19.838V28.414L162.83 8.076l36.18 20.867v40.72zm41.132 157.214l33.731-19.454v-44.311l-32.094-18.51-34.444 19.865v43.489l32.807 18.921zm-41.547-67.568l37.64-21.709V98.003l-35.312-20.366-34.801 20.07v42.873l32.473 18.729zM394.467 361.28l32.298-18.627v-40.42l-35.263-20.338-32.606 18.805v40.065l35.571 20.515zm41.54-18.625l32.782 18.907 37.333-21.531v-40.159l-34.341-19.805-35.774 20.632v41.956zm38.553 25.217v40.418l35.955 20.737 34.161-19.702v-41.721l-34.826-20.085-35.29 20.353zm-38.556 69.058v40.654l35.267 20.339 36.18-20.866v-39.392l-36.36-20.971-35.087 20.236zM283.116 297.809l29.434-16.977 37.105 21.4v36.998l-37.105 21.401-29.434-16.977v-45.845zm33.649 72.123l37.509-21.633 33.934 19.571v40.656l-35.263 20.337-36.18-20.867v-38.064zm79.356 38.361v-39.655l35.265-20.339 33.934 19.572v41.954l-33.271 19.189-35.928-20.721zm-5.798 7.621l37.771 21.784v39.886l-35.266 20.34-36.18-20.867v-41.721l33.675-19.422zm-269.34-75.56l-36.13 20.838-33.982-19.599v-41.721l33.01-19.038 37.102 21.398v38.122zm75.78-38.889v36.999l-37.105 21.4-29.431-16.974v-42.191l32.604-18.804 33.932 19.57zM87.682 370.172v38.12l35.263 20.338 32.604-18.804v-42.191l-31.735-18.302-36.132 20.839zm77.11-.001v38.121l34.8 20.071 35.313-20.367v-40.365l-32.855-18.949-37.258 21.489zm42.543-27.872l33.78 19.482 31.429-18.127v-45.845l-30.098-17.359-35.111 20.25v41.599zM79.356 96.703L43.152 75.822 6.996 96.675v41.72l36.18 20.867 36.18-20.867V96.703zm7.313 51.041l-35.798 20.647v41.721l31.859 18.374 38.253-22.062v-38.889l-34.314-19.791zm38.936 69.075l-37.51 21.633v33.08l37.51 21.634 32.605-18.805v-38.738l-32.605-18.804zm1.961 219.345v42.188l33.934 19.572 36.18-20.867v-40.72l-35.207-20.306-34.907 20.133zm-44.505-18.805l35.263 20.337v40.656L84.39 497.924l-36.18-20.867v-39.598l34.851-20.1zm-4.62-7.534l-35.776 20.633-34.34-19.806v-41.72l36.18-20.867 33.935 19.571v42.189zM395.49 8.076l-36.18 20.867v41.72l35.8 20.648 34.314-19.79V27.647L395.49 8.076zm.633 264.752l35.263 20.338 34.851-20.1V235.59l-34.186-19.716-35.928 20.721v36.233zm73.331-180.483l39.326-22.681V31.599L472.6 10.732l-33.934 19.571v44.285l30.788 17.757zm40.371 68.246l-35.263-20.338v-39.122l38.433-22.166 33.01 19.038v41.721l-36.18 20.867zm-72.489 5.973v42.159l34.446 19.867 34.34-19.806v-41.721l-34.826-20.085-33.96 19.586z" fill="#F10160"/><g filter="url(#filter0_b_1_14053)"><rect x="98.351" y="173.979" width="356.3" height="187.26" rx="13.295" fill="#03010F" fill-opacity=".7"/><path d="M126.621 224.237v-19.338h7.743c1.422 0 2.609.211 3.559.632.951.422 1.665 1.008 2.144 1.757.478.743.718 1.599.718 2.568 0 .755-.152 1.42-.454 1.992a3.904 3.904 0 01-1.246 1.398 5.113 5.113 0 01-1.794.765v.189a4.327 4.327 0 012.068.623 4.419 4.419 0 011.577 1.614c.402.686.604 1.505.604 2.455 0 1.026-.255 1.942-.765 2.748-.504.8-1.249 1.432-2.238 1.898-.988.466-2.206.699-3.654.699h-8.262zm4.089-3.343h3.333c1.139 0 1.97-.217 2.492-.651.523-.441.784-1.026.784-1.757 0-.535-.129-1.007-.387-1.416a2.628 2.628 0 00-1.105-.963c-.472-.233-1.035-.35-1.69-.35h-3.427v5.137zm0-7.903h3.031c.56 0 1.057-.098 1.491-.293a2.48 2.48 0 001.039-.85c.258-.365.387-.802.387-1.312 0-.699-.248-1.262-.746-1.69-.491-.428-1.189-.642-2.096-.642h-3.106v4.787zm22.715 5.07v-8.328h4.023v14.504h-3.862v-2.635h-.151a4.278 4.278 0 01-1.634 2.049c-.755.516-1.677.775-2.766.775-.97 0-1.823-.221-2.559-.661-.737-.441-1.313-1.067-1.728-1.879-.409-.812-.617-1.785-.623-2.918v-9.235h4.022v8.517c.006.856.236 1.533.689 2.03.454.498 1.061.746 1.823.746.485 0 .938-.11 1.359-.33.422-.227.762-.56 1.02-1.001.265-.441.394-.985.387-1.634zm9.724 11.614c-.51 0-.989-.04-1.436-.122a5.244 5.244 0 01-1.095-.293l.907-3.003a4.93 4.93 0 001.274.236c.384.013.715-.075.992-.264.283-.189.513-.51.689-.963l.236-.614-5.203-14.919h4.23l3.003 10.651h.151l3.031-10.651h4.259l-5.637 16.071a6.748 6.748 0 01-1.105 2.04 4.538 4.538 0 01-1.747 1.35c-.705.321-1.555.481-2.549.481zm25.803-5.155c-1.485 0-2.763-.315-3.833-.944a6.377 6.377 0 01-2.455-2.644c-.567-1.127-.85-2.424-.85-3.89 0-1.486.286-2.789.859-3.909a6.39 6.39 0 012.464-2.635c1.064-.636 2.33-.954 3.796-.954 1.265 0 2.373.23 3.324.69.95.459 1.703 1.104 2.257 1.935s.859 1.807.916 2.928h-3.796c-.107-.724-.391-1.307-.85-1.747-.453-.447-1.048-.671-1.785-.671-.623 0-1.167.17-1.633.51-.46.334-.819.822-1.077 1.464s-.387 1.419-.387 2.332c0 .925.126 1.712.378 2.361.258.648.62 1.142 1.086 1.482.466.34 1.01.51 1.633.51.46 0 .872-.095 1.237-.283.372-.189.677-.463.916-.822.246-.365.406-.802.482-1.312h3.796c-.063 1.108-.366 2.083-.907 2.927-.535.837-1.275 1.492-2.219 1.964s-2.061.708-3.352.708zm9.053-.283v-14.504h3.9v2.531h.151c.264-.9.708-1.58 1.331-2.04.623-.466 1.341-.698 2.153-.698.201 0 .418.012.651.037.233.026.438.06.614.104v3.569a5.333 5.333 0 00-.784-.151 7.03 7.03 0 00-.915-.066c-.592 0-1.121.129-1.587.387a2.86 2.86 0 00-1.095 1.058c-.264.453-.397.976-.397 1.567v8.206h-4.022zm13.805 5.438c-.51 0-.989-.04-1.436-.122a5.244 5.244 0 01-1.095-.293l.906-3.003c.473.145.898.224 1.275.236.384.013.715-.075.992-.264.283-.189.513-.51.689-.963l.236-.614-5.203-14.919h4.23l3.003 10.651h.151l3.031-10.651h4.259l-5.637 16.071a6.748 6.748 0 01-1.105 2.04 4.538 4.538 0 01-1.747 1.35c-.705.321-1.555.481-2.549.481zm13.096 0v-19.942h3.966v2.436h.179c.176-.39.431-.786.765-1.189.34-.409.781-.749 1.322-1.02.548-.277 1.227-.416 2.04-.416 1.057 0 2.033.277 2.927.831.894.548 1.608 1.376 2.143 2.484.535 1.101.803 2.483.803 4.145 0 1.618-.262 2.984-.784 4.098-.516 1.108-1.221 1.948-2.115 2.521-.888.566-1.882.85-2.984.85-.78 0-1.445-.129-1.992-.387a4.129 4.129 0 01-1.332-.973 4.963 4.963 0 01-.793-1.199h-.123v7.761h-4.022zm3.938-12.69c0 .862.119 1.615.358 2.257.24.642.586 1.142 1.039 1.501.453.353 1.004.529 1.652.529.655 0 1.209-.18 1.662-.538.453-.366.797-.869 1.029-1.511.24-.649.359-1.394.359-2.238 0-.837-.116-1.574-.349-2.21-.233-.635-.576-1.133-1.029-1.491-.454-.359-1.011-.539-1.672-.539-.654 0-1.208.174-1.661.52-.447.346-.79.837-1.03 1.473-.239.636-.358 1.385-.358 2.247zm20.603-7.252v3.022h-8.735v-3.022h8.735zm-6.752-3.474h4.023v13.521c0 .371.056.661.17.869.113.201.27.343.472.425.208.081.447.122.717.122.189 0 .378-.015.567-.047l.434-.085.633 2.993a10.88 10.88 0 01-.85.217 6.753 6.753 0 01-1.331.161c-.97.038-1.819-.091-2.55-.387-.723-.296-1.287-.756-1.69-1.379s-.601-1.41-.595-2.36v-14.05zm15.769 18.261c-1.467 0-2.735-.312-3.805-.935a6.39 6.39 0 01-2.465-2.625c-.579-1.127-.868-2.433-.868-3.918 0-1.499.289-2.808.868-3.928a6.318 6.318 0 012.465-2.625c1.07-.63 2.338-.945 3.805-.945s2.732.315 3.796.945a6.301 6.301 0 012.474 2.625c.579 1.12.868 2.429.868 3.928 0 1.485-.289 2.791-.868 3.918a6.373 6.373 0 01-2.474 2.625c-1.064.623-2.329.935-3.796.935zm.019-3.116c.667 0 1.224-.189 1.671-.567.447-.384.784-.906 1.011-1.567.232-.661.349-1.413.349-2.257 0-.843-.117-1.595-.349-2.256-.227-.661-.564-1.184-1.011-1.568-.447-.384-1.004-.576-1.671-.576-.674 0-1.24.192-1.7.576-.453.384-.796.907-1.029 1.568-.227.661-.34 1.413-.34 2.256 0 .844.113 1.596.34 2.257.233.661.576 1.183 1.029 1.567.46.378 1.026.567 1.7.567z" fill="#fff"/><path d="M125.949 257.531v-11.602h4.645c.854 0 1.566.126 2.136.379.571.253.999.605 1.286 1.054.287.446.431.959.431 1.541 0 .453-.091.852-.272 1.196a2.353 2.353 0 01-.748.838 3.072 3.072 0 01-1.076.459v.113a2.6 2.6 0 011.24.374c.389.23.705.553.946.969.242.412.363.903.363 1.473 0 .616-.153 1.165-.459 1.649-.302.479-.75.859-1.343 1.138-.593.28-1.323.419-2.192.419h-4.957zm2.453-2.005h2c.683 0 1.182-.13 1.495-.391.314-.264.471-.616.471-1.054a1.56 1.56 0 00-.233-.85 1.57 1.57 0 00-.663-.577c-.283-.14-.621-.21-1.014-.21h-2.056v3.082zm0-4.742h1.818c.337 0 .635-.059.896-.176.264-.12.472-.29.623-.509.155-.22.232-.482.232-.788 0-.419-.149-.757-.448-1.014-.294-.257-.713-.385-1.257-.385h-1.864v2.872zm13.629 3.042v-4.997h2.414v8.702h-2.317v-1.58h-.091c-.196.51-.523.92-.98 1.229-.453.31-1.007.465-1.66.465-.582 0-1.093-.132-1.535-.397a2.722 2.722 0 01-1.037-1.127c-.246-.487-.37-1.071-.374-1.751v-5.541h2.413v5.111c.004.513.142.919.414 1.218.272.298.636.447 1.093.447.291 0 .563-.066.816-.198.253-.136.457-.336.612-.601.159-.264.236-.591.232-.98zm5.834 6.969c-.306 0-.593-.025-.861-.074a3.109 3.109 0 01-.657-.176l.544-1.801c.283.087.538.134.765.142a.98.98 0 00.595-.159c.17-.113.307-.306.413-.578l.142-.368-3.122-8.952h2.538l1.802 6.391h.09l1.819-6.391h2.555l-3.382 9.643a4.063 4.063 0 01-.663 1.224 2.722 2.722 0 01-1.048.81c-.423.192-.933.289-1.53.289zm14.757-3.122c-.661 0-1.259-.17-1.796-.51-.532-.343-.955-.848-1.269-1.512-.309-.669-.464-1.489-.464-2.459 0-.997.16-1.826.481-2.487.321-.665.748-1.162 1.281-1.49a3.273 3.273 0 011.762-.499c.487 0 .893.083 1.218.249.328.163.593.367.793.612.204.242.359.48.464.714h.074v-4.362h2.408v11.602h-2.38v-1.393h-.102a3.114 3.114 0 01-.481.719c-.204.234-.47.429-.799.584-.325.155-.721.232-1.19.232zm.765-1.92c.389 0 .718-.106.986-.318.272-.215.479-.515.623-.9.147-.386.221-.837.221-1.355 0-.517-.072-.966-.215-1.348-.144-.381-.352-.676-.624-.884-.271-.207-.602-.311-.991-.311-.397 0-.731.107-1.003.323-.272.215-.478.513-.617.895-.14.381-.21.823-.21 1.325 0 .507.07.954.21 1.343.143.385.349.688.617.907.272.215.606.323 1.003.323zm6.171 1.778v-8.702h2.414v8.702h-2.414zm1.212-9.823c-.358 0-.666-.119-.923-.357a1.159 1.159 0 01-.38-.867c0-.332.127-.618.38-.855a1.3 1.3 0 01.923-.363c.359 0 .665.121.918.363.257.237.385.523.385.855 0 .336-.128.625-.385.867a1.291 1.291 0 01-.918.357zm7.055 13.268c-.782 0-1.452-.108-2.011-.323-.555-.211-.997-.5-1.326-.867a2.667 2.667 0 01-.64-1.235l2.232-.3c.068.174.176.336.323.487.148.151.342.272.584.363.245.094.544.141.895.141.525 0 .957-.128 1.297-.385.344-.253.516-.678.516-1.275v-1.591h-.102c-.106.241-.265.47-.476.685a2.403 2.403 0 01-.816.527c-.332.136-.729.204-1.19.204a3.572 3.572 0 01-1.784-.453c-.533-.306-.958-.773-1.275-1.4-.313-.63-.47-1.427-.47-2.391 0-.985.16-1.809.481-2.47.322-.661.748-1.155 1.281-1.484a3.303 3.303 0 011.762-.493c.487 0 .895.083 1.224.249.328.163.592.367.793.612.204.242.36.48.47.714h.091v-1.462h2.396v8.787c0 .741-.181 1.36-.544 1.859-.362.498-.865.872-1.507 1.121-.638.254-1.373.38-2.204.38zm.051-5.382c.389 0 .718-.096.986-.289.272-.196.48-.476.623-.838.148-.367.221-.805.221-1.315 0-.51-.072-.952-.215-1.326-.144-.377-.351-.67-.623-.878-.272-.207-.603-.311-.992-.311-.396 0-.731.107-1.003.323-.271.211-.477.506-.617.883-.14.378-.21.814-.21 1.309 0 .502.07.937.21 1.303.143.363.349.644.617.844.272.197.607.295 1.003.295zm6.125 1.937v-8.702h2.413v8.702h-2.413zm1.212-9.823c-.359 0-.667-.119-.924-.357a1.158 1.158 0 01-.379-.867c0-.332.126-.618.379-.855a1.3 1.3 0 01.924-.363c.359 0 .665.121.918.363.257.237.385.523.385.855 0 .336-.128.625-.385.867a1.291 1.291 0 01-.918.357zm7.763 1.121v1.813h-5.241v-1.813h5.241zm-4.051-2.084h2.414v8.112c0 .223.034.397.102.522a.565.565 0 00.283.255c.125.049.268.073.43.073.114 0 .227-.009.34-.028l.261-.051.38 1.796a6.686 6.686 0 01-.51.13 4.062 4.062 0 01-.799.096c-.582.023-1.092-.054-1.53-.232a2.134 2.134 0 01-1.014-.827c-.242-.374-.361-.846-.357-1.416v-8.43zm8.105 10.951a3.64 3.64 0 01-1.485-.289 2.392 2.392 0 01-1.031-.867c-.249-.385-.374-.865-.374-1.439 0-.483.089-.889.266-1.218.178-.329.42-.593.726-.793a3.52 3.52 0 011.042-.453 8.012 8.012 0 011.235-.216c.506-.053.914-.102 1.224-.147.31-.049.534-.121.674-.215a.474.474 0 00.21-.42v-.034c0-.358-.114-.636-.34-.832-.223-.197-.54-.295-.952-.295-.434 0-.78.096-1.037.289a1.33 1.33 0 00-.51.714l-2.232-.181c.113-.529.336-.986.669-1.371a3.21 3.21 0 011.286-.896c.528-.211 1.14-.317 1.835-.317.484 0 .946.057 1.388.17.446.113.841.289 1.184.527.348.238.622.544.822.918.2.37.3.814.3 1.331v5.869h-2.289v-1.206h-.068a2.418 2.418 0 01-.561.719 2.588 2.588 0 01-.844.482c-.328.113-.708.17-1.138.17zm.691-1.666c.355 0 .668-.07.94-.209.272-.144.485-.337.64-.578.155-.242.233-.516.233-.822v-.923c-.076.049-.18.094-.312.136a6.082 6.082 0 01-.436.107 17.138 17.138 0 01-.929.148 2.932 2.932 0 00-.742.198 1.185 1.185 0 00-.493.368.898.898 0 00-.176.567c0 .328.119.579.357.753.242.17.548.255.918.255zm8.495-10.101v11.602h-2.413v-11.602h2.413zm8.107 11.767c-.555 0-1.05-.097-1.484-.289a2.386 2.386 0 01-1.031-.867c-.25-.385-.374-.865-.374-1.439 0-.483.089-.889.266-1.218.178-.329.419-.593.725-.793.306-.2.654-.351 1.043-.453a7.97 7.97 0 011.235-.216c.506-.053.914-.102 1.223-.147.31-.049.535-.121.675-.215a.475.475 0 00.209-.42v-.034c0-.358-.113-.636-.34-.832-.223-.197-.54-.295-.951-.295-.435 0-.78.096-1.037.289a1.33 1.33 0 00-.51.714l-2.232-.181a3.03 3.03 0 01.668-1.371 3.217 3.217 0 011.286-.896c.529-.211 1.141-.317 1.836-.317.483 0 .946.057 1.388.17.446.113.84.289 1.184.527.347.238.621.544.821.918.201.37.301.814.301 1.331v5.869h-2.289v-1.206h-.068c-.14.272-.327.512-.561.719a2.598 2.598 0 01-.844.482 3.5 3.5 0 01-1.139.17zm.691-1.666c.355 0 .669-.07.941-.209.272-.144.485-.337.64-.578a1.49 1.49 0 00.232-.822v-.923a1.303 1.303 0 01-.311.136 6.118 6.118 0 01-.437.107c-.162.031-.324.059-.487.085l-.442.063c-.283.041-.53.107-.742.198a1.191 1.191 0 00-.493.368.898.898 0 00-.175.567c0 .328.119.579.357.753.241.17.547.255.917.255zm13.322-4.719l-2.209.136a1.14 1.14 0 00-.244-.51 1.28 1.28 0 00-.493-.368c-.2-.095-.44-.142-.719-.142-.374 0-.689.079-.946.238-.257.155-.385.363-.385.623a.67.67 0 00.249.527c.166.144.451.259.855.346l1.575.317c.846.174 1.477.453 1.893.838.415.386.623.892.623 1.519a2.37 2.37 0 01-.504 1.501c-.333.431-.79.767-1.371 1.009-.578.237-1.245.356-2 .356-1.152 0-2.07-.239-2.754-.719a2.802 2.802 0 01-1.195-1.972l2.374-.124c.071.351.245.619.521.804.276.182.629.272 1.059.272.423 0 .763-.081 1.02-.243.261-.167.393-.38.397-.641a.668.668 0 00-.278-.538c-.181-.143-.461-.253-.838-.328l-1.507-.301c-.85-.17-1.483-.464-1.898-.883-.412-.42-.618-.954-.618-1.604 0-.559.151-1.04.453-1.444.306-.405.735-.716 1.286-.935.556-.219 1.205-.329 1.949-.329 1.099 0 1.964.232 2.595.697.635.465 1.005 1.097 1.11 1.898zm8.959 0l-2.21.136a1.139 1.139 0 00-.243-.51 1.287 1.287 0 00-.493-.368c-.2-.095-.44-.142-.72-.142-.374 0-.689.079-.946.238-.257.155-.385.363-.385.623a.67.67 0 00.249.527c.166.144.452.259.856.346l1.575.317c.846.174 1.476.453 1.892.838.415.386.623.892.623 1.519a2.37 2.37 0 01-.504 1.501c-.332.431-.789.767-1.371 1.009-.578.237-1.245.356-2 .356-1.152 0-2.07-.239-2.753-.719a2.803 2.803 0 01-1.196-1.972l2.374-.124c.072.351.246.619.521.804.276.182.629.272 1.06.272.423 0 .763-.081 1.019-.243.261-.167.393-.38.397-.641a.665.665 0 00-.278-.538c-.181-.143-.46-.253-.838-.328l-1.507-.301c-.85-.17-1.482-.464-1.898-.883-.412-.42-.617-.954-.617-1.604 0-.559.151-1.04.453-1.444.306-.405.734-.716 1.286-.935.555-.219 1.205-.329 1.949-.329 1.099 0 1.964.232 2.594.697.635.465 1.005 1.097 1.111 1.898zm5.684 6.39c-.895 0-1.666-.181-2.312-.543a3.724 3.724 0 01-1.484-1.553c-.348-.672-.521-1.467-.521-2.385 0-.895.173-1.681.521-2.357a3.842 3.842 0 011.467-1.58c.635-.378 1.379-.567 2.232-.567.574 0 1.109.093 1.604.278a3.56 3.56 0 011.303.821c.374.367.664.827.872 1.383.208.551.312 1.197.312 1.937v.663h-7.348v-1.496h5.076c0-.347-.076-.655-.227-.923a1.618 1.618 0 00-.629-.629 1.79 1.79 0 00-.923-.232c-.366 0-.691.085-.974.255-.28.166-.499.391-.658.674a1.911 1.911 0 00-.243.935v1.422c0 .43.079.802.238 1.116.162.313.391.555.685.725.295.17.644.255 1.048.255.268 0 .514-.038.737-.113.223-.076.413-.189.572-.34.159-.151.28-.337.363-.556l2.232.148a3.062 3.062 0 01-.697 1.405 3.512 3.512 0 01-1.348.929c-.548.219-1.181.328-1.898.328zm10.197-8.872v1.813h-5.24v-1.813h5.24zm-4.05-2.084h2.413v8.112c0 .223.034.397.102.522a.565.565 0 00.283.255c.125.049.268.073.431.073.113 0 .226-.009.34-.028l.26-.051.38 1.796a6.686 6.686 0 01-.51.13 4.052 4.052 0 01-.799.096c-.581.023-1.091-.054-1.529-.232a2.124 2.124 0 01-1.014-.827c-.242-.374-.361-.846-.357-1.416v-8.43zm12.754 4.566l-2.21.136a1.139 1.139 0 00-.243-.51 1.287 1.287 0 00-.493-.368c-.2-.095-.44-.142-.72-.142-.374 0-.689.079-.946.238-.257.155-.385.363-.385.623a.67.67 0 00.249.527c.166.144.452.259.856.346l1.575.317c.846.174 1.476.453 1.892.838.415.386.623.892.623 1.519a2.37 2.37 0 01-.504 1.501c-.333.431-.79.767-1.371 1.009-.578.237-1.245.356-2 .356-1.152 0-2.07-.239-2.753-.719a2.803 2.803 0 01-1.196-1.972l2.374-.124c.072.351.245.619.521.804.276.182.629.272 1.06.272.423 0 .763-.081 1.019-.243.261-.167.393-.38.397-.641a.665.665 0 00-.278-.538c-.181-.143-.46-.253-.838-.328l-1.507-.301c-.85-.17-1.483-.464-1.898-.883-.412-.42-.618-.954-.618-1.604 0-.559.152-1.04.454-1.444.306-.405.734-.716 1.286-.935.555-.219 1.205-.329 1.949-.329 1.099 0 1.964.232 2.594.697.635.465 1.005 1.097 1.111 1.898zm11.161 9.484v-4.657h-.074a3.088 3.088 0 01-.482.719c-.204.234-.47.429-.798.584-.325.155-.722.232-1.19.232-.661 0-1.26-.17-1.796-.51-.533-.343-.956-.848-1.269-1.512-.31-.669-.465-1.489-.465-2.459 0-.997.161-1.826.482-2.487.321-.665.748-1.162 1.28-1.49a3.278 3.278 0 011.762-.499c.487 0 .893.083 1.218.249.329.163.593.367.793.612.204.242.359.48.465.714h.102v-1.462h2.379v11.966h-2.407zm-1.779-5.042c.389 0 .717-.106.985-.318.272-.215.48-.515.624-.9.147-.386.221-.837.221-1.355 0-.517-.072-.966-.216-1.348-.143-.381-.351-.676-.623-.884-.272-.207-.602-.311-.991-.311-.397 0-.731.107-1.003.323-.272.215-.478.513-.618.895a3.859 3.859 0 00-.209 1.325c0 .507.07.954.209 1.343.144.385.35.688.618.907.272.215.606.323 1.003.323zm11.704-1.927v-4.997h2.414v8.702h-2.317v-1.58h-.091c-.196.51-.523.92-.98 1.229-.453.31-1.007.465-1.66.465-.582 0-1.093-.132-1.535-.397a2.722 2.722 0 01-1.037-1.127c-.246-.487-.37-1.071-.374-1.751v-5.541h2.413v5.111c.004.513.142.919.414 1.218.272.298.636.447 1.093.447.291 0 .563-.066.816-.198.253-.136.457-.336.612-.601.159-.264.236-.591.232-.98zm4.344 3.705v-8.702h2.414v8.702h-2.414zm1.213-9.823c-.359 0-.667-.119-.924-.357a1.158 1.158 0 01-.379-.867c0-.332.126-.618.379-.855a1.3 1.3 0 01.924-.363c.359 0 .664.121.917.363.257.237.386.523.386.855 0 .336-.129.625-.386.867a1.289 1.289 0 01-.917.357zm7.066 9.993c-.892 0-1.658-.188-2.3-.566a3.824 3.824 0 01-1.473-1.586c-.34-.676-.51-1.455-.51-2.335 0-.891.172-1.673.515-2.345a3.84 3.84 0 011.479-1.581c.638-.381 1.397-.572 2.278-.572.759 0 1.423.138 1.994.414.57.275 1.021.663 1.354 1.161.332.499.515 1.084.549 1.756h-2.277c-.064-.434-.234-.783-.51-1.048-.272-.268-.629-.402-1.071-.402-.374 0-.7.102-.98.306-.276.2-.491.493-.646.878-.155.385-.232.852-.232 1.399 0 .556.075 1.028.227 1.417.154.389.372.685.651.889.28.204.606.306.98.306.276 0 .523-.056.742-.17a1.43 1.43 0 00.55-.493c.147-.219.243-.481.289-.787h2.277c-.037.665-.219 1.25-.544 1.756a3.29 3.29 0 01-1.331 1.179c-.566.283-1.237.424-2.011.424zm7.618-2.674l.006-2.895h.351l2.788-3.303h2.77l-3.745 4.374h-.572l-1.598 1.824zm-2.186 2.504v-11.602h2.413v11.602h-2.413zm5.438 0l-2.56-3.79 1.609-1.705 3.778 5.495h-2.827zm6.261-11.602v11.602h-2.414v-11.602h2.414zm3.423 14.866c-.306 0-.593-.025-.861-.074a3.075 3.075 0 01-.657-.176l.543-1.801c.284.087.539.134.765.142a.976.976 0 00.595-.159c.17-.113.308-.306.414-.578l.141-.368-3.121-8.952h2.538l1.801 6.391h.091l1.819-6.391h2.555l-3.383 9.643a4.061 4.061 0 01-.662 1.224 2.722 2.722 0 01-1.048.81c-.423.192-.933.289-1.53.289z" fill="#fff" fill-opacity=".8"/><g clip-path="url(#clip0_1_14053)"><path d="M148.871 334.982a23.873 23.873 0 0023.931-23.93 23.873 23.873 0 00-23.931-23.931 23.873 23.873 0 00-23.93 23.931 23.873 23.873 0 0023.93 23.93z" fill="#8851F8"/><path d="M146.341 319.027h-4.118l3.275-9.305 2.042 5.926-1.199 3.379zm9.029.001h-3.84l5.541-14.624h3.765l-5.466 14.624zm-14.275-14.624h-4.189l3.398 9.305 1.919-5.715-1.128-3.59zm10.446 0h-3.999l3.255 9.305 2.062-5.37-1.318-3.935z" fill="#fff"/></g><path d="M193.442 317.606v-13.371h3.381v13.371h-3.381zm-4.995-4.995v-3.381h13.371v3.381h-13.371zm31.026 8.365c-1.625-.006-3.022-.406-4.193-1.199-1.164-.793-2.061-1.942-2.691-3.446-.623-1.505-.932-3.314-.925-5.43 0-2.108.311-3.905.935-5.391.629-1.486 1.526-2.616 2.691-3.39 1.17-.78 2.565-1.171 4.183-1.171 1.617 0 3.008.391 4.173 1.171 1.171.781 2.071 1.914 2.701 3.399.629 1.48.941 3.274.934 5.382 0 2.122-.314 3.935-.944 5.439-.623 1.505-1.517 2.654-2.682 3.447-1.164.793-2.558 1.189-4.182 1.189zm0-3.389c1.107 0 1.992-.557 2.653-1.672.661-1.114.988-2.785.982-5.014 0-1.466-.151-2.687-.453-3.663-.296-.976-.718-1.709-1.266-2.2a2.758 2.758 0 00-1.916-.737c-1.102 0-1.983.551-2.644 1.653-.661 1.101-.995 2.751-1.001 4.947 0 1.486.148 2.726.444 3.721.302.988.727 1.731 1.274 2.228.548.491 1.19.737 1.927.737zm12.334 3.21c-.624 0-1.159-.22-1.606-.661a2.208 2.208 0 01-.661-1.605c0-.617.221-1.146.661-1.586a2.205 2.205 0 011.606-.661c.604 0 1.133.22 1.586.661.453.44.68.969.68 1.586 0 .415-.107.796-.321 1.142-.208.34-.482.614-.822.822-.34.201-.714.302-1.123.302zm12.334.179c-1.625-.006-3.022-.406-4.193-1.199-1.164-.793-2.061-1.942-2.691-3.446-.623-1.505-.932-3.314-.925-5.43 0-2.108.311-3.905.935-5.391.629-1.486 1.526-2.616 2.691-3.39 1.17-.78 2.565-1.171 4.183-1.171 1.617 0 3.009.391 4.173 1.171 1.171.781 2.071 1.914 2.701 3.399.629 1.48.941 3.274.934 5.382 0 2.122-.314 3.935-.944 5.439-.623 1.505-1.517 2.654-2.681 3.447-1.165.793-2.559 1.189-4.183 1.189zm0-3.389c1.107 0 1.992-.557 2.653-1.672.661-1.114.988-2.785.982-5.014 0-1.466-.151-2.687-.453-3.663-.296-.976-.718-1.709-1.266-2.2a2.758 2.758 0 00-1.916-.737c-1.102 0-1.983.551-2.644 1.653-.661 1.101-.995 2.751-1.001 4.947 0 1.486.148 2.726.444 3.721.302.988.727 1.731 1.274 2.228.548.491 1.19.737 1.927.737zm18.306 3.389c-1.624-.006-3.022-.406-4.193-1.199-1.164-.793-2.061-1.942-2.691-3.446-.623-1.505-.931-3.314-.925-5.43 0-2.108.312-3.905.935-5.391.629-1.486 1.526-2.616 2.691-3.39 1.171-.78 2.565-1.171 4.183-1.171 1.618 0 3.009.391 4.173 1.171 1.171.781 2.071 1.914 2.701 3.399.629 1.48.941 3.274.935 5.382 0 2.122-.315 3.935-.945 5.439-.623 1.505-1.517 2.654-2.681 3.447-1.165.793-2.559 1.189-4.183 1.189zm0-3.389c1.108 0 1.992-.557 2.653-1.672.661-1.114.988-2.785.982-5.014 0-1.466-.151-2.687-.453-3.663-.296-.976-.718-1.709-1.265-2.2a2.762 2.762 0 00-1.917-.737c-1.102 0-1.983.551-2.644 1.653-.661 1.101-.995 2.751-1.001 4.947 0 1.486.148 2.726.444 3.721.302.988.727 1.731 1.275 2.228a2.791 2.791 0 001.926.737zm18.146 3.229a8.713 8.713 0 01-2.88-.501 6.556 6.556 0 01-2.474-1.595c-.73-.737-1.31-1.713-1.738-2.927-.421-1.215-.632-2.707-.632-4.476.006-1.624.192-3.075.557-4.353.371-1.284.9-2.373 1.586-3.267.693-.894 1.52-1.574 2.484-2.04.963-.472 2.042-.708 3.238-.708 1.291 0 2.43.252 3.418.756.989.497 1.782 1.174 2.38 2.03a6.175 6.175 0 011.095 2.88h-4.032c-.157-.674-.488-1.203-.991-1.587-.504-.384-1.127-.576-1.87-.576-1.259 0-2.216.548-2.87 1.643-.649 1.096-.979 2.584-.992 4.467h.133a4.485 4.485 0 011.17-1.464 5.35 5.35 0 011.691-.935 6.102 6.102 0 012.011-.33c1.145 0 2.165.27 3.059.812a5.754 5.754 0 012.115 2.209c.516.938.774 2.011.774 3.22 0 1.309-.305 2.474-.915 3.494-.605 1.02-1.451 1.819-2.54 2.398-1.083.573-2.342.856-3.777.85zm-.019-3.21a3.192 3.192 0 002.861-1.681 3.556 3.556 0 00.425-1.738 3.5 3.5 0 00-.425-1.728 3.21 3.21 0 00-1.152-1.218c-.491-.302-1.051-.453-1.681-.453-.472 0-.91.088-1.312.265a3.294 3.294 0 00-1.049.736c-.295.315-.528.68-.698 1.095-.17.41-.255.847-.255 1.313 0 .623.141 1.193.425 1.709a3.4 3.4 0 001.171 1.237c.497.308 1.06.463 1.69.463zm10.915 2.946l8.017-15.864v-.132h-9.339v-3.342h13.569v3.389l-8.026 15.949h-4.221zm21.873.264c-1.454 0-2.748-.236-3.881-.708-1.126-.479-2.011-1.13-2.653-1.955a4.443 4.443 0 01-.963-2.804c0-.806.183-1.546.548-2.219a4.928 4.928 0 011.51-1.69 4.973 4.973 0 012.134-.869v-.132c-1.032-.208-1.869-.708-2.511-1.502-.642-.799-.963-1.727-.963-2.785 0-1.001.292-1.892.878-2.672.585-.787 1.388-1.404 2.407-1.851 1.027-.453 2.191-.68 3.494-.68 1.303 0 2.465.227 3.484.68 1.026.453 1.832 1.073 2.418 1.86.585.781.881 1.668.887 2.663-.006 1.064-.333 1.992-.982 2.785a4.217 4.217 0 01-2.493 1.502v.132a4.888 4.888 0 012.106.869 4.931 4.931 0 011.511 1.69c.378.673.569 1.413.576 2.219a4.493 4.493 0 01-.973 2.804c-.642.825-1.529 1.476-2.662 1.955-1.127.472-2.418.708-3.872.708zm0-3.003c.649 0 1.215-.116 1.7-.349a2.8 2.8 0 001.133-.982 2.59 2.59 0 00.415-1.454c0-.56-.141-1.055-.425-1.483a2.914 2.914 0 00-1.152-1.019c-.484-.252-1.041-.378-1.671-.378-.623 0-1.18.126-1.671.378a2.91 2.91 0 00-1.162 1.019c-.277.428-.415.923-.415 1.483 0 .547.135 1.032.406 1.454.271.415.652.743 1.143.982.491.233 1.057.349 1.699.349zm0-8.639c.542 0 1.023-.111 1.445-.331.422-.22.752-.526.991-.916s.359-.84.359-1.35c0-.504-.12-.944-.359-1.322a2.454 2.454 0 00-.982-.897c-.415-.22-.9-.331-1.454-.331-.548 0-1.032.111-1.454.331a2.44 2.44 0 00-.991.897c-.233.378-.35.818-.35 1.322 0 .51.12.96.359 1.35.239.39.57.696.991.916.422.22.904.331 1.445.331zm10.073 7.978v-3.22l8.073-12.718h2.776v4.456h-1.643l-5.089 8.055v.151h11.472v3.276h-15.589zm9.282 3.4v-4.382l.075-1.426v-13.53h3.834v19.338h-3.909zm16.179.264c-1.41 0-2.666-.242-3.768-.727-1.095-.491-1.96-1.165-2.596-2.021-.63-.862-.954-1.857-.973-2.984h4.117c.025.473.18.888.463 1.247.289.352.673.626 1.152.821a4.24 4.24 0 001.614.293c.624 0 1.174-.11 1.653-.33a2.715 2.715 0 001.123-.916c.271-.391.406-.841.406-1.351 0-.516-.144-.972-.434-1.369-.283-.403-.692-.717-1.227-.944-.529-.227-1.159-.34-1.889-.34h-1.803v-3.003h1.803c.617 0 1.162-.107 1.634-.321.478-.214.849-.51 1.114-.887.264-.384.396-.831.396-1.341 0-.485-.116-.91-.349-1.275a2.308 2.308 0 00-.963-.868c-.409-.208-.888-.312-1.435-.312-.554 0-1.061.101-1.521.302a2.651 2.651 0 00-1.104.841 2.211 2.211 0 00-.444 1.284h-3.919c.019-1.115.337-2.097.954-2.946.617-.85 1.448-1.514 2.493-1.993 1.051-.484 2.238-.727 3.56-.727 1.334 0 2.502.243 3.503.727 1.001.485 1.778 1.14 2.332 1.964.56.819.837 1.738.831 2.757.006 1.083-.331 1.987-1.01 2.71-.674.724-1.552 1.184-2.635 1.379v.151c1.423.183 2.505.677 3.248 1.483.749.799 1.121 1.8 1.114 3.002.007 1.102-.311 2.081-.953 2.937-.636.856-1.514 1.529-2.635 2.02-1.12.491-2.404.737-3.852.737zm21-.264l-5.534-19.338h4.467l3.201 13.436h.16l3.532-13.436h3.824l3.522 13.464h.17l3.201-13.464h4.466l-5.533 19.338h-3.985l-3.683-12.644h-.151l-3.673 12.644h-3.984zm23.197 0v-19.338h12.804v3.371h-8.715v4.607h7.865v3.371h-7.865v7.989h-4.089zm32.616-12.568h-4.136a4.03 4.03 0 00-.462-1.426 3.614 3.614 0 00-.897-1.076 3.934 3.934 0 00-1.266-.68 4.82 4.82 0 00-1.539-.236c-1.001 0-1.872.248-2.615.746-.743.491-1.319 1.208-1.728 2.152-.409.938-.614 2.078-.614 3.419 0 1.378.205 2.536.614 3.474.415.938.994 1.646 1.737 2.125.743.478 1.602.717 2.578.717a5.09 5.09 0 001.52-.217 3.978 3.978 0 001.256-.632c.365-.284.667-.627.907-1.03.245-.402.415-.862.509-1.378l4.136.019a7.486 7.486 0 01-.802 2.568 7.718 7.718 0 01-1.71 2.2c-.711.642-1.561 1.152-2.549 1.53-.982.371-2.093.557-3.333.557-1.725 0-3.267-.39-4.627-1.171-1.353-.781-2.423-1.91-3.21-3.39-.781-1.479-1.171-3.27-1.171-5.372 0-2.109.397-3.903 1.19-5.383.793-1.479 1.869-2.606 3.229-3.38 1.36-.78 2.889-1.171 4.589-1.171 1.12 0 2.159.158 3.116.472a7.916 7.916 0 012.559 1.379 7.088 7.088 0 011.813 2.2c.472.869.774 1.863.906 2.984z" fill="#00FF85"/></g><g clip-path="url(#clip1_1_14053)" filter="url(#filter1_f_1_14053)"><g filter="url(#filter2_d_1_14053)"><path d="M122.28 94.294l1.421.636 17.191 13.988-1.421-.635-17.191-13.989z" fill="#150043"/><path d="M139.536 107.589l1.356.635-3.961 23.295-1.357-.635 3.962-23.295z" fill="#18004B"/><path d="M135.492 131.52l1.412.594-21.19 8.712-1.412-.594 21.19-8.712z" fill="#100032"/><path d="M122.964 94.294l16.599 13.964-4.008 23.265-20.607 9.303-16.598-13.964 4.007-23.266 20.607-9.302z" fill="#18004B"/></g><g filter="url(#filter3_d_1_14053)"><path d="M113.009 126.81l1.294.721-4.024-.608-1.294-.721 4.024.608z" fill="#3B4380"/><path d="M115.31 123.542l1.651.558-2.337 3.43-1.651-.557 2.337-3.431z" fill="#535EB3"/><path d="M114.303 115.566l1.611.631 1.047 7.345-1.612-.631-1.046-7.345z" fill="#616DD2"/><path d="M114.679 115.566l.954 7.827-2.08 4.138-4.568-.567 5.694-11.398z" fill="#5D69C8"/></g><g filter="url(#filter4_d_1_14053)"><path d="M124.978 126.811l1.29.72-4.027-.608-1.29-.721 4.027.609z" fill="#2F2780"/><path d="M134.198 108.919l1.377.656-9.258 17.957-1.378-.657 9.259-17.956z" fill="#4136B1"/><path d="M134.246 109.466l-9.078 18.066-4.217-.559 9.16-18.054 4.135.547z" fill="#4A3DC8"/></g><g filter="url(#filter5_d_1_14053)"><path d="M110.316 107.589l.95.657.38 4.66-.95-.658-.38-4.659z" fill="#8088D2"/><path d="M110.112 112.906l1.532.582-3.784 6.065-1.533-.581 3.785-6.066z" fill="#6D74B3"/><path d="M109.772 108.204l.544 4.588-3.367 6.762-1.951-11.965 4.774.615z" fill="#7B82C8"/></g><g filter="url(#filter6_d_1_14053)"><path d="M120.952 107.589l1.846.602.813 4.715-1.846-.603-.813-4.714z" fill="#616DD2"/><path d="M122.069 112.906l1.542.613-3.776 6.034-1.542-.612 3.776-6.035z" fill="#525CB1"/><path d="M121.632 108.141l.65 5.051-3.618 6.362-1.7-11.965 4.668.552z" fill="#5D69C8"/></g></g><g clip-path="url(#clip2_1_14053)" filter="url(#filter7_f_1_14053)"><g filter="url(#filter8_d_1_14053)"><path d="M432.048 369.208l1.421.635 17.192 13.989-1.422-.636-17.191-13.988z" fill="#150043"/><path d="M449.304 382.502l1.356.635-3.961 23.296-1.356-.636 3.961-23.295z" fill="#18004B"/><path d="M445.26 406.433l1.412.594-21.19 8.713-1.411-.595 21.189-8.712z" fill="#100032"/><path d="M432.732 369.208l16.599 13.963-4.008 23.265-20.607 9.303-16.598-13.964 4.008-23.265 20.606-9.302z" fill="#18004B"/></g><g filter="url(#filter9_d_1_14053)"><path d="M422.776 401.722l1.294.721-4.023-.608-1.294-.721 4.023.608z" fill="#3B4380"/><path d="M425.078 398.455l1.651.557-2.337 3.431-1.651-.558 2.337-3.43z" fill="#535EB3"/><path d="M424.07 390.478l1.612.631 1.047 7.345-1.612-.631-1.047-7.345z" fill="#616DD2"/><path d="M424.446 390.478l.954 7.827-2.079 4.139-4.568-.568 5.693-11.398z" fill="#5D69C8"/></g><g filter="url(#filter10_d_1_14053)"><path d="M434.747 401.724l1.29.72-4.028-.609-1.29-.72 4.028.609z" fill="#2F2780"/><path d="M443.966 383.832l1.377.656-9.258 17.956-1.378-.656 9.259-17.956z" fill="#4136B1"/><path d="M444.014 384.379l-9.078 18.065-4.217-.558 9.16-18.054 4.135.547z" fill="#4A3DC8"/></g><g filter="url(#filter11_d_1_14053)"><path d="M420.083 382.502l.95.658.38 4.66-.951-.658-.379-4.66z" fill="#8088D2"/><path d="M419.881 387.82l1.532.581-3.785 6.066-1.533-.581 3.786-6.066z" fill="#6D74B3"/><path d="M419.54 383.118l.544 4.588-3.367 6.762-1.951-11.966 4.774.616z" fill="#7B82C8"/></g><g filter="url(#filter12_d_1_14053)"><path d="M430.719 382.502l1.846.603.812 4.715-1.846-.603-.812-4.715z" fill="#616DD2"/><path d="M431.836 387.82l1.541.613-3.775 6.034-1.542-.612 3.776-6.035z" fill="#525CB1"/><path d="M431.398 383.055l.651 5.051-3.619 6.362-1.699-11.966 4.667.553z" fill="#5D69C8"/></g></g><g clip-path="url(#clip3_1_14053)" filter="url(#filter13_f_1_14053)"><g filter="url(#filter14_d_1_14053)"><path d="M83.726 450.22l.507.232 6.14 5.086-.508-.231-6.14-5.087z" fill="#150043"/><path d="M89.694 455.538l.678.247-1.98 9.059-.678-.247 1.98-9.059z" fill="#18004B"/><path d="M88.545 463.515l.498.255-7.478 3.733-.498-.255 7.478-3.733z" fill="#100032"/><path d="M83.947 450.22l6.426 5.187-1.552 8.641-7.977 3.456-6.425-5.187 1.552-8.641 7.976-3.456z" fill="#18004B"/></g><g filter="url(#filter15_d_1_14053)"><path d="M79.414 462.364l.324.213-1.006-.179-.324-.213 1.006.179z" fill="#3B4380"/><path d="M80.517 460.856l.55.186-.779 1.143-.55-.185.779-1.144z" fill="#535EB3"/><path d="M79.738 458.197l.805.211.524 2.448-.806-.21-.523-2.449z" fill="#616DD2"/><path d="M80.685 458.198l.382 2.608-.832 1.38-1.827-.189 2.277-3.799z" fill="#5D69C8"/></g><g filter="url(#filter16_d_1_14053)"><path d="M85.74 462.378l.646.228-2.014-.193-.645-.227 2.014.192z" fill="#2F2780"/><path d="M88.528 455.538l.516.235-3.47 6.412-.517-.234 3.471-6.413z" fill="#4136B1"/><path d="M89.044 455.734l-3.63 6.451-1.687-.2 3.663-6.447 1.654.196z" fill="#4A3DC8"/></g><g filter="url(#filter17_d_1_14053)"><path d="M78.408 455.538l.95.329.38 2.33-.95-.329-.38-2.33z" fill="#8088D2"/><path d="M79.354 458.198l.383.232-.946 2.426-.383-.232.946-2.426z" fill="#6D74B3"/><path d="M79.466 455.812l.272 2.039-1.684 3.005-.975-5.318 2.387.274z" fill="#7B82C8"/></g><g filter="url(#filter18_d_1_14053)"><path d="M83.725 455.538l.923.302.407 2.357-.923-.301-.407-2.358z" fill="#616DD2"/><path d="M84.67 458.198l.385.245-.944 2.413-.386-.244.944-2.414z" fill="#525CB1"/><path d="M84.73 455.784l.325 2.245-1.81 2.827-.849-5.318 2.334.246z" fill="#5D69C8"/></g></g><g clip-path="url(#clip4_1_14053)" filter="url(#filter19_f_1_14053)"><g filter="url(#filter20_d_1_14053)"><path d="M481.241 446.235l.508.231 6.139 5.087-.508-.231-6.139-5.087z" fill="#150043"/><path d="M487.21 451.553l.678.247-1.98 9.059-.679-.247 1.981-9.059z" fill="#18004B"/><path d="M486.06 459.53l.499.255-7.478 3.733-.498-.255 7.477-3.733z" fill="#100032"/><path d="M481.463 446.235l6.425 5.187-1.551 8.641-7.977 3.456-6.425-5.187 1.551-8.641 7.977-3.456z" fill="#18004B"/></g><g filter="url(#filter21_d_1_14053)"><path d="M476.928 458.38l.323.212-1.006-.179-.323-.212 1.006.179z" fill="#3B4380"/><path d="M478.03 456.871l.55.186-.779 1.143-.55-.185.779-1.144z" fill="#535EB3"/><path d="M477.251 454.212l.806.211.523 2.448-.806-.21-.523-2.449z" fill="#616DD2"/><path d="M478.199 454.212l.381 2.609-.831 1.379-1.827-.189 2.277-3.799z" fill="#5D69C8"/></g><g filter="url(#filter22_d_1_14053)"><path d="M483.253 458.394l.645.228-2.013-.193-.645-.228 2.013.193z" fill="#2F2780"/><path d="M486.04 451.553l.517.235-3.471 6.412-.517-.234 3.471-6.413z" fill="#4136B1"/><path d="M486.557 451.749l-3.631 6.451-1.686-.199 3.663-6.448 1.654.196z" fill="#4A3DC8"/></g><g filter="url(#filter23_d_1_14053)"><path d="M475.922 451.554l.95.329.379 2.329-.95-.328-.379-2.33z" fill="#8088D2"/><path d="M476.868 454.213l.383.232-.946 2.426-.383-.232.946-2.426z" fill="#6D74B3"/><path d="M476.979 451.827l.272 2.04-1.684 3.004-.975-5.317 2.387.273z" fill="#7B82C8"/></g><g filter="url(#filter24_d_1_14053)"><path d="M481.24 451.553l.923.302.407 2.357-.923-.301-.407-2.358z" fill="#616DD2"/><path d="M480.855 454.213l.385.245-.943 2.413-.386-.244.944-2.414z" fill="#525CB1"/><path d="M482.245 451.799l.325 2.245-1.809 2.827-.85-5.318 2.334.246z" fill="#5D69C8"/></g></g><g clip-path="url(#clip5_1_14053)" filter="url(#filter25_f_1_14053)"><g filter="url(#filter26_d_1_14053)"><path d="M394.824 38.514l.508.231 6.139 5.087-.507-.231-6.14-5.087z" fill="#150043"/><path d="M400.793 43.832l.678.247-1.98 9.059-.679-.247 1.981-9.059z" fill="#18004B"/><path d="M399.642 51.809l.499.255-7.478 3.733-.498-.255 7.477-3.733z" fill="#100032"/><path d="M395.046 38.514l6.426 5.187-1.552 8.641-7.977 3.456-6.425-5.187 1.551-8.641 7.977-3.456z" fill="#18004B"/></g><g filter="url(#filter27_d_1_14053)"><path d="M390.511 50.659l.324.212-1.006-.18-.324-.211 1.006.179z" fill="#3B4380"/><path d="M391.614 49.15l.55.186-.779 1.144-.55-.186.779-1.144z" fill="#535EB3"/><path d="M390.835 46.491l.805.21.524 2.449-.806-.21-.523-2.449z" fill="#616DD2"/><path d="M391.783 46.491l.381 2.609-.831 1.38-1.827-.19 2.277-3.799z" fill="#5D69C8"/></g><g filter="url(#filter28_d_1_14053)"><path d="M396.836 50.672l.645.228-2.013-.192-.645-.228 2.013.192z" fill="#2F2780"/><path d="M399.624 43.832l.516.235-3.471 6.412-.517-.234 3.472-6.413z" fill="#4136B1"/><path d="M400.14 44.028l-3.631 6.451-1.686-.2 3.663-6.447 1.654.196z" fill="#4A3DC8"/></g><g filter="url(#filter29_d_1_14053)"><path d="M389.505 43.832l.95.33.38 2.33-.95-.33-.38-2.33z" fill="#8088D2"/><path d="M390.452 46.491l.383.233-.946 2.426-.384-.233.947-2.426z" fill="#6D74B3"/><path d="M390.563 44.106l.272 2.039-1.684 3.005-.975-5.318 2.387.274z" fill="#7B82C8"/></g><g filter="url(#filter30_d_1_14053)"><path d="M394.824 43.832l.923.302.407 2.357-.923-.301-.407-2.358z" fill="#616DD2"/><path d="M394.439 46.491l.385.245-.944 2.414-.385-.245.944-2.414z" fill="#525CB1"/><path d="M395.829 44.078l.325 2.245-1.809 2.827-.85-5.317 2.334.245z" fill="#5D69C8"/></g></g><defs><filter id="filter0_b_1_14053" x="90.374" y="166.003" width="372.254" height="203.214" filterUnits="userSpaceOnUse" color-interpolation-filters="sRGB"><feFlood flood-opacity="0" result="BackgroundImageFix"/><feGaussianBlur in="BackgroundImageFix" stdDeviation="3.988"/><feComposite in2="SourceAlpha" operator="in" result="effect1_backgroundBlur_1_14053"/><feBlend in="SourceGraphic" in2="effect1_backgroundBlur_1_14053" result="shape"/></filter><filter id="filter1_f_1_14053" x="97.395" y="93.338" width="48.444" height="52.379" filterUnits="userSpaceOnUse" color-interpolation-filters="sRGB"><feFlood flood-opacity="0" result="BackgroundImageFix"/><feBlend in="SourceGraphic" in2="BackgroundImageFix" result="shape"/><feGaussianBlur stdDeviation=".478" result="effect1_foregroundBlur_1_14053"/></filter><filter id="filter2_d_1_14053" x="97.572" y="93.309" width="46.69" height="50.679" filterUnits="userSpaceOnUse" color-interpolation-filters="sRGB"><feFlood flood-opacity="0" result="BackgroundImageFix"/><feColorMatrix in="SourceAlpha" values="0 0 0 0 0 0 0 0 0 0 0 0 0 0 0 0 0 0 127 0" result="hardAlpha"/><feOffset dx="1.296" dy="1.089"/><feGaussianBlur stdDeviation="1.037"/><feComposite in2="hardAlpha" operator="out"/><feColorMatrix values="0 0 0 0 0 0 0 0 0 0 0 0 0 0 0 0 0 0 0.45 0"/><feBlend in2="BackgroundImageFix" result="effect1_dropShadow_1_14053"/><feBlend in="SourceGraphic" in2="effect1_dropShadow_1_14053" result="shape"/></filter><filter id="filter3_d_1_14053" x="108.467" y="113.493" width="10.05" height="14.039" filterUnits="userSpaceOnUse" color-interpolation-filters="sRGB"><feFlood flood-opacity="0" result="BackgroundImageFix"/><feColorMatrix in="SourceAlpha" values="0 0 0 0 0 0 0 0 0 0 0 0 0 0 0 0 0 0 127 0" result="hardAlpha"/><feOffset dx=".518" dy="-1.037"/><feGaussianBlur stdDeviation=".518"/><feComposite in2="hardAlpha" operator="out"/><feColorMatrix values="0 0 0 0 0.364706 0 0 0 0 0.411765 0 0 0 0 0.784314 0 0 0 0.4 0"/><feBlend in2="BackgroundImageFix" result="effect1_dropShadow_1_14053"/><feBlend in="SourceGraphic" in2="effect1_dropShadow_1_14053" result="shape"/></filter><filter id="filter4_d_1_14053" x="118.878" y="107.882" width="16.697" height="20.686" filterUnits="userSpaceOnUse" color-interpolation-filters="sRGB"><feFlood flood-opacity="0" result="BackgroundImageFix"/><feColorMatrix in="SourceAlpha" values="0 0 0 0 0 0 0 0 0 0 0 0 0 0 0 0 0 0 127 0" result="hardAlpha"/><feOffset dx="-1.037"/><feGaussianBlur stdDeviation=".518"/><feComposite in2="hardAlpha" operator="out"/><feColorMatrix values="0 0 0 0 0.290196 0 0 0 0 0.239216 0 0 0 0 0.784314 0 0 0 0.4 0"/><feBlend in2="BackgroundImageFix" result="effect1_dropShadow_1_14053"/><feBlend in="SourceGraphic" in2="effect1_dropShadow_1_14053" result="shape"/></filter><filter id="filter5_d_1_14053" x="104.116" y="107.589" width="8.721" height="14.039" filterUnits="userSpaceOnUse" color-interpolation-filters="sRGB"><feFlood flood-opacity="0" result="BackgroundImageFix"/><feColorMatrix in="SourceAlpha" values="0 0 0 0 0 0 0 0 0 0 0 0 0 0 0 0 0 0 127 0" result="hardAlpha"/><feOffset dx=".156" dy="1.037"/><feGaussianBlur stdDeviation=".518"/><feComposite in2="hardAlpha" operator="out"/><feColorMatrix values="0 0 0 0 0.482353 0 0 0 0 0.509804 0 0 0 0 0.784314 0 0 0 0.4 0"/><feBlend in2="BackgroundImageFix" result="effect1_dropShadow_1_14053"/><feBlend in="SourceGraphic" in2="effect1_dropShadow_1_14053" result="shape"/></filter><filter id="filter6_d_1_14053" x="116.031" y="107.589" width="8.72" height="14.039" filterUnits="userSpaceOnUse" color-interpolation-filters="sRGB"><feFlood flood-opacity="0" result="BackgroundImageFix"/><feColorMatrix in="SourceAlpha" values="0 0 0 0 0 0 0 0 0 0 0 0 0 0 0 0 0 0 127 0" result="hardAlpha"/><feOffset dx=".104" dy="1.037"/><feGaussianBlur stdDeviation=".518"/><feComposite in2="hardAlpha" operator="out"/><feColorMatrix values="0 0 0 0 0.364706 0 0 0 0 0.411765 0 0 0 0 0.784314 0 0 0 0.4 0"/><feBlend in2="BackgroundImageFix" result="effect1_dropShadow_1_14053"/><feBlend in="SourceGraphic" in2="effect1_dropShadow_1_14053" result="shape"/></filter><filter id="filter7_f_1_14053" x="407.162" y="368.251" width="48.444" height="52.379" filterUnits="userSpaceOnUse" color-interpolation-filters="sRGB"><feFlood flood-opacity="0" result="BackgroundImageFix"/><feBlend in="SourceGraphic" in2="BackgroundImageFix" result="shape"/><feGaussianBlur stdDeviation=".478" result="effect1_foregroundBlur_1_14053"/></filter><filter id="filter8_d_1_14053" x="407.34" y="368.223" width="46.69" height="50.679" filterUnits="userSpaceOnUse" color-interpolation-filters="sRGB"><feFlood flood-opacity="0" result="BackgroundImageFix"/><feColorMatrix in="SourceAlpha" values="0 0 0 0 0 0 0 0 0 0 0 0 0 0 0 0 0 0 127 0" result="hardAlpha"/><feOffset dx="1.296" dy="1.089"/><feGaussianBlur stdDeviation="1.037"/><feComposite in2="hardAlpha" operator="out"/><feColorMatrix values="0 0 0 0 0 0 0 0 0 0 0 0 0 0 0 0 0 0 0.45 0"/><feBlend in2="BackgroundImageFix" result="effect1_dropShadow_1_14053"/><feBlend in="SourceGraphic" in2="effect1_dropShadow_1_14053" result="shape"/></filter><filter id="filter9_d_1_14053" x="418.235" y="388.405" width="10.05" height="14.039" filterUnits="userSpaceOnUse" color-interpolation-filters="sRGB"><feFlood flood-opacity="0" result="BackgroundImageFix"/><feColorMatrix in="SourceAlpha" values="0 0 0 0 0 0 0 0 0 0 0 0 0 0 0 0 0 0 127 0" result="hardAlpha"/><feOffset dx=".518" dy="-1.037"/><feGaussianBlur stdDeviation=".518"/><feComposite in2="hardAlpha" operator="out"/><feColorMatrix values="0 0 0 0 0.364706 0 0 0 0 0.411765 0 0 0 0 0.784314 0 0 0 0.4 0"/><feBlend in2="BackgroundImageFix" result="effect1_dropShadow_1_14053"/><feBlend in="SourceGraphic" in2="effect1_dropShadow_1_14053" result="shape"/></filter><filter id="filter10_d_1_14053" x="428.646" y="382.795" width="16.697" height="20.686" filterUnits="userSpaceOnUse" color-interpolation-filters="sRGB"><feFlood flood-opacity="0" result="BackgroundImageFix"/><feColorMatrix in="SourceAlpha" values="0 0 0 0 0 0 0 0 0 0 0 0 0 0 0 0 0 0 127 0" result="hardAlpha"/><feOffset dx="-1.037"/><feGaussianBlur stdDeviation=".518"/><feComposite in2="hardAlpha" operator="out"/><feColorMatrix values="0 0 0 0 0.290196 0 0 0 0 0.239216 0 0 0 0 0.784314 0 0 0 0.4 0"/><feBlend in2="BackgroundImageFix" result="effect1_dropShadow_1_14053"/><feBlend in="SourceGraphic" in2="effect1_dropShadow_1_14053" result="shape"/></filter><filter id="filter11_d_1_14053" x="413.885" y="382.502" width="8.72" height="14.039" filterUnits="userSpaceOnUse" color-interpolation-filters="sRGB"><feFlood flood-opacity="0" result="BackgroundImageFix"/><feColorMatrix in="SourceAlpha" values="0 0 0 0 0 0 0 0 0 0 0 0 0 0 0 0 0 0 127 0" result="hardAlpha"/><feOffset dx=".156" dy="1.037"/><feGaussianBlur stdDeviation=".518"/><feComposite in2="hardAlpha" operator="out"/><feColorMatrix values="0 0 0 0 0.482353 0 0 0 0 0.509804 0 0 0 0 0.784314 0 0 0 0.4 0"/><feBlend in2="BackgroundImageFix" result="effect1_dropShadow_1_14053"/><feBlend in="SourceGraphic" in2="effect1_dropShadow_1_14053" result="shape"/></filter><filter id="filter12_d_1_14053" x="425.798" y="382.502" width="8.72" height="14.039" filterUnits="userSpaceOnUse" color-interpolation-filters="sRGB"><feFlood flood-opacity="0" result="BackgroundImageFix"/><feColorMatrix in="SourceAlpha" values="0 0 0 0 0 0 0 0 0 0 0 0 0 0 0 0 0 0 127 0" result="hardAlpha"/><feOffset dx=".104" dy="1.037"/><feGaussianBlur stdDeviation=".518"/><feComposite in2="hardAlpha" operator="out"/><feColorMatrix values="0 0 0 0 0.364706 0 0 0 0 0.411765 0 0 0 0 0.784314 0 0 0 0.4 0"/><feBlend in2="BackgroundImageFix" result="effect1_dropShadow_1_14053"/><feBlend in="SourceGraphic" in2="effect1_dropShadow_1_14053" result="shape"/></filter><filter id="filter13_f_1_14053" x="73.679" y="449.48" width="18.765" height="21.403" filterUnits="userSpaceOnUse" color-interpolation-filters="sRGB"><feFlood flood-opacity="0" result="BackgroundImageFix"/><feBlend in="SourceGraphic" in2="BackgroundImageFix" result="shape"/><feGaussianBlur stdDeviation=".37" result="effect1_foregroundBlur_1_14053"/></filter><filter id="filter14_d_1_14053" x="74.118" y="449.839" width="17.56" height="18.89" filterUnits="userSpaceOnUse" color-interpolation-filters="sRGB"><feFlood flood-opacity="0" result="BackgroundImageFix"/><feColorMatrix in="SourceAlpha" values="0 0 0 0 0 0 0 0 0 0 0 0 0 0 0 0 0 0 127 0" result="hardAlpha"/><feOffset dx=".502" dy=".422"/><feGaussianBlur stdDeviation=".402"/><feComposite in2="hardAlpha" operator="out"/><feColorMatrix values="0 0 0 0 0 0 0 0 0 0 0 0 0 0 0 0 0 0 0.45 0"/><feBlend in2="BackgroundImageFix" result="effect1_dropShadow_1_14053"/><feBlend in="SourceGraphic" in2="effect1_dropShadow_1_14053" result="shape"/></filter><filter id="filter15_d_1_14053" x="78.207" y="457.394" width="3.462" height="5.182" filterUnits="userSpaceOnUse" color-interpolation-filters="sRGB"><feFlood flood-opacity="0" result="BackgroundImageFix"/><feColorMatrix in="SourceAlpha" values="0 0 0 0 0 0 0 0 0 0 0 0 0 0 0 0 0 0 127 0" result="hardAlpha"/><feOffset dx=".201" dy="-.402"/><feGaussianBlur stdDeviation=".201"/><feComposite in2="hardAlpha" operator="out"/><feColorMatrix values="0 0 0 0 0.364706 0 0 0 0 0.411765 0 0 0 0 0.784314 0 0 0 0.4 0"/><feBlend in2="BackgroundImageFix" result="effect1_dropShadow_1_14053"/><feBlend in="SourceGraphic" in2="effect1_dropShadow_1_14053" result="shape"/></filter><filter id="filter16_d_1_14053" x="82.924" y="455.137" width="6.121" height="7.871" filterUnits="userSpaceOnUse" color-interpolation-filters="sRGB"><feFlood flood-opacity="0" result="BackgroundImageFix"/><feColorMatrix in="SourceAlpha" values="0 0 0 0 0 0 0 0 0 0 0 0 0 0 0 0 0 0 127 0" result="hardAlpha"/><feOffset dx="-.402"/><feGaussianBlur stdDeviation=".201"/><feComposite in2="hardAlpha" operator="out"/><feColorMatrix values="0 0 0 0 0.290196 0 0 0 0 0.239216 0 0 0 0 0.784314 0 0 0 0.4 0"/><feBlend in2="BackgroundImageFix" result="effect1_dropShadow_1_14053"/><feBlend in="SourceGraphic" in2="effect1_dropShadow_1_14053" result="shape"/></filter><filter id="filter17_d_1_14053" x="76.738" y="455.538" width="3.462" height="6.121" filterUnits="userSpaceOnUse" color-interpolation-filters="sRGB"><feFlood flood-opacity="0" result="BackgroundImageFix"/><feColorMatrix in="SourceAlpha" values="0 0 0 0 0 0 0 0 0 0 0 0 0 0 0 0 0 0 127 0" result="hardAlpha"/><feOffset dx=".06" dy=".402"/><feGaussianBlur stdDeviation=".201"/><feComposite in2="hardAlpha" operator="out"/><feColorMatrix values="0 0 0 0 0.482353 0 0 0 0 0.509804 0 0 0 0 0.784314 0 0 0 0.4 0"/><feBlend in2="BackgroundImageFix" result="effect1_dropShadow_1_14053"/><feBlend in="SourceGraphic" in2="effect1_dropShadow_1_14053" result="shape"/></filter><filter id="filter18_d_1_14053" x="82.035" y="455.538" width="3.462" height="6.121" filterUnits="userSpaceOnUse" color-interpolation-filters="sRGB"><feFlood flood-opacity="0" result="BackgroundImageFix"/><feColorMatrix in="SourceAlpha" values="0 0 0 0 0 0 0 0 0 0 0 0 0 0 0 0 0 0 127 0" result="hardAlpha"/><feOffset dx=".04" dy=".402"/><feGaussianBlur stdDeviation=".201"/><feComposite in2="hardAlpha" operator="out"/><feColorMatrix values="0 0 0 0 0.364706 0 0 0 0 0.411765 0 0 0 0 0.784314 0 0 0 0.4 0"/><feBlend in2="BackgroundImageFix" result="effect1_dropShadow_1_14053"/><feBlend in="SourceGraphic" in2="effect1_dropShadow_1_14053" result="shape"/></filter><filter id="filter19_f_1_14053" x="471.193" y="445.495" width="18.765" height="21.403" filterUnits="userSpaceOnUse" color-interpolation-filters="sRGB"><feFlood flood-opacity="0" result="BackgroundImageFix"/><feBlend in="SourceGraphic" in2="BackgroundImageFix" result="shape"/><feGaussianBlur stdDeviation=".37" result="effect1_foregroundBlur_1_14053"/></filter><filter id="filter20_d_1_14053" x="471.633" y="445.854" width="17.56" height="18.89" filterUnits="userSpaceOnUse" color-interpolation-filters="sRGB"><feFlood flood-opacity="0" result="BackgroundImageFix"/><feColorMatrix in="SourceAlpha" values="0 0 0 0 0 0 0 0 0 0 0 0 0 0 0 0 0 0 127 0" result="hardAlpha"/><feOffset dx=".502" dy=".422"/><feGaussianBlur stdDeviation=".402"/><feComposite in2="hardAlpha" operator="out"/><feColorMatrix values="0 0 0 0 0 0 0 0 0 0 0 0 0 0 0 0 0 0 0.45 0"/><feBlend in2="BackgroundImageFix" result="effect1_dropShadow_1_14053"/><feBlend in="SourceGraphic" in2="effect1_dropShadow_1_14053" result="shape"/></filter><filter id="filter21_d_1_14053" x="475.721" y="453.409" width="3.462" height="5.183" filterUnits="userSpaceOnUse" color-interpolation-filters="sRGB"><feFlood flood-opacity="0" result="BackgroundImageFix"/><feColorMatrix in="SourceAlpha" values="0 0 0 0 0 0 0 0 0 0 0 0 0 0 0 0 0 0 127 0" result="hardAlpha"/><feOffset dx=".201" dy="-.402"/><feGaussianBlur stdDeviation=".201"/><feComposite in2="hardAlpha" operator="out"/><feColorMatrix values="0 0 0 0 0.364706 0 0 0 0 0.411765 0 0 0 0 0.784314 0 0 0 0.4 0"/><feBlend in2="BackgroundImageFix" result="effect1_dropShadow_1_14053"/><feBlend in="SourceGraphic" in2="effect1_dropShadow_1_14053" result="shape"/></filter><filter id="filter22_d_1_14053" x="480.436" y="451.152" width="6.121" height="7.871" filterUnits="userSpaceOnUse" color-interpolation-filters="sRGB"><feFlood flood-opacity="0" result="BackgroundImageFix"/><feColorMatrix in="SourceAlpha" values="0 0 0 0 0 0 0 0 0 0 0 0 0 0 0 0 0 0 127 0" result="hardAlpha"/><feOffset dx="-.402"/><feGaussianBlur stdDeviation=".201"/><feComposite in2="hardAlpha" operator="out"/><feColorMatrix values="0 0 0 0 0.290196 0 0 0 0 0.239216 0 0 0 0 0.784314 0 0 0 0.4 0"/><feBlend in2="BackgroundImageFix" result="effect1_dropShadow_1_14053"/><feBlend in="SourceGraphic" in2="effect1_dropShadow_1_14053" result="shape"/></filter><filter id="filter23_d_1_14053" x="474.251" y="451.554" width="3.462" height="6.121" filterUnits="userSpaceOnUse" color-interpolation-filters="sRGB"><feFlood flood-opacity="0" result="BackgroundImageFix"/><feColorMatrix in="SourceAlpha" values="0 0 0 0 0 0 0 0 0 0 0 0 0 0 0 0 0 0 127 0" result="hardAlpha"/><feOffset dx=".06" dy=".402"/><feGaussianBlur stdDeviation=".201"/><feComposite in2="hardAlpha" operator="out"/><feColorMatrix values="0 0 0 0 0.482353 0 0 0 0 0.509804 0 0 0 0 0.784314 0 0 0 0.4 0"/><feBlend in2="BackgroundImageFix" result="effect1_dropShadow_1_14053"/><feBlend in="SourceGraphic" in2="effect1_dropShadow_1_14053" result="shape"/></filter><filter id="filter24_d_1_14053" x="479.55" y="451.553" width="3.462" height="6.121" filterUnits="userSpaceOnUse" color-interpolation-filters="sRGB"><feFlood flood-opacity="0" result="BackgroundImageFix"/><feColorMatrix in="SourceAlpha" values="0 0 0 0 0 0 0 0 0 0 0 0 0 0 0 0 0 0 127 0" result="hardAlpha"/><feOffset dx=".04" dy=".402"/><feGaussianBlur stdDeviation=".201"/><feComposite in2="hardAlpha" operator="out"/><feColorMatrix values="0 0 0 0 0.364706 0 0 0 0 0.411765 0 0 0 0 0.784314 0 0 0 0.4 0"/><feBlend in2="BackgroundImageFix" result="effect1_dropShadow_1_14053"/><feBlend in="SourceGraphic" in2="effect1_dropShadow_1_14053" result="shape"/></filter><filter id="filter25_f_1_14053" x="384.777" y="37.774" width="18.765" height="21.403" filterUnits="userSpaceOnUse" color-interpolation-filters="sRGB"><feFlood flood-opacity="0" result="BackgroundImageFix"/><feBlend in="SourceGraphic" in2="BackgroundImageFix" result="shape"/><feGaussianBlur stdDeviation=".37" result="effect1_foregroundBlur_1_14053"/></filter><filter id="filter26_d_1_14053" x="385.217" y="38.133" width="17.56" height="18.89" filterUnits="userSpaceOnUse" color-interpolation-filters="sRGB"><feFlood flood-opacity="0" result="BackgroundImageFix"/><feColorMatrix in="SourceAlpha" values="0 0 0 0 0 0 0 0 0 0 0 0 0 0 0 0 0 0 127 0" result="hardAlpha"/><feOffset dx=".502" dy=".422"/><feGaussianBlur stdDeviation=".402"/><feComposite in2="hardAlpha" operator="out"/><feColorMatrix values="0 0 0 0 0 0 0 0 0 0 0 0 0 0 0 0 0 0 0.45 0"/><feBlend in2="BackgroundImageFix" result="effect1_dropShadow_1_14053"/><feBlend in="SourceGraphic" in2="effect1_dropShadow_1_14053" result="shape"/></filter><filter id="filter27_d_1_14053" x="389.305" y="45.688" width="3.462" height="5.183" filterUnits="userSpaceOnUse" color-interpolation-filters="sRGB"><feFlood flood-opacity="0" result="BackgroundImageFix"/><feColorMatrix in="SourceAlpha" values="0 0 0 0 0 0 0 0 0 0 0 0 0 0 0 0 0 0 127 0" result="hardAlpha"/><feOffset dx=".201" dy="-.402"/><feGaussianBlur stdDeviation=".201"/><feComposite in2="hardAlpha" operator="out"/><feColorMatrix values="0 0 0 0 0.364706 0 0 0 0 0.411765 0 0 0 0 0.784314 0 0 0 0.4 0"/><feBlend in2="BackgroundImageFix" result="effect1_dropShadow_1_14053"/><feBlend in="SourceGraphic" in2="effect1_dropShadow_1_14053" result="shape"/></filter><filter id="filter28_d_1_14053" x="394.02" y="43.431" width="6.121" height="7.871" filterUnits="userSpaceOnUse" color-interpolation-filters="sRGB"><feFlood flood-opacity="0" result="BackgroundImageFix"/><feColorMatrix in="SourceAlpha" values="0 0 0 0 0 0 0 0 0 0 0 0 0 0 0 0 0 0 127 0" result="hardAlpha"/><feOffset dx="-.402"/><feGaussianBlur stdDeviation=".201"/><feComposite in2="hardAlpha" operator="out"/><feColorMatrix values="0 0 0 0 0.290196 0 0 0 0 0.239216 0 0 0 0 0.784314 0 0 0 0.4 0"/><feBlend in2="BackgroundImageFix" result="effect1_dropShadow_1_14053"/><feBlend in="SourceGraphic" in2="effect1_dropShadow_1_14053" result="shape"/></filter><filter id="filter29_d_1_14053" x="387.835" y="43.832" width="3.462" height="6.121" filterUnits="userSpaceOnUse" color-interpolation-filters="sRGB"><feFlood flood-opacity="0" result="BackgroundImageFix"/><feColorMatrix in="SourceAlpha" values="0 0 0 0 0 0 0 0 0 0 0 0 0 0 0 0 0 0 127 0" result="hardAlpha"/><feOffset dx=".06" dy=".402"/><feGaussianBlur stdDeviation=".201"/><feComposite in2="hardAlpha" operator="out"/><feColorMatrix values="0 0 0 0 0.482353 0 0 0 0 0.509804 0 0 0 0 0.784314 0 0 0 0.4 0"/><feBlend in2="BackgroundImageFix" result="effect1_dropShadow_1_14053"/><feBlend in="SourceGraphic" in2="effect1_dropShadow_1_14053" result="shape"/></filter><filter id="filter30_d_1_14053" x="393.133" y="43.832" width="3.462" height="6.121" filterUnits="userSpaceOnUse" color-interpolation-filters="sRGB"><feFlood flood-opacity="0" result="BackgroundImageFix"/><feColorMatrix in="SourceAlpha" values="0 0 0 0 0 0 0 0 0 0 0 0 0 0 0 0 0 0 127 0" result="hardAlpha"/><feOffset dx=".04" dy=".402"/><feGaussianBlur stdDeviation=".201"/><feComposite in2="hardAlpha" operator="out"/><feColorMatrix values="0 0 0 0 0.364706 0 0 0 0 0.411765 0 0 0 0 0.784314 0 0 0 0.4 0"/><feBlend in2="BackgroundImageFix" result="effect1_dropShadow_1_14053"/><feBlend in="SourceGraphic" in2="effect1_dropShadow_1_14053" result="shape"/></filter><clipPath id="clip0_1_14053"><path fill="#fff" transform="translate(124.94 287.121)" d="M0 0h47.861v47.861H0z"/></clipPath><clipPath id="clip1_1_14053"><path fill="#fff" transform="translate(98.35 94.294)" d="M0 0h46.532v50.467H0z"/></clipPath><clipPath id="clip2_1_14053"><path fill="#fff" transform="translate(408.118 369.207)" d="M0 0h46.532v50.467H0z"/></clipPath><clipPath id="clip3_1_14053"><path fill="#fff" transform="translate(74.42 450.22)" d="M0 0h17.283v19.921H0z"/></clipPath><clipPath id="clip4_1_14053"><path fill="#fff" transform="translate(471.934 446.236)" d="M0 0h17.283v19.921H0z"/></clipPath><clipPath id="clip5_1_14053"><path fill="#fff" transform="translate(385.518 38.515)" d="M0 0h17.283v19.921H0z"/></clipPath></defs></svg>