<svg width="24" height="24" viewBox="0 0 24 24" fill="none" xmlns="http://www.w3.org/2000/svg">
<g clip-path="url(#clip0_1_15588)">
<path d="M12 24C18.65 24 24 18.65 24 12C24 5.34996 18.65 0 12 0C5.34996 0 0 5.34996 0 12C0 18.65 5.34996 24 12 24Z" fill="#8851F8"/>
<path d="M10.5064 15.7346H8.67798L10.1321 11.3147L11.0391 14.1293L10.5064 15.7346Z" fill="white"/>
<path d="M15.3869 15.7275H13.5513L16.2003 8.55774H18L15.3869 15.7275Z" fill="white"/>
<path d="M8.05879 8.5072H6L7.67007 12.9487L8.61309 10.2205L8.05879 8.5072Z" fill="white"/>
<path d="M12.8963 8.5H11.0391L12.5508 12.9775L13.5082 10.3932L12.8963 8.5Z" fill="white"/>
</g>
<defs>
<clipPath id="clip0_1_15588">
<rect width="24" height="24" fill="white"/>
</clipPath>
</defs>
</svg>
