<svg width="27" height="24" viewBox="0 0 27 24" fill="none" xmlns="http://www.w3.org/2000/svg">
<g clip-path="url(#clip0_1_15565)">
<path fill-rule="evenodd" clip-rule="evenodd" d="M4.94378 0.117874L0.020728 10.6845C0.00199442 10.7238 -0.00394214 10.7682 0.00378651 10.8112C0.0115152 10.8542 0.0325036 10.8935 0.0636824 10.9234L13.3596 23.9423C13.3974 23.9793 13.4477 24 13.5 24C13.5524 24 13.6027 23.9793 13.6404 23.9423L26.9364 10.9243C26.9676 10.8943 26.9886 10.855 26.9963 10.812C27.004 10.769 26.9981 10.7246 26.9794 10.6853L22.0563 0.118687C22.0404 0.0831997 22.0149 0.0531376 21.9827 0.0320934C21.9506 0.0110491 21.9131 -8.70516e-05 21.875 1.57299e-05H5.12673C5.08836 -0.000472091 5.05066 0.0103958 5.0182 0.0313085C4.98574 0.0522212 4.95989 0.0822852 4.94378 0.117874Z" fill="#50AF95"/>
<path fill-rule="evenodd" clip-rule="evenodd" d="M15.2082 11.7695C15.1128 11.7768 14.6196 11.8069 13.5195 11.8069C12.6445 11.8069 12.0232 11.7801 11.8053 11.7695C8.4238 11.6175 5.89983 11.016 5.89983 10.2959C5.89983 9.57572 8.4238 8.97505 11.8053 8.82061V11.1705C12.0264 11.1867 12.6596 11.2249 13.5346 11.2249C14.5846 11.2249 15.1104 11.1802 15.205 11.1713V8.82224C18.5793 8.97586 21.0977 9.57735 21.0977 10.2959C21.0977 11.0144 18.5801 11.6159 15.205 11.7687L15.2082 11.7695ZM15.2082 8.57921V6.47645H19.9173V3.2699H7.09619V6.47645H11.8045V8.57839C7.97755 8.75803 5.09961 9.53264 5.09961 10.4609C5.09961 11.3891 7.97755 12.1629 11.8045 12.3434V19.0816H15.2074V12.3409C19.0256 12.1613 21.8987 11.3875 21.8987 10.4601C21.8987 9.53264 19.028 8.75884 15.2074 8.57839L15.2082 8.57921Z" fill="white"/>
</g>
<defs>
<clipPath id="clip0_1_15565">
<rect width="27" height="24" fill="white"/>
</clipPath>
</defs>
</svg>
