<svg width="568" height="435" viewBox="0 0 568 435" fill="none" xmlns="http://www.w3.org/2000/svg">
<line x1="4.5" y1="33.75" x2="566.5" y2="33.75" stroke="white" stroke-opacity="0.1" stroke-linecap="round"/>
<line x1="4.5" y1="73.75" x2="566.5" y2="73.75" stroke="white" stroke-opacity="0.1" stroke-linecap="round"/>
<line x1="4.5" y1="113.75" x2="566.5" y2="113.75" stroke="white" stroke-opacity="0.1" stroke-linecap="round"/>
<line x1="4.5" y1="153.75" x2="566.5" y2="153.75" stroke="white" stroke-opacity="0.1" stroke-linecap="round"/>
<line x1="4.5" y1="193.75" x2="566.5" y2="193.75" stroke="white" stroke-opacity="0.1" stroke-linecap="round"/>
<line x1="4.5" y1="233.75" x2="566.5" y2="233.75" stroke="white" stroke-opacity="0.1" stroke-linecap="round"/>
<line x1="4.5" y1="273.75" x2="566.5" y2="273.75" stroke="white" stroke-opacity="0.1" stroke-linecap="round"/>
<line x1="4.5" y1="313.75" x2="566.5" y2="313.75" stroke="white" stroke-opacity="0.1" stroke-linecap="round"/>
<line x1="4.5" y1="353.75" x2="566.5" y2="353.75" stroke="white" stroke-opacity="0.1" stroke-linecap="round"/>
<line x1="4.5" y1="393.75" x2="566.5" y2="393.75" stroke="white" stroke-opacity="0.1" stroke-linecap="round"/>
<path d="M567 4.24994C567 214.112 263.29 432.855 0 432.855H567V4.24994Z" fill="url(#paint0_linear_1_14440)"/>
<path d="M3.69739 431.83C268.708 431.83 564.5 213.361 564.5 3.75" stroke="#8851F8" stroke-width="6" stroke-linecap="round"/>
<defs>
<linearGradient id="paint0_linear_1_14440" x1="282.884" y1="4.40814" x2="282.884" y2="432.855" gradientUnits="userSpaceOnUse">
<stop stop-color="#5F2AD3"/>
<stop offset="1" stop-color="#5F2AD3" stop-opacity="0"/>
</linearGradient>
</defs>
</svg>
