<svg width="60" height="82" viewBox="0 0 60 82" fill="none" xmlns="http://www.w3.org/2000/svg">
<path d="M8.48438 62.2344H6.48438V64.2344V77.2656V79.2656H8.48438H55.875H57.875V77.2656V64.2344V62.2344H55.875H41.9844V4.47213L43.2204 2H39.9844C37.0368 2 34.0748 2.1602 31.0987 2.48021L31.0964 2.48046C28.131 2.80278 25.1687 3.33412 22.2099 4.07346C19.2608 4.7869 16.334 5.75775 13.4303 6.98348C10.5428 8.18424 7.7115 9.65751 4.93646 11.4L3.15627 12.5178L4.36119 14.2402L11.6737 24.6933L12.819 26.3305L14.4573 25.1868C15.9819 24.1225 17.6756 23.2084 19.5449 22.4486C20.71 21.9828 21.9032 21.5705 23.125 21.2119V62.2344H8.48438Z" stroke="url(#paint0_linear_1_14930)" stroke-width="4"/>
<defs>
<linearGradient id="paint0_linear_1_14930" x1="30.9375" y1="4" x2="30.9375" y2="77.2656" gradientUnits="userSpaceOnUse">
<stop stop-color="#7231FF"/>
<stop offset="1" stop-color="#7231FF" stop-opacity="0"/>
</linearGradient>
</defs>
</svg>
