<svg width="66" height="75" viewBox="0 0 66 75" fill="none" xmlns="http://www.w3.org/2000/svg">
<path d="M2.3125 62.25L0.0496883 58.9516L-1.6875 60.1433V62.25H2.3125ZM28.1406 44.5312L25.879 41.232L25.8778 41.2328L28.1406 44.5312ZM43.4688 32.3438L46.4149 35.0494L46.4285 35.0346L46.4419 35.0196L43.4688 32.3438ZM43.4688 17.0625L41.0687 20.2625L41.0876 20.2767L41.1067 20.2906L43.4688 17.0625ZM38.5938 14.8594L37.5517 18.7212L37.5593 18.7233L37.5669 18.7253L38.5938 14.8594ZM7.42188 21.1406L4.00453 23.2195L6.06846 26.6123L9.47603 24.5729L7.42188 21.1406ZM0.578125 9.89062L-1.52729 6.48956L-4.90199 8.57866L-2.83922 11.9695L0.578125 9.89062ZM15.4844 3.23438L14.3473 -0.600597L14.3412 -0.598776L15.4844 3.23438ZM45.8125 2.71875L44.557 6.51661L44.5757 6.5228L44.5945 6.52881L45.8125 2.71875ZM55.2344 7.73438L52.6249 10.766L52.6343 10.7741L52.6438 10.7821L55.2344 7.73438ZM48.9062 45.6562L51.3876 48.7936L51.3912 48.7907L48.9062 45.6562ZM35.875 54.9375L38.0735 58.2792L38.08 58.2748L35.875 54.9375ZM25.1875 61.9688L22.989 58.6271L11.8297 65.9688H25.1875V61.9688ZM65.3125 61.9688H69.3125V57.9688H65.3125V61.9688ZM65.3125 75V79H69.3125V75H65.3125ZM2.3125 75H-1.6875V79H2.3125V75ZM4.57531 65.5484L30.4034 47.8297L25.8778 41.2328L0.0496883 58.9516L4.57531 65.5484ZM30.4022 47.8305C34.3225 45.1433 37.5794 42.7712 40.1502 40.7211L35.1623 34.4664C32.7956 36.3538 29.7088 38.6067 25.879 41.232L30.4022 47.8305ZM40.1502 40.7211C42.7067 38.6824 44.8172 36.7891 46.4149 35.0494L40.5226 29.6381C39.3078 30.9609 37.5433 32.5676 35.1623 34.4664L40.1502 40.7211ZM46.4419 35.0196C48.0003 33.2881 49.2844 31.506 50.0563 29.6896L42.6937 26.5604C42.4031 27.244 41.7497 28.2744 40.4956 29.6679L46.4419 35.0196ZM50.0563 29.6896C50.7795 27.988 51.1719 26.2077 51.1719 24.375H43.1719C43.1719 25.0423 43.033 25.762 42.6937 26.5604L50.0563 29.6896ZM51.1719 24.375C51.1719 22.3675 50.7528 20.4348 49.8944 18.6275L42.6681 22.06C42.9972 22.7527 43.1719 23.5075 43.1719 24.375H51.1719ZM49.8944 18.6275C48.9761 16.6942 47.5685 15.1059 45.8308 13.8344L41.1067 20.2906C41.9315 20.8941 42.3989 21.4933 42.6681 22.06L49.8944 18.6275ZM45.8688 13.8625C44.0984 12.5347 41.9646 11.616 39.6206 10.9934L37.5669 18.7253C39.2229 19.1652 40.3391 19.7153 41.0687 20.2625L45.8688 13.8625ZM39.6358 10.9975C37.2327 10.349 34.5039 10.0625 31.5156 10.0625V18.0625C34.0274 18.0625 36.0173 18.3072 37.5517 18.7212L39.6358 10.9975ZM31.5156 10.0625C27.1353 10.0625 22.7841 10.6792 18.4716 11.9016L20.6534 19.5984C24.2784 18.5708 27.8959 18.0625 31.5156 18.0625V10.0625ZM18.4716 11.9016C14.1146 13.1367 9.74572 15.0882 5.36772 17.7084L9.47603 24.5729C13.348 22.2556 17.0729 20.6133 20.6534 19.5984L18.4716 11.9016ZM10.8392 19.0617L3.99547 7.81174L-2.83922 11.9695L4.00453 23.2195L10.8392 19.0617ZM2.68354 13.2917C6.96749 10.6397 11.6113 8.56361 16.6276 7.06753L14.3412 -0.598776C8.66994 1.09264 3.37626 3.45403 -1.52729 6.48956L2.68354 13.2917ZM16.6215 7.06934C21.6081 5.59076 26.8644 4.84375 32.4062 4.84375V-3.15625C26.1356 -3.15625 20.1107 -2.30951 14.3473 -0.600592L16.6215 7.06934ZM32.4062 4.84375C37.2548 4.84375 41.28 5.43331 44.557 6.51661L47.068 -1.07911C42.7825 -2.49581 37.8702 -3.15625 32.4062 -3.15625V4.84375ZM44.5945 6.52881C48.0094 7.62045 50.6447 9.06152 52.6249 10.766L57.8439 4.70277C54.8865 2.15723 51.2406 0.254549 47.0305 -1.09131L44.5945 6.52881ZM52.6438 10.7821C54.7107 12.539 56.184 14.5197 57.1423 16.7311L64.4827 13.5502C63.0035 10.1366 60.7581 7.17976 57.825 4.68662L52.6438 10.7821ZM57.1423 16.7311C58.137 19.0265 58.6406 21.468 58.6406 24.0938H66.6406C66.6406 20.407 65.9255 16.8798 64.4827 13.5502L57.1423 16.7311ZM58.6406 24.0938C58.6406 26.0771 58.3118 27.9385 57.6658 29.7027L65.1779 32.4536C66.1569 29.7803 66.6406 26.9854 66.6406 24.0938H58.6406ZM57.6658 29.7027C57.0606 31.3554 55.9321 33.2459 54.1164 35.3689L60.1961 40.5686C62.4429 37.9416 64.1582 35.2384 65.1779 32.4536L57.6658 29.7027ZM54.1164 35.3689C52.3055 37.4862 49.7643 39.8714 46.4213 42.5218L51.3912 48.7907C54.9857 45.9411 57.9445 43.2013 60.1961 40.5686L54.1164 35.3689ZM46.4249 42.5189C43.1057 45.1441 38.8621 48.1696 33.67 51.6002L38.08 58.2748C43.3879 54.7679 47.8318 51.6059 51.3876 48.7936L46.4249 42.5189ZM33.6765 51.5958L22.989 58.6271L27.386 65.3104L38.0735 58.2792L33.6765 51.5958ZM25.1875 65.9688H65.3125V57.9688H25.1875V65.9688ZM61.3125 61.9688V75H69.3125V61.9688H61.3125ZM65.3125 71H2.3125V79H65.3125V71ZM6.3125 75V62.25H-1.6875V75H6.3125Z" fill="url(#paint0_linear_1_14933)"/>
<defs>
<linearGradient id="paint0_linear_1_14933" x1="32.5" y1="-3" x2="32.5" y2="83" gradientUnits="userSpaceOnUse">
<stop stop-color="#7231FF"/>
<stop offset="1" stop-color="#7231FF" stop-opacity="0"/>
</linearGradient>
</defs>
</svg>
