<svg width="67" height="75" viewBox="0 0 67 75" fill="none" xmlns="http://www.w3.org/2000/svg">
<path d="M6.98438 56.5625L8.74885 52.9727L5.46737 51.3598L3.56703 54.4836L6.98438 56.5625ZM18.7969 60.5469L18.0068 64.4681L18.0236 64.4715L18.0404 64.4747L18.7969 60.5469ZM40.3594 60.9219L41.2071 64.831L41.2296 64.8261L41.2519 64.821L40.3594 60.9219ZM49.5469 44.75L46.506 47.3486L46.5177 47.3624L46.5297 47.3761L49.5469 44.75ZM42.8438 40.9062L41.7129 44.7431L41.7368 44.7501L41.7608 44.7569L42.8438 40.9062ZM31.5469 39.875L31.3826 35.8784L31.3815 35.8784L31.5469 39.875ZM15.5156 42.5469L11.5157 42.5298L11.4935 47.72L16.5181 46.4192L15.5156 42.5469ZM15.5625 31.5781L13.3809 28.2254L11.5718 29.4026L11.5625 31.561L15.5625 31.5781ZM42.9375 13.7656L45.1191 17.1183L56.419 9.76562H42.9375V13.7656ZM4.17188 13.7656H0.171875V17.7656H4.17188V13.7656ZM4.17188 0.734375V-3.26562H0.171875V0.734375H4.17188ZM62.8125 0.734375H66.8125V-3.26562H62.8125V0.734375ZM62.8125 13.4844L64.9549 16.8623L66.8125 15.6841V13.4844H62.8125ZM38.7188 28.7656L36.5764 25.3877L24.9437 32.7656H38.7188V28.7656ZM64.1719 60.7344L60.6547 58.8292L60.6511 58.8358L60.6476 58.8424L64.1719 60.7344ZM57.1875 68.375L59.445 71.6771L59.4565 71.6692L59.4678 71.6614L57.1875 68.375ZM45.9375 73.25L44.9289 69.3792L44.9222 69.381L45.9375 73.25ZM14.4844 73.1094L13.4972 76.9857L13.5086 76.9885L13.5199 76.9914L14.4844 73.1094ZM0.140625 67.8125L-3.27672 65.7336L-5.54172 69.4569L-1.63834 71.3951L0.140625 67.8125ZM5.2199 60.1523C9.22861 62.1227 13.495 63.559 18.0068 64.4681L19.587 56.6257C15.7238 55.8473 12.1151 54.6273 8.74885 52.9727L5.2199 60.1523ZM18.0404 64.4747C22.4902 65.3317 26.8532 65.7656 31.125 65.7656V57.7656C27.3968 57.7656 23.541 57.3871 19.5533 56.6191L18.0404 64.4747ZM31.125 65.7656C34.8824 65.7656 38.2587 65.4704 41.2071 64.831L39.5116 57.0127C37.2725 57.4983 34.4926 57.7656 31.125 57.7656V65.7656ZM41.2519 64.821C44.1156 64.1655 46.6753 63.2436 48.8205 61.9724L44.742 55.0901C43.5122 55.8189 41.7907 56.4908 39.4668 57.0227L41.2519 64.821ZM48.8205 61.9724C50.9562 60.7068 52.7503 59.0762 53.975 57.0037L47.0875 52.9338C46.6872 53.6113 45.9813 54.3557 44.742 55.0901L48.8205 61.9724ZM53.975 57.0037C55.1508 55.0137 55.75 52.8268 55.75 50.5156H47.75C47.75 51.3919 47.5367 52.1738 47.0875 52.9338L53.975 57.0037ZM55.75 50.5156C55.75 47.3552 54.6406 44.5096 52.5641 42.1239L46.5297 47.3761C47.3907 48.3654 47.75 49.3635 47.75 50.5156H55.75ZM52.5878 42.1514C50.4439 39.6425 47.4094 38.0352 43.9267 37.0556L41.7608 44.7569C44.2781 45.4648 45.7124 46.42 46.506 47.3486L52.5878 42.1514ZM43.9746 37.0694C40.4371 36.0268 36.1948 35.6806 31.3826 35.8784L31.7111 43.8716C36.0239 43.6944 39.3129 44.0357 41.7129 44.7431L43.9746 37.0694ZM31.3815 35.8784C26.4802 36.0812 20.843 37.0358 14.5131 38.6745L16.5181 46.4192C22.5007 44.8704 27.5511 44.0438 31.7122 43.8716L31.3815 35.8784ZM19.5156 42.564L19.5625 31.5952L11.5625 31.561L11.5157 42.5298L19.5156 42.564ZM17.7441 34.9309L45.1191 17.1183L40.7559 10.4129L13.3809 28.2254L17.7441 34.9309ZM42.9375 9.76562H4.17188V17.7656H42.9375V9.76562ZM8.17188 13.7656V0.734375H0.171875V13.7656H8.17188ZM4.17188 4.73438H62.8125V-3.26562H4.17188V4.73438ZM58.8125 0.734375V13.4844H66.8125V0.734375H58.8125ZM60.6701 10.1065L36.5764 25.3877L40.8611 32.1435L64.9549 16.8623L60.6701 10.1065ZM38.7188 32.7656C42.7903 32.7656 46.3 33.286 49.2972 34.258L51.7653 26.6482C47.825 25.3703 43.4597 24.7656 38.7188 24.7656V32.7656ZM49.2972 34.258C52.3705 35.2547 54.8229 36.5807 56.7441 38.1733L61.8496 32.0142C59.0209 29.6693 55.6295 27.9015 51.7653 26.6482L49.2972 34.258ZM56.7441 38.1733C58.6814 39.7791 60.1181 41.6378 61.1075 43.765L68.3613 40.3912C66.8507 37.1435 64.6624 34.3459 61.8496 32.0142L56.7441 38.1733ZM61.1075 43.765C62.1009 45.9009 62.6094 48.2129 62.6094 50.75H70.6094C70.6094 47.0996 69.8678 43.6303 68.3613 40.3912L61.1075 43.765ZM62.6094 50.75C62.6094 53.79 61.9403 56.4559 60.6547 58.8292L67.689 62.6395C69.6535 59.0128 70.6094 55.0225 70.6094 50.75H62.6094ZM60.6476 58.8424C59.3832 61.1976 57.5067 63.2849 54.9072 65.0886L59.4678 71.6614C62.9933 69.2151 65.773 66.2087 67.6961 62.6264L60.6476 58.8424ZM54.93 65.0729C52.3257 66.8534 49.0218 68.3128 44.9289 69.3792L46.9461 77.1208C51.7282 75.8747 55.9243 74.0841 59.445 71.6771L54.93 65.0729ZM44.9222 69.381C40.9125 70.4332 36.2632 70.9844 30.9375 70.9844V78.9844C36.7993 78.9844 42.15 78.3793 46.9528 77.119L44.9222 69.381ZM30.9375 70.9844C25.2791 70.9844 20.1228 70.3886 15.4488 69.2274L13.5199 76.9914C18.9084 78.3301 24.7209 78.9844 30.9375 78.9844V70.9844ZM15.4715 69.2331C10.7066 68.0197 6.19144 66.3511 1.91959 64.2299L-1.63834 71.3951C3.15231 73.7739 8.19962 75.6366 13.4972 76.9857L15.4715 69.2331ZM3.55797 69.8914L10.4017 58.6414L3.56703 54.4836L-3.27672 65.7336L3.55797 69.8914Z" fill="url(#paint0_linear_1_11342)"/>
<defs>
<linearGradient id="paint0_linear_1_11342" x1="34.5" y1="-4" x2="34.5" y2="82" gradientUnits="userSpaceOnUse">
<stop stop-color="#7231FF"/>
<stop offset="1" stop-color="#7231FF" stop-opacity="0"/>
</linearGradient>
</defs>
</svg>
