<svg width="75" height="74" viewBox="0 0 75 74" fill="none" xmlns="http://www.w3.org/2000/svg">
<path d="M0.953125 45.3125L-1.93085 42.5407L-3.03531 43.6899L-3.04677 45.2837L0.953125 45.3125ZM43.7969 0.734375V-3.26562H42.0933L40.9129 -2.03739L43.7969 0.734375ZM58.6562 0.734375H62.6562V-3.26562H58.6562V0.734375ZM58.6562 45.3125H54.6562V49.3125H58.6562V45.3125ZM74.4531 45.3125H78.4531V41.3125H74.4531V45.3125ZM74.4531 58.3438V62.3438H78.4531V58.3438H74.4531ZM58.6562 58.3438V54.3438H54.6562V58.3438H58.6562ZM58.6562 74V78H62.6562V74H58.6562ZM43.7969 74H39.7969V78H43.7969V74ZM43.7969 58.3438H47.7969V54.3438H43.7969V58.3438ZM0.859375 58.3438L-3.14052 58.315L-3.16951 62.3438H0.859375V58.3438ZM43.7969 45.3125V49.3125H47.7969V45.3125H43.7969ZM43.7969 19.5312H47.7969V9.66917L40.927 16.7449L43.7969 19.5312ZM18.7656 45.3125L15.8958 42.5261L9.30681 49.3125H18.7656V45.3125ZM3.8371 48.0843L46.6808 3.50614L40.9129 -2.03739L-1.93085 42.5407L3.8371 48.0843ZM43.7969 4.73438H58.6562V-3.26562H43.7969V4.73438ZM54.6562 0.734375V45.3125H62.6562V0.734375H54.6562ZM58.6562 49.3125H74.4531V41.3125H58.6562V49.3125ZM70.4531 45.3125V58.3438H78.4531V45.3125H70.4531ZM74.4531 54.3438H58.6562V62.3438H74.4531V54.3438ZM54.6562 58.3438V74H62.6562V58.3438H54.6562ZM58.6562 70H43.7969V78H58.6562V70ZM47.7969 74V58.3438H39.7969V74H47.7969ZM43.7969 54.3438H0.859375V62.3438H43.7969V54.3438ZM4.85927 58.3725L4.95302 45.3413L-3.04677 45.2837L-3.14052 58.315L4.85927 58.3725ZM47.7969 45.3125V19.5312H39.7969V45.3125H47.7969ZM40.927 16.7449L15.8958 42.5261L21.6355 48.0989L46.6667 22.3176L40.927 16.7449ZM18.7656 49.3125H43.7969V41.3125H18.7656V49.3125Z" fill="url(#paint0_linear_1_14939)"/>
<defs>
<linearGradient id="paint0_linear_1_14939" x1="36" y1="-4" x2="36" y2="82" gradientUnits="userSpaceOnUse">
<stop stop-color="#7231FF"/>
<stop offset="1" stop-color="#7231FF" stop-opacity="0"/>
</linearGradient>
</defs>
</svg>
