<svg width="70" height="75" viewBox="0 0 70 75" fill="none" xmlns="http://www.w3.org/2000/svg">
<path d="M7.42188 56.5625L9.2357 52.9974L5.93136 51.3162L4.00453 54.4836L7.42188 56.5625ZM13.1875 58.9062L11.9747 62.718L12.0089 62.7289L12.0434 62.7391L13.1875 58.9062ZM19.6094 60.5L18.8249 64.4223L18.8355 64.4244L19.6094 60.5ZM26.2656 61.4844L25.8732 65.4651L25.9033 65.468L25.9334 65.4706L26.2656 61.4844ZM42.5312 60.9688L43.2984 64.8945L43.3156 64.8911L43.3328 64.8876L42.5312 60.9688ZM49.2812 58.625L47.3231 55.1371L47.3099 55.1445L47.2967 55.152L49.2812 58.625ZM53.2188 55.0625L49.8225 52.9493L49.816 52.9598L49.8095 52.9704L53.2188 55.0625ZM53.1719 45.6875L49.7551 47.7673L49.7714 47.7941L49.7882 47.8207L53.1719 45.6875ZM49.1875 41.9844L47.1567 45.4305L47.17 45.4384L47.1834 45.4461L49.1875 41.9844ZM42.5312 39.5938L41.6587 43.4974L41.6852 43.5033L41.7118 43.5089L42.5312 39.5938ZM27.8125 38.9375L28.062 42.9297L28.093 42.9278L28.1241 42.9254L27.8125 38.9375ZM14.4062 40.9062L15.258 44.8145L15.2819 44.8093L15.3057 44.8038L14.4062 40.9062ZM7 42.875H3V48.3158L8.1931 46.6929L7 42.875ZM7 0.734375V-3.26562H3V0.734375H7ZM63.2031 0.734375H67.2031V-3.26562H63.2031V0.734375ZM63.2031 13.9062V17.9062H67.2031V13.9062H63.2031ZM20.7344 13.9062V9.90625H16.7344V13.9062H20.7344ZM20.7344 28.1094H16.7344V33.1175L21.6186 32.0104L20.7344 28.1094ZM28.0938 26.7969L28.6256 30.7614L28.6493 30.7582L28.6729 30.7547L28.0938 26.7969ZM60.7656 32.75L58.3599 35.9457L58.3685 35.9521L58.377 35.9585L60.7656 32.75ZM67.1875 40.3438L63.6023 42.1175L63.606 42.1251L63.6098 42.1326L67.1875 40.3438ZM67 60.5L63.4517 58.6535L63.4481 58.6604L63.4446 58.6673L67 60.5ZM60.0156 68.2812L57.7285 64.9997L57.7206 65.0051L57.7128 65.0106L60.0156 68.2812ZM48.6719 73.25L47.6764 69.3758L47.6699 69.3775L48.6719 73.25ZM24.2969 74.4688L24.757 70.4953L24.7385 70.4932L24.72 70.4912L24.2969 74.4688ZM15.7188 73.1094L14.8417 77.012L14.8627 77.0167L14.8836 77.0212L15.7188 73.1094ZM7.70312 70.8594L6.35483 74.6253L6.38262 74.6352L6.41055 74.6448L7.70312 70.8594ZM0.578125 67.8125L-2.83922 65.7336L-5.08526 69.4257L-1.2308 71.3801L0.578125 67.8125ZM5.60805 60.1276C7.59779 61.1399 9.72237 62.0013 11.9747 62.718L14.4003 55.0945C12.5276 54.4987 10.8085 53.7976 9.2357 52.9974L5.60805 60.1276ZM12.0434 62.7391C14.258 63.4002 16.5187 63.9611 18.8249 64.4223L20.3938 56.5777C18.325 56.1639 16.3045 55.6623 14.3316 55.0734L12.0434 62.7391ZM18.8355 64.4244C21.1786 64.8865 23.5246 65.2335 25.8732 65.4651L26.6581 57.5037C24.5691 57.2977 22.4776 56.9885 20.3832 56.5756L18.8355 64.4244ZM25.9334 65.4706C28.2871 65.6667 30.5856 65.7656 32.8281 65.7656V57.7656C30.8206 57.7656 28.7441 57.6771 26.5978 57.4982L25.9334 65.4706ZM32.8281 65.7656C36.7518 65.7656 40.2562 65.489 43.2984 64.8945L41.7641 57.043C39.3688 57.511 36.4044 57.7656 32.8281 57.7656V65.7656ZM43.3328 64.8876C46.348 64.2709 49.0346 63.3729 51.2658 62.098L47.2967 55.152C46.0279 55.877 44.2145 56.5416 41.7297 57.0499L43.3328 64.8876ZM51.2394 62.1129C53.4601 60.8662 55.3447 59.246 56.628 57.1546L49.8095 52.9704C49.4053 53.629 48.6649 54.3838 47.3231 55.1371L51.2394 62.1129ZM56.615 57.1757C57.8924 55.1227 58.5312 52.8415 58.5312 50.4219H50.5312C50.5312 51.3773 50.2951 52.1898 49.8225 52.9493L56.615 57.1757ZM58.5312 50.4219C58.5312 47.9573 57.8693 45.6381 56.5556 43.5543L49.7882 47.8207C50.2869 48.6119 50.5312 49.449 50.5312 50.4219H58.5312ZM56.5887 43.6077C55.2963 41.4845 53.424 39.8151 51.1916 38.5227L47.1834 45.4461C48.5135 46.2161 49.2975 47.0155 49.7551 47.7673L56.5887 43.6077ZM51.2183 38.5382C48.9867 37.2232 46.3249 36.3011 43.3507 35.6786L41.7118 43.5089C44.1126 44.0114 45.8883 44.683 47.1567 45.4305L51.2183 38.5382ZM43.4038 35.6901C40.389 35.0162 36.9746 34.7031 33.2031 34.7031V42.7031C36.5566 42.7031 39.361 42.9838 41.6587 43.4974L43.4038 35.6901ZM33.2031 34.7031C31.4829 34.7031 29.5795 34.7873 27.5009 34.9496L28.1241 42.9254C30.0455 42.7752 31.7358 42.7031 33.2031 42.7031V34.7031ZM27.563 34.9453C25.4502 35.0773 23.2242 35.3072 20.8872 35.6318L21.9878 43.5557C24.1508 43.2553 26.1748 43.0477 28.062 42.9297L27.563 34.9453ZM20.8872 35.6318C18.5089 35.9621 16.0483 36.4222 13.5068 37.0087L15.3057 44.8038C17.6392 44.2653 19.8661 43.8504 21.9878 43.5557L20.8872 35.6318ZM13.5545 36.998C10.9964 37.5555 8.41374 38.2424 5.8069 39.0571L8.1931 46.6929C10.5863 45.9451 12.9411 45.3195 15.258 44.8145L13.5545 36.998ZM11 42.875V0.734375H3V42.875H11ZM7 4.73438H63.2031V-3.26562H7V4.73438ZM59.2031 0.734375V13.9062H67.2031V0.734375H59.2031ZM63.2031 9.90625H20.7344V17.9062H63.2031V9.90625ZM16.7344 13.9062V28.1094H24.7344V13.9062H16.7344ZM21.6186 32.0104C23.8375 31.5075 26.1726 31.0904 28.6256 30.7614L27.5619 22.8324C24.8899 23.1908 22.3187 23.6488 19.8501 24.2083L21.6186 32.0104ZM28.6729 30.7547C31.0076 30.4131 33.6692 30.2344 36.6719 30.2344V22.2344C33.3621 22.2344 30.3049 22.4307 27.5146 22.839L28.6729 30.7547ZM36.6719 30.2344C41.5445 30.2344 45.7849 30.7667 49.4325 31.7768L51.5675 24.067C47.0901 22.8271 42.1118 22.2344 36.6719 22.2344V30.2344ZM49.4325 31.7768C53.1107 32.7954 56.0542 34.2099 58.3599 35.9457L63.1714 29.5543C59.9146 27.1026 56.0143 25.2984 51.5675 24.067L49.4325 31.7768ZM58.377 35.9585C60.7135 37.6979 62.4299 39.7479 63.6023 42.1175L70.7727 38.57C69.0076 35.0021 66.4427 31.9896 63.1542 29.5415L58.377 35.9585ZM63.6098 42.1326C64.7707 44.4543 65.3906 47.1279 65.3906 50.2344H73.3906C73.3906 46.0283 72.5418 42.1082 70.7652 38.5549L63.6098 42.1326ZM65.3906 50.2344C65.3906 53.4352 64.7212 56.2142 63.4517 58.6535L70.5483 62.3465C72.4663 58.6608 73.3906 54.5961 73.3906 50.2344H65.3906ZM63.4446 58.6673C62.2111 61.0602 60.3453 63.1758 57.7285 64.9997L62.3028 71.5628C65.8734 69.0742 68.6639 66.0023 70.5554 62.3327L63.4446 58.6673ZM57.7128 65.0106C55.1284 66.8303 51.8164 68.3121 47.6764 69.3758L49.6673 77.1242C54.5274 75.8754 58.7779 74.0447 62.3184 71.5519L57.7128 65.0106ZM47.6699 69.3775C43.6001 70.4306 38.8075 70.9844 33.25 70.9844V78.9844C39.3175 78.9844 44.8062 78.3819 49.6738 77.1225L47.6699 69.3775ZM33.25 70.9844C30.4032 70.9844 27.5724 70.8213 24.757 70.4953L23.8368 78.4422C26.9588 78.8037 30.0968 78.9844 33.25 78.9844V70.9844ZM24.72 70.4912C21.9156 70.1928 19.1939 69.7611 16.5539 69.1975L14.8836 77.0212C17.8061 77.6451 20.8032 78.1197 23.8737 78.4463L24.72 70.4912ZM16.5958 69.2067C13.9477 68.6116 11.415 67.9001 8.9957 67.074L6.41055 74.6448C9.11629 75.5687 11.9273 76.3571 14.8417 77.012L16.5958 69.2067ZM9.05142 67.0935C6.6652 66.2391 4.44516 65.2884 2.38705 64.2449L-1.2308 71.3801C1.14859 72.5866 3.67855 73.6671 6.35483 74.6253L9.05142 67.0935ZM3.99547 69.8914L10.8392 58.6414L4.00453 54.4836L-2.83922 65.7336L3.99547 69.8914Z" fill="url(#paint0_linear_1_14942)"/>
<defs>
<linearGradient id="paint0_linear_1_14942" x1="35.5" y1="-4" x2="35.5" y2="82" gradientUnits="userSpaceOnUse">
<stop stop-color="#7231FF"/>
<stop offset="1" stop-color="#7231FF" stop-opacity="0"/>
</linearGradient>
</defs>
</svg>
