<svg width="1844" height="558" viewBox="0 0 1844 558" fill="none" xmlns="http://www.w3.org/2000/svg">
<g style="mix-blend-mode:overlay">
<path d="M278.256 176.272L202.336 247.369L235.94 185.414L278.256 176.272Z" stroke="#515153" stroke-width="0.680584"/>
<path d="M278.256 176.272L324.685 267.047L202.336 247.369L278.256 176.272Z" stroke="#939598" stroke-width="0.680584"/>
<path d="M278.256 176.272L344.442 200.642L324.684 267.047L278.256 176.272Z" stroke="#515153" stroke-width="0.680584"/>
<path d="M340.443 214.085L327.881 256.3" stroke="white" stroke-width="2.72234" stroke-linecap="round" stroke-linejoin="round"/>
<path d="M278.255 176.272L290.843 200.883" stroke="white" stroke-width="2.72234" stroke-linecap="round" stroke-linejoin="round"/>
<path d="M260.753 192.666L278.257 176.272" stroke="white" stroke-width="2.72234" stroke-linecap="round" stroke-linejoin="round"/>
<path d="M235.716 185.826L235.939 185.414L278.255 176.272L312.284 188.803" stroke="white" stroke-width="2.72234" stroke-linecap="round" stroke-linejoin="round"/>
<path d="M97.2615 211.879L100.756 212.055L193.745 249.258L97.2615 211.879Z" stroke="#505153" stroke-width="0.680584" stroke-linecap="round" stroke-linejoin="round"/>
<path d="M97.2615 211.879L193.745 249.258L110.012 318.794L97.2615 211.879Z" stroke="#747578" stroke-width="0.680584" stroke-linecap="round" stroke-linejoin="round"/>
<path d="M97.2611 211.879L110.012 318.794L12.3484 271.532L97.2611 211.879Z" stroke="#747578" stroke-width="0.680584" stroke-linecap="round" stroke-linejoin="round"/>
<path d="M77.6796 303.145L12.3486 271.532" stroke="white" stroke-width="2.72234" stroke-linecap="round" stroke-linejoin="round"/>
<path d="M12.3484 271.532L22.4857 264.411" stroke="white" stroke-width="2.72234" stroke-linecap="round" stroke-linejoin="round"/>
<path d="M211.34 91.7094L264.548 114.448L288.212 172.996L211.34 91.7094Z" stroke="#515153" stroke-width="0.680584" stroke-linecap="round" stroke-linejoin="round"/>
<path d="M211.339 91.7094L288.211 172.996L152.585 183.787L211.339 91.7094Z" stroke="#939598" stroke-width="0.680584" stroke-linecap="round" stroke-linejoin="round"/>
<path d="M211.341 91.7096L152.587 183.787L146.47 122.582L211.341 91.7096Z" stroke="#747578" stroke-width="0.680584" stroke-linecap="round" stroke-linejoin="round"/>
<path d="M288.211 172.996L152.585 183.787" stroke="white" stroke-width="2.72234" stroke-linecap="round" stroke-linejoin="round"/>
<path d="M211.34 91.7094L288.212 172.996" stroke="white" stroke-width="2.72234" stroke-linecap="round" stroke-linejoin="round"/>
<path d="M152.585 183.787L211.339 91.7094" stroke="white" stroke-width="2.72234" stroke-linecap="round" stroke-linejoin="round"/>
<path d="M146.47 122.582L211.341 91.7096L264.548 114.448L288.212 172.996" stroke="white" stroke-width="2.72234" stroke-linecap="round" stroke-linejoin="round"/>
<path d="M152.587 183.786L146.47 122.581" stroke="white" stroke-width="2.72234" stroke-linecap="round" stroke-linejoin="round"/>
<path d="M420.365 261.947L458.985 267.52L502.445 359.115L420.365 261.947Z" stroke="#515153" stroke-width="0.680584" stroke-linecap="round" stroke-linejoin="round"/>
<path d="M420.366 261.947L353.369 364.574L331.235 271.515L420.366 261.947Z" stroke="#747578" stroke-width="0.680584" stroke-linecap="round" stroke-linejoin="round"/>
<path d="M420.366 261.947L502.446 359.115L353.369 364.574L420.366 261.947Z" stroke="#939598" stroke-width="0.680584" stroke-linecap="round" stroke-linejoin="round"/>
<path d="M420.365 261.947L436.119 280.595" stroke="white" stroke-width="2.72234" stroke-linecap="round" stroke-linejoin="round"/>
<path d="M331.235 271.515L352.812 269.199" stroke="white" stroke-width="2.72234" stroke-linecap="round" stroke-linejoin="round"/>
<path d="M405.296 263.565L420.366 261.947L458.985 267.52L475.743 302.838" stroke="white" stroke-width="2.72234" stroke-linecap="round" stroke-linejoin="round"/>
<path d="M333.817 282.362L331.235 271.515" stroke="white" stroke-width="2.72234" stroke-linecap="round" stroke-linejoin="round"/>
<path d="M502.446 359.115L493.378 359.449" stroke="white" stroke-width="2.72234" stroke-linecap="round" stroke-linejoin="round"/>
<path d="M402.3 132.921L376.325 246.307L297.205 175.263L402.3 132.921Z" stroke="#747578" stroke-width="0.680584" stroke-linecap="round" stroke-linejoin="round"/>
<path d="M402.299 132.92L496.446 207.687L376.324 246.307L402.299 132.92Z" stroke="#747578" stroke-width="0.680584" stroke-linecap="round" stroke-linejoin="round"/>
<path d="M297.205 175.263L367.367 146.995" stroke="white" stroke-width="2.72234" stroke-linecap="round" stroke-linejoin="round"/>
<path d="M438.258 226.392L376.325 246.307L297.205 175.263" stroke="white" stroke-width="2.72234" stroke-linecap="round" stroke-linejoin="round"/>
<path d="M376.324 246.307L383.414 215.365" stroke="white" stroke-width="2.72234" stroke-linecap="round" stroke-linejoin="round"/>
<path d="M133.606 2.00012L238.285 76.6835L103.243 111.112L133.606 2.00012Z" stroke="#747578" stroke-width="0.680584" stroke-linecap="round" stroke-linejoin="round"/>
<path d="M133.606 2.00012L103.243 111.112L46.4705 60.3464L133.606 2.00012Z" stroke="#747578" stroke-width="0.680584" stroke-linecap="round" stroke-linejoin="round"/>
<path d="M238.285 76.6837L103.242 111.112L46.4702 60.3466" stroke="white" stroke-width="2.72234" stroke-linecap="round" stroke-linejoin="round"/>
<path d="M133.606 2.00012L238.285 76.6835" stroke="white" stroke-width="2.72234" stroke-linecap="round" stroke-linejoin="round"/>
<path d="M103.243 111.112L133.606 2.00012" stroke="white" stroke-width="2.72234" stroke-linecap="round" stroke-linejoin="round"/>
<path d="M46.4705 60.3464L133.606 2.00012" stroke="white" stroke-width="2.72234" stroke-linecap="round" stroke-linejoin="round"/>
<path d="M356.667 5.81042L375.372 117.588L248.858 76.9116L356.667 5.81042Z" stroke="#747578" stroke-width="0.680584" stroke-linecap="round" stroke-linejoin="round"/>
<path d="M356.667 5.8103L449.147 68.7078L375.372 117.588L356.667 5.8103Z" stroke="#747578" stroke-width="0.680584" stroke-linecap="round" stroke-linejoin="round"/>
<path d="M248.858 76.9116L356.667 5.81042" stroke="white" stroke-width="2.72234" stroke-linecap="round" stroke-linejoin="round"/>
<path d="M356.667 5.8103L375.372 117.588" stroke="white" stroke-width="2.72234" stroke-linecap="round" stroke-linejoin="round"/>
<path d="M356.667 5.8103L449.147 68.7078" stroke="white" stroke-width="2.72234" stroke-linecap="round" stroke-linejoin="round"/>
<path d="M449.148 68.7078L375.372 117.588L248.858 76.9114" stroke="white" stroke-width="2.72234" stroke-linecap="round" stroke-linejoin="round"/>
<path d="M39.7198 159.729L-53.9973 256.66L12.785 176.267L39.7198 159.729Z" stroke="#515153" stroke-width="0.680584" stroke-linecap="round" stroke-linejoin="round"/>
<path d="M39.7195 159.729L144.661 187.479L100.039 272.278L39.7195 159.729Z" stroke="#515153" stroke-width="0.680584" stroke-linecap="round" stroke-linejoin="round"/>
<path d="M39.7198 159.729L100.039 272.278L-53.9973 256.66L39.7198 159.729Z" stroke="#939598" stroke-width="0.680584" stroke-linecap="round" stroke-linejoin="round"/>
<path d="M100.039 272.277L-53.9971 256.659" stroke="white" stroke-width="2.72234" stroke-linecap="round" stroke-linejoin="round"/>
<path d="M64.7781 206.486L100.039 272.277" stroke="white" stroke-width="2.72234" stroke-linecap="round" stroke-linejoin="round"/>
<path d="M111.36 178.674L144.662 187.478" stroke="white" stroke-width="2.72234" stroke-linecap="round" stroke-linejoin="round"/>
<path d="M144.662 187.479L137.528 201.036" stroke="white" stroke-width="2.72234" stroke-linecap="round" stroke-linejoin="round"/>
<path d="M67.9619 349.828L108.963 325.691L191.53 411.182L67.9619 349.828Z" stroke="white" stroke-width="0.680584" stroke-linecap="round" stroke-linejoin="round"/>
<path d="M67.961 349.828L-29.4041 392.82L108.962 325.691L67.961 349.828Z" stroke="#505153" stroke-width="0.680584" stroke-linecap="round" stroke-linejoin="round"/>
<path d="M67.9601 349.828L191.528 411.182L41.6523 500.138L67.9601 349.828Z" stroke="#747578" stroke-width="0.680584" stroke-linecap="round" stroke-linejoin="round"/>
<path d="M67.9608 349.828L41.653 500.138L-29.4043 392.82L67.9608 349.828Z" stroke="#747578" stroke-width="0.680584" stroke-linecap="round" stroke-linejoin="round"/>
<path d="M41.653 500.138L-29.4043 392.82" stroke="white" stroke-width="2.72234" stroke-linecap="round" stroke-linejoin="round"/>
<path d="M122.088 452.399L41.6523 500.138" stroke="white" stroke-width="2.72234" stroke-linecap="round" stroke-linejoin="round"/>
<path d="M41.6523 500.138L55.2798 422.271" stroke="white" stroke-width="2.72234" stroke-linecap="round" stroke-linejoin="round"/>
<path d="M316.416 399.669L202.78 413.563L348.419 371.278L316.416 399.669Z" stroke="white" stroke-width="0.680584" stroke-linecap="round" stroke-linejoin="round"/>
<path d="M316.415 399.669L348.419 371.278L433.046 495.153L316.415 399.669Z" stroke="#505153" stroke-width="0.680584" stroke-linecap="round" stroke-linejoin="round"/>
<path d="M316.416 399.669L433.047 495.153L264.015 555.924L316.416 399.669Z" stroke="#747578" stroke-width="0.680584" stroke-linecap="round" stroke-linejoin="round"/>
<path d="M316.416 399.669L264.015 555.924L202.779 413.563L316.416 399.669Z" stroke="#747578" stroke-width="0.680584" stroke-linecap="round" stroke-linejoin="round"/>
<path d="M433.047 495.152L264.015 555.923" stroke="white" stroke-width="2.72234" stroke-linecap="round" stroke-linejoin="round"/>
<path d="M264.015 555.923L316.416 399.668L339.962 378.78" stroke="white" stroke-width="2.72234" stroke-linecap="round" stroke-linejoin="round"/>
<path d="M264.015 555.923L202.779 413.563" stroke="white" stroke-width="2.72234" stroke-linecap="round" stroke-linejoin="round"/>
<path d="M202.78 413.563L334.696 375.264" stroke="white" stroke-width="2.72234" stroke-linecap="round" stroke-linejoin="round"/>
<path d="M364.937 395.45L433.048 495.152" stroke="white" stroke-width="2.72234" stroke-linecap="round" stroke-linejoin="round"/>
<path d="M202.779 413.563L316.416 399.668L433.047 495.152" stroke="white" stroke-width="2.72234" stroke-linecap="round" stroke-linejoin="round"/>
<path d="M406.659 264.061L265.974 329.387L376.169 253.007L406.659 264.061Z" stroke="#515153" stroke-width="0.680584" stroke-linecap="round" stroke-linejoin="round"/>
<path d="M406.658 264.061L523.614 329.707L419.637 431.97L406.658 264.061Z" stroke="#747578" stroke-width="0.680584" stroke-linecap="round" stroke-linejoin="round"/>
<path d="M406.659 264.061L419.638 431.97L265.974 329.387L406.659 264.061Z" stroke="#939598" stroke-width="0.680584" stroke-linecap="round" stroke-linejoin="round"/>
<path d="M406.658 264.061L419.637 431.97" stroke="white" stroke-width="2.72234" stroke-linecap="round" stroke-linejoin="round"/>
<path d="M419.638 431.97L297.171 350.214" stroke="white" stroke-width="2.72234" stroke-linecap="round" stroke-linejoin="round"/>
<path d="M523.616 329.707L419.639 431.97" stroke="white" stroke-width="2.72234" stroke-linecap="round" stroke-linejoin="round"/>
<path d="M330.594 299.379L406.659 264.061" stroke="white" stroke-width="2.72234" stroke-linecap="round" stroke-linejoin="round"/>
<path d="M329.705 285.212L376.169 253.007L406.659 264.061L523.615 329.707" stroke="white" stroke-width="2.72234" stroke-linecap="round" stroke-linejoin="round"/>
<path d="M-4.53149 86.2814L97.2489 115.882L116.033 199.475L-4.53149 86.2814Z" stroke="#505153" stroke-width="0.680584" stroke-linecap="round" stroke-linejoin="round"/>
<path d="M-4.53132 86.2815L116.033 199.475L-93 228.067L-4.53132 86.2815Z" stroke="#939598" stroke-width="0.680584" stroke-linecap="round" stroke-linejoin="round"/>
<path d="M116.033 199.475L-93 228.067" stroke="white" stroke-width="2.72234" stroke-linecap="round" stroke-linejoin="round"/>
<path d="M-4.53149 86.2814L116.033 199.475" stroke="white" stroke-width="2.72234" stroke-linecap="round" stroke-linejoin="round"/>
<path d="M-93 228.067L-74.1768 135.109L-4.53132 86.2815L97.2491 115.882" stroke="white" stroke-width="2.72234" stroke-linecap="round" stroke-linejoin="round"/>
<path d="M97.2493 115.882L116.033 199.475" stroke="white" stroke-width="2.72234" stroke-linecap="round" stroke-linejoin="round"/>
<path d="M468.896 96.9011L336.423 205.912L380.129 122.705L468.896 96.9011Z" stroke="#515153" stroke-width="0.680584" stroke-linecap="round" stroke-linejoin="round"/>
<path d="M468.896 96.901L554.335 151.174L546.315 248.127L468.896 96.901Z" stroke="#515153" stroke-width="0.680584" stroke-linecap="round" stroke-linejoin="round"/>
<path d="M468.896 96.9011L546.316 248.127L336.423 205.912L468.896 96.9011Z" stroke="#939598" stroke-width="0.680584" stroke-linecap="round" stroke-linejoin="round"/>
<path d="M546.315 248.127L336.422 205.912" stroke="white" stroke-width="2.72234" stroke-linecap="round" stroke-linejoin="round"/>
<path d="M336.423 205.912L468.895 96.9011" stroke="white" stroke-width="2.72234" stroke-linecap="round" stroke-linejoin="round"/>
<path d="M468.896 96.901L546.315 248.127" stroke="white" stroke-width="2.72234" stroke-linecap="round" stroke-linejoin="round"/>
<path d="M554.334 151.174L546.314 248.127" stroke="white" stroke-width="2.72234" stroke-linecap="round" stroke-linejoin="round"/>
<path d="M336.423 205.912L380.129 122.705L468.895 96.9011L554.334 151.174" stroke="white" stroke-width="2.72234" stroke-linecap="round" stroke-linejoin="round"/>
<path d="M114.511 292.609L103.751 278.938L252.92 330.781L114.511 292.609Z" stroke="#505153" stroke-width="0.680584" stroke-linecap="round" stroke-linejoin="round"/>
<path d="M114.51 292.609L-16.0068 390.123L103.751 278.938L114.51 292.609Z" stroke="#515153" stroke-width="0.680584" stroke-linecap="round" stroke-linejoin="round"/>
<path d="M114.511 292.609L252.921 330.781L152.767 466.231L114.511 292.609Z" stroke="#515153" stroke-width="0.680584" stroke-linecap="round" stroke-linejoin="round"/>
<path d="M114.51 292.609L152.766 466.231L-16.0068 390.123L114.51 292.609Z" stroke="#939598" stroke-width="0.680584" stroke-linecap="round" stroke-linejoin="round"/>
<path d="M152.766 466.231L-16.0068 390.123" stroke="white" stroke-width="2.72234" stroke-linecap="round" stroke-linejoin="round"/>
<path d="M-16.0068 390.123L97.8226 284.445" stroke="white" stroke-width="2.72234" stroke-linecap="round" stroke-linejoin="round"/>
<path d="M240.157 348.044L152.767 466.232" stroke="white" stroke-width="2.72234" stroke-linecap="round" stroke-linejoin="round"/>
<path d="M-16.0068 390.123L88.0273 312.392" stroke="white" stroke-width="2.72234" stroke-linecap="round" stroke-linejoin="round"/>
<path d="M125.766 343.69L152.766 466.231" stroke="white" stroke-width="2.72234" stroke-linecap="round" stroke-linejoin="round"/>
<path d="M213.063 179.644L77.7056 341.862L125.893 204.333L213.063 179.644Z" stroke="#747578" stroke-width="0.680584" stroke-linecap="round" stroke-linejoin="round"/>
<path d="M213.063 179.643L324.972 210.204L333.89 351.609L213.063 179.643Z" stroke="#515153" stroke-width="0.680584" stroke-linecap="round" stroke-linejoin="round"/>
<path d="M213.063 179.644L333.891 351.609L77.7056 341.862L213.063 179.644Z" stroke="#939598" stroke-width="0.680584" stroke-linecap="round" stroke-linejoin="round"/>
<path d="M333.891 351.609L77.7056 341.862" stroke="white" stroke-width="2.72234" stroke-linecap="round" stroke-linejoin="round"/>
<path d="M77.7056 341.862L213.063 179.644" stroke="white" stroke-width="2.72234" stroke-linecap="round" stroke-linejoin="round"/>
<path d="M213.063 179.643L333.89 351.609" stroke="white" stroke-width="2.72234" stroke-linecap="round" stroke-linejoin="round"/>
<path d="M77.7056 341.862L125.893 204.333L213.063 179.644L324.972 210.204" stroke="white" stroke-width="2.72234" stroke-linecap="round" stroke-linejoin="round"/>
<path d="M324.972 210.204L333.891 351.609" stroke="white" stroke-width="2.72234" stroke-linecap="round" stroke-linejoin="round"/>
</g>
<g style="mix-blend-mode:overlay">
<path d="M922.089 176.272L846.169 247.369L879.773 185.414L922.089 176.272Z" stroke="#515153" stroke-width="0.680584"/>
<path d="M922.089 176.272L968.518 267.047L846.169 247.369L922.089 176.272Z" stroke="#939598" stroke-width="0.680584"/>
<path d="M922.088 176.272L988.274 200.642L968.517 267.047L922.088 176.272Z" stroke="#515153" stroke-width="0.680584"/>
<path d="M984.276 214.085L971.714 256.3" stroke="white" stroke-width="2.72234" stroke-linecap="round" stroke-linejoin="round"/>
<path d="M922.087 176.272L934.676 200.883" stroke="white" stroke-width="2.72234" stroke-linecap="round" stroke-linejoin="round"/>
<path d="M904.586 192.666L922.089 176.272" stroke="white" stroke-width="2.72234" stroke-linecap="round" stroke-linejoin="round"/>
<path d="M879.548 185.826L879.772 185.414L922.088 176.272L956.117 188.803" stroke="white" stroke-width="2.72234" stroke-linecap="round" stroke-linejoin="round"/>
<path d="M741.094 211.879L744.589 212.055L837.578 249.258L741.094 211.879Z" stroke="#505153" stroke-width="0.680584" stroke-linecap="round" stroke-linejoin="round"/>
<path d="M741.094 211.879L837.578 249.258L753.845 318.794L741.094 211.879Z" stroke="#747578" stroke-width="0.680584" stroke-linecap="round" stroke-linejoin="round"/>
<path d="M741.094 211.879L753.844 318.794L656.181 271.532L741.094 211.879Z" stroke="#747578" stroke-width="0.680584" stroke-linecap="round" stroke-linejoin="round"/>
<path d="M721.512 303.145L656.181 271.532" stroke="white" stroke-width="2.72234" stroke-linecap="round" stroke-linejoin="round"/>
<path d="M656.181 271.532L666.318 264.411" stroke="white" stroke-width="2.72234" stroke-linecap="round" stroke-linejoin="round"/>
<path d="M855.173 91.7094L908.38 114.448L932.044 172.996L855.173 91.7094Z" stroke="#515153" stroke-width="0.680584" stroke-linecap="round" stroke-linejoin="round"/>
<path d="M855.172 91.7094L932.043 172.996L796.418 183.787L855.172 91.7094Z" stroke="#939598" stroke-width="0.680584" stroke-linecap="round" stroke-linejoin="round"/>
<path d="M855.173 91.7096L796.419 183.787L790.302 122.582L855.173 91.7096Z" stroke="#747578" stroke-width="0.680584" stroke-linecap="round" stroke-linejoin="round"/>
<path d="M932.043 172.996L796.418 183.787" stroke="white" stroke-width="2.72234" stroke-linecap="round" stroke-linejoin="round"/>
<path d="M855.173 91.7094L932.044 172.996" stroke="white" stroke-width="2.72234" stroke-linecap="round" stroke-linejoin="round"/>
<path d="M796.418 183.787L855.172 91.7094" stroke="white" stroke-width="2.72234" stroke-linecap="round" stroke-linejoin="round"/>
<path d="M790.302 122.582L855.173 91.7096L908.381 114.448L932.044 172.996" stroke="white" stroke-width="2.72234" stroke-linecap="round" stroke-linejoin="round"/>
<path d="M796.419 183.786L790.303 122.581" stroke="white" stroke-width="2.72234" stroke-linecap="round" stroke-linejoin="round"/>
<path d="M1064.2 261.947L1102.82 267.52L1146.28 359.115L1064.2 261.947Z" stroke="#515153" stroke-width="0.680584" stroke-linecap="round" stroke-linejoin="round"/>
<path d="M1064.2 261.947L997.202 364.574L975.068 271.515L1064.2 261.947Z" stroke="#747578" stroke-width="0.680584" stroke-linecap="round" stroke-linejoin="round"/>
<path d="M1064.2 261.947L1146.28 359.115L997.202 364.574L1064.2 261.947Z" stroke="#939598" stroke-width="0.680584" stroke-linecap="round" stroke-linejoin="round"/>
<path d="M1064.2 261.947L1079.95 280.595" stroke="white" stroke-width="2.72234" stroke-linecap="round" stroke-linejoin="round"/>
<path d="M975.068 271.515L996.645 269.199" stroke="white" stroke-width="2.72234" stroke-linecap="round" stroke-linejoin="round"/>
<path d="M1049.13 263.565L1064.2 261.947L1102.82 267.52L1119.58 302.838" stroke="white" stroke-width="2.72234" stroke-linecap="round" stroke-linejoin="round"/>
<path d="M977.651 282.362L975.068 271.515" stroke="white" stroke-width="2.72234" stroke-linecap="round" stroke-linejoin="round"/>
<path d="M1146.28 359.115L1137.21 359.448" stroke="white" stroke-width="2.72234" stroke-linecap="round" stroke-linejoin="round"/>
<path d="M1046.13 132.921L1020.16 246.307L941.037 175.263L1046.13 132.921Z" stroke="#747578" stroke-width="0.680584" stroke-linecap="round" stroke-linejoin="round"/>
<path d="M1046.13 132.92L1140.28 207.687L1020.16 246.307L1046.13 132.92Z" stroke="#747578" stroke-width="0.680584" stroke-linecap="round" stroke-linejoin="round"/>
<path d="M941.037 175.263L1011.2 146.995" stroke="white" stroke-width="2.72234" stroke-linecap="round" stroke-linejoin="round"/>
<path d="M1082.09 226.392L1020.16 246.307L941.037 175.263" stroke="white" stroke-width="2.72234" stroke-linecap="round" stroke-linejoin="round"/>
<path d="M1020.16 246.307L1027.25 215.365" stroke="white" stroke-width="2.72234" stroke-linecap="round" stroke-linejoin="round"/>
<path d="M777.439 2.00012L882.118 76.6835L747.075 111.112L777.439 2.00012Z" stroke="#747578" stroke-width="0.680584" stroke-linecap="round" stroke-linejoin="round"/>
<path d="M777.439 2.00012L747.075 111.112L690.303 60.3464L777.439 2.00012Z" stroke="#747578" stroke-width="0.680584" stroke-linecap="round" stroke-linejoin="round"/>
<path d="M882.118 76.6837L747.075 111.112L690.303 60.3466" stroke="white" stroke-width="2.72234" stroke-linecap="round" stroke-linejoin="round"/>
<path d="M777.439 2.00012L882.118 76.6835" stroke="white" stroke-width="2.72234" stroke-linecap="round" stroke-linejoin="round"/>
<path d="M747.075 111.112L777.439 2.00012" stroke="white" stroke-width="2.72234" stroke-linecap="round" stroke-linejoin="round"/>
<path d="M690.303 60.3464L777.439 2.00012" stroke="white" stroke-width="2.72234" stroke-linecap="round" stroke-linejoin="round"/>
<path d="M1000.5 5.81042L1019.2 117.588L892.69 76.9116L1000.5 5.81042Z" stroke="#747578" stroke-width="0.680584" stroke-linecap="round" stroke-linejoin="round"/>
<path d="M1000.5 5.8103L1092.98 68.7078L1019.2 117.588L1000.5 5.8103Z" stroke="#747578" stroke-width="0.680584" stroke-linecap="round" stroke-linejoin="round"/>
<path d="M892.69 76.9116L1000.5 5.81042" stroke="white" stroke-width="2.72234" stroke-linecap="round" stroke-linejoin="round"/>
<path d="M1000.5 5.8103L1019.2 117.588" stroke="white" stroke-width="2.72234" stroke-linecap="round" stroke-linejoin="round"/>
<path d="M1000.5 5.8103L1092.98 68.7078" stroke="white" stroke-width="2.72234" stroke-linecap="round" stroke-linejoin="round"/>
<path d="M1092.98 68.7078L1019.2 117.588L892.691 76.9114" stroke="white" stroke-width="2.72234" stroke-linecap="round" stroke-linejoin="round"/>
<path d="M683.552 159.729L589.835 256.66L656.618 176.267L683.552 159.729Z" stroke="#515153" stroke-width="0.680584" stroke-linecap="round" stroke-linejoin="round"/>
<path d="M683.552 159.729L788.493 187.479L743.871 272.278L683.552 159.729Z" stroke="#515153" stroke-width="0.680584" stroke-linecap="round" stroke-linejoin="round"/>
<path d="M683.552 159.729L743.872 272.278L589.835 256.66L683.552 159.729Z" stroke="#939598" stroke-width="0.680584" stroke-linecap="round" stroke-linejoin="round"/>
<path d="M743.871 272.277L589.835 256.659" stroke="white" stroke-width="2.72234" stroke-linecap="round" stroke-linejoin="round"/>
<path d="M708.61 206.486L743.871 272.277" stroke="white" stroke-width="2.72234" stroke-linecap="round" stroke-linejoin="round"/>
<path d="M589.835 256.659L627.639 217.562" stroke="white" stroke-width="2.72234" stroke-linecap="round" stroke-linejoin="round"/>
<path d="M589.835 256.659L621.632 218.381" stroke="white" stroke-width="2.72234" stroke-linecap="round" stroke-linejoin="round"/>
<path d="M755.192 178.674L788.494 187.478" stroke="white" stroke-width="2.72234" stroke-linecap="round" stroke-linejoin="round"/>
<path d="M788.494 187.479L781.36 201.036" stroke="white" stroke-width="2.72234" stroke-linecap="round" stroke-linejoin="round"/>
<path d="M711.795 349.828L752.795 325.691L835.362 411.182L711.795 349.828Z" stroke="white" stroke-width="0.680584" stroke-linecap="round" stroke-linejoin="round"/>
<path d="M711.794 349.828L614.429 392.82L752.794 325.691L711.794 349.828Z" stroke="#505153" stroke-width="0.680584" stroke-linecap="round" stroke-linejoin="round"/>
<path d="M711.793 349.828L835.361 411.182L685.485 500.138L711.793 349.828Z" stroke="#747578" stroke-width="0.680584" stroke-linecap="round" stroke-linejoin="round"/>
<path d="M711.794 349.828L685.486 500.138L614.429 392.82L711.794 349.828Z" stroke="#747578" stroke-width="0.680584" stroke-linecap="round" stroke-linejoin="round"/>
<path d="M685.486 500.138L614.429 392.82" stroke="white" stroke-width="2.72234" stroke-linecap="round" stroke-linejoin="round"/>
<path d="M765.921 452.399L685.485 500.138" stroke="white" stroke-width="2.72234" stroke-linecap="round" stroke-linejoin="round"/>
<path d="M685.485 500.138L699.113 422.271" stroke="white" stroke-width="2.72234" stroke-linecap="round" stroke-linejoin="round"/>
<path d="M614.429 392.82L636.418 382.147" stroke="white" stroke-width="2.72234" stroke-linecap="round" stroke-linejoin="round"/>
<path d="M614.429 392.82L634.449 383.981" stroke="white" stroke-width="2.72234" stroke-linecap="round" stroke-linejoin="round"/>
<path d="M960.249 399.669L846.612 413.563L992.252 371.278L960.249 399.669Z" stroke="white" stroke-width="0.680584" stroke-linecap="round" stroke-linejoin="round"/>
<path d="M960.248 399.669L992.251 371.278L1076.88 495.153L960.248 399.669Z" stroke="#505153" stroke-width="0.680584" stroke-linecap="round" stroke-linejoin="round"/>
<path d="M960.249 399.669L1076.88 495.153L907.848 555.924L960.249 399.669Z" stroke="#747578" stroke-width="0.680584" stroke-linecap="round" stroke-linejoin="round"/>
<path d="M960.248 399.669L907.848 555.924L846.612 413.563L960.248 399.669Z" stroke="#747578" stroke-width="0.680584" stroke-linecap="round" stroke-linejoin="round"/>
<path d="M1076.88 495.152L907.848 555.923" stroke="white" stroke-width="2.72234" stroke-linecap="round" stroke-linejoin="round"/>
<path d="M907.848 555.923L960.249 399.668L983.794 378.78" stroke="white" stroke-width="2.72234" stroke-linecap="round" stroke-linejoin="round"/>
<path d="M907.848 555.923L846.612 413.563" stroke="white" stroke-width="2.72234" stroke-linecap="round" stroke-linejoin="round"/>
<path d="M846.612 413.563L978.528 375.264" stroke="white" stroke-width="2.72234" stroke-linecap="round" stroke-linejoin="round"/>
<path d="M1008.77 395.45L1076.88 495.152" stroke="white" stroke-width="2.72234" stroke-linecap="round" stroke-linejoin="round"/>
<path d="M846.612 413.563L960.249 399.668L1076.88 495.152" stroke="white" stroke-width="2.72234" stroke-linecap="round" stroke-linejoin="round"/>
<path d="M1050.49 264.061L909.807 329.387L1020 253.007L1050.49 264.061Z" stroke="#515153" stroke-width="0.680584" stroke-linecap="round" stroke-linejoin="round"/>
<path d="M1050.49 264.061L1167.45 329.707L1063.47 431.97L1050.49 264.061Z" stroke="#747578" stroke-width="0.680584" stroke-linecap="round" stroke-linejoin="round"/>
<path d="M1050.49 264.061L1063.47 431.97L909.807 329.387L1050.49 264.061Z" stroke="#939598" stroke-width="0.680584" stroke-linecap="round" stroke-linejoin="round"/>
<path d="M1050.49 264.061L1063.47 431.97" stroke="white" stroke-width="2.72234" stroke-linecap="round" stroke-linejoin="round"/>
<path d="M1063.47 431.97L941.004 350.214" stroke="white" stroke-width="2.72234" stroke-linecap="round" stroke-linejoin="round"/>
<path d="M1167.45 329.707L1063.47 431.97" stroke="white" stroke-width="2.72234" stroke-linecap="round" stroke-linejoin="round"/>
<path d="M974.427 299.379L1050.49 264.061" stroke="white" stroke-width="2.72234" stroke-linecap="round" stroke-linejoin="round"/>
<path d="M973.537 285.212L1020 253.007L1050.49 264.061L1167.45 329.707" stroke="white" stroke-width="2.72234" stroke-linecap="round" stroke-linejoin="round"/>
<path d="M639.301 86.2814L741.082 115.882L759.865 199.475L639.301 86.2814Z" stroke="#505153" stroke-width="0.680584" stroke-linecap="round" stroke-linejoin="round"/>
<path d="M639.301 86.2815L759.865 199.475L550.833 228.067L639.301 86.2815Z" stroke="#939598" stroke-width="0.680584" stroke-linecap="round" stroke-linejoin="round"/>
<path d="M639.301 86.2815L550.833 228.067L569.656 135.109L639.301 86.2815Z" stroke="#747578" stroke-width="0.680584" stroke-linecap="round" stroke-linejoin="round"/>
<path d="M759.865 199.475L550.833 228.067" stroke="white" stroke-width="2.72234" stroke-linecap="round" stroke-linejoin="round"/>
<path d="M550.833 228.067L639.301 86.2815" stroke="white" stroke-width="2.72234" stroke-linecap="round" stroke-linejoin="round"/>
<path d="M639.301 86.2814L759.865 199.475" stroke="white" stroke-width="2.72234" stroke-linecap="round" stroke-linejoin="round"/>
<path d="M550.833 228.067L569.656 135.109L639.301 86.2815L741.082 115.882" stroke="white" stroke-width="2.72234" stroke-linecap="round" stroke-linejoin="round"/>
<path d="M741.082 115.882L759.866 199.475" stroke="white" stroke-width="2.72234" stroke-linecap="round" stroke-linejoin="round"/>
<path d="M1112.73 96.9011L980.256 205.912L1023.96 122.705L1112.73 96.9011Z" stroke="#515153" stroke-width="0.680584" stroke-linecap="round" stroke-linejoin="round"/>
<path d="M1112.73 96.901L1198.17 151.174L1190.15 248.127L1112.73 96.901Z" stroke="#515153" stroke-width="0.680584" stroke-linecap="round" stroke-linejoin="round"/>
<path d="M1112.73 96.9011L1190.15 248.127L980.256 205.912L1112.73 96.9011Z" stroke="#939598" stroke-width="0.680584" stroke-linecap="round" stroke-linejoin="round"/>
<path d="M1190.15 248.127L980.256 205.912" stroke="white" stroke-width="2.72234" stroke-linecap="round" stroke-linejoin="round"/>
<path d="M980.256 205.912L1112.73 96.9011" stroke="white" stroke-width="2.72234" stroke-linecap="round" stroke-linejoin="round"/>
<path d="M1112.73 96.901L1190.15 248.127" stroke="white" stroke-width="2.72234" stroke-linecap="round" stroke-linejoin="round"/>
<path d="M1198.17 151.174L1190.15 248.127" stroke="white" stroke-width="2.72234" stroke-linecap="round" stroke-linejoin="round"/>
<path d="M980.256 205.912L1023.96 122.705L1112.73 96.9011L1198.17 151.174" stroke="white" stroke-width="2.72234" stroke-linecap="round" stroke-linejoin="round"/>
<path d="M758.343 292.609L747.583 278.938L896.753 330.781L758.343 292.609Z" stroke="#505153" stroke-width="0.680584" stroke-linecap="round" stroke-linejoin="round"/>
<path d="M758.343 292.609L627.826 390.123L747.583 278.938L758.343 292.609Z" stroke="#515153" stroke-width="0.680584" stroke-linecap="round" stroke-linejoin="round"/>
<path d="M758.344 292.609L896.753 330.781L796.6 466.231L758.344 292.609Z" stroke="#515153" stroke-width="0.680584" stroke-linecap="round" stroke-linejoin="round"/>
<path d="M758.343 292.609L796.599 466.231L627.826 390.123L758.343 292.609Z" stroke="#939598" stroke-width="0.680584" stroke-linecap="round" stroke-linejoin="round"/>
<path d="M796.599 466.231L627.826 390.123" stroke="white" stroke-width="2.72234" stroke-linecap="round" stroke-linejoin="round"/>
<path d="M627.826 390.123L741.655 284.445" stroke="white" stroke-width="2.72234" stroke-linecap="round" stroke-linejoin="round"/>
<path d="M883.989 348.044L796.599 466.232" stroke="white" stroke-width="2.72234" stroke-linecap="round" stroke-linejoin="round"/>
<path d="M627.826 390.123L731.86 312.392" stroke="white" stroke-width="2.72234" stroke-linecap="round" stroke-linejoin="round"/>
<path d="M769.599 343.69L796.599 466.231" stroke="white" stroke-width="2.72234" stroke-linecap="round" stroke-linejoin="round"/>
<path d="M856.896 179.644L721.538 341.862L769.725 204.333L856.896 179.644Z" stroke="#747578" stroke-width="0.680584" stroke-linecap="round" stroke-linejoin="round"/>
<path d="M856.896 179.643L968.805 210.204L977.723 351.609L856.896 179.643Z" stroke="#515153" stroke-width="0.680584" stroke-linecap="round" stroke-linejoin="round"/>
<path d="M856.896 179.644L977.724 351.609L721.538 341.862L856.896 179.644Z" stroke="#939598" stroke-width="0.680584" stroke-linecap="round" stroke-linejoin="round"/>
<path d="M977.724 351.609L721.539 341.862" stroke="white" stroke-width="2.72234" stroke-linecap="round" stroke-linejoin="round"/>
<path d="M721.538 341.862L856.896 179.644" stroke="white" stroke-width="2.72234" stroke-linecap="round" stroke-linejoin="round"/>
<path d="M856.896 179.643L977.723 351.609" stroke="white" stroke-width="2.72234" stroke-linecap="round" stroke-linejoin="round"/>
<path d="M721.538 341.862L769.725 204.333L856.896 179.644L968.805 210.204" stroke="white" stroke-width="2.72234" stroke-linecap="round" stroke-linejoin="round"/>
<path d="M968.805 210.204L977.724 351.609" stroke="white" stroke-width="2.72234" stroke-linecap="round" stroke-linejoin="round"/>
</g>
<g style="mix-blend-mode:overlay">
<path d="M1565.92 176.272L1490 247.369L1523.61 185.414L1565.92 176.272Z" stroke="#515153" stroke-width="0.680584"/>
<path d="M1565.92 176.272L1612.35 267.047L1490 247.369L1565.92 176.272Z" stroke="#939598" stroke-width="0.680584"/>
<path d="M1565.92 176.272L1632.11 200.642L1612.35 267.047L1565.92 176.272Z" stroke="#515153" stroke-width="0.680584"/>
<path d="M1628.11 214.085L1615.55 256.3" stroke="white" stroke-width="2.72234" stroke-linecap="round" stroke-linejoin="round"/>
<path d="M1565.92 176.272L1578.51 200.883" stroke="white" stroke-width="2.72234" stroke-linecap="round" stroke-linejoin="round"/>
<path d="M1548.42 192.666L1565.92 176.272" stroke="white" stroke-width="2.72234" stroke-linecap="round" stroke-linejoin="round"/>
<path d="M1523.38 185.826L1523.6 185.414L1565.92 176.272L1599.95 188.803" stroke="white" stroke-width="2.72234" stroke-linecap="round" stroke-linejoin="round"/>
<path d="M1384.93 211.879L1388.42 212.055L1481.41 249.258L1384.93 211.879Z" stroke="#505153" stroke-width="0.680584" stroke-linecap="round" stroke-linejoin="round"/>
<path d="M1384.93 211.879L1481.41 249.258L1397.68 318.794L1384.93 211.879Z" stroke="#747578" stroke-width="0.680584" stroke-linecap="round" stroke-linejoin="round"/>
<path d="M1384.93 211.879L1397.68 318.794L1300.01 271.532L1384.93 211.879Z" stroke="#747578" stroke-width="0.680584" stroke-linecap="round" stroke-linejoin="round"/>
<path d="M1365.34 303.145L1300.01 271.532" stroke="white" stroke-width="2.72234" stroke-linecap="round" stroke-linejoin="round"/>
<path d="M1300.01 271.532L1310.15 264.411" stroke="white" stroke-width="2.72234" stroke-linecap="round" stroke-linejoin="round"/>
<path d="M1499.01 91.7095L1552.21 114.448L1575.88 172.996L1499.01 91.7095Z" stroke="#515153" stroke-width="0.680584" stroke-linecap="round" stroke-linejoin="round"/>
<path d="M1499.01 91.7095L1575.88 172.996L1440.25 183.787L1499.01 91.7095Z" stroke="#939598" stroke-width="0.680584" stroke-linecap="round" stroke-linejoin="round"/>
<path d="M1499.01 91.7098L1440.25 183.787L1434.14 122.582L1499.01 91.7098Z" stroke="#747578" stroke-width="0.680584" stroke-linecap="round" stroke-linejoin="round"/>
<path d="M1575.88 172.996L1440.25 183.787" stroke="white" stroke-width="2.72234" stroke-linecap="round" stroke-linejoin="round"/>
<path d="M1499.01 91.7095L1575.88 172.996" stroke="white" stroke-width="2.72234" stroke-linecap="round" stroke-linejoin="round"/>
<path d="M1440.25 183.787L1499.01 91.7095" stroke="white" stroke-width="2.72234" stroke-linecap="round" stroke-linejoin="round"/>
<path d="M1434.14 122.582L1499.01 91.7098L1552.21 114.449L1575.88 172.996" stroke="white" stroke-width="2.72234" stroke-linecap="round" stroke-linejoin="round"/>
<path d="M1440.25 183.787L1434.14 122.582" stroke="white" stroke-width="2.72234" stroke-linecap="round" stroke-linejoin="round"/>
<path d="M1708.03 261.947L1746.65 267.52L1790.11 359.115L1708.03 261.947Z" stroke="#515153" stroke-width="0.680584" stroke-linecap="round" stroke-linejoin="round"/>
<path d="M1708.03 261.947L1641.03 364.574L1618.9 271.515L1708.03 261.947Z" stroke="#747578" stroke-width="0.680584" stroke-linecap="round" stroke-linejoin="round"/>
<path d="M1708.03 261.947L1790.11 359.115L1641.03 364.574L1708.03 261.947Z" stroke="#939598" stroke-width="0.680584" stroke-linecap="round" stroke-linejoin="round"/>
<path d="M1708.03 261.947L1723.78 280.595" stroke="white" stroke-width="2.72234" stroke-linecap="round" stroke-linejoin="round"/>
<path d="M1618.9 271.515L1640.48 269.199" stroke="white" stroke-width="2.72234" stroke-linecap="round" stroke-linejoin="round"/>
<path d="M1692.96 263.565L1708.03 261.947L1746.65 267.52L1763.41 302.838" stroke="white" stroke-width="2.72234" stroke-linecap="round" stroke-linejoin="round"/>
<path d="M1621.48 282.362L1618.9 271.515" stroke="white" stroke-width="2.72234" stroke-linecap="round" stroke-linejoin="round"/>
<path d="M1790.11 359.115L1781.04 359.449" stroke="white" stroke-width="2.72234" stroke-linecap="round" stroke-linejoin="round"/>
<path d="M1689.96 132.921L1663.99 246.307L1584.87 175.263L1689.96 132.921Z" stroke="#747578" stroke-width="0.680584" stroke-linecap="round" stroke-linejoin="round"/>
<path d="M1689.96 132.921L1784.11 207.687L1663.99 246.307L1689.96 132.921Z" stroke="#747578" stroke-width="0.680584" stroke-linecap="round" stroke-linejoin="round"/>
<path d="M1584.87 175.263L1655.03 146.995" stroke="white" stroke-width="2.72234" stroke-linecap="round" stroke-linejoin="round"/>
<path d="M1725.92 226.392L1663.99 246.307L1584.87 175.263" stroke="white" stroke-width="2.72234" stroke-linecap="round" stroke-linejoin="round"/>
<path d="M1663.99 246.307L1671.08 215.365" stroke="white" stroke-width="2.72234" stroke-linecap="round" stroke-linejoin="round"/>
<path d="M1421.27 2.00012L1525.95 76.6835L1390.91 111.112L1421.27 2.00012Z" stroke="#747578" stroke-width="0.680584" stroke-linecap="round" stroke-linejoin="round"/>
<path d="M1421.27 2.00012L1390.91 111.112L1334.14 60.3464L1421.27 2.00012Z" stroke="#747578" stroke-width="0.680584" stroke-linecap="round" stroke-linejoin="round"/>
<path d="M1525.95 76.6837L1390.91 111.112L1334.14 60.3466" stroke="white" stroke-width="2.72234" stroke-linecap="round" stroke-linejoin="round"/>
<path d="M1421.27 2.00012L1525.95 76.6835" stroke="white" stroke-width="2.72234" stroke-linecap="round" stroke-linejoin="round"/>
<path d="M1390.91 111.112L1421.27 2.00012" stroke="white" stroke-width="2.72234" stroke-linecap="round" stroke-linejoin="round"/>
<path d="M1334.14 60.3464L1421.27 2.00012" stroke="white" stroke-width="2.72234" stroke-linecap="round" stroke-linejoin="round"/>
<path d="M1644.33 5.8103L1663.04 117.588L1536.52 76.9115L1644.33 5.8103Z" stroke="#747578" stroke-width="0.680584" stroke-linecap="round" stroke-linejoin="round"/>
<path d="M1644.33 5.81018L1736.81 68.7077L1663.04 117.588L1644.33 5.81018Z" stroke="#747578" stroke-width="0.680584" stroke-linecap="round" stroke-linejoin="round"/>
<path d="M1536.52 76.9115L1644.33 5.8103" stroke="white" stroke-width="2.72234" stroke-linecap="round" stroke-linejoin="round"/>
<path d="M1644.33 5.81018L1663.04 117.588" stroke="white" stroke-width="2.72234" stroke-linecap="round" stroke-linejoin="round"/>
<path d="M1644.33 5.81018L1736.81 68.7077" stroke="white" stroke-width="2.72234" stroke-linecap="round" stroke-linejoin="round"/>
<path d="M1736.81 68.7078L1663.04 117.588L1536.52 76.9114" stroke="white" stroke-width="2.72234" stroke-linecap="round" stroke-linejoin="round"/>
<path d="M1327.39 159.729L1233.67 256.66L1300.45 176.267L1327.39 159.729Z" stroke="#515153" stroke-width="0.680584" stroke-linecap="round" stroke-linejoin="round"/>
<path d="M1327.38 159.729L1432.33 187.479L1387.7 272.278L1327.38 159.729Z" stroke="#515153" stroke-width="0.680584" stroke-linecap="round" stroke-linejoin="round"/>
<path d="M1327.39 159.729L1387.7 272.278L1233.67 256.66L1327.39 159.729Z" stroke="#939598" stroke-width="0.680584" stroke-linecap="round" stroke-linejoin="round"/>
<path d="M1387.7 272.277L1233.67 256.659" stroke="white" stroke-width="2.72234" stroke-linecap="round" stroke-linejoin="round"/>
<path d="M1352.44 206.486L1387.7 272.277" stroke="white" stroke-width="2.72234" stroke-linecap="round" stroke-linejoin="round"/>
<path d="M1233.67 256.659L1271.47 217.562" stroke="white" stroke-width="2.72234" stroke-linecap="round" stroke-linejoin="round"/>
<path d="M1233.67 256.659L1265.47 218.381" stroke="white" stroke-width="2.72234" stroke-linecap="round" stroke-linejoin="round"/>
<path d="M1399.03 178.674L1432.33 187.478" stroke="white" stroke-width="2.72234" stroke-linecap="round" stroke-linejoin="round"/>
<path d="M1432.33 187.479L1425.19 201.036" stroke="white" stroke-width="2.72234" stroke-linecap="round" stroke-linejoin="round"/>
<path d="M1355.63 349.828L1396.63 325.691L1479.2 411.182L1355.63 349.828Z" stroke="white" stroke-width="0.680584" stroke-linecap="round" stroke-linejoin="round"/>
<path d="M1355.63 349.828L1258.26 392.82L1396.63 325.691L1355.63 349.828Z" stroke="#505153" stroke-width="0.680584" stroke-linecap="round" stroke-linejoin="round"/>
<path d="M1355.63 349.828L1479.19 411.182L1329.32 500.138L1355.63 349.828Z" stroke="#747578" stroke-width="0.680584" stroke-linecap="round" stroke-linejoin="round"/>
<path d="M1355.63 349.828L1329.32 500.138L1258.26 392.82L1355.63 349.828Z" stroke="#747578" stroke-width="0.680584" stroke-linecap="round" stroke-linejoin="round"/>
<path d="M1329.32 500.138L1258.26 392.82" stroke="white" stroke-width="2.72234" stroke-linecap="round" stroke-linejoin="round"/>
<path d="M1409.76 452.398L1329.32 500.138" stroke="white" stroke-width="2.72234" stroke-linecap="round" stroke-linejoin="round"/>
<path d="M1329.32 500.138L1342.95 422.271" stroke="white" stroke-width="2.72234" stroke-linecap="round" stroke-linejoin="round"/>
<path d="M1258.26 392.82L1280.25 382.147" stroke="white" stroke-width="2.72234" stroke-linecap="round" stroke-linejoin="round"/>
<path d="M1258.26 392.82L1278.28 383.98" stroke="white" stroke-width="2.72234" stroke-linecap="round" stroke-linejoin="round"/>
<path d="M1604.08 399.669L1490.45 413.563L1636.09 371.278L1604.08 399.669Z" stroke="white" stroke-width="0.680584" stroke-linecap="round" stroke-linejoin="round"/>
<path d="M1604.08 399.669L1636.09 371.278L1720.71 495.153L1604.08 399.669Z" stroke="#505153" stroke-width="0.680584" stroke-linecap="round" stroke-linejoin="round"/>
<path d="M1604.08 399.669L1720.71 495.153L1551.68 555.924L1604.08 399.669Z" stroke="#747578" stroke-width="0.680584" stroke-linecap="round" stroke-linejoin="round"/>
<path d="M1604.08 399.669L1551.68 555.924L1490.45 413.563L1604.08 399.669Z" stroke="#747578" stroke-width="0.680584" stroke-linecap="round" stroke-linejoin="round"/>
<path d="M1720.71 495.152L1551.68 555.923" stroke="white" stroke-width="2.72234" stroke-linecap="round" stroke-linejoin="round"/>
<path d="M1551.68 555.923L1604.08 399.668L1627.63 378.78" stroke="white" stroke-width="2.72234" stroke-linecap="round" stroke-linejoin="round"/>
<path d="M1551.68 555.923L1490.45 413.563" stroke="white" stroke-width="2.72234" stroke-linecap="round" stroke-linejoin="round"/>
<path d="M1490.45 413.563L1622.36 375.264" stroke="white" stroke-width="2.72234" stroke-linecap="round" stroke-linejoin="round"/>
<path d="M1652.6 395.45L1720.71 495.152" stroke="white" stroke-width="2.72234" stroke-linecap="round" stroke-linejoin="round"/>
<path d="M1490.45 413.563L1604.08 399.668L1720.71 495.152" stroke="white" stroke-width="2.72234" stroke-linecap="round" stroke-linejoin="round"/>
<path d="M1694.32 264.061L1553.64 329.387L1663.83 253.007L1694.32 264.061Z" stroke="#515153" stroke-width="0.680584" stroke-linecap="round" stroke-linejoin="round"/>
<path d="M1694.32 264.061L1811.28 329.707L1707.3 431.97L1694.32 264.061Z" stroke="#747578" stroke-width="0.680584" stroke-linecap="round" stroke-linejoin="round"/>
<path d="M1694.32 264.061L1707.3 431.97L1553.64 329.387L1694.32 264.061Z" stroke="#939598" stroke-width="0.680584" stroke-linecap="round" stroke-linejoin="round"/>
<path d="M1694.32 264.061L1707.3 431.97" stroke="white" stroke-width="2.72234" stroke-linecap="round" stroke-linejoin="round"/>
<path d="M1707.3 431.97L1584.84 350.214" stroke="white" stroke-width="2.72234" stroke-linecap="round" stroke-linejoin="round"/>
<path d="M1811.28 329.707L1707.3 431.97" stroke="white" stroke-width="2.72234" stroke-linecap="round" stroke-linejoin="round"/>
<path d="M1618.26 299.379L1694.32 264.061" stroke="white" stroke-width="2.72234" stroke-linecap="round" stroke-linejoin="round"/>
<path d="M1617.37 285.212L1663.83 253.007L1694.32 264.061L1811.28 329.707" stroke="white" stroke-width="2.72234" stroke-linecap="round" stroke-linejoin="round"/>
<path d="M1283.13 86.2814L1384.91 115.882L1403.7 199.475L1283.13 86.2814Z" stroke="#505153" stroke-width="0.680584" stroke-linecap="round" stroke-linejoin="round"/>
<path d="M1283.13 86.2815L1403.7 199.475L1194.67 228.067L1283.13 86.2815Z" stroke="#939598" stroke-width="0.680584" stroke-linecap="round" stroke-linejoin="round"/>
<path d="M1283.13 86.2815L1194.67 228.067L1213.49 135.109L1283.13 86.2815Z" stroke="#747578" stroke-width="0.680584" stroke-linecap="round" stroke-linejoin="round"/>
<path d="M1403.7 199.475L1194.67 228.067" stroke="white" stroke-width="2.72234" stroke-linecap="round" stroke-linejoin="round"/>
<path d="M1194.67 228.067L1283.13 86.2815" stroke="white" stroke-width="2.72234" stroke-linecap="round" stroke-linejoin="round"/>
<path d="M1283.13 86.2814L1403.7 199.475" stroke="white" stroke-width="2.72234" stroke-linecap="round" stroke-linejoin="round"/>
<path d="M1194.67 228.067L1213.49 135.109L1283.13 86.2815L1384.91 115.882" stroke="white" stroke-width="2.72234" stroke-linecap="round" stroke-linejoin="round"/>
<path d="M1384.92 115.882L1403.7 199.475" stroke="white" stroke-width="2.72234" stroke-linecap="round" stroke-linejoin="round"/>
<path d="M1756.56 96.9011L1624.09 205.912L1667.79 122.705L1756.56 96.9011Z" stroke="#515153" stroke-width="0.680584" stroke-linecap="round" stroke-linejoin="round"/>
<path d="M1756.56 96.901L1842 151.174L1833.98 248.127L1756.56 96.901Z" stroke="#515153" stroke-width="0.680584" stroke-linecap="round" stroke-linejoin="round"/>
<path d="M1756.56 96.9011L1833.98 248.127L1624.09 205.912L1756.56 96.9011Z" stroke="#939598" stroke-width="0.680584" stroke-linecap="round" stroke-linejoin="round"/>
<path d="M1833.98 248.127L1624.09 205.912" stroke="white" stroke-width="2.72234" stroke-linecap="round" stroke-linejoin="round"/>
<path d="M1624.09 205.912L1756.56 96.9011" stroke="white" stroke-width="2.72234" stroke-linecap="round" stroke-linejoin="round"/>
<path d="M1756.56 96.901L1833.98 248.127" stroke="white" stroke-width="2.72234" stroke-linecap="round" stroke-linejoin="round"/>
<path d="M1842 151.174L1833.98 248.127" stroke="white" stroke-width="2.72234" stroke-linecap="round" stroke-linejoin="round"/>
<path d="M1624.09 205.912L1667.79 122.705L1756.56 96.9011L1842 151.174" stroke="white" stroke-width="2.72234" stroke-linecap="round" stroke-linejoin="round"/>
<path d="M1402.18 292.609L1391.42 278.938L1540.59 330.781L1402.18 292.609Z" stroke="#505153" stroke-width="0.680584" stroke-linecap="round" stroke-linejoin="round"/>
<path d="M1402.18 292.609L1271.66 390.123L1391.42 278.938L1402.18 292.609Z" stroke="#515153" stroke-width="0.680584" stroke-linecap="round" stroke-linejoin="round"/>
<path d="M1402.18 292.609L1540.59 330.781L1440.43 466.231L1402.18 292.609Z" stroke="#515153" stroke-width="0.680584" stroke-linecap="round" stroke-linejoin="round"/>
<path d="M1402.18 292.609L1440.43 466.231L1271.66 390.123L1402.18 292.609Z" stroke="#939598" stroke-width="0.680584" stroke-linecap="round" stroke-linejoin="round"/>
<path d="M1440.43 466.231L1271.66 390.123" stroke="white" stroke-width="2.72234" stroke-linecap="round" stroke-linejoin="round"/>
<path d="M1271.66 390.123L1385.49 284.445" stroke="white" stroke-width="2.72234" stroke-linecap="round" stroke-linejoin="round"/>
<path d="M1527.82 348.044L1440.43 466.232" stroke="white" stroke-width="2.72234" stroke-linecap="round" stroke-linejoin="round"/>
<path d="M1271.66 390.123L1375.69 312.392" stroke="white" stroke-width="2.72234" stroke-linecap="round" stroke-linejoin="round"/>
<path d="M1413.43 343.69L1440.43 466.231" stroke="white" stroke-width="2.72234" stroke-linecap="round" stroke-linejoin="round"/>
<path d="M1500.73 179.643L1365.37 341.862L1413.56 204.333L1500.73 179.643Z" stroke="#747578" stroke-width="0.680584" stroke-linecap="round" stroke-linejoin="round"/>
<path d="M1500.73 179.643L1612.64 210.204L1621.56 351.609L1500.73 179.643Z" stroke="#515153" stroke-width="0.680584" stroke-linecap="round" stroke-linejoin="round"/>
<path d="M1500.73 179.643L1621.56 351.609L1365.37 341.862L1500.73 179.643Z" stroke="#939598" stroke-width="0.680584" stroke-linecap="round" stroke-linejoin="round"/>
<path d="M1621.56 351.609L1365.37 341.862" stroke="white" stroke-width="2.72234" stroke-linecap="round" stroke-linejoin="round"/>
<path d="M1365.37 341.862L1500.73 179.643" stroke="white" stroke-width="2.72234" stroke-linecap="round" stroke-linejoin="round"/>
<path d="M1500.73 179.643L1621.56 351.609" stroke="white" stroke-width="2.72234" stroke-linecap="round" stroke-linejoin="round"/>
<path d="M1365.37 341.862L1413.56 204.333L1500.73 179.643L1612.64 210.204" stroke="white" stroke-width="2.72234" stroke-linecap="round" stroke-linejoin="round"/>
<path d="M1612.64 210.204L1621.56 351.609" stroke="white" stroke-width="2.72234" stroke-linecap="round" stroke-linejoin="round"/>
</g>
</svg>
