<svg width="158" height="60" viewBox="0 0 158 60" fill="none" xmlns="http://www.w3.org/2000/svg">
<path d="M30 0L55.9808 15V45L30 60L4.01924 45V15L30 0Z" fill="#1F0060"/>
<g filter="url(#filter0_d_1_15434)">
<path d="M25.1298 41.7919H19.1675L23.9091 27.3792L26.8668 36.5573L25.1298 41.7919Z" fill="#7685FF"/>
</g>
<g filter="url(#filter1_d_1_15434)">
<path d="M41.0444 41.7683H35.0586L43.6969 18.3887H49.5653L41.0444 41.7683Z" fill="#5E4DFF"/>
</g>
<g filter="url(#filter2_d_1_15434)">
<path d="M17.1485 18.2244H10.4351L15.8809 32.7076L18.956 23.8111L17.1485 18.2244Z" fill="#9CA6FF"/>
</g>
<g filter="url(#filter3_d_1_15434)">
<path d="M32.9229 18.2009H26.8667L31.7961 32.8015L34.9181 24.3745L32.9229 18.2009Z" fill="#7685FF"/>
</g>
<path d="M92.123 13.62C92.283 14.1667 92.4563 14.7867 92.643 15.48C92.843 16.16 93.0497 16.8667 93.263 17.6C93.4897 18.3333 93.7163 19.0667 93.943 19.8C94.1697 20.5333 94.3897 21.2133 94.603 21.84C94.7763 21.16 94.9497 20.42 95.123 19.62C95.3097 18.82 95.483 17.9933 95.643 17.14C95.803 16.2867 95.9563 15.44 96.103 14.6C96.263 13.7467 96.4097 12.9267 96.543 12.14H99.783C99.3163 14.46 98.7763 16.8133 98.163 19.2C97.563 21.5867 96.9097 23.8533 96.203 26H93.343C92.8763 24.72 92.423 23.38 91.983 21.98C91.543 20.5667 91.1097 19.1533 90.683 17.74C90.2563 19.1533 89.8297 20.5667 89.403 21.98C88.9763 23.38 88.5297 24.72 88.063 26H85.203C84.4963 23.8533 83.8363 21.5867 83.223 19.2C82.623 16.8133 82.0897 14.46 81.623 12.14H85.003C85.1363 12.9267 85.283 13.7467 85.443 14.6C85.603 15.44 85.7697 16.2867 85.943 17.14C86.1163 17.9933 86.2897 18.82 86.463 19.62C86.6497 20.42 86.8363 21.16 87.023 21.84C87.263 21.1867 87.4963 20.4933 87.723 19.76C87.9497 19.0267 88.1697 18.2933 88.383 17.56C88.5963 16.8267 88.7897 16.12 88.963 15.44C89.1497 14.76 89.3163 14.1533 89.463 13.62H92.123ZM108.948 12.14H112.068V26H108.948V20.12H103.708V26H100.588V12.14H103.708V17.44H108.948V12.14ZM114.075 12.14H117.195V26H114.075V12.14ZM129.483 12.14V14.8H125.303V26H122.183V14.8H118.003V12.14H129.483ZM130.289 26V12.14H139.649V14.76H133.409V17.48H138.949V20.04H133.409V23.38H140.109V26H130.289ZM71.841 48V34.14H81.121V36.76H74.961V39.66H80.441V42.28H74.961V48H71.841ZM82.1254 34.14H85.2454V48H82.1254V34.14ZM96.5535 48C95.6601 46.4133 94.6935 44.8467 93.6535 43.3C92.6135 41.7533 91.5068 40.2933 90.3335 38.92V48H87.2535V34.14H89.7935C90.2335 34.58 90.7201 35.12 91.2535 35.76C91.7868 36.4 92.3268 37.0867 92.8735 37.82C93.4335 38.54 93.9868 39.2933 94.5335 40.08C95.0801 40.8533 95.5935 41.6 96.0735 42.32V34.14H99.1735V48H96.5535ZM110.451 48C110.304 47.52 110.137 47.0267 109.951 46.52C109.777 46.0133 109.604 45.5067 109.431 45H104.031C103.857 45.5067 103.677 46.0133 103.491 46.52C103.317 47.0267 103.157 47.52 103.011 48H99.7707C100.291 46.5067 100.784 45.1267 101.251 43.86C101.717 42.5933 102.171 41.4 102.611 40.28C103.064 39.16 103.504 38.1 103.931 37.1C104.371 36.0867 104.824 35.1 105.291 34.14H108.271C108.724 35.1 109.171 36.0867 109.611 37.1C110.051 38.1 110.491 39.16 110.931 40.28C111.384 41.4 111.844 42.5933 112.311 43.86C112.777 45.1267 113.271 46.5067 113.791 48H110.451ZM106.711 37.28C106.644 37.48 106.544 37.7533 106.411 38.1C106.277 38.4467 106.124 38.8467 105.951 39.3C105.777 39.7533 105.584 40.2533 105.371 40.8C105.171 41.3467 104.964 41.92 104.751 42.52H108.691C108.477 41.92 108.271 41.3467 108.071 40.8C107.871 40.2533 107.677 39.7533 107.491 39.3C107.317 38.8467 107.164 38.4467 107.031 38.1C106.897 37.7533 106.791 37.48 106.711 37.28ZM123.685 48C122.791 46.4133 121.825 44.8467 120.785 43.3C119.745 41.7533 118.638 40.2933 117.465 38.92V48H114.385V34.14H116.925C117.365 34.58 117.851 35.12 118.385 35.76C118.918 36.4 119.458 37.0867 120.005 37.82C120.565 38.54 121.118 39.2933 121.665 40.08C122.211 40.8533 122.725 41.6 123.205 42.32V34.14H126.305V48H123.685ZM134.622 48.28C132.369 48.28 130.649 47.6533 129.462 46.4C128.289 45.1467 127.702 43.3667 127.702 41.06C127.702 39.9133 127.882 38.8933 128.242 38C128.602 37.0933 129.095 36.3333 129.722 35.72C130.349 35.0933 131.095 34.62 131.962 34.3C132.829 33.98 133.769 33.82 134.782 33.82C135.369 33.82 135.902 33.8667 136.382 33.96C136.862 34.04 137.282 34.14 137.642 34.26C138.002 34.3667 138.302 34.48 138.542 34.6C138.782 34.72 138.955 34.8133 139.062 34.88L138.162 37.4C137.735 37.1733 137.235 36.98 136.662 36.82C136.102 36.66 135.462 36.58 134.742 36.58C134.262 36.58 133.789 36.66 133.322 36.82C132.869 36.98 132.462 37.24 132.102 37.6C131.755 37.9467 131.475 38.4 131.262 38.96C131.049 39.52 130.942 40.2 130.942 41C130.942 41.64 131.009 42.24 131.142 42.8C131.289 43.3467 131.515 43.82 131.822 44.22C132.142 44.62 132.555 44.94 133.062 45.18C133.569 45.4067 134.182 45.52 134.902 45.52C135.355 45.52 135.762 45.4933 136.122 45.44C136.482 45.3867 136.802 45.3267 137.082 45.26C137.362 45.18 137.609 45.0933 137.822 45C138.035 44.9067 138.229 44.82 138.402 44.74L139.262 47.24C138.822 47.5067 138.202 47.7467 137.402 47.96C136.602 48.1733 135.675 48.28 134.622 48.28ZM140.071 48V34.14H149.431V36.76H143.191V39.48H148.731V42.04H143.191V45.38H149.891V48H140.071Z" fill="white"/>
<defs>
<filter id="filter0_d_1_15434" x="16.1675" y="20.3792" width="15.6992" height="22.4128" filterUnits="userSpaceOnUse" color-interpolation-filters="sRGB">
<feFlood flood-opacity="0" result="BackgroundImageFix"/>
<feColorMatrix in="SourceAlpha" type="matrix" values="0 0 0 0 0 0 0 0 0 0 0 0 0 0 0 0 0 0 127 0" result="hardAlpha"/>
<feOffset dx="1" dy="-3"/>
<feGaussianBlur stdDeviation="2"/>
<feComposite in2="hardAlpha" operator="out"/>
<feColorMatrix type="matrix" values="0 0 0 0 0.462745 0 0 0 0 0.521569 0 0 0 0 1 0 0 0 0.4 0"/>
<feBlend mode="normal" in2="BackgroundImageFix" result="effect1_dropShadow_1_15434"/>
<feBlend mode="normal" in="SourceGraphic" in2="effect1_dropShadow_1_15434" result="shape"/>
</filter>
<filter id="filter1_d_1_15434" x="28.0586" y="14.3887" width="22.5066" height="31.3796" filterUnits="userSpaceOnUse" color-interpolation-filters="sRGB">
<feFlood flood-opacity="0" result="BackgroundImageFix"/>
<feColorMatrix in="SourceAlpha" type="matrix" values="0 0 0 0 0 0 0 0 0 0 0 0 0 0 0 0 0 0 127 0" result="hardAlpha"/>
<feOffset dx="-3"/>
<feGaussianBlur stdDeviation="2"/>
<feComposite in2="hardAlpha" operator="out"/>
<feColorMatrix type="matrix" values="0 0 0 0 0.368627 0 0 0 0 0.301961 0 0 0 0 1 0 0 0 0.4 0"/>
<feBlend mode="normal" in2="BackgroundImageFix" result="effect1_dropShadow_1_15434"/>
<feBlend mode="normal" in="SourceGraphic" in2="effect1_dropShadow_1_15434" result="shape"/>
</filter>
<filter id="filter2_d_1_15434" x="7.43506" y="17.2244" width="16.521" height="22.4832" filterUnits="userSpaceOnUse" color-interpolation-filters="sRGB">
<feFlood flood-opacity="0" result="BackgroundImageFix"/>
<feColorMatrix in="SourceAlpha" type="matrix" values="0 0 0 0 0 0 0 0 0 0 0 0 0 0 0 0 0 0 127 0" result="hardAlpha"/>
<feOffset dx="1" dy="3"/>
<feGaussianBlur stdDeviation="2"/>
<feComposite in2="hardAlpha" operator="out"/>
<feColorMatrix type="matrix" values="0 0 0 0 0.611765 0 0 0 0 0.65098 0 0 0 0 1 0 0 0 0.4 0"/>
<feBlend mode="normal" in2="BackgroundImageFix" result="effect1_dropShadow_1_15434"/>
<feBlend mode="normal" in="SourceGraphic" in2="effect1_dropShadow_1_15434" result="shape"/>
</filter>
<filter id="filter3_d_1_15434" x="23.8667" y="17.2009" width="16.0515" height="22.6006" filterUnits="userSpaceOnUse" color-interpolation-filters="sRGB">
<feFlood flood-opacity="0" result="BackgroundImageFix"/>
<feColorMatrix in="SourceAlpha" type="matrix" values="0 0 0 0 0 0 0 0 0 0 0 0 0 0 0 0 0 0 127 0" result="hardAlpha"/>
<feOffset dx="1" dy="3"/>
<feGaussianBlur stdDeviation="2"/>
<feComposite in2="hardAlpha" operator="out"/>
<feColorMatrix type="matrix" values="0 0 0 0 0.462745 0 0 0 0 0.521569 0 0 0 0 1 0 0 0 0.4 0"/>
<feBlend mode="normal" in2="BackgroundImageFix" result="effect1_dropShadow_1_15434"/>
<feBlend mode="normal" in="SourceGraphic" in2="effect1_dropShadow_1_15434" result="shape"/>
</filter>
</defs>
</svg>
