<svg width="279" height="70" viewBox="0 0 279 70" fill="none" xmlns="http://www.w3.org/2000/svg"><g opacity=".6" clip-path="url(#clip0_1_14228)" fill="#fff"><path d="M78.954 40.277a.922.922 0 01-.928.906H60.93c.438 4.242 3.61 8.122 8.097 8.122 3.068 0 5.337-1.164 7.039-3.621a.923.923 0 01.748-.44.827.827 0 01.85.854.804.804 0 01-.128.44c-1.728 3-5.157 4.475-8.51 4.475-5.75 0-9.875-5.174-9.875-10.684 0-5.51 4.1-10.684 9.876-10.684 5.775 0 9.901 5.122 9.927 10.632zm-1.831-.802c-.36-4.242-3.61-8.122-8.096-8.122-4.487 0-7.659 3.88-8.097 8.122h16.193zm22.614-9.415a.875.875 0 01.792 1.183.816.816 0 01-.463.465.825.825 0 01-.33.059h-4.59v18.082a.863.863 0 01-.85.853.875.875 0 01-.85-.853V31.767h-4.41a.825.825 0 01-.793-.524.831.831 0 01-.058-.33.863.863 0 01.85-.854h4.41v-6.596a.92.92 0 01.774-.906.842.842 0 01.954.854v6.648h4.564zm27.976 8.743v10.942a.879.879 0 01-.851.854.826.826 0 01-.792-.523.83.83 0 01-.059-.331V38.803c0-3.7-2.088-7.373-6.188-7.373-5.26 0-7.529 4.605-7.22 9.339 0 .129.052.672.052.75v8.2a.922.922 0 01-.774.905.844.844 0 01-.954-.853V13.788a.86.86 0 01.851-.854.877.877 0 01.851.854V34.12c1.47-2.638 4.1-4.423 7.168-4.423 5.054 0 7.916 4.424 7.916 9.106zm30.71 1.474a.922.922 0 01-.928.906H140.4c.438 4.242 3.609 8.122 8.096 8.122 3.068 0 5.338-1.164 7.039-3.621a.927.927 0 01.748-.44.822.822 0 01.609.243.831.831 0 01.242.61.798.798 0 01-.129.44c-1.727 3.001-5.157 4.476-8.509 4.476-5.75 0-9.876-5.174-9.876-10.684 0-5.51 4.1-10.684 9.876-10.684 5.724 0 9.901 5.122 9.927 10.632zm-1.856-.802c-.361-4.242-3.61-8.122-8.097-8.122-4.486 0-7.658 3.88-8.096 8.122h16.193zm22.871-8.614a.87.87 0 01-.799.931c-5.028.75-7.297 4.864-7.297 9.65v8.2a.922.922 0 01-.774.905.84.84 0 01-.954-.854V30.99a.916.916 0 01.773-.905.841.841 0 01.884.5.845.845 0 01.071.354v3.802c1.418-2.405 4.228-4.682 7.168-4.682.438 0 .928.31.928.802zm28.106 9.416a.922.922 0 01-.929.906H189.52c.438 4.242 3.61 8.122 8.096 8.122 3.069 0 5.338-1.164 7.04-3.621a.924.924 0 01.747-.44.83.83 0 01.851.854.798.798 0 01-.129.44c-1.727 3-5.157 4.475-8.509 4.475-5.75 0-9.875-5.174-9.875-10.684 0-5.51 4.1-10.684 9.875-10.684 5.776 0 9.902 5.122 9.928 10.632zm-1.831-.802c-.361-4.242-3.61-8.122-8.097-8.122-4.486 0-7.658 3.88-8.096 8.122h16.193zm29.472-8.407v18.78a.88.88 0 01-.851.854.826.826 0 01-.792-.523.83.83 0 01-.059-.33v-3.57c-1.418 2.82-3.919 4.863-7.116 4.863-5.08 0-7.89-4.424-7.89-9.106V31.042a.863.863 0 01.85-.854.875.875 0 01.851.854v10.994c0 3.7 2.089 7.373 6.189 7.373 5.75 0 7.116-5.407 7.116-11.382v-7.01a.87.87 0 01.755-.848.863.863 0 01.406.045.938.938 0 01.541.854zm43.293 7.657V49.72a.88.88 0 01-.851.854.828.828 0 01-.85-.854V38.725c0-3.7-2.089-7.32-6.189-7.32-5.157 0-7.117 5.535-7.117 9.83v8.484a.88.88 0 01-.85.854.83.83 0 01-.851-.854V38.725c0-3.7-2.089-7.32-6.189-7.32-5.208 0-7.348 4.112-7.168 9.596 0 .13.052.363 0 .44v8.252a.916.916 0 01-.774.905.838.838 0 01-.883-.499.845.845 0 01-.071-.354V30.99a.923.923 0 01.774-.905.842.842 0 01.954.854v3.13c1.47-2.639 4.1-4.372 7.168-4.372 3.481 0 6.189 2.225 7.297 5.458 1.419-3.207 4.178-5.458 7.71-5.458 5.028 0 7.89 4.372 7.89 9.028z"/><path opacity=".6" d="M21.402 25.894L0 35.647l21.402 12.701 21.427-12.701-21.427-9.753z"/><path opacity=".45" d="M0 35.647l21.402 12.701V0L0 35.647z"/><path opacity=".8" d="M21.402 0v48.348l21.427-12.701L21.402 0z"/><path opacity=".45" d="M0 39.734L21.402 70V52.41L0 39.733z"/><path opacity=".8" d="M21.402 52.41V70l21.427-30.266-21.427 12.675z"/></g><defs><clipPath id="clip0_1_14228"><path fill="#fff" d="M0 0h278.478v70H0z"/></clipPath></defs></svg>