<svg width="255" height="70" viewBox="0 0 255 70" fill="none" xmlns="http://www.w3.org/2000/svg"><g opacity=".6" fill-rule="evenodd" clip-rule="evenodd"><path d="M35.359 0c19.373 0 35 15.627 35 35.091 0 19.19-15.81 35-35.274 34.909C16.26 69.817.45 54.282.45 35 .45 15.627 15.986-.091 35.359 0zM8.767 53.277c0 .365.182.548.365.822 1.37 1.919 2.924 3.747 4.752 5.3.822.731 1.645 1.462 2.559 2.102 2.558 1.645 5.208 3.198 8.133 4.204 2.376.822 4.843 1.462 7.31 1.736 1.92.183 3.93.274 5.849 0 1.096-.183 2.284-.183 3.381-.64.183.092.274-.091.366-.091 2.284-.366 4.477-1.097 6.67-2.01 7.128-3.108 12.52-8.134 15.992-15.079 3.107-6.122 4.113-12.61 3.107-19.373-.913-6.488-3.655-12.154-8.041-16.906C53.36 6.672 45.868 3.2 37.004 2.651c-3.93-.275-7.86.274-11.606 1.553-6.122 2.01-11.149 5.483-15.26 10.509C5.476 20.47 3.191 27.05 2.917 34.36c-.091 1.828.091 3.564.366 5.392a30.833 30.833 0 004.02 11.605c.549.549.914 1.28 1.463 1.92z" fill="#AAADC0"/><path d="M41.116 66.71c-1.096.548-2.285.548-3.381.64-1.92.274-3.93.182-5.849 0-2.467-.275-4.934-.914-7.31-1.737-2.924-1.005-5.575-2.559-8.133-4.204-.914-.64-1.737-1.37-2.559-2.101-1.828-1.554-3.381-3.382-4.752-5.3-.183-.275-.365-.549-.365-.823 2.193-4.935 3.015-10.144 3.472-15.444.183-2.467.274-4.934.731-7.402.457-2.833 1.554-5.391 3.564-7.584 1.828-1.92 4.112-3.199 6.58-4.113 2.01-.822 4.112-1.553 6.396-1.645 2.102-.091 4.113.183 6.123.64 3.016.731 6.031 1.645 8.864 3.016 2.285.914 4.66 1.827 7.037 2.558 2.467.732 4.934 1.554 7.036 3.107 2.65 2.01 3.381 4.57 2.193 7.677-.73 1.919-2.101 3.38-3.472 4.843-2.467 2.559-5.118 4.935-7.493 7.585-2.742 3.198-5.21 6.488-6.946 10.326-1.462 3.198-2.284 6.488-1.736 9.96zm17.637-30.065c-.091 0-.183 0-.274.091a.197.197 0 00-.183.183v.091a.196.196 0 00.183-.182l.274-.183c.091 0 .183 0 0 0 .091-.092 0 0 0 0zm-27.963-15.9c-3.473 0-6.306 2.832-6.306 6.213 0 3.473 2.833 6.214 6.214 6.306 3.473 0 6.215-2.833 6.306-6.306 0-3.472-2.742-6.214-6.214-6.214zm5.117 19.19c.549.822 1.554 1.553 2.742 1.918 2.376.823 4.752.823 7.128.366 4.203-.822 8.133-2.285 11.697-4.66.182-.183.548-.183.64-.549-.183-.091-.275 0-.366.092-1.188.73-2.468 1.279-3.747 1.827-3.29 1.371-6.762 2.285-10.418 2.468-2.65.182-5.3 0-7.676-1.462zm17.272-5.392c.73 0 1.37-.64 1.37-1.462 0-.731-.64-1.371-1.462-1.28-.73 0-1.28.64-1.28 1.371 0 .823.55 1.37 1.372 1.37z" fill="#A9ACBF"/><path d="M35.542 17.637c-2.01-.366-4.02-.731-6.123-.64-2.284.092-4.295.823-6.396 1.645-2.468.914-4.752 2.193-6.58 4.112-2.01 2.102-3.107 4.661-3.564 7.585-.365 2.468-.457 4.935-.731 7.402-.457 5.3-1.28 10.6-3.473 15.444-.64-.548-1.005-1.37-1.37-2.01a30.833 30.833 0 01-4.021-11.606c-.274-1.828-.457-3.564-.366-5.392.274-7.31 2.559-13.89 7.22-19.647 4.02-5.026 9.138-8.499 15.26-10.509 3.747-1.188 7.677-1.736 11.606-1.554 8.773.549 16.266 4.113 22.206 10.6 4.386 4.844 7.037 10.51 8.042 16.907 1.005 6.762 0 13.25-3.107 19.373-3.473 6.945-8.864 11.971-15.992 15.078-2.102.914-4.295 1.645-6.671 2.01-.183 0-.274.275-.366.092-.548-3.473.275-6.763 1.645-9.96 1.736-3.839 4.204-7.129 6.945-10.327 2.285-2.65 4.935-5.118 7.494-7.585 1.462-1.462 2.741-2.924 3.472-4.843 1.28-3.107.549-5.666-2.193-7.676-2.102-1.554-4.57-2.376-7.036-3.107-2.376-.732-4.752-1.645-7.037-2.56-.457-1.553-1.553-2.558-3.015-3.106-1.92-.457-3.839-.274-5.849.274zm29.882 19.465h.183c.365-1.28.365-2.65.365-4.021 0-1.554-.182-3.107-.456-4.66-1.006-5.027-3.29-9.413-6.854-13.16-2.193-2.284-4.66-4.204-7.128-6.214-2.193-1.828-4.57-3.198-7.31-3.93-2.65-.64-5.21-1.005-7.951-.548-.183 0-.366 0-.366.183s.183.183.366.183c4.02.73 7.859 2.01 11.606 3.472 3.655 1.462 6.762 3.564 9.047 6.854 1.553 2.285 3.015 4.66 4.203 7.22 1.554 3.472 2.742 7.036 3.473 10.691.365 1.462.64 2.65.822 3.93z" fill="#DADEEF"/><path d="M30.79 20.744c3.473 0 6.214 2.833 6.214 6.214 0 3.473-2.833 6.214-6.305 6.306-3.473 0-6.214-2.833-6.214-6.306 0-3.472 2.832-6.214 6.305-6.214zm4.386 6.306c0-2.468-1.919-4.387-4.386-4.387s-4.386 1.92-4.386 4.387c0 2.376 1.919 4.386 4.295 4.386h.091c2.376 0 4.295-1.919 4.386-4.386z" fill="#FCFDFB"/><path d="M35.907 39.935c2.376 1.462 5.026 1.645 7.676 1.553a28.994 28.994 0 0010.418-2.467c1.28-.548 2.559-1.096 3.747-1.828.091-.09.183-.182.365-.09-.091.273-.365.365-.64.547-3.563 2.376-7.493 3.839-11.696 4.66-2.376.458-4.844.458-7.128-.365-1.188-.456-2.285-1.188-2.742-2.01zm-.365-22.298c1.919-.548 3.93-.73 5.848 0 1.462.549 2.559 1.554 3.016 3.108-2.742-1.463-5.757-2.376-8.864-3.108z" fill="#7E8295"/><path d="M53.179 34.543c-.732 0-1.371-.64-1.371-1.37 0-.732.548-1.372 1.28-1.372.73 0 1.37.549 1.461 1.28-.091.822-.64 1.462-1.37 1.462z" fill="#FCFDFB"/><path d="M58.478 36.827a.197.197 0 01-.183.183c0-.183.091-.274.183-.183zm.274-.182l-.274.182-.092-.091c.183-.091.275-.091.366-.091z" fill="#A9ACBF"/><path d="M65.424 37.102c-.274-1.28-.548-2.467-.731-3.746-.731-3.747-2.01-7.311-3.473-10.692-1.096-2.559-2.558-4.935-4.203-7.22-2.285-3.29-5.3-5.391-9.047-6.853-3.838-1.462-7.585-2.833-11.606-3.473-.182 0-.365 0-.365-.182 0-.183.182-.183.365-.183 2.65-.457 5.3-.183 7.95.548 2.742.731 5.118 2.193 7.311 3.93 2.468 2.01 4.935 3.929 7.128 6.214 3.564 3.746 5.849 8.133 6.854 13.159.274 1.553.457 3.107.457 4.66 0 1.28 0 2.65-.366 4.021l-.274-.183z" fill="#FFFEFC"/><path d="M35.176 27.05c0 2.375-1.919 4.386-4.295 4.386h-.091c-2.376 0-4.387-1.92-4.387-4.387v-.09c0-2.468 2.01-4.387 4.387-4.387 2.376 0 4.386 2.01 4.386 4.477z" fill="#7E8295"/><path d="M173.804 44.687c-.092.091-.183.091-.275.182-2.832 3.199-6.396 3.747-10.234 2.742-4.752-1.188-7.311-4.57-8.316-9.23-.64-3.015-.457-6.031.731-8.864 2.102-5.026 6.853-7.767 12.245-7.036 2.467.365 4.752 1.188 6.488 3.015 1.28 1.371 2.011 3.016 2.285 4.844.091.365-.092.457-.366.457h-3.381c-.274 0-.365-.092-.457-.366-.548-2.467-2.193-3.838-4.569-4.295-2.741-.548-5.117 0-6.945 2.193-1.645 2.01-2.102 4.478-2.102 7.037 0 1.919.366 3.746 1.188 5.391 1.919 3.656 6.671 4.935 10.235 2.833 2.01-1.188 2.65-3.107 2.833-5.3 0-.457-.274-.366-.548-.366h-5.392c-.548 0-.64-.182-.64-.64v-2.101c0-.457.183-.548.549-.548h9.412c.366 0 .548.09.548.457v11.97c0 .366-.091.458-.457.458-.731 0-1.644.182-2.193-.092-.548-.365-.365-1.28-.548-2.01 0-.274-.091-.549-.091-.731zm-72.376-13.89h-1.736c-.365 0-.457-.092-.548-.457-.731-2.56-2.376-4.113-5.026-4.387-2.924-.274-5.392.64-6.854 3.29-2.193 4.02-2.102 8.133.091 12.063 1.462 2.65 4.66 3.838 7.585 3.015 2.559-.731 3.747-2.65 4.295-5.117.183-1.005.183-1.005 1.188-1.005h2.742c.365 0 .457.09.365.456-.457 4.844-3.564 8.59-8.316 9.321-6.853 1.097-12.52-3.107-13.616-9.96-.457-3.016-.183-5.94 1.005-8.773 2.102-4.752 6.763-7.31 11.972-6.671 2.467.366 4.752 1.188 6.579 3.016 1.28 1.37 2.011 3.015 2.285 4.843.091.366 0 .457-.366.457-.457-.183-1.096-.091-1.645-.091zm134.516 16.631h-4.387c-.365 0-.548-.183-.639-.457-1.554-2.558-3.199-5.026-4.752-7.585-.274-.457-.366-.457-.823-.09-1.553 1.096-2.193 2.558-1.919 4.477.183 1.005 0 2.102 0 3.198 0 .457-.182.549-.548.549h-2.741c-.457 0-.549-.183-.549-.64V23.668c0-.64.183-.822.823-.73.822.09 1.645.09 2.467 0 .548 0 .64.182.64.64v13.067l.183.091c.274-.365.639-.73.913-1.096 1.828-1.92 3.656-3.747 5.575-5.666.182-.183.365-.366.639-.366h4.387c0 .275-.274.366-.366.549-1.919 1.827-3.746 3.655-5.757 5.483-.457.365-.457.64-.091 1.188l6.579 9.87c0 .273.183.456.366.73zm-45.143-7.859h-5.94c-.457 0-.548.092-.548.548.182 3.564 3.472 5.758 6.762 4.387a3.517 3.517 0 002.01-2.102c.183-.457.457-.548.823-.548h2.558c.457 0 .549.091.366.548-1.005 3.198-3.198 4.935-6.488 5.392-2.924.457-5.666-.183-7.768-2.376-1.462-1.554-2.102-3.564-2.284-5.666-.183-2.559.182-5.026 1.827-7.22 2.102-2.74 4.935-3.746 8.225-3.198 3.472.64 5.574 2.833 6.579 6.123.366 1.188.457 2.376.366 3.655 0 .457-.183.549-.548.549-1.919-.092-3.93-.092-5.94-.092zm-1.919-2.559h4.021c.456 0 .548-.09.456-.548-.365-2.376-2.101-4.112-4.386-4.203-2.376-.092-4.295 1.553-4.66 4.02-.092.457 0 .64.548.64 1.371.092 2.65.092 4.021.092zm-82.702 1.554c0-1.097.183-2.285.457-3.381 1.188-3.838 4.569-6.214 8.773-5.94 3.198.183 5.848 1.28 7.402 4.112 1.828 3.473 1.828 7.128-.091 10.51-1.737 3.198-4.752 4.203-8.225 4.02-5.209-.274-8.316-3.838-8.316-9.321zm3.93 0c0 1.553.274 2.924 1.188 4.204 1.462 2.101 4.295 2.741 6.396 1.279.457-.366.914-.731 1.28-1.188 1.553-2.285 1.645-6.123 0-8.499-1.919-2.741-5.94-2.741-7.768.092-.822 1.188-1.096 2.65-1.096 4.112zm126.839.091c0-2.558.548-4.843 2.285-6.762 1.736-2.01 4.112-2.741 6.671-2.741 2.558 0 4.934.73 6.762 2.741 1.919 2.193 2.376 4.843 2.193 7.676-.091 1.005-.274 2.01-.64 2.924-1.37 3.564-4.66 5.575-8.864 5.3-4.934-.273-8.041-3.472-8.316-8.407 0-.182-.091-.548-.091-.73zm13.982.183c0-1.828-.457-3.381-1.097-4.478-1.371-2.193-4.295-2.741-6.397-1.37a4.907 4.907 0 00-1.371 1.37c-1.553 2.285-1.462 6.123 0 8.316 1.463 2.102 4.295 2.742 6.397 1.28a4.27 4.27 0 001.28-1.28c.913-1.188 1.188-2.65 1.188-3.838zm-111.67-6.67c1.096-1.371 2.376-2.377 4.112-2.834 1.554-.365 3.107-.274 4.569.366 2.193.914 3.107 2.833 3.199 5.117.091 4.021 0 8.042 0 12.063 0 .457-.092.548-.549.548h-2.741c-.457 0-.64-.091-.64-.64V36.554a7.78 7.78 0 00-.274-2.102c-.548-1.828-2.285-2.559-4.386-2.01-1.828.548-3.016 2.193-3.016 4.294v9.961c0 .548-.091.822-.731.731a11.975 11.975 0 00-2.559 0c-.457 0-.639-.091-.639-.64V30.431c0-.64.182-.823.822-.731.822.091 1.553 0 2.376 0 .457 0 .64.091.548.548-.091.64-.091 1.28-.091 1.92zm74.934 3.472h-.274c-1.006.091-1.645 0-2.102-1.188-1.097-2.742-5.483-2.833-7.311-.274-.64.822-.914 1.827-1.096 2.924-.183 1.736-.183 3.472.548 5.117.914 2.01 2.559 2.925 4.66 2.65 1.737-.274 2.925-1.37 3.382-3.29.091-.548.365-.73.913-.639h2.65c.457 0 .549.183.457.548-.913 4.387-4.02 6.854-8.59 6.58-4.569-.274-7.584-3.29-7.95-7.95-.183-2.01 0-4.021.823-5.94 1.37-3.199 4.477-5.026 8.133-4.844 2.193.092 4.203.64 5.848 2.194 1.005 1.005 1.554 2.284 1.828 3.655.091.457-.092.64-.549.548-.365-.091-.822-.091-1.37-.091zm-82.884 3.015v7.95c0 .732-.183.915-.823.823a10.329 10.329 0 00-2.376 0c-.548 0-.731-.091-.731-.73V30.247c0-.457.091-.548.548-.548h2.742c.548 0 .731.091.731.73-.091 2.742-.091 5.484-.091 8.225zm-1.828-15.718c.548.092 1.371-.274 1.736.092.366.366.092 1.188.092 1.828 0 .548.274 1.279-.092 1.645-.365.365-1.096.09-1.645.09-.731 0-1.645.275-2.102-.09-.365-.457-.091-1.371-.091-2.01 0-1.555 0-1.555 1.554-1.555h.548z" fill="#fff"/></g></svg>