<svg width="409" height="70" viewBox="0 0 409 70" fill="none" xmlns="http://www.w3.org/2000/svg"><path opacity=".6" fill-rule="evenodd" clip-rule="evenodd" d="M60.904 41.806c-1.215.729-2.673.972-3.646.243-1.458-.73-2.187-2.674-2.187-5.105v-7.777c0-3.646-1.458-6.32-3.889-7.049-4.132-1.215-7.291 3.889-8.507 5.833l-7.291 11.91V25.278c0-3.403-1.216-5.347-3.16-5.834-1.458-.486-3.403-.243-5.347 2.674l-16.285 26.25c-2.188-4.132-3.403-8.75-3.403-13.611 0-15.799 12.639-28.68 28.194-28.68C50.94 6.076 63.578 19.2 63.578 35c.243 3.16-.73 5.59-2.674 6.806zM69.897 35c0-19.444-15.555-35-34.514-35C16.425 0 .87 15.799.87 35s15.555 35 34.514 35c8.75 0 17.013-3.403 23.576-9.48 1.215-1.214 1.458-3.159.243-4.617-1.215-1.215-3.16-1.459-4.375-.243-5.104 4.86-12.153 7.778-19.201 7.778-8.264 0-15.799-3.646-21.146-9.48l14.826-23.82v10.938c0 5.348 1.945 7.049 3.646 7.535 1.701.486 4.375.243 7.049-4.375l8.02-13.125c.244-.486.486-.73.73-1.215v6.562c0 4.861 1.944 8.75 5.347 10.695 3.16 1.701 7.048 1.701 10.208-.486 3.889-1.702 5.834-6.32 5.59-11.667zm48.125-11.91c.73.486 1.459 1.702 1.459 2.674 0 1.701-1.459 2.917-2.917 2.917-.486 0-.729 0-1.215-.244-1.945-1.458-4.132-2.187-6.563-2.187-5.833 0-9.722 4.618-9.722 10.451 0 5.834 3.889 10.452 9.722 10.452 2.917 0 5.347-1.215 7.292-2.917.486-.243 1.215-.486 1.701-.486 1.459 0 2.674 1.215 2.674 2.917 0 .972-.729 1.944-1.458 2.43-2.674 2.43-6.563 3.89-10.452 3.89-8.75 0-16.041-7.293-16.041-16.286 0-8.993 7.291-16.284 16.041-16.284 3.889-.243 7.049.729 9.479 2.673zm16.285 6.806c6.076 0 11.181 5.104 11.181 11.423 0 6.32-5.105 11.667-11.181 11.667-6.319 0-11.667-5.347-11.667-11.667 0-6.319 5.348-11.423 11.667-11.423zm0 17.257c2.674 0 4.861-2.43 4.861-5.834 0-3.402-2.187-5.59-4.861-5.59-2.917 0-5.347 2.188-5.347 5.59 0 3.403 2.43 5.834 5.347 5.834zm14.827 2.187V33.3c0-1.702 1.458-3.16 3.159-3.16 1.702 0 3.16 1.458 3.16 3.16v16.04c0 1.702-1.458 3.16-3.16 3.16-1.701 0-3.159-1.458-3.159-3.16zm-.487-25.278c0-2.187 1.702-3.645 3.646-3.645 1.945 0 3.646 1.701 3.646 3.645 0 1.945-1.701 3.646-3.646 3.646-1.944 0-3.646-1.701-3.646-3.645zm18.716 16.528v8.75c0 1.702-1.459 3.16-3.16 3.16s-3.16-1.458-3.16-3.16V32.57c0-1.459 1.215-2.431 2.431-2.431 1.215 0 2.43 1.215 2.43 2.43 2.431-2.43 4.861-2.673 6.806-2.673 6.319 0 8.993 4.618 8.993 9.965v9.48c0 1.7-1.458 3.159-3.16 3.159-1.701 0-3.159-1.458-3.159-3.16v-8.75c0-2.673-.244-5.104-4.376-5.104-2.43 0-3.645 2.43-3.645 5.104zm35 3.403c-.73 0-1.216-.243-1.702-.73l-7.291-8.02V49.34c0 1.702-1.459 3.16-3.16 3.16-1.702 0-3.16-1.458-3.16-3.16V21.39c.243-.486.729-.73 1.215-.73.487 0 .973.487 1.216.73l11.666 13.125c.243.486.73.73.973.73s.729-.244.972-.73l11.666-13.125c.244-.243.73-.73 1.216-.73s.972.244 1.215.73v27.95c0 1.702-1.458 3.16-3.16 3.16-1.701 0-3.159-1.458-3.159-3.16V35.243l-7.292 8.02c-.243.244-.729.73-1.215.73zm29.895 3.16c2.917 0 5.105-2.43 5.105-5.834 0-3.402-2.431-5.59-5.105-5.59-2.673 0-4.861 2.188-4.861 5.59 0 3.16 2.188 5.834 4.861 5.834zm6.806 2.916v-.729c-1.215 2.43-5.104 3.403-7.535 3.403-5.833 0-10.208-5.347-10.208-11.667 0-6.32 4.375-11.423 10.451-11.423.973 0 4.618.243 7.292 3.403v-.73c0-1.458.972-2.43 2.431-2.43 1.215 0 2.43 1.215 2.43 2.43v17.5c0 1.459-1.215 2.43-2.43 2.43-1.459.244-2.431-.728-2.431-2.187zm22.118-14.583h-.729c-3.889.243-4.618 2.43-4.618 5.104v8.75c0 1.702-1.458 3.16-3.16 3.16-1.701 0-3.16-1.458-3.16-3.16V32.57c0-1.459 1.216-2.431 2.431-2.431s2.431 1.215 2.431 2.43c2.43-2.187 4.132-2.673 6.076-2.673h.729c1.458 0 2.917 1.215 2.917 2.916-.243 1.459-1.459 2.674-2.917 2.674zm24.063 12.396c.243.486.486.972.486 1.458 0 1.702-1.459 3.16-3.16 3.16-1.215 0-1.944-.73-2.674-1.701l-7.291-8.264v6.805c0 1.702-1.459 3.16-3.16 3.16s-3.16-1.458-3.16-3.16V23.82c0-1.702 1.459-3.16 3.16-3.16s3.16 1.458 3.16 3.16v16.04l7.291-8.02c.73-.73 1.702-1.702 2.674-1.702 1.458 0 2.917 1.458 2.917 3.16 0 .486 0 .972-.486 1.458l-5.591 6.32 5.834 6.805zm12.152-12.153c-1.701 0-4.375.972-4.375 3.646h8.993c0-2.917-2.916-3.646-4.618-3.646zm8.264 7.535h-12.639c0 3.646 3.646 4.375 5.105 4.375 1.215 0 2.916-.243 4.131-.73.487-.242.973-.485 1.702-.485 1.458 0 2.43 1.215 2.43 2.673 0 .972-.729 1.702-1.458 2.188-1.944 1.458-4.375 1.701-6.805 1.701-6.32 0-11.667-3.403-11.667-11.423 0-6.32 3.16-11.667 10.694-11.667 6.077 0 10.695 3.889 10.695 10.937.243 1.216-.729 2.43-2.188 2.43zm17.5 9.48h-1.701c-4.861 0-7.535-2.188-7.535-9.48v-7.778h-1.701c-1.459 0-2.917-1.458-2.917-2.917 0-1.7 1.215-2.916 2.917-2.916h1.701V23.82c0-1.702 1.458-3.16 3.16-3.16 1.701 0 3.16 1.458 3.16 3.16v5.833h2.673c1.459 0 2.917 1.215 2.917 2.916 0 1.459-1.215 2.917-2.917 2.917h-2.673v6.563c0 4.375.243 5.104 2.187 5.104h.972c1.459 0 2.674 1.215 2.674 2.916-.243 1.459-1.458 2.674-2.917 2.674zM353.3 23.09c.729.486 1.458 1.702 1.458 2.674 0 1.701-1.458 2.917-2.916 2.917-.486 0-.729 0-1.215-.244-1.945-1.458-4.132-2.187-6.563-2.187-5.833 0-9.722 4.618-9.722 10.451 0 5.834 3.889 10.452 9.722 10.452 2.917 0 5.347-1.215 7.292-2.917.486-.243 1.215-.486 1.701-.486 1.458 0 2.674 1.215 2.674 2.917 0 .972-.729 1.944-1.459 2.43-2.673 2.43-6.562 3.89-10.451 3.89-8.75 0-16.042-7.293-16.042-16.286 0-8.993 7.292-16.284 16.042-16.284 3.889-.243 7.049.729 9.479 2.673zm16.042 24.063c2.916 0 5.104-2.43 5.104-5.834 0-3.402-2.431-5.59-5.104-5.59-2.674 0-4.861 2.188-4.861 5.59-.243 3.16 1.944 5.834 4.861 5.834zm6.562 2.916v-.729c-1.215 2.43-5.104 3.403-7.534 3.403-5.834 0-10.209-5.347-10.209-11.667 0-6.32 4.375-11.423 10.452-11.423.972 0 4.618.243 7.291 3.403v-.73c0-1.458.973-2.43 2.431-2.43 1.215 0 2.43 1.215 2.43 2.43v17.5c0 1.459-1.215 2.43-2.43 2.43-1.458.244-2.431-.728-2.431-2.187zm22.118-2.916c2.674 0 4.861-2.674 4.861-5.834 0-3.402-2.187-5.59-4.861-5.59-2.673 0-5.104 2.188-5.104 5.59-.243 3.403 2.188 5.834 5.104 5.834zm-5.347 3.889v8.02c0 1.702-1.458 3.16-3.16 3.16-1.701 0-3.159-1.458-3.159-3.16V32.57c0-1.458 1.215-2.43 2.43-2.43 1.216 0 2.431 1.215 2.431 2.674 2.43-2.431 5.104-2.917 7.291-2.917 6.077 0 10.452 5.104 10.452 11.423 0 6.32-4.375 11.667-10.208 11.667-1.702-.243-4.375-.73-6.077-1.944z" fill="#fff"/></svg>