<svg width="279" height="70" viewBox="0 0 279 70" fill="none" xmlns="http://www.w3.org/2000/svg"><path d="M93.716 27.756h-7.599v-4.479h20.694v4.479h-7.6v19.269h-5.495v-19.27zm18.301 3.426c.633-.882 1.481-1.55 2.544-2.002 1.085-.452 2.329-.678 3.731-.678v4.885a18.99 18.99 0 00-1.187-.068c-1.515 0-2.703.43-3.562 1.29-.86.836-1.289 2.102-1.289 3.799v8.617h-5.292V28.773h5.055v2.409zm25.907-2.41v18.253h-5.022v-2.172a7.208 7.208 0 01-2.51 1.832 8.089 8.089 0 01-3.155.611c-2.397 0-4.297-.69-5.699-2.07-1.402-1.379-2.103-3.426-2.103-6.14V28.773h5.292v9.533c0 2.94 1.232 4.41 3.697 4.41 1.267 0 2.285-.407 3.054-1.221.769-.837 1.153-2.07 1.153-3.698v-9.024h5.293zm9.007 18.524c-1.515 0-2.997-.181-4.444-.543-1.447-.385-2.601-.86-3.461-1.425l1.765-3.799c.814.52 1.797.95 2.951 1.288 1.154.317 2.284.476 3.393.476 2.239 0 3.358-.554 3.358-1.663 0-.52-.305-.893-.916-1.119-.61-.226-1.549-.419-2.816-.577-1.492-.226-2.725-.486-3.697-.78a5.853 5.853 0 01-2.544-1.56c-.701-.747-1.052-1.81-1.052-3.19 0-1.153.328-2.17.983-3.053.679-.905 1.651-1.606 2.918-2.103 1.289-.497 2.804-.747 4.546-.747 1.289 0 2.567.148 3.833.442 1.289.271 2.353.656 3.19 1.153l-1.765 3.766c-1.605-.905-3.358-1.357-5.258-1.357-1.131 0-1.979.158-2.544.474-.566.317-.849.724-.849 1.222 0 .566.306.96.916 1.188.611.225 1.584.44 2.918.644 1.493.249 2.714.52 3.664.814a5.37 5.37 0 012.476 1.527c.701.746 1.052 1.786 1.052 3.12a4.82 4.82 0 01-1.017 3.02c-.68.882-1.675 1.572-2.986 2.07-1.289.474-2.827.712-4.614.712zm21.619-1.153c-.52.384-1.165.678-1.934.882a10.1 10.1 0 01-2.375.271c-2.171 0-3.856-.554-5.054-1.662-1.177-1.108-1.765-2.737-1.765-4.885V33.25h-2.815v-4.07h2.815v-4.444h5.292v4.444h4.546v4.072h-4.546v7.428c0 .77.193 1.369.577 1.799.407.407.973.61 1.697.61.836 0 1.548-.226 2.137-.678l1.425 3.732zm44.772-22.866l-7.768 23.748h-5.903l-5.225-16.08-5.394 16.08h-5.869l-7.802-23.748h5.699l5.36 16.691 5.598-16.691h5.088l5.428 16.827 5.53-16.827h5.258zm6.663 5.224c2.827 0 4.998.679 6.514 2.036 1.515 1.334 2.272 3.358 2.272 6.072v10.416h-4.953V44.75c-.994 1.697-2.849 2.545-5.563 2.545-1.402 0-2.623-.237-3.664-.713-1.018-.474-1.798-1.13-2.341-1.967-.543-.837-.814-1.787-.814-2.85 0-1.696.634-3.03 1.9-4.003 1.289-.972 3.268-1.459 5.937-1.459h4.206c0-1.153-.35-2.035-1.051-2.646-.701-.633-1.753-.95-3.155-.95-.973 0-1.934.159-2.884.475-.928.294-1.719.701-2.375 1.221l-1.9-3.697c.995-.701 2.183-1.244 3.562-1.628a16.202 16.202 0 014.309-.578zm-.407 15.232c.905 0 1.708-.203 2.409-.61.701-.43 1.198-1.051 1.492-1.865V39.39h-3.63c-2.171 0-3.257.713-3.257 2.138 0 .678.261 1.221.781 1.628.542.384 1.278.576 2.205.576zm11.948-21.88h5.292v25.172h-5.292V21.853zm8.168 0h5.293v25.172h-5.293V21.853zm26.047 16.113c0 .069-.034.544-.102 1.425h-13.807c.248 1.131.837 2.024 1.764 2.68.927.656 2.08.984 3.46.984.95 0 1.787-.136 2.511-.407a6.296 6.296 0 002.068-1.357l2.817 3.053c-1.719 1.968-4.23 2.952-7.531 2.952-2.059 0-3.879-.396-5.462-1.187-1.584-.815-2.805-1.934-3.664-3.359-.86-1.425-1.29-3.042-1.29-4.851 0-1.787.419-3.393 1.256-4.818a8.904 8.904 0 013.494-3.358c1.493-.814 3.155-1.221 4.987-1.221 1.787 0 3.404.385 4.851 1.153a8.285 8.285 0 013.392 3.324c.837 1.425 1.256 3.088 1.256 4.987zm-9.465-5.461c-1.199 0-2.205.339-3.019 1.018-.815.678-1.312 1.605-1.493 2.781h8.99c-.181-1.153-.678-2.07-1.493-2.747-.814-.702-1.809-1.052-2.985-1.052zM279 46.143c-.52.384-1.165.678-1.933.882-.747.18-1.538.271-2.375.271-2.171 0-3.856-.554-5.055-1.662-1.176-1.108-1.764-2.737-1.764-4.885V33.25h-2.816v-4.07h2.816v-4.444h5.292v4.444h4.547v4.072h-4.547v7.428c0 .77.193 1.369.577 1.799.407.407.972.61 1.696.61.837 0 1.55-.226 2.138-.678L279 46.142z" fill="#fff" fill-opacity=".6"/><path fill-rule="evenodd" clip-rule="evenodd" d="M24.436 0h22.993c12.98 0 23.503 10.523 23.503 23.503v22.994C70.932 59.477 60.41 70 47.43 70H24.435C11.456 70 .933 59.477.933 46.497V23.503C.932 10.523 11.455 0 24.436 0zm12.623 14.257a1.5 1.5 0 00-1.941 0C29.36 19.144 22.8 19.103 20.34 19.088h-.001l-.34-.001a1.5 1.5 0 00-1.5 1.522c.117 7.87.426 13.456 1.027 17.532.6 4.074 1.51 6.785 2.934 8.8 1.432 2.028 3.28 3.193 5.344 4.354.356.2.721.401 1.096.608 1.82 1.004 3.874 2.137 6.304 3.91a1.5 1.5 0 001.767 0c2.433-1.775 4.49-2.908 6.312-3.913.373-.205.736-.405 1.091-.605 2.067-1.16 3.917-2.325 5.352-4.353 1.426-2.014 2.34-4.726 2.943-8.8.603-4.077.913-9.663 1.03-17.533a1.5 1.5 0 00-1.5-1.522l-.344.001c-2.48.015-9.04.055-14.797-4.831zm-15.534 7.83c3.05-.05 9.024-.56 14.564-4.764 5.545 4.21 11.528 4.716 14.586 4.764-.133 7.033-.438 12-.973 15.616-.573 3.873-1.391 6.048-2.423 7.506-1.023 1.445-2.358 2.339-4.373 3.47-.33.186-.676.377-1.038.576-1.617.89-3.554 1.958-5.78 3.504-2.221-1.545-4.155-2.61-5.77-3.5v-.001c-.364-.2-.712-.392-1.042-.578-2.012-1.131-3.345-2.025-4.365-3.47-1.03-1.458-1.845-3.632-2.416-7.506-.533-3.616-.837-8.584-.97-15.617z" fill="#fff" fill-opacity=".6"/></svg>