<svg width="24" height="24" viewBox="0 0 24 24" fill="none" xmlns="http://www.w3.org/2000/svg"><g clip-path="url(#clip0_1_15554)"><path d="M23.638 14.903c-1.602 6.428-8.114 10.34-14.543 8.738C2.668 22.038-1.244 15.527.359 9.098 1.961 2.67 8.473-1.244 14.9.36c6.43 1.603 10.342 8.115 8.74 14.544z" fill="#F7931A"/><path d="M17.291 10.29c.24-1.597-.976-2.455-2.639-3.028l.54-2.163-1.317-.328-.525 2.106a54.483 54.483 0 00-1.056-.248l.53-2.12-1.317-.328-.54 2.162a43.43 43.43 0 01-.84-.197l.002-.007-1.816-.454-.35 1.407s.976.224.956.237c.533.134.63.487.613.766l-.614 2.465a.914.914 0 01.137.044l-.14-.035-.86 3.452c-.066.162-.231.406-.604.313.013.02-.957-.239-.957-.239l-.654 1.508 1.714.427c.319.08.631.163.939.242l-.545 2.188 1.315.328.54-2.165c.36.098.708.188 1.05.273l-.539 2.154 1.317.328.545-2.183c2.245.425 3.934.253 4.644-1.778.573-1.635-.028-2.578-1.21-3.193.861-.199 1.51-.764 1.682-1.934zm-3.008 4.22c-.407 1.634-3.16.75-4.053.529l.723-2.899c.893.223 3.755.664 3.33 2.37zm.407-4.243c-.371 1.487-2.662.731-3.406.546l.656-2.629c.743.185 3.137.531 2.75 2.083z" fill="#fff"/></g><defs><clipPath id="clip0_1_15554"><path fill="#fff" d="M0 0h24v24H0z"/></clipPath></defs></svg>