<svg width="27" height="24" viewBox="0 0 27 24" fill="none" xmlns="http://www.w3.org/2000/svg"><g clip-path="url(#clip0_1_15565)" fill-rule="evenodd" clip-rule="evenodd"><path d="M4.944.118L.02 10.684a.209.209 0 00.043.24L13.36 23.941a.2.2 0 00.28 0l13.296-13.018a.206.206 0 00.043-.239L22.056.12a.202.202 0 00-.181-.12H5.127a.196.196 0 00-.183.118z" fill="#50AF95"/><path d="M15.208 11.77a26.23 26.23 0 01-1.688.037 36.07 36.07 0 01-1.715-.037c-3.381-.152-5.905-.754-5.905-1.474s2.524-1.32 5.905-1.475v2.35c.221.016.855.054 1.73.054 1.05 0 1.575-.045 1.67-.054V8.822c3.374.154 5.893.755 5.893 1.474 0 .718-2.518 1.32-5.893 1.473h.003zm0-3.19V6.475h4.71V3.27H7.095v3.206h4.709v2.102c-3.827.18-6.705.955-6.705 1.883s2.878 1.702 6.705 1.882v6.739h3.402V12.34c3.819-.18 6.692-.954 6.692-1.88 0-.928-2.871-1.702-6.692-1.883l.001.001z" fill="#fff"/></g><defs><clipPath id="clip0_1_15565"><path fill="#fff" d="M0 0h27v24H0z"/></clipPath></defs></svg>