<svg width="24" height="24" viewBox="0 0 24 24" fill="none" xmlns="http://www.w3.org/2000/svg"><g clip-path="url(#clip0_1_15574)"><path d="M12 24c6.65 0 12-5.35 12-12S18.65 0 12 0 0 5.35 0 12s5.35 12 12 12z" fill="#8851F8"/><path d="M10.506 15.735H8.678l1.454-4.42.907 2.814-.533 1.606zm4.881-.008H13.55l2.65-7.17H18l-2.613 7.17zm-7.328-7.22H6l1.67 4.442.943-2.729-.554-1.713zm4.837-.007H11.04l1.512 4.477.957-2.584-.612-1.893z" fill="#fff"/></g><defs><clipPath id="clip0_1_15574"><path fill="#fff" d="M0 0h24v24H0z"/></clipPath></defs></svg>