<svg width="279" height="70" viewBox="0 0 279 70" fill="none" xmlns="http://www.w3.org/2000/svg">
<g opacity="0.6" clip-path="url(#clip0_1_14228)">
<path d="M78.9538 40.2772C78.9497 40.5205 78.8498 40.7523 78.6758 40.922C78.5019 41.0916 78.2681 41.1853 78.0255 41.1826H60.93C61.3684 45.425 64.54 49.3053 69.0266 49.3053C72.095 49.3053 74.364 48.1412 76.0659 45.6837C76.1451 45.5546 76.2547 45.4469 76.3851 45.3703C76.5155 45.2936 76.6626 45.2502 76.8136 45.2439C76.9262 45.2407 77.0383 45.2606 77.143 45.3023C77.2477 45.3441 77.3428 45.4069 77.4224 45.4868C77.5021 45.5667 77.5647 45.6621 77.6063 45.7671C77.6479 45.8721 77.6677 45.9846 77.6645 46.0976C77.6651 46.2536 77.6203 46.4064 77.5356 46.5373C75.808 49.5381 72.3786 51.0126 69.0266 51.0126C63.2765 51.0126 59.1509 45.8389 59.1509 40.3289C59.1509 34.8189 63.2507 29.6452 69.0266 29.6452C74.8024 29.6452 78.928 34.7672 78.9538 40.2772ZM77.123 39.4752C76.7621 35.2328 73.5131 31.3526 69.0266 31.3526C64.54 31.3526 61.3684 35.2328 60.93 39.4752H77.123Z" fill="white"/>
<path d="M99.7366 30.0591C99.9602 30.0656 100.173 30.1577 100.331 30.3164C100.489 30.4751 100.581 30.6885 100.588 30.9128C100.591 31.0258 100.571 31.1382 100.529 31.2432C100.488 31.3483 100.425 31.4437 100.345 31.5236C100.266 31.6035 100.171 31.6663 100.066 31.708C99.9613 31.7498 99.8492 31.7697 99.7366 31.7665H95.1469V49.8485C95.1448 50.0743 95.0546 50.2902 94.8954 50.4499C94.7363 50.6095 94.521 50.7001 94.296 50.7022C94.0723 50.6957 93.8597 50.6036 93.7015 50.4449C93.5433 50.2862 93.4515 50.0728 93.4451 49.8485V31.7665H89.0358C88.9232 31.7697 88.8111 31.7498 88.7064 31.708C88.6017 31.6663 88.5067 31.6035 88.427 31.5236C88.3473 31.4437 88.2848 31.3483 88.2432 31.2432C88.2015 31.1382 88.1817 31.0258 88.1849 30.9128C88.1869 30.687 88.2772 30.4711 88.4364 30.3114C88.5955 30.1518 88.8108 30.0612 89.0358 30.0591H93.4451V23.4627C93.4455 23.2441 93.5236 23.0329 93.6654 22.8669C93.8072 22.7009 94.0034 22.5912 94.2186 22.5573C94.3389 22.5413 94.4613 22.5515 94.5773 22.5872C94.6933 22.623 94.8003 22.6835 94.8908 22.7645C94.9814 22.8456 95.0535 22.9453 95.1021 23.0569C95.1508 23.1684 95.1748 23.2892 95.1727 23.4109V30.0591H99.7366Z" fill="white"/>
<path d="M127.713 38.8027V49.745C127.707 49.9694 127.615 50.1827 127.457 50.3414C127.299 50.5001 127.086 50.5922 126.862 50.5987C126.75 50.6019 126.638 50.582 126.533 50.5402C126.428 50.4985 126.333 50.4357 126.253 50.3558C126.174 50.2759 126.111 50.1805 126.07 50.0755C126.028 49.9704 126.008 49.858 126.011 49.745V38.8027C126.011 35.1035 123.923 31.4301 119.823 31.4301C114.563 31.4301 112.294 36.0347 112.603 40.7687C112.603 40.898 112.655 41.4412 112.655 41.5188V49.7191C112.654 49.9377 112.576 50.149 112.434 50.3149C112.293 50.4809 112.096 50.5907 111.881 50.6245C111.761 50.6406 111.639 50.6303 111.522 50.5946C111.406 50.5588 111.3 50.4983 111.209 50.4173C111.118 50.3362 111.046 50.2365 110.998 50.125C110.949 50.0134 110.925 49.8926 110.927 49.7709V13.7879C110.929 13.5621 111.019 13.3461 111.179 13.1865C111.338 13.0268 111.553 12.9362 111.778 12.9342C112.002 12.9407 112.214 13.0327 112.373 13.1914C112.531 13.3501 112.622 13.5635 112.629 13.7879V34.1205C114.099 31.4819 116.729 29.697 119.797 29.697C124.851 29.697 127.713 34.1205 127.713 38.8027Z" fill="white"/>
<path d="M158.423 40.2772C158.419 40.5205 158.319 40.7523 158.145 40.922C157.971 41.0916 157.738 41.1853 157.495 41.1826H140.4C140.838 45.425 144.009 49.3053 148.496 49.3053C151.564 49.3053 153.834 48.1412 155.535 45.6837C155.615 45.5546 155.724 45.4469 155.855 45.3703C155.985 45.2936 156.132 45.2502 156.283 45.2439C156.396 45.2407 156.508 45.2606 156.612 45.3023C156.717 45.3441 156.812 45.4069 156.892 45.4868C156.972 45.5667 157.034 45.6621 157.076 45.7671C157.117 45.8721 157.137 45.9846 157.134 46.0976C157.135 46.2536 157.09 46.4064 157.005 46.5373C155.278 49.5381 151.848 51.0126 148.496 51.0126C142.746 51.0126 138.62 45.8389 138.62 40.3289C138.62 34.8189 142.72 29.6452 148.496 29.6452C154.22 29.6452 158.397 34.7672 158.423 40.2772ZM156.567 39.4752C156.206 35.2328 152.957 31.3526 148.47 31.3526C143.984 31.3526 140.812 35.2328 140.374 39.4752H156.567Z" fill="white"/>
<path d="M179.438 30.8611C179.454 31.0907 179.379 31.3176 179.23 31.492C179.08 31.6665 178.867 31.7745 178.639 31.7923C173.611 32.5425 171.342 36.6556 171.342 41.4413V49.6415C171.341 49.8601 171.263 50.0714 171.121 50.2373C170.979 50.4033 170.783 50.5131 170.568 50.5469C170.448 50.563 170.325 50.5528 170.209 50.517C170.093 50.4812 169.986 50.4207 169.896 50.3397C169.805 50.2586 169.733 50.1589 169.684 50.0474C169.636 49.9358 169.612 49.815 169.614 49.6933V30.9904C169.614 30.7718 169.692 30.5606 169.834 30.3946C169.976 30.2287 170.172 30.1189 170.387 30.085C170.508 30.069 170.63 30.0792 170.746 30.115C170.862 30.1507 170.969 30.2112 171.06 30.2923C171.15 30.3733 171.222 30.473 171.271 30.5846C171.32 30.6961 171.344 30.8169 171.342 30.9387V34.7413C172.76 32.3356 175.57 30.0591 178.51 30.0591C178.948 30.0591 179.438 30.3696 179.438 30.8611Z" fill="white"/>
<path d="M207.544 40.2772C207.54 40.5205 207.44 40.7523 207.266 40.922C207.092 41.0916 206.858 41.1853 206.615 41.1826H189.52C189.958 45.425 193.13 49.3053 197.616 49.3053C200.685 49.3053 202.954 48.1412 204.656 45.6837C204.735 45.5546 204.845 45.4469 204.975 45.3703C205.105 45.2936 205.252 45.2502 205.403 45.2439C205.516 45.2407 205.628 45.2606 205.733 45.3023C205.838 45.3441 205.933 45.4069 206.012 45.4868C206.092 45.5667 206.155 45.6621 206.196 45.7671C206.238 45.8721 206.258 45.9846 206.254 46.0976C206.255 46.2536 206.21 46.4064 206.125 46.5373C204.398 49.5381 200.968 51.0126 197.616 51.0126C191.866 51.0126 187.741 45.8389 187.741 40.3289C187.741 34.8189 191.841 29.6452 197.616 29.6452C203.392 29.6452 207.518 34.7672 207.544 40.2772ZM205.713 39.4752C205.352 35.2328 202.103 31.3526 197.616 31.3526C193.13 31.3526 189.958 35.2328 189.52 39.4752H205.713Z" fill="white"/>
<path d="M235.185 31.068V49.8485C235.179 50.0728 235.087 50.2862 234.929 50.4449C234.771 50.6036 234.558 50.6956 234.334 50.7022C234.222 50.7054 234.11 50.6855 234.005 50.6437C233.9 50.602 233.805 50.5392 233.726 50.4593C233.646 50.3794 233.583 50.284 233.542 50.1789C233.5 50.0739 233.48 49.9615 233.483 49.8485V46.2786C232.065 49.0983 229.564 51.1419 226.367 51.1419C221.287 51.1419 218.477 46.7184 218.477 42.0362V31.0421C218.479 30.8164 218.569 30.6004 218.728 30.4407C218.887 30.2811 219.102 30.1905 219.327 30.1885C219.551 30.195 219.764 30.287 219.922 30.4457C220.08 30.6044 220.172 30.8178 220.178 31.0421V42.0362C220.178 45.7354 222.267 49.4087 226.367 49.4087C232.117 49.4087 233.483 44.0022 233.483 38.0266V31.0163C233.485 30.8779 233.52 30.7419 233.585 30.6199C233.65 30.4978 233.744 30.3931 233.857 30.3146C233.971 30.2361 234.101 30.186 234.238 30.1686C234.375 30.1511 234.514 30.1668 234.644 30.2143C234.806 30.2899 234.943 30.4105 235.039 30.5617C235.135 30.713 235.186 30.8887 235.185 31.068Z" fill="white"/>
<path d="M278.478 38.7251V49.7192C278.472 49.9435 278.38 50.1569 278.222 50.3156C278.064 50.4743 277.851 50.5663 277.627 50.5728C277.515 50.576 277.403 50.5561 277.298 50.5144C277.193 50.4726 277.098 50.4099 277.019 50.3299C276.939 50.25 276.876 50.1546 276.835 50.0496C276.793 49.9446 276.773 49.8321 276.777 49.7192V38.7251C276.777 35.0259 274.688 31.4043 270.588 31.4043C265.431 31.4043 263.471 36.9401 263.471 41.2343V49.7192C263.465 49.9435 263.373 50.1569 263.215 50.3156C263.057 50.4743 262.844 50.5663 262.621 50.5728C262.508 50.576 262.396 50.5561 262.291 50.5144C262.187 50.4726 262.091 50.4099 262.012 50.3299C261.932 50.25 261.87 50.1546 261.828 50.0496C261.786 49.9446 261.766 49.8321 261.77 49.7192V38.7251C261.77 35.0259 259.681 31.4043 255.581 31.4043C250.373 31.4043 248.233 35.5174 248.413 41.0015C248.413 41.1308 248.465 41.3637 248.413 41.4413V49.6933C248.413 49.9119 248.334 50.1231 248.193 50.2891C248.051 50.455 247.855 50.5648 247.639 50.5987C247.519 50.6147 247.397 50.6045 247.281 50.5687C247.165 50.533 247.058 50.4725 246.967 50.3914C246.877 50.3104 246.805 50.2107 246.756 50.0991C246.707 49.9876 246.683 49.8668 246.685 49.745V30.9904C246.686 30.7718 246.764 30.5606 246.906 30.3946C247.048 30.2287 247.244 30.1189 247.459 30.085C247.579 30.069 247.702 30.0792 247.818 30.115C247.934 30.1507 248.041 30.2112 248.131 30.2923C248.222 30.3733 248.294 30.473 248.343 30.5846C248.391 30.6961 248.415 30.8169 248.413 30.9387V34.0688C249.883 31.4302 252.513 29.697 255.581 29.697C259.062 29.697 261.77 31.9217 262.878 35.1552C264.297 31.9475 267.056 29.697 270.588 29.697C275.616 29.697 278.478 34.0688 278.478 38.7251Z" fill="white"/>
<path opacity="0.6" d="M21.4016 25.8943L0 35.6467L21.4016 48.3481L42.8289 35.6467L21.4016 25.8943Z" fill="white"/>
<path opacity="0.45" d="M0 35.6467L21.4016 48.3481V0L0 35.6467Z" fill="white"/>
<path opacity="0.8" d="M21.4016 0V48.3481L42.829 35.6467L21.4016 0Z" fill="white"/>
<path opacity="0.45" d="M0 39.7339L21.4016 70V52.4095L0 39.7339Z" fill="white"/>
<path opacity="0.8" d="M21.4016 52.4095V70L42.829 39.7339L21.4016 52.4095Z" fill="white"/>
</g>
<defs>
<clipPath id="clip0_1_14228">
<rect width="278.478" height="70" fill="white"/>
</clipPath>
</defs>
</svg>
