<svg width="255" height="70" viewBox="0 0 255 70" fill="none" xmlns="http://www.w3.org/2000/svg">
<g opacity="0.6">
<path fill-rule="evenodd" clip-rule="evenodd" d="M35.3589 0.000396462C54.7321 0.000396462 70.3585 15.6269 70.3585 35.0914C70.3585 54.2818 54.5493 70.091 35.0848 69.9996C16.2599 69.8168 0.450684 54.2818 0.450684 35C0.450684 15.6269 15.9858 -0.0909863 35.3589 0.000396462ZM8.76652 53.2766C8.76652 53.6421 8.94928 53.8249 9.13205 54.099C10.5028 56.018 12.0563 57.8457 13.884 59.3992C14.7064 60.1303 15.5288 60.8613 16.4427 61.501C19.0014 63.1459 21.6515 64.6994 24.5757 65.7046C26.9517 66.5271 29.419 67.1667 31.8864 67.4409C33.8054 67.6236 35.8158 67.715 37.7349 67.4409C38.8315 67.2581 40.0194 67.2581 41.116 66.8012C41.2988 66.8926 41.3902 66.7098 41.4816 66.7098C43.7661 66.3443 45.9593 65.6132 48.1525 64.6994C55.2804 61.5924 60.672 56.5663 64.1445 49.6213C67.2515 43.4986 68.2567 37.0104 67.2515 30.2481C66.3377 23.7599 63.5962 18.0942 59.2098 13.3423C53.3613 6.67134 45.8679 3.1988 37.0038 2.6505C33.0743 2.37635 29.1449 2.92464 25.3982 4.204C19.2755 6.21442 14.2495 9.68697 10.1373 14.713C5.47674 20.4701 3.19217 27.0497 2.91802 34.3603C2.82664 36.188 3.0094 37.9243 3.28355 39.7519C3.83185 43.8641 5.20259 47.7936 7.30439 51.3575C7.85269 51.9058 8.21822 52.6369 8.76652 53.2766Z" fill="#AAADC0"/>
<path fill-rule="evenodd" clip-rule="evenodd" d="M41.1161 66.7096C40.0195 67.2579 38.8315 67.2579 37.7349 67.3493C35.8159 67.6235 33.8055 67.5321 31.8864 67.3493C29.4191 67.0752 26.9518 66.4355 24.5758 65.613C21.6516 64.6078 19.0015 63.0543 16.4428 61.4094C15.5289 60.7698 14.7065 60.0387 13.884 59.3076C12.0564 57.7541 10.5029 55.9265 9.13213 54.0074C8.94937 53.7333 8.7666 53.4591 8.7666 53.185C10.9598 48.2503 11.7822 43.0415 12.2391 37.7413C12.4219 35.274 12.5133 32.8066 12.9702 30.3393C13.4271 27.5064 14.5237 24.9477 16.5341 22.7545C18.3618 20.8355 20.6464 19.5561 23.1137 18.6423C25.1241 17.8198 27.2259 17.0888 29.5105 16.9974C31.6123 16.906 33.6227 17.1802 35.6331 17.6371C38.6488 18.3681 41.6644 19.282 44.4973 20.6527C46.7818 21.5665 49.1578 22.4804 51.5337 23.2114C54.0011 23.9425 56.4684 24.7649 58.5702 26.3184C61.2203 28.3289 61.9514 30.8876 60.7634 33.9946C60.0323 35.9136 58.6616 37.3758 57.2909 38.8379C54.8235 41.3966 52.1734 43.7726 49.7975 46.4227C47.056 49.6211 44.5887 52.9108 42.8524 56.7489C41.3903 59.9473 40.5678 63.2371 41.1161 66.7096ZM58.753 36.6447C58.6616 36.6447 58.5702 36.6447 58.4788 36.7361C58.3875 36.7361 58.2961 36.8275 58.2961 36.9188C58.2961 36.9188 58.2961 36.9188 58.2961 37.0102C58.3875 37.0102 58.4788 36.9188 58.4788 36.8275L58.753 36.6447C58.8444 36.6447 58.9358 36.6447 58.753 36.6447C58.8444 36.5533 58.753 36.6447 58.753 36.6447ZM30.7899 20.7441C27.3173 20.7441 24.4844 23.577 24.4844 26.9581C24.4844 30.4307 27.3173 33.1722 30.6985 33.2635C34.171 33.2635 36.9125 30.4307 37.0039 26.9581C37.0039 23.4856 34.2624 20.7441 30.7899 20.7441ZM35.9073 39.9345C36.4556 40.7569 37.4608 41.488 38.6488 41.8535C41.0247 42.676 43.4007 42.676 45.7766 42.2191C49.9802 41.3966 53.9097 39.9345 57.4736 37.5585C57.6564 37.3758 58.0219 37.3758 58.1133 37.0102C57.9305 36.9188 57.8392 37.0102 57.7478 37.1016C56.5598 37.8327 55.2804 38.381 54.0011 38.9293C50.7113 40.3 47.2388 41.2138 43.5834 41.3966C40.9333 41.5794 38.2832 41.3966 35.9073 39.9345ZM53.1786 34.5429C53.9097 34.5429 54.5494 33.9032 54.5494 33.0808C54.5494 32.3497 53.9097 31.71 53.0872 31.8014C52.3562 31.8014 51.8079 32.4411 51.8079 33.1722C51.8079 33.9946 52.3562 34.5429 53.1786 34.5429Z" fill="#A9ACBF"/>
<path fill-rule="evenodd" clip-rule="evenodd" d="M35.542 17.637C33.5315 17.2715 31.5211 16.9059 29.4193 16.9973C27.1347 17.0887 25.1243 17.8198 23.0225 18.6422C20.5552 19.556 18.2706 20.8354 16.443 22.7544C14.4325 24.8562 13.3359 27.415 12.879 30.3392C12.5135 32.8065 12.4221 35.2739 12.148 37.7412C11.6911 43.0414 10.8686 48.3416 8.67542 53.1849C8.03574 52.6366 7.67021 51.8142 7.30468 51.1745C5.20287 47.6106 3.83213 43.6811 3.28384 39.5689C3.00969 37.7412 2.82692 36.0049 2.9183 34.1773C3.19245 26.8667 5.47702 20.2871 10.1375 14.53C14.1584 9.50393 19.2758 6.03139 25.3985 4.02097C29.1452 2.83299 33.0746 2.2847 37.0041 2.46746C45.7768 3.01576 53.2702 6.57969 59.2101 13.0679C63.5965 17.9112 66.2466 23.5769 67.2518 29.9737C68.257 36.736 67.2518 43.2242 64.1448 49.3468C60.6722 56.2919 55.2806 61.318 48.1528 64.425C46.051 65.3388 43.8578 66.0699 41.4818 66.4354C41.2991 66.4354 41.2077 66.7095 41.1163 66.5268C40.568 63.0542 41.3905 59.7645 42.7612 56.5661C44.4975 52.728 46.9648 49.4382 49.7063 46.2398C51.9909 43.5897 54.641 41.1224 57.1997 38.655C58.6618 37.1929 59.9412 35.7308 60.6722 33.8118C61.9516 30.7047 61.2205 28.146 58.479 26.1356C56.3772 24.5821 53.9099 23.7597 51.4426 23.0286C49.0666 22.2975 46.6907 21.3837 44.4061 20.4699C43.9492 18.9164 42.8526 17.9111 41.3905 17.3629C39.4714 16.9059 37.5524 17.0887 35.542 17.637ZM65.4241 37.1015H65.6069C65.9724 35.8222 65.9724 34.4514 65.9724 33.0807C65.9724 31.5272 65.7897 29.9737 65.5155 28.4202C64.5103 23.3941 62.2257 19.0077 58.6618 15.2611C56.4686 12.9765 54.0013 11.0574 51.5339 9.04702C49.3408 7.21937 46.9648 5.84862 44.2233 5.11756C41.5732 4.47788 39.0145 4.11235 36.273 4.56926C36.0903 4.56926 35.9075 4.56927 35.9075 4.75203C35.9075 4.9348 36.0903 4.9348 36.273 4.9348C40.2939 5.66586 44.1319 6.94522 47.8786 8.40734C51.5339 9.86947 54.641 11.9713 56.9255 15.2611C58.479 17.5456 59.9412 19.9216 61.1291 22.4803C62.6826 25.9528 63.8706 29.5168 64.6017 33.1721C64.9672 34.6342 65.2414 35.8222 65.4241 37.1015Z" fill="#DADEEF"/>
<path fill-rule="evenodd" clip-rule="evenodd" d="M30.79 20.7442C34.2626 20.7442 37.0041 23.5771 37.0041 26.9583C37.0041 30.4308 34.1712 33.1723 30.6986 33.2637C27.2261 33.2637 24.4846 30.4308 24.4846 26.9583C24.4846 23.4857 27.3175 20.7442 30.79 20.7442ZM35.1764 27.0496C35.1764 24.5823 33.2574 22.6633 30.79 22.6633C28.3227 22.6633 26.4037 24.5823 26.4037 27.0496C26.4037 29.4256 28.3227 31.436 30.6986 31.436H30.79C33.166 31.436 35.085 29.517 35.1764 27.0496Z" fill="#FCFDFB"/>
<path fill-rule="evenodd" clip-rule="evenodd" d="M35.9073 39.9349C38.2832 41.3971 40.9333 41.5798 43.5834 41.4885C47.2387 41.3057 50.7113 40.4832 54.0011 39.0211C55.2804 38.4728 56.5598 37.9245 57.7478 37.1935C57.8391 37.1021 57.9305 37.0107 58.1133 37.1021C58.0219 37.3762 57.7478 37.4676 57.4736 37.6504C53.9097 40.0263 49.9802 41.4885 45.7766 42.3109C43.4007 42.7678 40.9333 42.7678 38.6488 41.9454C37.4608 41.4885 36.3642 40.7574 35.9073 39.9349ZM35.5417 17.6375C37.4608 17.0893 39.4712 16.9065 41.3902 17.6375C42.8524 18.1858 43.949 19.1911 44.4059 20.7446C41.6644 19.2824 38.6488 18.3686 35.5417 17.6375Z" fill="#7E8295"/>
<path fill-rule="evenodd" clip-rule="evenodd" d="M53.1786 34.5428C52.4475 34.5428 51.8079 33.9032 51.8079 33.1721C51.8079 32.441 52.3562 31.8014 53.0872 31.8014C53.8183 31.8014 54.458 32.3497 54.5493 33.0807C54.458 33.9032 53.9097 34.5428 53.1786 34.5428Z" fill="#FCFDFB"/>
<path fill-rule="evenodd" clip-rule="evenodd" d="M58.4779 36.8274C58.4779 36.9188 58.3865 37.0102 58.2952 37.0102C58.2952 36.8274 58.3865 36.736 58.4779 36.8274ZM58.7521 36.6446L58.4779 36.8274L58.3865 36.736C58.5693 36.6446 58.6607 36.6446 58.7521 36.6446Z" fill="#A9ACBF"/>
<path fill-rule="evenodd" clip-rule="evenodd" d="M65.424 37.1023C65.1499 35.8229 64.8757 34.6349 64.693 33.3556C63.9619 29.6089 62.6826 26.045 61.2204 22.6638C60.1238 20.1051 58.6617 17.7291 57.0168 15.4446C54.7323 12.1548 51.7166 10.053 47.9699 8.59084C44.1318 7.12872 40.3852 5.75797 36.3643 5.11829C36.1815 5.11829 35.9988 5.1183 35.9988 4.93553C35.9988 4.75277 36.1815 4.75277 36.3643 4.75277C39.0144 4.29586 41.6645 4.57 44.3146 5.30106C47.0561 6.03213 49.432 7.49425 51.6252 9.23052C54.0926 11.2409 56.5599 13.16 58.7531 15.4446C62.317 19.1912 64.6016 23.5776 65.6068 28.6037C65.881 30.1572 66.0637 31.7107 66.0637 33.2642C66.0637 34.5436 66.0637 35.9143 65.6982 37.285L65.424 37.1023Z" fill="#FFFEFC"/>
<path fill-rule="evenodd" clip-rule="evenodd" d="M35.1761 27.0494C35.1761 29.4254 33.257 31.4358 30.8811 31.4358H30.7897C28.4137 31.4358 26.4033 29.5168 26.4033 27.0494V26.9581C26.4033 24.4907 28.4137 22.5717 30.7897 22.5717C33.1656 22.5717 35.1761 24.5821 35.1761 27.0494Z" fill="#7E8295"/>
<path fill-rule="evenodd" clip-rule="evenodd" d="M173.804 44.6866C173.712 44.778 173.621 44.778 173.529 44.8694C170.697 48.0678 167.133 48.6161 163.295 47.6109C158.543 46.4229 155.984 43.0418 154.979 38.3812C154.339 35.3656 154.522 32.35 155.71 29.5171C157.812 24.4911 162.563 21.7496 167.955 22.4806C170.422 22.8462 172.707 23.6686 174.443 25.4963C175.723 26.867 176.454 28.5119 176.728 30.3395C176.819 30.7051 176.636 30.7965 176.362 30.7965C175.266 30.7965 174.078 30.7965 172.981 30.7965C172.707 30.7965 172.616 30.7051 172.524 30.4309C171.976 27.9636 170.331 26.5928 167.955 26.1359C165.214 25.5876 162.838 26.1359 161.01 28.3291C159.365 30.3395 158.908 32.8069 158.908 35.3656C158.908 37.2846 159.274 39.1123 160.096 40.7572C162.015 44.4125 166.767 45.6919 170.331 43.5901C172.341 42.4021 172.981 40.483 173.164 38.2898C173.164 37.8329 172.89 37.9243 172.616 37.9243C170.788 37.9243 169.052 37.9243 167.224 37.9243C166.676 37.9243 166.584 37.7416 166.584 37.2846C166.584 36.5536 166.584 35.9139 166.584 35.1828C166.584 34.7259 166.767 34.6345 167.133 34.6345C170.24 34.6345 173.438 34.6345 176.545 34.6345C176.911 34.6345 177.093 34.7259 177.093 35.0915C177.093 39.1123 177.093 43.0418 177.093 47.0626C177.093 47.4281 177.002 47.5195 176.636 47.5195C175.905 47.5195 174.992 47.7023 174.443 47.4281C173.895 47.0626 174.078 46.1488 173.895 45.4177C173.895 45.1436 173.804 44.8694 173.804 44.6866ZM101.428 30.7965C100.88 30.7965 100.332 30.7965 99.6921 30.7965C99.3266 30.7965 99.2352 30.7051 99.1438 30.3395C98.4127 27.7808 96.7679 26.2273 94.1178 25.9532C91.1935 25.679 88.7262 26.5929 87.264 29.243C85.0709 33.2638 85.1622 37.376 87.3554 41.3055C88.8175 43.9556 92.0159 45.1436 94.9402 44.3211C97.4989 43.59 98.6869 41.671 99.2352 39.2037C99.4179 38.1985 99.4179 38.1985 100.423 38.1985C101.337 38.1985 102.251 38.1985 103.165 38.1985C103.53 38.1985 103.622 38.2899 103.53 38.6554C103.073 43.4987 99.9662 47.2454 95.2143 47.9764C88.3606 49.073 82.6949 44.8694 81.5983 38.0157C81.1414 35.0001 81.4155 32.0758 82.6035 29.243C84.7053 24.491 89.3658 21.9323 94.5747 22.572C97.042 22.9375 99.3266 23.76 101.154 25.5876C102.434 26.9584 103.165 28.6033 103.439 30.4309C103.53 30.7965 103.439 30.8878 103.073 30.8878C102.616 30.7051 101.977 30.7965 101.428 30.7965ZM235.944 47.4281C234.39 47.4281 233.02 47.4281 231.557 47.4281C231.192 47.4281 231.009 47.2454 230.918 46.9712C229.364 44.4125 227.719 41.9452 226.166 39.3864C225.892 38.9295 225.8 38.9295 225.343 39.2951C223.79 40.3917 223.15 41.8538 223.424 43.7728C223.607 44.778 223.424 45.8746 223.424 46.9712C223.424 47.4281 223.242 47.5195 222.876 47.5195C221.962 47.5195 221.048 47.5195 220.135 47.5195C219.678 47.5195 219.586 47.3367 219.586 46.8798C219.586 43.1331 219.586 39.3864 219.586 35.5484C219.586 31.6189 219.586 27.6894 219.586 23.6686C219.586 23.0289 219.769 22.8462 220.409 22.9375C221.231 23.0289 222.054 23.0289 222.876 22.9375C223.424 22.9375 223.516 23.1203 223.516 23.5772C223.516 27.6894 223.516 31.8017 223.516 35.9139V36.645L223.699 36.7363C223.973 36.3708 224.338 36.0053 224.612 35.6397C226.44 33.7207 228.268 31.8931 230.187 29.974C230.369 29.7913 230.552 29.6085 230.826 29.6085C232.289 29.6085 233.751 29.6085 235.213 29.6085C235.213 29.8826 234.939 29.974 234.847 30.1568C232.928 31.9844 231.101 33.8121 229.09 35.6397C228.633 36.0053 228.633 36.2794 228.999 36.8277C231.192 40.1175 233.385 43.4073 235.578 46.6971C235.578 46.9712 235.761 47.154 235.944 47.4281ZM190.801 39.5692C188.79 39.5692 186.871 39.5692 184.861 39.5692C184.404 39.5692 184.313 39.6606 184.313 40.1175C184.495 43.6814 187.785 45.8746 191.075 44.5039C191.989 44.1383 192.72 43.4073 193.085 42.4021C193.268 41.9452 193.542 41.8538 193.908 41.8538C194.73 41.8538 195.644 41.8538 196.466 41.8538C196.923 41.8538 197.015 41.9452 196.832 42.4021C195.827 45.6005 193.634 47.3367 190.344 47.7937C187.42 48.2506 184.678 47.6109 182.576 45.4177C181.114 43.8642 180.474 41.8538 180.292 39.752C180.109 37.1933 180.474 34.7259 182.119 32.5327C184.221 29.7912 187.054 28.786 190.344 29.3343C193.816 29.974 195.918 32.1672 196.923 35.457C197.289 36.645 197.38 37.8329 197.289 39.1123C197.289 39.5692 197.106 39.6606 196.741 39.6606C194.822 39.5692 192.811 39.5692 190.801 39.5692ZM188.882 37.0105C190.252 37.0105 191.623 37.0105 192.903 37.0105C193.359 37.0105 193.451 36.9191 193.359 36.4622C192.994 34.0862 191.258 32.35 188.973 32.2586C186.597 32.1672 184.678 33.8121 184.313 36.2794C184.221 36.7363 184.313 36.9191 184.861 36.9191C186.232 37.0105 187.511 37.0105 188.882 37.0105ZM106.18 38.564C106.18 37.4674 106.363 36.2794 106.637 35.1828C107.825 31.3448 111.206 28.9688 115.41 29.243C118.608 29.4257 121.258 30.5223 122.812 33.3552C124.64 36.8277 124.64 40.483 122.721 43.8642C120.984 47.0626 117.969 48.0678 114.496 47.885C109.287 47.6109 106.18 44.047 106.18 38.564ZM110.11 38.564C110.11 40.1175 110.384 41.4882 111.298 42.7676C112.76 44.8694 115.593 45.5091 117.694 44.047C118.151 43.6814 118.608 43.3159 118.974 42.859C120.527 40.5744 120.619 36.7363 118.974 34.3604C117.055 31.6189 113.034 31.6189 111.206 34.4518C110.384 35.6398 110.11 37.1019 110.11 38.564ZM236.949 38.6554C236.949 36.0967 237.497 33.8121 239.234 31.8931C240.97 29.8826 243.346 29.1516 245.905 29.1516C248.463 29.1516 250.839 29.8826 252.667 31.8931C254.586 34.0862 255.043 36.7363 254.86 39.5692C254.769 40.5744 254.586 41.5796 254.22 42.4935C252.85 46.0574 249.56 48.0678 245.356 47.7937C240.422 47.5195 237.315 44.3211 237.04 39.3864C237.04 39.2037 236.949 38.8381 236.949 38.6554ZM250.931 38.8381C250.931 37.0105 250.474 35.457 249.834 34.3604C248.463 32.1672 245.539 31.6189 243.437 32.9896C242.889 33.3552 242.432 33.8121 242.066 34.3604C240.513 36.645 240.604 40.483 242.066 42.6762C243.529 44.778 246.361 45.4177 248.463 43.9556C249.012 43.59 249.377 43.2245 249.743 42.6762C250.656 41.4882 250.931 40.0261 250.931 38.8381ZM139.261 32.1672C140.357 30.7965 141.637 29.7912 143.373 29.3343C144.927 28.9688 146.48 29.0602 147.942 29.6999C150.135 30.6137 151.049 32.5327 151.141 34.8173C151.232 38.8381 151.141 42.859 151.141 46.8798C151.141 47.3367 151.049 47.4281 150.592 47.4281C149.678 47.4281 148.765 47.4281 147.851 47.4281C147.394 47.4281 147.211 47.3367 147.211 46.7885C147.211 43.4073 147.211 39.9347 147.211 36.5536C147.211 35.8225 147.12 35.0915 146.937 34.4518C146.389 32.6241 144.652 31.8931 142.551 32.4413C140.723 32.9896 139.535 34.6345 139.535 36.7363C139.535 40.0261 139.535 43.4073 139.535 46.6971C139.535 47.2454 139.444 47.5195 138.804 47.4281C137.981 47.3367 137.068 47.3367 136.245 47.4281C135.788 47.4281 135.606 47.3367 135.606 46.7885C135.606 44.2297 135.606 41.7624 135.606 39.2037C135.606 36.2794 135.606 33.3552 135.606 30.4309C135.606 29.7913 135.788 29.6085 136.428 29.6999C137.25 29.7912 137.981 29.6999 138.804 29.6999C139.261 29.6999 139.444 29.7912 139.352 30.2482C139.261 30.8878 139.261 31.5275 139.261 32.1672ZM214.195 35.6397C214.103 35.6397 214.012 35.6397 213.921 35.6397C212.915 35.7311 212.276 35.6398 211.819 34.4518C210.722 31.7103 206.336 31.6189 204.508 34.1776C203.868 35.0001 203.594 36.0053 203.412 37.1019C203.229 38.8381 203.229 40.5744 203.96 42.2193C204.874 44.2297 206.519 45.1436 208.62 44.8694C210.357 44.5953 211.545 43.4987 212.002 41.5796C212.093 41.0313 212.367 40.8486 212.915 40.94C213.829 40.94 214.652 40.94 215.565 40.94C216.022 40.94 216.114 41.1227 216.022 41.4882C215.109 45.8746 212.002 48.342 207.432 48.0678C202.863 47.7937 199.848 44.778 199.482 40.1175C199.299 38.1071 199.482 36.0967 200.305 34.1776C201.675 30.9792 204.782 29.1516 208.438 29.3343C210.631 29.4257 212.641 29.974 214.286 31.5275C215.291 32.5327 215.84 33.8121 216.114 35.1828C216.205 35.6397 216.022 35.8225 215.565 35.7311C215.2 35.6397 214.743 35.6397 214.195 35.6397ZM131.311 38.6554C131.311 41.3055 131.311 43.9556 131.311 46.6057C131.311 47.3367 131.128 47.5195 130.488 47.4281C129.666 47.3367 128.935 47.3367 128.112 47.4281C127.564 47.4281 127.381 47.3367 127.381 46.6971C127.381 41.9452 127.381 37.1933 127.381 32.4413C127.381 31.7103 127.381 30.9792 127.381 30.2482C127.381 29.7912 127.472 29.6999 127.929 29.6999C128.843 29.6999 129.757 29.6999 130.671 29.6999C131.219 29.6999 131.402 29.7913 131.402 30.4309C131.311 33.1724 131.311 35.9139 131.311 38.6554ZM129.483 22.9375C130.031 23.0289 130.854 22.6634 131.219 23.0289C131.585 23.3945 131.311 24.2169 131.311 24.8566C131.311 25.4049 131.585 26.1359 131.219 26.5015C130.854 26.867 130.123 26.5928 129.574 26.5928C128.843 26.5928 127.929 26.867 127.472 26.5015C127.107 26.0446 127.381 25.1307 127.381 24.4911C127.381 22.9375 127.381 22.9375 128.935 22.9375H129.483Z" fill="white"/>
</g>
</svg>
