<svg width="409" height="70" viewBox="0 0 409 70" fill="none" xmlns="http://www.w3.org/2000/svg">
<path opacity="0.6" fill-rule="evenodd" clip-rule="evenodd" d="M60.9043 41.8056C59.6891 42.5347 58.2307 42.7778 57.2585 42.0486C55.8002 41.3194 55.071 39.375 55.071 36.9445V29.1667C55.071 25.5208 53.6127 22.8472 51.1821 22.118C47.0502 20.9028 43.8905 26.0069 42.6752 27.9514L35.3835 39.8611V25.2778C35.3835 21.875 34.1682 19.9306 32.2238 19.4444C30.7655 18.9583 28.821 19.2014 26.8766 22.118L10.5919 48.3681C8.40435 44.2361 7.18907 39.6181 7.18907 34.757C7.18907 18.9583 19.828 6.07639 35.3835 6.07639C50.9391 6.07639 63.578 19.2014 63.578 35C63.821 38.1597 62.8488 40.5903 60.9043 41.8056ZM69.8974 35C69.8974 15.5556 54.3419 0 35.3835 0C16.4252 0 0.869629 15.7986 0.869629 35C0.869629 54.2014 16.4252 70 35.3835 70C44.1335 70 52.3974 66.5972 58.9599 60.5208C60.1752 59.3056 60.4182 57.3611 59.203 55.9028C57.9877 54.6875 56.0432 54.4444 54.828 55.6597C49.7238 60.5208 42.6752 63.4375 35.6266 63.4375C27.3627 63.4375 19.828 59.7917 14.4807 53.9583L29.3071 30.1389V41.0764C29.3071 46.4236 31.2516 48.125 32.953 48.6111C34.6544 49.0972 37.328 48.8542 40.0016 44.2361L48.0224 31.1111C48.2655 30.625 48.5085 30.3819 48.7516 29.8958V36.4583C48.7516 41.3194 50.696 45.2083 54.0988 47.1528C57.2585 48.8542 61.1474 48.8542 64.3071 46.6667C68.196 44.9653 70.1405 40.3472 69.8974 35ZM118.022 23.0903C118.752 23.5764 119.481 24.7917 119.481 25.7639C119.481 27.4653 118.022 28.6806 116.564 28.6806C116.078 28.6806 115.835 28.6806 115.349 28.4375C113.404 26.9792 111.217 26.25 108.786 26.25C102.953 26.25 99.0641 30.868 99.0641 36.7014C99.0641 42.5347 102.953 47.1528 108.786 47.1528C111.703 47.1528 114.133 45.9375 116.078 44.2361C116.564 43.9931 117.293 43.75 117.779 43.75C119.238 43.75 120.453 44.9653 120.453 46.6667C120.453 47.6389 119.724 48.6111 118.995 49.0972C116.321 51.5278 112.432 52.9861 108.543 52.9861C99.7932 52.9861 92.5016 45.6944 92.5016 36.7014C92.5016 27.7083 99.7932 20.4167 108.543 20.4167C112.432 20.1736 115.592 21.1458 118.022 23.0903ZM134.307 29.8958C140.383 29.8958 145.488 35 145.488 41.3194C145.488 47.6389 140.383 52.9861 134.307 52.9861C127.988 52.9861 122.64 47.6389 122.64 41.3194C122.64 35 127.988 29.8958 134.307 29.8958ZM134.307 47.1528C136.981 47.1528 139.168 44.7222 139.168 41.3194C139.168 37.9167 136.981 35.7292 134.307 35.7292C131.39 35.7292 128.96 37.9167 128.96 41.3194C128.96 44.7222 131.39 47.1528 134.307 47.1528ZM149.134 49.3403V33.2986C149.134 31.5972 150.592 30.1389 152.293 30.1389C153.995 30.1389 155.453 31.5972 155.453 33.2986V49.3403C155.453 51.0417 153.995 52.5 152.293 52.5C150.592 52.5 149.134 51.0417 149.134 49.3403ZM148.647 24.0625C148.647 21.875 150.349 20.4167 152.293 20.4167C154.238 20.4167 155.939 22.1181 155.939 24.0625C155.939 26.0069 154.238 27.7083 152.293 27.7083C150.349 27.7083 148.647 26.0069 148.647 24.0625ZM167.363 40.5903V49.3403C167.363 51.0417 165.904 52.5 164.203 52.5C162.502 52.5 161.043 51.0417 161.043 49.3403V32.5694C161.043 31.1111 162.258 30.1389 163.474 30.1389C164.689 30.1389 165.904 31.3542 165.904 32.5694C168.335 30.1389 170.765 29.8958 172.71 29.8958C179.029 29.8958 181.703 34.5139 181.703 39.8611V49.3403C181.703 51.0417 180.245 52.5 178.543 52.5C176.842 52.5 175.384 51.0417 175.384 49.3403V40.5903C175.384 37.9167 175.14 35.4861 171.008 35.4861C168.578 35.4861 167.363 37.9167 167.363 40.5903ZM202.363 43.993C201.633 43.993 201.147 43.75 200.661 43.2639L193.37 35.2431V49.3403C193.37 51.0417 191.911 52.5 190.21 52.5C188.508 52.5 187.05 51.0417 187.05 49.3403V21.3889C187.293 20.9028 187.779 20.6597 188.265 20.6597C188.752 20.6597 189.238 21.1458 189.481 21.3889L201.147 34.5139C201.39 35 201.877 35.2431 202.12 35.2431C202.363 35.2431 202.849 35 203.092 34.5139L214.758 21.3889C215.002 21.1458 215.488 20.6597 215.974 20.6597C216.46 20.6597 216.946 20.9028 217.189 21.3889V49.3403C217.189 51.0417 215.731 52.5 214.029 52.5C212.328 52.5 210.87 51.0417 210.87 49.3403V35.2431L203.578 43.2639C203.335 43.5069 202.849 43.993 202.363 43.993ZM232.258 47.1528C235.175 47.1528 237.363 44.7222 237.363 41.3194C237.363 37.9167 234.932 35.7292 232.258 35.7292C229.585 35.7292 227.397 37.9167 227.397 41.3194C227.397 44.4792 229.585 47.1528 232.258 47.1528ZM239.064 50.0694V49.3403C237.849 51.7708 233.96 52.7431 231.529 52.7431C225.696 52.7431 221.321 47.3958 221.321 41.0764C221.321 34.7569 225.696 29.6528 231.772 29.6528C232.745 29.6528 236.39 29.8958 239.064 33.0555V32.3264C239.064 30.8681 240.036 29.8958 241.495 29.8958C242.71 29.8958 243.925 31.1111 243.925 32.3264V49.8264C243.925 51.2847 242.71 52.2569 241.495 52.2569C240.036 52.5 239.064 51.5278 239.064 50.0694ZM261.182 35.4861H260.453C256.564 35.7292 255.835 37.9167 255.835 40.5903V49.3403C255.835 51.0417 254.377 52.5 252.675 52.5C250.974 52.5 249.515 51.0417 249.515 49.3403V32.5694C249.515 31.1111 250.731 30.1389 251.946 30.1389C253.161 30.1389 254.377 31.3542 254.377 32.5694C256.807 30.3819 258.509 29.8958 260.453 29.8958H261.182C262.64 29.8958 264.099 31.1111 264.099 32.8125C263.856 34.2708 262.64 35.4861 261.182 35.4861ZM285.245 47.882C285.488 48.3681 285.731 48.8542 285.731 49.3403C285.731 51.0417 284.272 52.5 282.571 52.5C281.356 52.5 280.627 51.7708 279.897 50.7986L272.606 42.5347V49.3403C272.606 51.0417 271.147 52.5 269.446 52.5C267.745 52.5 266.286 51.0417 266.286 49.3403V23.8195C266.286 22.1181 267.745 20.6597 269.446 20.6597C271.147 20.6597 272.606 22.1181 272.606 23.8195V39.8611L279.897 31.8403C280.627 31.1111 281.599 30.1389 282.571 30.1389C284.029 30.1389 285.488 31.5972 285.488 33.2986C285.488 33.7847 285.488 34.2708 285.002 34.757L279.411 41.0764L285.245 47.882ZM297.397 35.7292C295.696 35.7292 293.022 36.7014 293.022 39.375H302.015C302.015 36.4583 299.099 35.7292 297.397 35.7292ZM305.661 43.2639H293.022C293.022 46.9097 296.668 47.6389 298.127 47.6389C299.342 47.6389 301.043 47.3958 302.258 46.9097C302.745 46.6667 303.231 46.4236 303.96 46.4236C305.418 46.4236 306.39 47.6389 306.39 49.0972C306.39 50.0695 305.661 50.7986 304.932 51.2847C302.988 52.743 300.557 52.9861 298.127 52.9861C291.807 52.9861 286.46 49.5833 286.46 41.5625C286.46 35.243 289.62 29.8958 297.154 29.8958C303.231 29.8958 307.849 33.7847 307.849 40.8333C308.092 42.0486 307.12 43.2639 305.661 43.2639ZM323.161 52.7431H321.46C316.599 52.7431 313.925 50.5556 313.925 43.2639V35.4861H312.224C310.765 35.4861 309.307 34.0278 309.307 32.5694C309.307 30.8681 310.522 29.6528 312.224 29.6528H313.925V23.8195C313.925 22.1181 315.383 20.6597 317.085 20.6597C318.786 20.6597 320.245 22.1181 320.245 23.8195V29.6528H322.918C324.377 29.6528 325.835 30.8681 325.835 32.5694C325.835 34.0278 324.62 35.4861 322.918 35.4861H320.245V42.0486C320.245 46.4236 320.488 47.1528 322.432 47.1528H323.404C324.863 47.1528 326.078 48.368 326.078 50.0694C325.835 51.5278 324.62 52.7431 323.161 52.7431ZM353.3 23.0903C354.029 23.5764 354.758 24.7917 354.758 25.7639C354.758 27.4653 353.3 28.6806 351.842 28.6806C351.356 28.6806 351.113 28.6806 350.627 28.4375C348.682 26.9792 346.495 26.25 344.064 26.25C338.231 26.25 334.342 30.868 334.342 36.7014C334.342 42.5347 338.231 47.1528 344.064 47.1528C346.981 47.1528 349.411 45.9375 351.356 44.2361C351.842 43.9931 352.571 43.75 353.057 43.75C354.515 43.75 355.731 44.9653 355.731 46.6667C355.731 47.6389 355.002 48.6111 354.272 49.0972C351.599 51.5278 347.71 52.9861 343.821 52.9861C335.071 52.9861 327.779 45.6944 327.779 36.7014C327.779 27.7083 335.071 20.4167 343.821 20.4167C347.71 20.1736 350.87 21.1458 353.3 23.0903ZM369.342 47.1528C372.258 47.1528 374.446 44.7222 374.446 41.3194C374.446 37.9167 372.015 35.7292 369.342 35.7292C366.668 35.7292 364.481 37.9167 364.481 41.3194C364.238 44.4792 366.425 47.1528 369.342 47.1528ZM375.904 50.0694V49.3403C374.689 51.7708 370.8 52.7431 368.37 52.7431C362.536 52.7431 358.161 47.3958 358.161 41.0764C358.161 34.7569 362.536 29.6528 368.613 29.6528C369.585 29.6528 373.231 29.8958 375.904 33.0555V32.3264C375.904 30.8681 376.877 29.8958 378.335 29.8958C379.55 29.8958 380.765 31.1111 380.765 32.3264V49.8264C380.765 51.2847 379.55 52.2569 378.335 52.2569C376.877 52.5 375.904 51.5278 375.904 50.0694ZM398.022 47.1528C400.696 47.1528 402.883 44.4792 402.883 41.3194C402.883 37.9167 400.696 35.7292 398.022 35.7292C395.349 35.7292 392.918 37.9167 392.918 41.3194C392.675 44.7222 395.106 47.1528 398.022 47.1528ZM392.675 51.0417V59.0625C392.675 60.7639 391.217 62.2222 389.515 62.2222C387.814 62.2222 386.356 60.7639 386.356 59.0625V32.5694C386.356 31.1111 387.571 30.1389 388.786 30.1389C390.002 30.1389 391.217 31.3542 391.217 32.8125C393.647 30.3819 396.321 29.8958 398.508 29.8958C404.585 29.8958 408.96 35 408.96 41.3194C408.96 47.6389 404.585 52.9861 398.752 52.9861C397.05 52.7431 394.377 52.2569 392.675 51.0417Z" fill="white"/>
</svg>
