<svg width="279" height="70" viewBox="0 0 279 70" fill="none" xmlns="http://www.w3.org/2000/svg">
<path d="M93.7163 27.7556H86.1172V23.277H106.811V27.7556H99.2114V47.0248H93.7163V27.7556ZM112.017 31.1819C112.65 30.2997 113.498 29.6323 114.561 29.1798C115.646 28.7281 116.89 28.5015 118.292 28.5015V33.3871C117.705 33.3417 117.309 33.3189 117.105 33.3189C115.59 33.3189 114.402 33.7487 113.543 34.6082C112.683 35.445 112.254 36.7115 112.254 38.4077V47.0248H106.962V28.7728H112.017V31.1819ZM137.924 28.7728V47.0248H132.902V44.8533C132.201 45.6446 131.364 46.2555 130.392 46.6852C129.419 47.0923 128.368 47.2961 127.237 47.2961C124.84 47.2961 122.94 46.606 121.538 45.2266C120.136 43.8471 119.435 41.8003 119.435 39.0861V28.7728H124.727V38.3058C124.727 41.2459 125.959 42.7163 128.424 42.7163C129.691 42.7163 130.709 42.3092 131.478 41.4945C132.247 40.6577 132.631 39.4257 132.631 37.7969V28.7728H137.924ZM146.931 47.2961C145.416 47.2961 143.934 47.115 142.487 46.7534C141.04 46.3684 139.886 45.8939 139.026 45.3285L140.791 41.529C141.605 42.0489 142.588 42.4787 143.742 42.8175C144.896 43.1343 146.026 43.2927 147.135 43.2927C149.374 43.2927 150.493 42.739 150.493 41.6302C150.493 41.1102 150.188 40.7369 149.577 40.511C148.967 40.2852 148.028 40.0923 146.761 39.9339C145.269 39.708 144.036 39.4477 143.064 39.1543C142.091 38.8602 141.243 38.3395 140.52 37.5937C139.819 36.8471 139.468 35.7845 139.468 34.4043C139.468 33.2515 139.796 32.2336 140.451 31.3513C141.13 30.4463 142.102 29.7453 143.369 29.248C144.658 28.7508 146.173 28.5015 147.915 28.5015C149.204 28.5015 150.482 28.6489 151.748 28.943C153.037 29.2143 154.101 29.5986 154.938 30.0958L153.173 33.8616C151.568 32.9574 149.815 32.5049 147.915 32.5049C146.784 32.5049 145.936 32.6633 145.371 32.9794C144.805 33.2962 144.522 33.7032 144.522 34.2012C144.522 34.7666 144.828 35.1619 145.438 35.3885C146.049 35.6144 147.022 35.8292 148.356 36.0331C149.849 36.2817 151.07 36.5531 152.02 36.8472C152.97 37.1185 153.795 37.6275 154.496 38.374C155.197 39.1199 155.548 40.1605 155.548 41.4945C155.548 42.6253 155.209 43.6322 154.531 44.5137C153.851 45.396 152.856 46.0861 151.545 46.5833C150.256 47.0585 148.718 47.2961 146.931 47.2961ZM168.55 46.1426C168.03 46.5268 167.385 46.8209 166.616 47.0248C165.87 47.2052 165.078 47.2961 164.241 47.2961C162.07 47.2961 160.385 46.7417 159.187 45.6336C158.01 44.5255 157.422 42.8967 157.422 40.7486V33.2515H154.607V29.1798H157.422V24.7364H162.714V29.1798H167.26V33.2515H162.714V40.6804C162.714 41.4497 162.907 42.0489 163.291 42.4787C163.698 42.8857 164.264 43.0895 164.988 43.0895C165.824 43.0895 166.536 42.8629 167.125 42.4105L168.55 46.1426ZM213.322 23.277L205.554 47.0248H199.651L194.426 30.9443L189.032 47.0248H183.163L175.361 23.277H181.06L186.42 39.9684L192.018 23.277H197.106L202.534 40.104L208.064 23.277H213.322ZM219.985 28.5015C222.812 28.5015 224.983 29.1798 226.499 30.5373C228.014 31.8713 228.771 33.8954 228.771 36.6095V47.0248H223.818V44.7514C222.824 46.4476 220.969 47.2961 218.255 47.2961C216.853 47.2961 215.632 47.0585 214.591 46.5833C213.573 46.1088 212.793 45.4525 212.25 44.6157C211.707 43.7789 211.436 42.8292 211.436 41.7658C211.436 40.0703 212.07 38.7356 213.336 37.7631C214.625 36.7907 216.604 36.3045 219.273 36.3045H223.479C223.479 35.1509 223.129 34.2686 222.428 33.6585C221.727 33.0249 220.675 32.708 219.273 32.708C218.3 32.708 217.339 32.8665 216.389 33.1833C215.461 33.4773 214.67 33.8844 214.014 34.4043L212.114 30.7067C213.109 30.0056 214.297 29.4629 215.676 29.0786C217.078 28.6936 218.515 28.5015 219.985 28.5015ZM219.578 43.7334C220.483 43.7334 221.286 43.5303 221.987 43.1233C222.688 42.6935 223.185 42.0716 223.479 41.2576V39.3912H219.849C217.678 39.3912 216.592 40.104 216.592 41.529C216.592 42.2073 216.853 42.75 217.373 43.157C217.915 43.5413 218.651 43.7334 219.578 43.7334ZM231.526 21.8528H236.818V47.0248H231.526V21.8528ZM239.694 21.8528H244.987V47.0248H239.694V21.8528ZM265.741 37.9663C265.741 38.0345 265.707 38.5097 265.639 39.3912H251.832C252.08 40.522 252.669 41.4153 253.596 42.0716C254.523 42.7273 255.676 43.0551 257.056 43.0551C258.006 43.0551 258.843 42.9194 259.567 42.6481C260.312 42.354 261.003 41.9022 261.635 41.2913L264.452 44.3443C262.733 46.312 260.222 47.2961 256.921 47.2961C254.862 47.2961 253.042 46.9001 251.459 46.1088C249.875 45.294 248.654 44.1749 247.795 42.75C246.935 41.3251 246.505 39.708 246.505 37.8988C246.505 36.1123 246.924 34.5063 247.761 33.0813C248.62 31.6344 249.785 30.5146 251.255 29.7233C252.748 28.9085 254.41 28.5015 256.242 28.5015C258.029 28.5015 259.646 28.8865 261.093 29.655C262.54 30.4243 263.671 31.5325 264.485 32.9794C265.322 34.4043 265.741 36.0669 265.741 37.9663ZM256.276 32.5049C255.077 32.5049 254.071 32.8437 253.257 33.5228C252.442 34.2012 251.945 35.1281 251.764 36.3045H260.754C260.573 35.1509 260.076 34.2349 259.261 33.5566C258.447 32.8555 257.452 32.5049 256.276 32.5049ZM279 46.1426C278.48 46.5268 277.835 46.8209 277.067 47.0248C276.32 47.2052 275.529 47.2961 274.692 47.2961C272.521 47.2961 270.836 46.7417 269.637 45.6336C268.461 44.5255 267.873 42.8967 267.873 40.7486V33.2515H265.057V29.1798H267.873V24.7364H273.165V29.1798H277.712V33.2515H273.165V40.6804C273.165 41.4497 273.358 42.0489 273.742 42.4787C274.149 42.8857 274.714 43.0895 275.438 43.0895C276.275 43.0895 276.988 42.8629 277.576 42.4105L279 46.1426Z" fill="white" fill-opacity="0.6"/>
<path fill-rule="evenodd" clip-rule="evenodd" d="M24.4355 0H47.429C60.4095 0 70.9322 10.5228 70.9322 23.5032V46.4968C70.9322 59.4772 60.4095 70 47.429 70H24.4355C11.455 70 0.932251 59.4772 0.932251 46.4968V23.5032C0.932251 10.5228 11.455 0 24.4355 0ZM37.0594 14.2567C36.4995 13.7814 35.6778 13.7814 35.1179 14.2567C29.361 19.1438 22.801 19.1032 20.3408 19.088L20.3399 19.088C20.2159 19.0873 20.1024 19.0866 20 19.0866C19.5983 19.0866 19.2134 19.2477 18.9315 19.5338C18.6495 19.8199 18.4942 20.2072 18.5001 20.6088C18.617 28.479 18.9259 34.0651 19.5267 38.1413C20.1272 42.2146 21.0379 44.9264 22.4608 46.9409C23.8933 48.969 25.7405 50.1339 27.8053 51.295C28.1613 51.4951 28.5261 51.6964 28.9007 51.9031L28.9011 51.9033C30.7205 52.907 32.7745 54.0402 35.2049 55.8123C35.7315 56.1962 36.4458 56.1962 36.9724 55.8123C39.4052 54.0385 41.462 52.9048 43.2842 51.9003C43.6573 51.6947 44.0205 51.4945 44.3751 51.2953C46.4417 50.1345 48.2916 48.9699 49.727 46.9423C51.1532 44.9278 52.067 42.2159 52.6697 38.1421C53.2728 34.0655 53.583 28.4791 53.6998 20.6088C53.7057 20.2072 53.5504 19.8199 53.2685 19.5338C52.9865 19.2477 52.6016 19.0866 52.2 19.0866C52.0961 19.0866 51.9811 19.0873 51.8557 19.088C49.3758 19.1032 42.816 19.1434 37.0594 14.2567ZM21.5254 22.0868C24.5742 22.0378 30.5489 21.5279 36.0887 17.3233C41.6344 21.5322 47.6167 22.0389 50.6745 22.0869C50.5418 29.1197 50.2368 34.0879 49.702 37.703C49.129 41.5764 48.3108 43.7507 47.2785 45.2088C46.2556 46.6538 44.9206 47.548 42.9059 48.6797C42.5762 48.8648 42.2301 49.0555 41.8681 49.2549L41.868 49.2549C40.2505 50.1458 38.3136 51.2126 36.0887 52.759C33.8666 51.2144 31.9327 50.1483 30.3178 49.2581L30.3175 49.2579C29.9539 49.0575 29.6065 48.866 29.2757 48.68C27.2635 47.5486 25.9315 46.6546 24.9112 45.2102C23.8814 43.7521 23.0657 41.5777 22.4947 37.7038C21.9617 34.0883 21.6581 29.1198 21.5254 22.0868Z" fill="white" fill-opacity="0.6"/>
</svg>
