<svg width="480" height="1049" viewBox="0 0 480 1049" fill="none" xmlns="http://www.w3.org/2000/svg">
<g filter="url(#filter0_f_19_195)">
<circle cx="302.5" cy="431.5" r="131.5" fill="#8851F8"/>
</g>
<g filter="url(#filter1_f_19_195)">
<ellipse cx="118.5" cy="613" rx="131.5" ry="132" fill="#4226C3"/>
</g>
<g filter="url(#filter2_f_19_195)">
<ellipse cx="421.5" cy="627" rx="121.5" ry="122" fill="#F10160"/>
</g>
<g style="mix-blend-mode:overlay" opacity="0.3">
<path d="M286.649 427.597L224.963 485.364L252.267 435.025L286.649 427.597Z" stroke="#515153" stroke-width="0.5"/>
<path d="M286.649 427.597L324.373 501.353L224.963 485.364L286.649 427.597Z" stroke="#939598" stroke-width="0.5"/>
<path d="M286.648 427.597L340.425 447.398L324.372 501.353L286.648 427.597Z" stroke="#515153" stroke-width="0.5"/>
<path d="M337.176 458.321L326.97 492.621" stroke="white" stroke-width="2" stroke-linecap="round" stroke-linejoin="round"/>
<path d="M286.648 427.597L296.876 447.594" stroke="white" stroke-width="2" stroke-linecap="round" stroke-linejoin="round"/>
<path d="M272.427 440.918L286.649 427.597" stroke="white" stroke-width="2" stroke-linecap="round" stroke-linejoin="round"/>
<path d="M252.084 435.36L252.266 435.025L286.648 427.597L314.297 437.779" stroke="white" stroke-width="2" stroke-linecap="round" stroke-linejoin="round"/>
<path d="M139.59 456.529L142.43 456.671L217.984 486.9L139.59 456.529Z" stroke="#505153" stroke-width="0.5" stroke-linecap="round" stroke-linejoin="round"/>
<path d="M139.59 456.529L217.984 486.9L149.95 543.398L139.59 456.529Z" stroke="#747578" stroke-width="0.5" stroke-linecap="round" stroke-linejoin="round"/>
<path d="M139.59 456.529L149.95 543.398L70.5977 504.997L139.59 456.529Z" stroke="#747578" stroke-width="0.5" stroke-linecap="round" stroke-linejoin="round"/>
<path d="M123.68 530.684L70.5977 504.998" stroke="white" stroke-width="2" stroke-linecap="round" stroke-linejoin="round"/>
<path d="M70.5977 504.998L78.8343 499.212" stroke="white" stroke-width="2" stroke-linecap="round" stroke-linejoin="round"/>
<path d="M232.279 358.89L275.51 377.365L294.738 424.936L232.279 358.89Z" stroke="#515153" stroke-width="0.5" stroke-linecap="round" stroke-linejoin="round"/>
<path d="M232.28 358.89L294.739 424.936L184.542 433.703L232.28 358.89Z" stroke="#939598" stroke-width="0.5" stroke-linecap="round" stroke-linejoin="round"/>
<path d="M232.279 358.89L184.541 433.703L179.571 383.974L232.279 358.89Z" stroke="#747578" stroke-width="0.5" stroke-linecap="round" stroke-linejoin="round"/>
<path d="M294.739 424.936L184.542 433.704" stroke="white" stroke-width="2" stroke-linecap="round" stroke-linejoin="round"/>
<path d="M232.279 358.89L294.738 424.936" stroke="white" stroke-width="2" stroke-linecap="round" stroke-linejoin="round"/>
<path d="M184.542 433.703L232.28 358.89" stroke="white" stroke-width="2" stroke-linecap="round" stroke-linejoin="round"/>
<path d="M179.571 383.974L232.279 358.89L275.511 377.365L294.738 424.936" stroke="white" stroke-width="2" stroke-linecap="round" stroke-linejoin="round"/>
<path d="M184.541 433.703L179.571 383.974" stroke="white" stroke-width="2" stroke-linecap="round" stroke-linejoin="round"/>
<path d="M402.116 497.21L433.495 501.738L468.807 576.16L402.116 497.21Z" stroke="#515153" stroke-width="0.5" stroke-linecap="round" stroke-linejoin="round"/>
<path d="M402.116 497.21L347.68 580.595L329.696 504.983L402.116 497.21Z" stroke="#747578" stroke-width="0.5" stroke-linecap="round" stroke-linejoin="round"/>
<path d="M402.117 497.21L468.808 576.16L347.681 580.595L402.117 497.21Z" stroke="#939598" stroke-width="0.5" stroke-linecap="round" stroke-linejoin="round"/>
<path d="M402.116 497.21L414.916 512.361" stroke="white" stroke-width="2" stroke-linecap="round" stroke-linejoin="round"/>
<path d="M329.696 504.983L347.227 503.102" stroke="white" stroke-width="2" stroke-linecap="round" stroke-linejoin="round"/>
<path d="M389.87 498.524L402.114 497.21L433.493 501.738L447.109 530.434" stroke="white" stroke-width="2" stroke-linecap="round" stroke-linejoin="round"/>
<path d="M331.794 513.797L329.696 504.983" stroke="white" stroke-width="2" stroke-linecap="round" stroke-linejoin="round"/>
<path d="M468.806 576.16L461.439 576.43" stroke="white" stroke-width="2" stroke-linecap="round" stroke-linejoin="round"/>
<path d="M387.437 392.374L366.333 484.502L302.046 426.778L387.437 392.374Z" stroke="#747578" stroke-width="0.5" stroke-linecap="round" stroke-linejoin="round"/>
<path d="M387.437 392.374L463.933 453.123L366.333 484.502L387.437 392.374Z" stroke="#747578" stroke-width="0.5" stroke-linecap="round" stroke-linejoin="round"/>
<path d="M302.046 426.778L359.054 403.81" stroke="white" stroke-width="2" stroke-linecap="round" stroke-linejoin="round"/>
<path d="M416.654 468.321L366.333 484.502L302.046 426.778" stroke="white" stroke-width="2" stroke-linecap="round" stroke-linejoin="round"/>
<path d="M366.333 484.502L372.093 459.361" stroke="white" stroke-width="2" stroke-linecap="round" stroke-linejoin="round"/>
<path d="M169.121 286L254.173 346.681L144.45 374.654L169.121 286Z" stroke="#747578" stroke-width="0.5" stroke-linecap="round" stroke-linejoin="round"/>
<path d="M169.12 286L144.449 374.654L98.3213 333.407L169.12 286Z" stroke="#747578" stroke-width="0.5" stroke-linecap="round" stroke-linejoin="round"/>
<path d="M254.172 346.681L144.449 374.654L98.3213 333.407" stroke="white" stroke-width="2" stroke-linecap="round" stroke-linejoin="round"/>
<path d="M169.12 286L254.172 346.681" stroke="white" stroke-width="2" stroke-linecap="round" stroke-linejoin="round"/>
<path d="M144.45 374.654L169.121 286" stroke="white" stroke-width="2" stroke-linecap="round" stroke-linejoin="round"/>
<path d="M98.3213 333.407L169.12 286" stroke="white" stroke-width="2" stroke-linecap="round" stroke-linejoin="round"/>
<path d="M350.357 289.096L365.555 379.916L262.761 346.866L350.357 289.096Z" stroke="#747578" stroke-width="0.5" stroke-linecap="round" stroke-linejoin="round"/>
<path d="M350.356 289.096L425.498 340.201L365.554 379.916L350.356 289.096Z" stroke="#747578" stroke-width="0.5" stroke-linecap="round" stroke-linejoin="round"/>
<path d="M262.761 346.866L350.357 289.096" stroke="white" stroke-width="2" stroke-linecap="round" stroke-linejoin="round"/>
<path d="M350.356 289.096L365.554 379.916" stroke="white" stroke-width="2" stroke-linecap="round" stroke-linejoin="round"/>
<path d="M350.356 289.096L425.498 340.201" stroke="white" stroke-width="2" stroke-linecap="round" stroke-linejoin="round"/>
<path d="M425.499 340.201L365.555 379.916L262.761 346.866" stroke="white" stroke-width="2" stroke-linecap="round" stroke-linejoin="round"/>
<path d="M92.8348 414.156L16.6887 492.913L70.95 427.594L92.8348 414.156Z" stroke="#515153" stroke-width="0.5" stroke-linecap="round" stroke-linejoin="round"/>
<path d="M92.8369 414.156L178.103 436.703L141.847 505.603L92.8369 414.156Z" stroke="#515153" stroke-width="0.5" stroke-linecap="round" stroke-linejoin="round"/>
<path d="M92.8348 414.156L141.845 505.603L16.6887 492.913L92.8348 414.156Z" stroke="#939598" stroke-width="0.5" stroke-linecap="round" stroke-linejoin="round"/>
<path d="M141.845 505.603L16.689 492.913" stroke="white" stroke-width="2" stroke-linecap="round" stroke-linejoin="round"/>
<path d="M113.196 452.147L141.846 505.603" stroke="white" stroke-width="2" stroke-linecap="round" stroke-linejoin="round"/>
<path d="M16.689 492.913L47.4053 461.146" stroke="white" stroke-width="2" stroke-linecap="round" stroke-linejoin="round"/>
<path d="M16.689 492.913L42.5246 461.812" stroke="white" stroke-width="2" stroke-linecap="round" stroke-linejoin="round"/>
<path d="M151.043 429.55L178.101 436.703" stroke="white" stroke-width="2" stroke-linecap="round" stroke-linejoin="round"/>
<path d="M178.101 436.703L172.305 447.719" stroke="white" stroke-width="2" stroke-linecap="round" stroke-linejoin="round"/>
<path d="M115.781 568.614L149.095 549.002L216.181 618.465L115.781 568.614Z" stroke="white" stroke-width="0.5" stroke-linecap="round" stroke-linejoin="round"/>
<path d="M115.781 568.614L36.6707 603.545L149.094 549.002L115.781 568.614Z" stroke="#505153" stroke-width="0.5" stroke-linecap="round" stroke-linejoin="round"/>
<path d="M115.781 568.614L216.181 618.465L94.4055 690.742L115.781 568.614Z" stroke="#747578" stroke-width="0.5" stroke-linecap="round" stroke-linejoin="round"/>
<path d="M115.781 568.614L94.4054 690.742L36.6707 603.545L115.781 568.614Z" stroke="#747578" stroke-width="0.5" stroke-linecap="round" stroke-linejoin="round"/>
<path d="M94.4054 690.742L36.6707 603.545" stroke="white" stroke-width="2" stroke-linecap="round" stroke-linejoin="round"/>
<path d="M159.761 651.953L94.4055 690.742" stroke="white" stroke-width="2" stroke-linecap="round" stroke-linejoin="round"/>
<path d="M94.4055 690.742L105.478 627.475" stroke="white" stroke-width="2" stroke-linecap="round" stroke-linejoin="round"/>
<path d="M36.6707 603.545L54.5369 594.874" stroke="white" stroke-width="2" stroke-linecap="round" stroke-linejoin="round"/>
<path d="M36.6707 603.545L52.9373 596.363" stroke="white" stroke-width="2" stroke-linecap="round" stroke-linejoin="round"/>
<path d="M317.656 609.11L225.325 620.399L343.659 586.042L317.656 609.11Z" stroke="white" stroke-width="0.5" stroke-linecap="round" stroke-linejoin="round"/>
<path d="M317.656 609.11L343.66 586.042L412.42 686.691L317.656 609.11Z" stroke="#505153" stroke-width="0.5" stroke-linecap="round" stroke-linejoin="round"/>
<path d="M317.656 609.11L412.42 686.691L275.08 736.068L317.656 609.11Z" stroke="#747578" stroke-width="0.5" stroke-linecap="round" stroke-linejoin="round"/>
<path d="M317.655 609.11L275.079 736.068L225.325 620.399L317.655 609.11Z" stroke="#747578" stroke-width="0.5" stroke-linecap="round" stroke-linejoin="round"/>
<path d="M412.42 686.691L275.08 736.068" stroke="white" stroke-width="2" stroke-linecap="round" stroke-linejoin="round"/>
<path d="M275.08 736.069L317.656 609.11L336.787 592.138" stroke="white" stroke-width="2" stroke-linecap="round" stroke-linejoin="round"/>
<path d="M275.079 736.069L225.325 620.399" stroke="white" stroke-width="2" stroke-linecap="round" stroke-linejoin="round"/>
<path d="M225.325 620.399L332.508 589.281" stroke="white" stroke-width="2" stroke-linecap="round" stroke-linejoin="round"/>
<path d="M357.08 605.682L412.421 686.691" stroke="white" stroke-width="2" stroke-linecap="round" stroke-linejoin="round"/>
<path d="M225.325 620.399L317.655 609.11L412.419 686.691" stroke="white" stroke-width="2" stroke-linecap="round" stroke-linejoin="round"/>
<path d="M390.979 498.927L276.671 552.006L366.205 489.946L390.979 498.927Z" stroke="#515153" stroke-width="0.5" stroke-linecap="round" stroke-linejoin="round"/>
<path d="M390.978 498.927L486.006 552.266L401.523 635.355L390.978 498.927Z" stroke="#747578" stroke-width="0.5" stroke-linecap="round" stroke-linejoin="round"/>
<path d="M390.979 498.927L401.524 635.355L276.671 552.006L390.979 498.927Z" stroke="#939598" stroke-width="0.5" stroke-linecap="round" stroke-linejoin="round"/>
<path d="M390.977 498.927L401.522 635.355" stroke="white" stroke-width="2" stroke-linecap="round" stroke-linejoin="round"/>
<path d="M401.523 635.355L302.018 568.928" stroke="white" stroke-width="2" stroke-linecap="round" stroke-linejoin="round"/>
<path d="M486.005 552.266L401.522 635.355" stroke="white" stroke-width="2" stroke-linecap="round" stroke-linejoin="round"/>
<path d="M329.176 527.623L390.979 498.927" stroke="white" stroke-width="2" stroke-linecap="round" stroke-linejoin="round"/>
<path d="M328.452 516.113L366.204 489.946L390.978 498.927L486.006 552.266" stroke="white" stroke-width="2" stroke-linecap="round" stroke-linejoin="round"/>
<path d="M56.8801 354.479L139.578 378.53L154.84 446.45L56.8801 354.479Z" stroke="#505153" stroke-width="0.5" stroke-linecap="round" stroke-linejoin="round"/>
<path d="M56.8817 354.479L154.841 446.45L-15 469.682L56.8817 354.479Z" stroke="#939598" stroke-width="0.5" stroke-linecap="round" stroke-linejoin="round"/>
<path d="M56.8817 354.479L-15 469.682L0.294052 394.152L56.8817 354.479Z" stroke="#747578" stroke-width="0.5" stroke-linecap="round" stroke-linejoin="round"/>
<path d="M154.841 446.45L-15 469.682" stroke="white" stroke-width="2" stroke-linecap="round" stroke-linejoin="round"/>
<path d="M-15 469.682L56.8817 354.479" stroke="white" stroke-width="2" stroke-linecap="round" stroke-linejoin="round"/>
<path d="M56.8801 354.479L154.84 446.45" stroke="white" stroke-width="2" stroke-linecap="round" stroke-linejoin="round"/>
<path d="M-15 469.682L0.294052 394.152L56.8817 354.479L139.579 378.53" stroke="white" stroke-width="2" stroke-linecap="round" stroke-linejoin="round"/>
<path d="M139.58 378.53L154.842 446.45" stroke="white" stroke-width="2" stroke-linecap="round" stroke-linejoin="round"/>
<path d="M441.544 363.108L333.908 451.68L369.42 384.074L441.544 363.108Z" stroke="#515153" stroke-width="0.5" stroke-linecap="round" stroke-linejoin="round"/>
<path d="M441.545 363.108L510.965 407.205L504.449 485.981L441.545 363.108Z" stroke="#515153" stroke-width="0.5" stroke-linecap="round" stroke-linejoin="round"/>
<path d="M441.544 363.108L504.448 485.981L333.908 451.68L441.544 363.108Z" stroke="#939598" stroke-width="0.5" stroke-linecap="round" stroke-linejoin="round"/>
<path d="M504.448 485.98L333.908 451.68" stroke="white" stroke-width="2" stroke-linecap="round" stroke-linejoin="round"/>
<path d="M333.908 451.68L441.543 363.108" stroke="white" stroke-width="2" stroke-linecap="round" stroke-linejoin="round"/>
<path d="M441.545 363.108L504.449 485.981" stroke="white" stroke-width="2" stroke-linecap="round" stroke-linejoin="round"/>
<path d="M333.908 451.68L369.42 384.074L441.543 363.108L510.963 407.205" stroke="white" stroke-width="2" stroke-linecap="round" stroke-linejoin="round"/>
<path d="M153.604 522.123L144.861 511.015L266.063 553.138L153.604 522.123Z" stroke="#505153" stroke-width="0.5" stroke-linecap="round" stroke-linejoin="round"/>
<path d="M153.604 522.123L47.5576 601.354L144.862 511.015L153.604 522.123Z" stroke="#515153" stroke-width="0.5" stroke-linecap="round" stroke-linejoin="round"/>
<path d="M153.604 522.123L266.064 553.138L184.688 663.193L153.604 522.123Z" stroke="#515153" stroke-width="0.5" stroke-linecap="round" stroke-linejoin="round"/>
<path d="M153.604 522.123L184.688 663.193L47.5576 601.354L153.604 522.123Z" stroke="#939598" stroke-width="0.5" stroke-linecap="round" stroke-linejoin="round"/>
<path d="M184.688 663.193L47.5576 601.354" stroke="white" stroke-width="2" stroke-linecap="round" stroke-linejoin="round"/>
<path d="M47.5576 601.354L140.045 515.489" stroke="white" stroke-width="2" stroke-linecap="round" stroke-linejoin="round"/>
<path d="M255.693 567.164L184.688 663.193" stroke="white" stroke-width="2" stroke-linecap="round" stroke-linejoin="round"/>
<path d="M47.5576 601.354L132.086 538.197" stroke="white" stroke-width="2" stroke-linecap="round" stroke-linejoin="round"/>
<path d="M162.75 563.626L184.688 663.193" stroke="white" stroke-width="2" stroke-linecap="round" stroke-linejoin="round"/>
<path d="M233.681 430.337L123.701 562.141L162.854 450.398L233.681 430.337Z" stroke="#747578" stroke-width="0.5" stroke-linecap="round" stroke-linejoin="round"/>
<path d="M233.68 430.337L324.607 455.168L331.853 570.06L233.68 430.337Z" stroke="#515153" stroke-width="0.5" stroke-linecap="round" stroke-linejoin="round"/>
<path d="M233.681 430.337L331.854 570.06L123.701 562.141L233.681 430.337Z" stroke="#939598" stroke-width="0.5" stroke-linecap="round" stroke-linejoin="round"/>
<path d="M331.854 570.06L123.701 562.141" stroke="white" stroke-width="2" stroke-linecap="round" stroke-linejoin="round"/>
<path d="M123.701 562.141L233.681 430.337" stroke="white" stroke-width="2" stroke-linecap="round" stroke-linejoin="round"/>
<path d="M233.68 430.337L331.853 570.06" stroke="white" stroke-width="2" stroke-linecap="round" stroke-linejoin="round"/>
<path d="M123.701 562.141L162.854 450.398L233.681 430.337L324.608 455.168" stroke="white" stroke-width="2" stroke-linecap="round" stroke-linejoin="round"/>
<path d="M324.607 455.168L331.853 570.06" stroke="white" stroke-width="2" stroke-linecap="round" stroke-linejoin="round"/>
</g>
<defs>
<filter id="filter0_f_19_195" x="-129" y="0" width="863" height="863" filterUnits="userSpaceOnUse" color-interpolation-filters="sRGB">
<feFlood flood-opacity="0" result="BackgroundImageFix"/>
<feBlend mode="normal" in="SourceGraphic" in2="BackgroundImageFix" result="shape"/>
<feGaussianBlur stdDeviation="150" result="effect1_foregroundBlur_19_195"/>
</filter>
<filter id="filter1_f_19_195" x="-313" y="181" width="863" height="864" filterUnits="userSpaceOnUse" color-interpolation-filters="sRGB">
<feFlood flood-opacity="0" result="BackgroundImageFix"/>
<feBlend mode="normal" in="SourceGraphic" in2="BackgroundImageFix" result="shape"/>
<feGaussianBlur stdDeviation="150" result="effect1_foregroundBlur_19_195"/>
</filter>
<filter id="filter2_f_19_195" x="0" y="205" width="843" height="844" filterUnits="userSpaceOnUse" color-interpolation-filters="sRGB">
<feFlood flood-opacity="0" result="BackgroundImageFix"/>
<feBlend mode="normal" in="SourceGraphic" in2="BackgroundImageFix" result="shape"/>
<feGaussianBlur stdDeviation="150" result="effect1_foregroundBlur_19_195"/>
</filter>
</defs>
</svg>
