<svg width="60" height="82" viewBox="0 0 60 82" fill="none" xmlns="http://www.w3.org/2000/svg"><path d="M8.484 62.234h-2v17.032h51.391V62.234h-15.89V4.472L43.22 2h-3.236c-2.947 0-5.91.16-8.885.48h-.003a66.077 66.077 0 00-8.886 1.593 57.058 57.058 0 00-8.78 2.91A57.461 57.461 0 004.936 11.4l-1.78 1.118 1.205 1.722 7.313 10.453 1.145 1.637 1.638-1.143a25.857 25.857 0 015.088-2.738 39.927 39.927 0 013.58-1.237v41.022H8.485z" stroke="url(#paint0_linear_1_14930)" stroke-width="4"/><defs><linearGradient id="paint0_linear_1_14930" x1="30.938" y1="4" x2="30.938" y2="77.266" gradientUnits="userSpaceOnUse"><stop stop-color="#7231FF"/><stop offset="1" stop-color="#7231FF" stop-opacity="0"/></linearGradient></defs></svg>