<svg width="66" height="75" viewBox="0 0 66 75" fill="none" xmlns="http://www.w3.org/2000/svg"><path d="M2.313 62.25L.05 58.952l-1.738 1.191v2.107h4zM28.14 44.531l-2.262-3.299h-.001l2.263 3.3zm15.328-12.187l2.946 2.705.014-.014.013-.015-2.973-2.676zm0-15.282l-2.4 3.2.019.015.019.014 2.362-3.229zm-4.875-2.203l-1.042 3.862.007.002.008.002 1.027-3.866zM7.422 21.141L4.005 23.22l2.063 3.392 3.408-2.04-2.054-3.431zM.578 9.89l-2.105-3.4-3.375 2.089 2.063 3.39L.578 9.892zm14.906-6.657L14.347-.6l-.006.002 1.143 3.833zm30.328-.515l-1.255 3.798.019.006.018.006 1.218-3.81zm9.422 5.015l-2.61 3.032.01.008.01.008 2.59-3.048zm-6.328 37.922l2.482 3.138.003-.003-2.485-3.135zm-13.031 9.282l2.199 3.341.006-.004-2.205-3.337zm-10.688 7.03l-2.198-3.34-11.16 7.34h13.358v-4zm40.126 0h4v-4h-4v4zm0 13.032v4h4v-4h-4zm-63 0h-4v4h4v-4zm2.262-9.452L30.403 47.83l-4.525-6.597L.05 58.952l4.525 6.596zM30.402 47.83c3.92-2.687 7.177-5.059 9.748-7.109l-4.988-6.255c-2.366 1.888-5.453 4.14-9.283 6.766l4.523 6.599zm9.748-7.109c2.557-2.039 4.667-3.932 6.265-5.672l-5.892-5.41c-1.215 1.322-2.98 2.929-5.36 4.827l4.987 6.255zm6.292-5.701c1.558-1.732 2.842-3.514 3.614-5.33l-7.362-3.13c-.29.684-.944 1.714-2.198 3.108l5.946 5.352zm3.614-5.33c.724-1.702 1.116-3.482 1.116-5.315h-8c0 .667-.139 1.387-.478 2.185l7.362 3.13zm1.116-5.315c0-2.008-.42-3.94-1.278-5.747l-7.226 3.432c.33.693.504 1.448.504 2.315h8zm-1.278-5.747c-.918-1.934-2.325-3.522-4.063-4.794l-4.724 6.457c.825.603 1.292 1.202 1.561 1.769l7.226-3.432zm-4.025-4.765c-1.77-1.328-3.904-2.247-6.248-2.87l-2.054 7.732c1.656.44 2.772.99 3.502 1.537l4.8-6.4zm-6.233-2.865c-2.403-.649-5.132-.935-8.12-.935v8c2.511 0 4.501.244 6.036.658l2.084-7.723zm-8.12-.935c-4.38 0-8.732.616-13.044 1.839l2.181 7.696c3.625-1.027 7.243-1.535 10.863-1.535v-8zm-13.044 1.839c-4.357 1.235-8.726 3.186-13.104 5.806l4.108 6.865c3.872-2.317 7.597-3.96 11.177-4.975l-2.181-7.696zm-7.633 7.16L3.995 7.812l-6.834 4.157 6.844 11.25 6.834-4.157zm-8.155-5.77c4.283-2.652 8.927-4.728 13.944-6.224L14.34-.6C8.67 1.093 3.376 3.454-1.527 6.49l4.21 6.802zm13.938-6.223c4.986-1.478 10.242-2.225 15.784-2.225v-8c-6.27 0-12.295.846-18.059 2.555l2.275 7.67zm15.784-2.225c4.849 0 8.874.59 12.151 1.673l2.511-7.596c-4.285-1.417-9.198-2.077-14.662-2.077v8zm12.188 1.685c3.415 1.091 6.05 2.533 8.03 4.237l5.22-6.063C54.886 2.157 51.24.255 47.03-1.091l-2.437 7.62zm8.05 4.253c2.067 1.757 3.54 3.738 4.498 5.95l7.34-3.182c-1.478-3.413-3.724-6.37-6.657-8.863l-5.181 6.095zm4.498 5.95c.995 2.294 1.499 4.736 1.499 7.362h8c0-3.687-.716-7.214-2.158-10.544l-7.34 3.181zm1.499 7.362c0 1.983-.33 3.845-.975 5.609l7.512 2.75a24.149 24.149 0 001.463-8.36h-8zm-.975 5.609c-.605 1.652-1.734 3.543-3.55 5.666l6.08 5.2c2.247-2.627 3.962-5.33 4.982-8.115l-7.512-2.751zm-3.55 5.666c-1.81 2.117-4.352 4.502-7.695 7.153l4.97 6.269c3.595-2.85 6.553-5.59 8.805-8.222l-6.08-5.2zm-7.691 7.15c-3.32 2.625-7.563 5.65-12.755 9.081l4.41 6.675c5.308-3.507 9.752-6.67 13.308-9.481l-4.963-6.275zm-12.748 9.077l-10.688 7.031 4.397 6.683 10.688-7.03-4.398-6.684zm-8.49 14.373h40.126v-8H25.187v8zm36.126-4V75h8V61.969h-8zm4 9.031h-63v8h63v-8zm-59 4V62.25h-8V75h8z" fill="url(#paint0_linear_1_14933)"/><defs><linearGradient id="paint0_linear_1_14933" x1="32.5" y1="-3" x2="32.5" y2="83" gradientUnits="userSpaceOnUse"><stop stop-color="#7231FF"/><stop offset="1" stop-color="#7231FF" stop-opacity="0"/></linearGradient></defs></svg>