<svg width="67" height="75" viewBox="0 0 67 75" fill="none" xmlns="http://www.w3.org/2000/svg"><path d="M6.984 56.563l1.765-3.59-3.282-1.613-1.9 3.124 3.417 2.078zm11.813 3.984l-.79 3.921.017.004.016.003.757-3.928zm21.562.375l.848 3.909.023-.005.022-.005-.893-3.9zm9.188-16.172l-3.041 2.599.012.013.012.014 3.017-2.626zm-6.703-3.844l-1.131 3.837.024.007.024.007 1.083-3.85zm-11.297-1.031l-.164-3.997h-.002l.166 3.997zm-16.031 2.672l-4-.017-.023 5.19 5.025-1.3-1.002-3.873zm.046-10.969l-2.181-3.353-1.81 1.178-.008 2.158 4 .017zm27.376-17.812l2.181 3.352 11.3-7.352H42.938v4zm-38.766 0h-4v4h4v-4zm0-13.032v-4h-4v4h4zm58.64 0h4v-4h-4v4zm0 12.75l2.143 3.378 1.858-1.178v-2.2h-4zM38.72 28.766l-2.143-3.378-11.632 7.378H38.72v-4zm25.453 31.968l-3.517-1.905-.004.007-.003.006 3.524 1.892zm-6.984 7.641l2.257 3.302.011-.008.012-.008-2.28-3.286zm-11.25 4.875l-1.01-3.87-.006.001 1.016 3.869zm-31.454-.14l-.987 3.876.012.002.01.003.965-3.882zM.141 67.812l-3.418-2.08-2.265 3.724 3.904 1.938L.14 67.813zm5.079-7.66c4.009 1.97 8.275 3.406 12.787 4.315l1.58-7.842c-3.863-.779-7.472-1.999-10.838-3.653l-3.53 7.18zm12.82 4.322c4.45.857 8.813 1.29 13.085 1.29v-8c-3.728 0-7.584-.378-11.572-1.146l-1.513 7.856zm13.085 1.29c3.757 0 7.134-.295 10.082-.934l-1.695-7.818c-2.24.485-5.02.753-8.387.753v8zm10.127-.944c2.864-.656 5.423-1.577 7.569-2.849l-4.079-6.882c-1.23.729-2.951 1.4-5.275 1.933l1.785 7.798zm7.569-2.849c2.135-1.265 3.93-2.896 5.154-4.968l-6.888-4.07c-.4.677-1.106 1.422-2.345 2.156l4.079 6.882zm5.154-4.968a12.602 12.602 0 001.775-6.488h-8c0 .876-.213 1.658-.663 2.418l6.888 4.07zm1.775-6.488c0-3.16-1.11-6.006-3.186-8.392l-6.034 5.252c.86.99 1.22 1.988 1.22 3.14h8zm-3.162-8.365c-2.144-2.509-5.179-4.116-8.661-5.095l-2.166 7.7c2.517.709 3.951 1.664 4.745 2.593l6.082-5.198zm-8.613-5.082c-3.538-1.042-7.78-1.388-12.592-1.19l.328 7.993c4.313-.178 7.602.164 10.002.871l2.262-7.674zM31.38 35.88c-4.9.202-10.538 1.157-16.868 2.796l2.005 7.744c5.983-1.549 11.033-2.375 15.194-2.547l-.33-7.994zm-11.865 6.685l.047-10.969-8-.034-.047 10.969 8 .034zm-1.772-7.633L45.12 17.118l-4.363-6.705L13.38 28.225l4.363 6.706zM42.938 9.766H4.172v8h38.766v-8zm-34.766 4V.734h-8v13.032h8zm-4-9.032h58.64v-8H4.172v8zm54.64-4v12.75h8V.734h-8zm1.858 9.373l-24.094 15.28 4.285 6.757 24.094-15.282-4.285-6.755zM38.72 32.766c4.071 0 7.581.52 10.578 1.492l2.468-7.61c-3.94-1.278-8.305-1.882-13.046-1.882v8zm10.578 1.492c3.074.997 5.526 2.323 7.447 3.915l5.106-6.159c-2.83-2.345-6.22-4.113-10.085-5.366l-2.468 7.61zm7.447 3.915c1.937 1.606 3.374 3.465 4.364 5.592l7.253-3.374c-1.51-3.247-3.699-6.045-6.511-8.377l-5.106 6.16zm4.364 5.592c.993 2.136 1.501 4.448 1.501 6.985h8c0-3.65-.741-7.12-2.248-10.359l-7.254 3.374zm1.501 6.985c0 3.04-.669 5.706-1.954 8.08l7.034 3.81c1.965-3.627 2.92-7.617 2.92-11.89h-8zm-1.961 8.092c-1.265 2.356-3.141 4.443-5.74 6.247l4.56 6.572c3.525-2.446 6.305-5.452 8.228-9.035l-7.048-3.784zm-5.718 6.23c-2.604 1.781-5.908 3.24-10.001 4.307l2.017 7.742c4.782-1.246 8.978-3.037 12.499-5.444l-4.515-6.604zm-10.008 4.309c-4.01 1.052-8.659 1.603-13.984 1.603v8c5.861 0 11.212-.605 16.015-1.865l-2.03-7.738zm-13.984 1.603c-5.659 0-10.815-.595-15.49-1.757l-1.928 7.764c5.388 1.34 11.2 1.993 17.418 1.993v-8zm-15.466-1.75A68.227 68.227 0 011.92 64.23l-3.558 7.165a76.23 76.23 0 0015.135 5.59l1.975-7.752zm-11.914.657l6.844-11.25-6.835-4.157-6.844 11.25 6.835 4.157z" fill="url(#paint0_linear_1_11342)"/><defs><linearGradient id="paint0_linear_1_11342" x1="34.5" y1="-4" x2="34.5" y2="82" gradientUnits="userSpaceOnUse"><stop stop-color="#7231FF"/><stop offset="1" stop-color="#7231FF" stop-opacity="0"/></linearGradient></defs></svg>