<svg width="75" height="74" viewBox="0 0 75 74" fill="none" xmlns="http://www.w3.org/2000/svg"><path d="M.953 45.313L-1.93 42.54l-1.104 1.149-.012 1.594 4 .029zM43.797.733v-4h-1.704l-1.18 1.229L43.797.734zm14.86 0h4v-4h-4v4zm0 44.578h-4v4h4v-4zm15.796 0h4v-4h-4v4zm0 13.032v4h4v-4h-4zm-15.797 0v-4h-4v4h4zm0 15.656v4h4v-4h-4zm-14.86 0h-4v4h4v-4zm0-15.656h4v-4h-4v4zm-42.937 0l-4-.029-.029 4.029H.86v-4zm42.938-13.032v4h4v-4h-4zm0-25.78h4V9.668l-6.87 7.076 2.87 2.786zm-25.031 25.78l-2.87-2.786-6.59 6.786h9.46v-4zM3.837 48.084L46.681 3.506l-5.768-5.543L-1.931 42.54l5.768 5.543zm39.96-43.35h14.86v-8h-14.86v8zm10.86-4v44.578h8V.734h-8zm4 48.578h15.796v-8H58.656v8zm11.796-4v13.032h8V45.312h-8zm4 9.032H58.656v8h15.797v-8zm-19.797 4V74h8V58.344h-8zm4 11.656h-14.86v8h14.86v-8zm-10.86 4V58.344h-8V74h8zm-4-19.656H.86v8h42.938v-8zM4.86 58.373l.094-13.032-8-.057-.094 13.031 8 .058zm42.938-13.06V19.53h-8v25.782h8zm-6.87-28.568L15.896 42.526l5.74 5.573 25.03-25.781-5.739-5.573zM18.766 49.312h25.03v-8h-25.03v8z" fill="url(#paint0_linear_1_14939)"/><defs><linearGradient id="paint0_linear_1_14939" x1="36" y1="-4" x2="36" y2="82" gradientUnits="userSpaceOnUse"><stop stop-color="#7231FF"/><stop offset="1" stop-color="#7231FF" stop-opacity="0"/></linearGradient></defs></svg>