<svg width="70" height="75" viewBox="0 0 70 75" fill="none" xmlns="http://www.w3.org/2000/svg"><path d="M7.422 56.563l1.814-3.566-3.305-1.68-1.926 3.167 3.417 2.078zm5.766 2.343l-1.213 3.812.034.01.034.011 1.145-3.833zm6.421 1.594l-.784 3.922.01.002.774-3.924zm6.657.984l-.393 3.981.03.003.03.003.333-3.987zm16.265-.515l.767 3.925.018-.003.017-.003-.802-3.92zm6.75-2.344l-1.958-3.488-.013.008-.013.007 1.984 3.473zm3.938-3.563l-3.397-2.113-.006.01-.007.011 3.41 2.093zm-.047-9.374l-3.417 2.08.016.026.017.027 3.384-2.133zm-3.984-3.704l-2.031 3.447.013.007.013.008 2.005-3.462zm-6.657-2.39l-.872 3.903.026.006.027.006.82-3.915zm-14.718-.657l.249 3.993.031-.002.031-.003-.311-3.987zm-13.407 1.97l.852 3.908.024-.006.024-.005-.9-3.898zM7 42.874H3v5.44l5.193-1.622L7 42.875zM7 .735v-4H3v4h4zm56.203 0h4v-4h-4v4zm0 13.171v4h4v-4h-4zm-42.469 0v-4h-4v4h4zm0 14.203h-4v5.008l4.885-1.107-.885-3.9zm7.36-1.312l.532 3.964.023-.003.024-.003-.58-3.958zm32.672 5.953l-2.406 3.196.008.006.009.007 2.389-3.209zm6.422 7.594l-3.586 1.773.004.008.004.008 3.578-1.79zM67 60.5l-3.548-1.846-.004.006-.003.007L67 60.5zm-6.984 7.781L57.728 65l-.007.005-.008.006 2.303 3.27zM48.672 73.25l-.996-3.874-.006.001 1.002 3.873zm-24.375 1.219l.46-3.974-.019-.002-.018-.002-.423 3.978zm-8.578-1.36l-.877 3.903.02.005.022.004.835-3.912zm-8.016-2.25l-1.348 3.766.028.01.028.01 1.292-3.786zM.578 67.813l-3.417-2.08-2.246 3.693 3.854 1.954 1.81-3.567zm5.03-7.685a42.308 42.308 0 006.367 2.59l2.425-7.624a34.302 34.302 0 01-5.164-2.097l-3.628 7.13zm6.435 2.611a75.354 75.354 0 006.782 1.683l1.569-7.844a67.4 67.4 0 01-6.062-1.505l-2.289 7.666zm6.793 1.685c2.343.462 4.689.81 7.037 1.041l.785-7.961a65.82 65.82 0 01-6.275-.928l-1.547 7.848zm7.097 1.047c2.354.196 4.653.295 6.895.295v-8c-2.007 0-4.084-.089-6.23-.268l-.665 7.973zm6.895.295c3.924 0 7.428-.277 10.47-.872l-1.534-7.851c-2.395.468-5.36.723-8.936.723v8zm10.505-.878c3.015-.617 5.702-1.515 7.933-2.79l-3.97-6.946c-1.268.725-3.081 1.39-5.566 1.898l1.603 7.838zm7.906-2.775c2.221-1.247 4.106-2.867 5.389-4.958l-6.819-4.185c-.404.659-1.144 1.414-2.486 2.167l3.916 6.976zm5.376-4.937c1.277-2.053 1.916-4.334 1.916-6.754h-8c0 .955-.236 1.768-.709 2.527l6.793 4.227zm1.916-6.754c0-2.465-.662-4.784-1.975-6.868l-6.768 4.267a4.7 4.7 0 01.743 2.6h8zm-1.942-6.814c-1.293-2.123-3.165-3.793-5.397-5.085l-4.009 6.923c1.33.77 2.114 1.57 2.572 2.321l6.834-4.16zm-5.37-5.07c-2.232-1.315-4.894-2.237-7.868-2.86l-1.64 7.83c2.402.503 4.177 1.175 5.446 1.922l4.061-6.892zm-7.815-2.848c-3.015-.674-6.43-.987-10.2-.987v8c3.353 0 6.157.28 8.455.794l1.745-7.807zm-10.2-.987c-1.721 0-3.625.084-5.703.247l.623 7.975a65.889 65.889 0 015.08-.222v-8zm-5.641.242a88.98 88.98 0 00-6.676.687l1.1 7.924c2.164-.3 4.188-.508 6.075-.626l-.499-7.985zm-6.676.687c-2.378.33-4.839.79-7.38 1.377l1.799 7.795a76.697 76.697 0 016.682-1.248l-1.1-7.924zm-7.332 1.366a90.784 90.784 0 00-7.748 2.06l2.386 7.635a82.862 82.862 0 017.065-1.878l-1.703-7.817zM11 42.875V.735H3v42.14h8zM7 4.735h56.203v-8H7v8zm52.203-4v13.171h8V.734h-8zm4 9.171H20.734v8h42.47v-8zm-46.469 4V28.11h8V13.906h-8zM21.62 32.01a79.55 79.55 0 017.007-1.249l-1.064-7.929a87.549 87.549 0 00-7.712 1.376l1.769 7.802zm7.054-1.255c2.335-.342 4.996-.52 7.999-.52v-8c-3.31 0-6.367.196-9.157.604l1.158 7.916zm7.999-.52c4.873 0 9.113.532 12.76 1.542l2.136-7.71c-4.478-1.24-9.456-1.833-14.896-1.833v8zm12.76 1.542c3.679 1.018 6.622 2.433 8.928 4.169l4.811-6.392c-3.256-2.451-7.157-4.256-11.603-5.487l-2.136 7.71zm8.945 4.181c2.337 1.74 4.053 3.79 5.225 6.16l7.17-3.548c-1.764-3.568-4.33-6.58-7.618-9.029l-4.777 6.418zm5.233 6.175c1.16 2.321 1.78 4.995 1.78 8.101h8c0-4.206-.848-8.126-2.625-11.68l-7.155 3.579zm1.78 8.101c0 3.201-.669 5.98-1.938 8.42l7.096 3.692c1.918-3.685 2.843-7.75 2.843-12.112h-8zm-1.945 8.433c-1.234 2.393-3.1 4.509-5.717 6.333l4.575 6.563c3.57-2.489 6.36-5.56 8.252-9.23l-7.11-3.666zm-5.732 6.344c-2.585 1.82-5.897 3.301-10.037 4.365l1.991 7.748c4.86-1.249 9.11-3.08 12.651-5.572l-4.605-6.541zM47.67 69.378c-4.07 1.053-8.863 1.606-14.42 1.606v8c6.068 0 11.556-.602 16.424-1.861l-2.004-7.746zm-14.42 1.606c-2.847 0-5.678-.163-8.493-.489l-.92 7.947a81.66 81.66 0 009.413.542v-8zm-8.53-.493a79.258 79.258 0 01-8.166-1.293l-1.67 7.823a87.229 87.229 0 008.99 1.425l.846-7.955zm-8.124-1.284a73.112 73.112 0 01-7.6-2.133l-2.585 7.57a81.1 81.1 0 008.43 2.368l1.755-7.805zM9.05 67.094a57.842 57.842 0 01-6.664-2.85L-1.23 71.38a65.807 65.807 0 007.586 3.245l2.696-7.531zM3.995 69.89l6.844-11.25-6.834-4.157-6.844 11.25 6.834 4.157z" fill="url(#paint0_linear_1_14942)"/><defs><linearGradient id="paint0_linear_1_14942" x1="35.5" y1="-4" x2="35.5" y2="82" gradientUnits="userSpaceOnUse"><stop stop-color="#7231FF"/><stop offset="1" stop-color="#7231FF" stop-opacity="0"/></linearGradient></defs></svg>