<svg width="1844" height="558" viewBox="0 0 1844 558" fill="none" xmlns="http://www.w3.org/2000/svg"><g style="mix-blend-mode:overlay"><path d="M278.256 176.272l-75.92 71.097 33.604-61.955 42.316-9.142z" stroke="#515153" stroke-width=".681"/><path d="M278.256 176.272l46.429 90.775-122.349-19.678 75.92-71.097z" stroke="#939598" stroke-width=".681"/><path d="M278.256 176.272l66.186 24.37-19.758 66.405-46.428-90.775z" stroke="#515153" stroke-width=".681"/><path d="M340.443 214.085L327.881 256.3m-49.626-80.028l12.588 24.611m-30.09-8.217l17.504-16.394m-42.541 9.554l.223-.412 42.316-9.142 34.029 12.531" stroke="#fff" stroke-width="2.722" stroke-linecap="round" stroke-linejoin="round"/><path d="M97.261 211.879l3.495.176 92.989 37.203-96.484-37.379z" stroke="#505153" stroke-width=".681" stroke-linecap="round" stroke-linejoin="round"/><path d="M97.261 211.879l96.484 37.379-83.733 69.536-12.75-106.915z" stroke="#747578" stroke-width=".681" stroke-linecap="round" stroke-linejoin="round"/><path d="M97.261 211.879l12.751 106.915-97.664-47.262 84.913-59.653z" stroke="#747578" stroke-width=".681" stroke-linecap="round" stroke-linejoin="round"/><path d="M77.68 303.145l-65.331-31.613m-.001 0l10.138-7.121" stroke="#fff" stroke-width="2.722" stroke-linecap="round" stroke-linejoin="round"/><path d="M211.34 91.71l53.208 22.738 23.664 58.548-76.872-81.287z" stroke="#515153" stroke-width=".681" stroke-linecap="round" stroke-linejoin="round"/><path d="M211.339 91.71l76.872 81.286-135.626 10.791 58.754-92.078z" stroke="#939598" stroke-width=".681" stroke-linecap="round" stroke-linejoin="round"/><path d="M211.341 91.71l-58.754 92.077-6.117-61.205 64.871-30.872z" stroke="#747578" stroke-width=".681" stroke-linecap="round" stroke-linejoin="round"/><path d="M288.211 172.996l-135.626 10.791M211.34 91.71l76.872 81.286m-135.627 10.791l58.754-92.078m-64.869 30.873l64.871-30.872 53.207 22.738 23.664 58.548m-135.625 10.79l-6.117-61.205" stroke="#fff" stroke-width="2.722" stroke-linecap="round" stroke-linejoin="round"/><path d="M420.365 261.947l38.62 5.573 43.46 91.595-82.08-97.168z" stroke="#515153" stroke-width=".681" stroke-linecap="round" stroke-linejoin="round"/><path d="M420.366 261.947l-66.997 102.627-22.134-93.059 89.131-9.568z" stroke="#747578" stroke-width=".681" stroke-linecap="round" stroke-linejoin="round"/><path d="M420.366 261.947l82.08 97.168-149.077 5.459 66.997-102.627z" stroke="#939598" stroke-width=".681" stroke-linecap="round" stroke-linejoin="round"/><path d="M420.365 261.947l15.754 18.648m-104.884-9.08l21.577-2.316m52.484-5.634l15.07-1.618 38.619 5.573 16.758 35.318m-141.926-20.476l-2.582-10.847m171.211 87.6l-9.068.334" stroke="#fff" stroke-width="2.722" stroke-linecap="round" stroke-linejoin="round"/><path d="M402.3 132.921l-25.975 113.386-79.12-71.044L402.3 132.921z" stroke="#747578" stroke-width=".681" stroke-linecap="round" stroke-linejoin="round"/><path d="M402.299 132.92l94.147 74.767-120.122 38.62 25.975-113.387z" stroke="#747578" stroke-width=".681" stroke-linecap="round" stroke-linejoin="round"/><path d="M297.205 175.263l70.162-28.268m70.891 79.397l-61.933 19.915-79.12-71.044m79.119 71.044l7.09-30.942" stroke="#fff" stroke-width="2.722" stroke-linecap="round" stroke-linejoin="round"/><path d="M133.606 2l104.679 74.683-135.042 34.429L133.606 2z" stroke="#747578" stroke-width=".681" stroke-linecap="round" stroke-linejoin="round"/><path d="M133.606 2l-30.363 109.112-56.772-50.766L133.606 2z" stroke="#747578" stroke-width=".681" stroke-linecap="round" stroke-linejoin="round"/><path d="M238.285 76.684l-135.043 34.428L46.47 60.347M133.606 2l104.679 74.683m-135.042 34.429L133.606 2M46.47 60.346L133.606 2" stroke="#fff" stroke-width="2.722" stroke-linecap="round" stroke-linejoin="round"/><path d="M356.667 5.81l18.705 111.778-126.514-40.676L356.667 5.81z" stroke="#747578" stroke-width=".681" stroke-linecap="round" stroke-linejoin="round"/><path d="M356.667 5.81l92.48 62.898-73.775 48.88L356.667 5.81z" stroke="#747578" stroke-width=".681" stroke-linecap="round" stroke-linejoin="round"/><path d="M248.858 76.912L356.667 5.81m0 0l18.705 111.778M356.667 5.81l92.48 62.898m.001 0l-73.776 48.88-126.514-40.677" stroke="#fff" stroke-width="2.722" stroke-linecap="round" stroke-linejoin="round"/><path d="M39.72 159.729l-93.717 96.931 66.782-80.393 26.935-16.538z" stroke="#515153" stroke-width=".681" stroke-linecap="round" stroke-linejoin="round"/><path d="M39.72 159.729l104.941 27.75-44.622 84.799-60.32-112.549z" stroke="#515153" stroke-width=".681" stroke-linecap="round" stroke-linejoin="round"/><path d="M39.72 159.729l60.319 112.549-154.036-15.618 93.717-96.931z" stroke="#939598" stroke-width=".681" stroke-linecap="round" stroke-linejoin="round"/><path d="M100.039 272.277l-154.036-15.618m118.775-50.173l35.261 65.791m11.321-93.603l33.302 8.804m0 .001l-7.134 13.557" stroke="#fff" stroke-width="2.722" stroke-linecap="round" stroke-linejoin="round"/><path d="M67.962 349.828l41.001-24.137 82.567 85.491-123.568-61.354z" stroke="#fff" stroke-width=".681" stroke-linecap="round" stroke-linejoin="round"/><path d="M67.961 349.828l-97.365 42.992 138.366-67.129-41.001 24.137z" stroke="#505153" stroke-width=".681" stroke-linecap="round" stroke-linejoin="round"/><path d="M67.96 349.828l123.568 61.354-149.876 88.956 26.308-150.31z" stroke="#747578" stroke-width=".681" stroke-linecap="round" stroke-linejoin="round"/><path d="M67.96 349.828l-26.307 150.31-71.057-107.318 97.365-42.992z" stroke="#747578" stroke-width=".681" stroke-linecap="round" stroke-linejoin="round"/><path d="M41.653 500.138L-29.404 392.82m151.492 59.579l-80.436 47.739m0 0l13.628-77.867" stroke="#fff" stroke-width="2.722" stroke-linecap="round" stroke-linejoin="round"/><path d="M316.416 399.669L202.78 413.563l145.639-42.285-32.003 28.391z" stroke="#fff" stroke-width=".681" stroke-linecap="round" stroke-linejoin="round"/><path d="M316.415 399.669l32.004-28.391 84.627 123.875-116.631-95.484z" stroke="#505153" stroke-width=".681" stroke-linecap="round" stroke-linejoin="round"/><path d="M316.416 399.669l116.631 95.484-169.032 60.771 52.401-156.255z" stroke="#747578" stroke-width=".681" stroke-linecap="round" stroke-linejoin="round"/><path d="M316.416 399.669l-52.401 156.255-61.236-142.361 113.637-13.894z" stroke="#747578" stroke-width=".681" stroke-linecap="round" stroke-linejoin="round"/><path d="M433.047 495.152l-169.032 60.771m0 0l52.401-156.255 23.546-20.888m-75.947 177.143l-61.236-142.36m.001 0l131.916-38.299m30.241 20.186l68.111 99.702" stroke="#fff" stroke-width="2.722" stroke-linecap="round" stroke-linejoin="round"/><path d="M202.779 413.563l113.637-13.895 116.631 95.484" stroke="#fff" stroke-width="2.722" stroke-linecap="round" stroke-linejoin="round"/><path d="M406.659 264.061l-140.685 65.326 110.195-76.38 30.49 11.054z" stroke="#515153" stroke-width=".681" stroke-linecap="round" stroke-linejoin="round"/><path d="M406.658 264.061l116.956 65.646L419.637 431.97l-12.979-167.909z" stroke="#747578" stroke-width=".681" stroke-linecap="round" stroke-linejoin="round"/><path d="M406.659 264.061l12.979 167.909-153.664-102.583 140.685-65.326z" stroke="#939598" stroke-width=".681" stroke-linecap="round" stroke-linejoin="round"/><path d="M406.658 264.061l12.979 167.909m.001 0l-122.467-81.756m226.445-20.507L419.639 431.97m-89.045-132.591l76.065-35.318m-76.954 21.151l46.464-32.205 30.49 11.054 116.956 65.646" stroke="#fff" stroke-width="2.722" stroke-linecap="round" stroke-linejoin="round"/><path d="M-4.531 86.281l101.78 29.601 18.784 83.593L-4.531 86.281z" stroke="#505153" stroke-width=".681" stroke-linecap="round" stroke-linejoin="round"/><path d="M-4.531 86.281l120.564 113.194L-93 228.067-4.531 86.281z" stroke="#939598" stroke-width=".681" stroke-linecap="round" stroke-linejoin="round"/><path d="M116.033 199.475L-93 228.067M-4.531 86.281l120.564 113.194M-93 228.067l18.823-92.958L-4.53 86.281l101.78 29.601m0 0l18.783 83.593" stroke="#fff" stroke-width="2.722" stroke-linecap="round" stroke-linejoin="round"/><path d="M468.896 96.901L336.423 205.912l43.706-83.207 88.767-25.804zm0 0l85.439 54.273-8.02 96.953-77.419-151.226z" stroke="#515153" stroke-width=".681" stroke-linecap="round" stroke-linejoin="round"/><path d="M468.896 96.901l77.42 151.226-209.893-42.215 132.473-109.01z" stroke="#939598" stroke-width=".681" stroke-linecap="round" stroke-linejoin="round"/><path d="M546.315 248.127l-209.893-42.215m.001 0l132.472-109.01m.001-.001l77.419 151.226m8.019-96.953l-8.02 96.953m-209.891-42.215l43.706-83.207 88.766-25.804 85.439 54.273" stroke="#fff" stroke-width="2.722" stroke-linecap="round" stroke-linejoin="round"/><path d="M114.511 292.609l-10.76-13.671 149.169 51.843-138.409-38.172z" stroke="#505153" stroke-width=".681" stroke-linecap="round" stroke-linejoin="round"/><path d="M114.51 292.609l-130.517 97.514 119.758-111.185 10.759 13.671zm.001 0l138.41 38.172-100.154 135.45-38.256-173.622z" stroke="#515153" stroke-width=".681" stroke-linecap="round" stroke-linejoin="round"/><path d="M114.51 292.609l38.256 173.622-168.773-76.108 130.517-97.514z" stroke="#939598" stroke-width=".681" stroke-linecap="round" stroke-linejoin="round"/><path d="M152.766 466.231l-168.773-76.108m0 0l113.83-105.678m142.334 63.599l-87.39 118.188m-168.774-76.109l104.034-77.731m37.739 31.298l27 122.541" stroke="#fff" stroke-width="2.722" stroke-linecap="round" stroke-linejoin="round"/><path d="M213.063 179.644L77.706 341.862l48.187-137.529 87.17-24.689z" stroke="#747578" stroke-width=".681" stroke-linecap="round" stroke-linejoin="round"/><path d="M213.063 179.643l111.909 30.561 8.918 141.405-120.827-171.966z" stroke="#515153" stroke-width=".681" stroke-linecap="round" stroke-linejoin="round"/><path d="M213.063 179.644l120.828 171.965-256.185-9.747 135.357-162.218z" stroke="#939598" stroke-width=".681" stroke-linecap="round" stroke-linejoin="round"/><path d="M333.891 351.609l-256.185-9.747m0 0l135.357-162.218m0-.001L333.89 351.609m-256.184-9.747l48.187-137.529 87.17-24.689 111.909 30.56m0 0l8.919 141.405" stroke="#fff" stroke-width="2.722" stroke-linecap="round" stroke-linejoin="round"/></g><g style="mix-blend-mode:overlay"><path d="M922.089 176.272l-75.92 71.097 33.604-61.955 42.316-9.142z" stroke="#515153" stroke-width=".681"/><path d="M922.089 176.272l46.429 90.775-122.349-19.678 75.92-71.097z" stroke="#939598" stroke-width=".681"/><path d="M922.088 176.272l66.186 24.37-19.757 66.405-46.429-90.775z" stroke="#515153" stroke-width=".681"/><path d="M984.276 214.085L971.714 256.3m-49.627-80.028l12.589 24.611m-30.09-8.217l17.503-16.394m-42.541 9.554l.224-.412 42.316-9.142 34.029 12.531" stroke="#fff" stroke-width="2.722" stroke-linecap="round" stroke-linejoin="round"/><path d="M741.094 211.879l3.495.176 92.989 37.203-96.484-37.379z" stroke="#505153" stroke-width=".681" stroke-linecap="round" stroke-linejoin="round"/><path d="M741.094 211.879l96.484 37.379-83.733 69.536-12.751-106.915zm0 0l12.75 106.915-97.663-47.262 84.913-59.653z" stroke="#747578" stroke-width=".681" stroke-linecap="round" stroke-linejoin="round"/><path d="M721.512 303.145l-65.331-31.613m0 0l10.137-7.121" stroke="#fff" stroke-width="2.722" stroke-linecap="round" stroke-linejoin="round"/><path d="M855.173 91.71l53.207 22.738 23.664 58.548-76.871-81.287z" stroke="#515153" stroke-width=".681" stroke-linecap="round" stroke-linejoin="round"/><path d="M855.172 91.71l76.871 81.286-135.625 10.791 58.754-92.078z" stroke="#939598" stroke-width=".681" stroke-linecap="round" stroke-linejoin="round"/><path d="M855.173 91.71l-58.754 92.077-6.117-61.205 64.871-30.872z" stroke="#747578" stroke-width=".681" stroke-linecap="round" stroke-linejoin="round"/><path d="M932.043 172.996l-135.625 10.791m58.755-92.077l76.871 81.286m-135.626 10.791l58.754-92.078m-64.87 30.873l64.871-30.872 53.208 22.738 23.663 58.548m-135.625 10.79l-6.116-61.205" stroke="#fff" stroke-width="2.722" stroke-linecap="round" stroke-linejoin="round"/><path d="M1064.2 261.947l38.62 5.573 43.46 91.595-82.08-97.168z" stroke="#515153" stroke-width=".681" stroke-linecap="round" stroke-linejoin="round"/><path d="M1064.2 261.947l-66.998 102.627-22.134-93.059 89.132-9.568z" stroke="#747578" stroke-width=".681" stroke-linecap="round" stroke-linejoin="round"/><path d="M1064.2 261.947l82.08 97.168-149.078 5.459 66.998-102.627z" stroke="#939598" stroke-width=".681" stroke-linecap="round" stroke-linejoin="round"/><path d="M1064.2 261.947l15.75 18.648m-104.882-9.08l21.577-2.316m52.485-5.634l15.07-1.618 38.62 5.573 16.76 35.318m-141.929-20.476l-2.583-10.847m171.212 87.6l-9.07.333" stroke="#fff" stroke-width="2.722" stroke-linecap="round" stroke-linejoin="round"/><path d="M1046.13 132.921l-25.97 113.386-79.123-71.044 105.093-42.342z" stroke="#747578" stroke-width=".681" stroke-linecap="round" stroke-linejoin="round"/><path d="M1046.13 132.92l94.15 74.767-120.12 38.62 25.97-113.387z" stroke="#747578" stroke-width=".681" stroke-linecap="round" stroke-linejoin="round"/><path d="M941.037 175.263l70.163-28.268m70.89 79.397l-61.93 19.915-79.123-71.044m79.123 71.044l7.09-30.942" stroke="#fff" stroke-width="2.722" stroke-linecap="round" stroke-linejoin="round"/><path d="M777.439 2l104.679 74.683-135.043 34.429L777.439 2z" stroke="#747578" stroke-width=".681" stroke-linecap="round" stroke-linejoin="round"/><path d="M777.439 2l-30.364 109.112-56.772-50.766L777.439 2z" stroke="#747578" stroke-width=".681" stroke-linecap="round" stroke-linejoin="round"/><path d="M882.118 76.684l-135.043 34.428-56.772-50.765M777.439 2l104.679 74.683m-135.043 34.429L777.439 2m-87.136 58.346L777.439 2" stroke="#fff" stroke-width="2.722" stroke-linecap="round" stroke-linejoin="round"/><path d="M1000.5 5.81l18.7 111.778-126.51-40.676L1000.5 5.81z" stroke="#747578" stroke-width=".681" stroke-linecap="round" stroke-linejoin="round"/><path d="M1000.5 5.81l92.48 62.898-73.78 48.88L1000.5 5.81z" stroke="#747578" stroke-width=".681" stroke-linecap="round" stroke-linejoin="round"/><path d="M892.69 76.912L1000.5 5.81m0 0l18.7 111.778M1000.5 5.81l92.48 62.898m0 0l-73.78 48.88-126.509-40.677" stroke="#fff" stroke-width="2.722" stroke-linecap="round" stroke-linejoin="round"/><path d="M683.552 159.729l-93.717 96.931 66.783-80.393 26.934-16.538zm0 0l104.941 27.75-44.622 84.799-60.319-112.549z" stroke="#515153" stroke-width=".681" stroke-linecap="round" stroke-linejoin="round"/><path d="M683.552 159.729l60.32 112.549-154.037-15.618 93.717-96.931z" stroke="#939598" stroke-width=".681" stroke-linecap="round" stroke-linejoin="round"/><path d="M743.871 272.277l-154.036-15.618m118.775-50.173l35.261 65.791m-154.036-15.618l37.804-39.097m-37.804 39.097l31.797-38.278m133.56-39.707l33.302 8.804m0 .001l-7.134 13.557" stroke="#fff" stroke-width="2.722" stroke-linecap="round" stroke-linejoin="round"/><path d="M711.795 349.828l41-24.137 82.567 85.491-123.567-61.354z" stroke="#fff" stroke-width=".681" stroke-linecap="round" stroke-linejoin="round"/><path d="M711.794 349.828l-97.365 42.992 138.365-67.129-41 24.137z" stroke="#505153" stroke-width=".681" stroke-linecap="round" stroke-linejoin="round"/><path d="M711.793 349.828l123.568 61.354-149.876 88.956 26.308-150.31z" stroke="#747578" stroke-width=".681" stroke-linecap="round" stroke-linejoin="round"/><path d="M711.794 349.828l-26.308 150.31-71.057-107.318 97.365-42.992z" stroke="#747578" stroke-width=".681" stroke-linecap="round" stroke-linejoin="round"/><path d="M685.486 500.138L614.429 392.82m151.492 59.579l-80.436 47.739m0 0l13.628-77.867m-84.684-29.451l21.989-10.673m-21.989 10.673l20.02-8.839" stroke="#fff" stroke-width="2.722" stroke-linecap="round" stroke-linejoin="round"/><path d="M960.249 399.669l-113.637 13.894 145.64-42.285-32.003 28.391z" stroke="#fff" stroke-width=".681" stroke-linecap="round" stroke-linejoin="round"/><path d="M960.248 399.669l32.003-28.391 84.629 123.875-116.632-95.484z" stroke="#505153" stroke-width=".681" stroke-linecap="round" stroke-linejoin="round"/><path d="M960.249 399.669l116.631 95.484-169.032 60.771 52.401-156.255zm-.001 0l-52.4 156.255-61.236-142.361 113.636-13.894z" stroke="#747578" stroke-width=".681" stroke-linecap="round" stroke-linejoin="round"/><path d="M1076.88 495.152l-169.032 60.771m0 0l52.401-156.255 23.545-20.888m-75.946 177.143l-61.236-142.36m0 0l131.916-38.299m30.242 20.186l68.11 99.702" stroke="#fff" stroke-width="2.722" stroke-linecap="round" stroke-linejoin="round"/><path d="M846.612 413.563l113.637-13.895 116.631 95.484" stroke="#fff" stroke-width="2.722" stroke-linecap="round" stroke-linejoin="round"/><path d="M1050.49 264.061l-140.683 65.326L1020 253.007l30.49 11.054z" stroke="#515153" stroke-width=".681" stroke-linecap="round" stroke-linejoin="round"/><path d="M1050.49 264.061l116.96 65.646-103.98 102.263-12.98-167.909z" stroke="#747578" stroke-width=".681" stroke-linecap="round" stroke-linejoin="round"/><path d="M1050.49 264.061l12.98 167.909-153.663-102.583 140.683-65.326z" stroke="#939598" stroke-width=".681" stroke-linecap="round" stroke-linejoin="round"/><path d="M1050.49 264.061l12.98 167.909m0 0l-122.466-81.756m226.446-20.507L1063.47 431.97m-89.043-132.591l76.063-35.318m-76.953 21.151L1020 253.007l30.49 11.054 116.96 65.646" stroke="#fff" stroke-width="2.722" stroke-linecap="round" stroke-linejoin="round"/><path d="M639.301 86.281l101.781 29.601 18.783 83.593L639.301 86.281z" stroke="#505153" stroke-width=".681" stroke-linecap="round" stroke-linejoin="round"/><path d="M639.301 86.281l120.564 113.194-209.032 28.592 88.468-141.786z" stroke="#939598" stroke-width=".681" stroke-linecap="round" stroke-linejoin="round"/><path d="M639.301 86.281l-88.468 141.786 18.823-92.958 69.645-48.828z" stroke="#747578" stroke-width=".681" stroke-linecap="round" stroke-linejoin="round"/><path d="M759.865 199.475l-209.032 28.592m0 0l88.468-141.786m0 0l120.564 113.194m-209.032 28.592l18.823-92.958 69.645-48.828 101.781 29.601m0 0l18.784 83.593" stroke="#fff" stroke-width="2.722" stroke-linecap="round" stroke-linejoin="round"/><path d="M1112.73 96.901L980.256 205.912l43.704-83.207 88.77-25.804zm0 0l85.44 54.273-8.02 96.953-77.42-151.226z" stroke="#515153" stroke-width=".681" stroke-linecap="round" stroke-linejoin="round"/><path d="M1112.73 96.901l77.42 151.226-209.894-42.215 132.474-109.01z" stroke="#939598" stroke-width=".681" stroke-linecap="round" stroke-linejoin="round"/><path d="M1190.15 248.127l-209.894-42.215m0 0l132.474-109.01m0-.001l77.42 151.226m8.02-96.953l-8.02 96.953m-209.894-42.215l43.704-83.207 88.77-25.804 85.44 54.273" stroke="#fff" stroke-width="2.722" stroke-linecap="round" stroke-linejoin="round"/><path d="M758.343 292.609l-10.76-13.671 149.17 51.843-138.41-38.172z" stroke="#505153" stroke-width=".681" stroke-linecap="round" stroke-linejoin="round"/><path d="M758.343 292.609l-130.517 97.514 119.757-111.185 10.76 13.671zm.001 0l138.409 38.172L796.6 466.231l-38.256-173.622z" stroke="#515153" stroke-width=".681" stroke-linecap="round" stroke-linejoin="round"/><path d="M758.343 292.609l38.256 173.622-168.773-76.108 130.517-97.514z" stroke="#939598" stroke-width=".681" stroke-linecap="round" stroke-linejoin="round"/><path d="M796.599 466.231l-168.773-76.108m0 0l113.829-105.678m142.334 63.599l-87.39 118.188m-168.773-76.109l104.034-77.731m37.739 31.298l27 122.541" stroke="#fff" stroke-width="2.722" stroke-linecap="round" stroke-linejoin="round"/><path d="M856.896 179.644L721.538 341.862l48.187-137.529 87.171-24.689z" stroke="#747578" stroke-width=".681" stroke-linecap="round" stroke-linejoin="round"/><path d="M856.896 179.643l111.909 30.561 8.918 141.405-120.827-171.966z" stroke="#515153" stroke-width=".681" stroke-linecap="round" stroke-linejoin="round"/><path d="M856.896 179.644l120.828 171.965-256.186-9.747 135.358-162.218z" stroke="#939598" stroke-width=".681" stroke-linecap="round" stroke-linejoin="round"/><path d="M977.724 351.609l-256.185-9.747m-.001 0l135.358-162.218m0-.001l120.827 171.966m-256.185-9.747l48.187-137.529 87.171-24.689 111.909 30.56m0 0l8.919 141.405" stroke="#fff" stroke-width="2.722" stroke-linecap="round" stroke-linejoin="round"/></g><g style="mix-blend-mode:overlay"><path d="M1565.92 176.272L1490 247.369l33.61-61.955 42.31-9.142z" stroke="#515153" stroke-width=".681"/><path d="M1565.92 176.272l46.43 90.775L1490 247.369l75.92-71.097z" stroke="#939598" stroke-width=".681"/><path d="M1565.92 176.272l66.19 24.37-19.76 66.405-46.43-90.775z" stroke="#515153" stroke-width=".681"/><path d="M1628.11 214.085l-12.56 42.215m-49.63-80.028l12.59 24.611m-30.09-8.217l17.5-16.394m-42.54 9.554l.22-.412 42.32-9.142 34.03 12.531" stroke="#fff" stroke-width="2.722" stroke-linecap="round" stroke-linejoin="round"/><path d="M1384.93 211.879l3.49.176 92.99 37.203-96.48-37.379z" stroke="#505153" stroke-width=".681" stroke-linecap="round" stroke-linejoin="round"/><path d="M1384.93 211.879l96.48 37.379-83.73 69.536-12.75-106.915zm0 0l12.75 106.915-97.67-47.262 84.92-59.653z" stroke="#747578" stroke-width=".681" stroke-linecap="round" stroke-linejoin="round"/><path d="M1365.34 303.145l-65.33-31.613m0 0l10.14-7.121" stroke="#fff" stroke-width="2.722" stroke-linecap="round" stroke-linejoin="round"/><path d="M1499.01 91.71l53.2 22.738 23.67 58.548-76.87-81.287z" stroke="#515153" stroke-width=".681" stroke-linecap="round" stroke-linejoin="round"/><path d="M1499.01 91.71l76.87 81.286-135.63 10.791 58.76-92.078z" stroke="#939598" stroke-width=".681" stroke-linecap="round" stroke-linejoin="round"/><path d="M1499.01 91.71l-58.76 92.077-6.11-61.205 64.87-30.872z" stroke="#747578" stroke-width=".681" stroke-linecap="round" stroke-linejoin="round"/><path d="M1575.88 172.996l-135.63 10.791m58.76-92.077l76.87 81.286m-135.63 10.791l58.76-92.078m-64.87 30.873l64.87-30.872 53.2 22.739 23.67 58.547m-135.63 10.791l-6.11-61.205" stroke="#fff" stroke-width="2.722" stroke-linecap="round" stroke-linejoin="round"/><path d="M1708.03 261.947l38.62 5.573 43.46 91.595-82.08-97.168z" stroke="#515153" stroke-width=".681" stroke-linecap="round" stroke-linejoin="round"/><path d="M1708.03 261.947l-67 102.627-22.13-93.059 89.13-9.568z" stroke="#747578" stroke-width=".681" stroke-linecap="round" stroke-linejoin="round"/><path d="M1708.03 261.947l82.08 97.168-149.08 5.459 67-102.627z" stroke="#939598" stroke-width=".681" stroke-linecap="round" stroke-linejoin="round"/><path d="M1708.03 261.947l15.75 18.648m-104.88-9.08l21.58-2.316m52.48-5.634l15.07-1.618 38.62 5.573 16.76 35.318m-141.93-20.476l-2.58-10.847m171.21 87.6l-9.07.334" stroke="#fff" stroke-width="2.722" stroke-linecap="round" stroke-linejoin="round"/><path d="M1689.96 132.921l-25.97 113.386-79.12-71.044 105.09-42.342zm0 0l94.15 74.766-120.12 38.62 25.97-113.386z" stroke="#747578" stroke-width=".681" stroke-linecap="round" stroke-linejoin="round"/><path d="M1584.87 175.263l70.16-28.268m70.89 79.397l-61.93 19.915-79.12-71.044m79.12 71.044l7.09-30.942" stroke="#fff" stroke-width="2.722" stroke-linecap="round" stroke-linejoin="round"/><path d="M1421.27 2l104.68 74.683-135.04 34.429L1421.27 2z" stroke="#747578" stroke-width=".681" stroke-linecap="round" stroke-linejoin="round"/><path d="M1421.27 2l-30.36 109.112-56.77-50.766L1421.27 2z" stroke="#747578" stroke-width=".681" stroke-linecap="round" stroke-linejoin="round"/><path d="M1525.95 76.684l-135.04 34.428-56.77-50.765M1421.27 2l104.68 74.683m-135.04 34.429L1421.27 2m-87.13 58.346L1421.27 2" stroke="#fff" stroke-width="2.722" stroke-linecap="round" stroke-linejoin="round"/><path d="M1644.33 5.81l18.71 111.778-126.52-40.676L1644.33 5.81z" stroke="#747578" stroke-width=".681" stroke-linecap="round" stroke-linejoin="round"/><path d="M1644.33 5.81l92.48 62.898-73.77 48.88L1644.33 5.81z" stroke="#747578" stroke-width=".681" stroke-linecap="round" stroke-linejoin="round"/><path d="M1536.52 76.912L1644.33 5.81m0 0l18.71 111.778M1644.33 5.81l92.48 62.898m0 0l-73.77 48.88-126.52-40.677" stroke="#fff" stroke-width="2.722" stroke-linecap="round" stroke-linejoin="round"/><path d="M1327.39 159.729l-93.72 96.931 66.78-80.393 26.94-16.538z" stroke="#515153" stroke-width=".681" stroke-linecap="round" stroke-linejoin="round"/><path d="M1327.38 159.729l104.95 27.75-44.63 84.799-60.32-112.549z" stroke="#515153" stroke-width=".681" stroke-linecap="round" stroke-linejoin="round"/><path d="M1327.39 159.729l60.31 112.549-154.03-15.618 93.72-96.931z" stroke="#939598" stroke-width=".681" stroke-linecap="round" stroke-linejoin="round"/><path d="M1387.7 272.277l-154.03-15.618m118.77-50.173l35.26 65.791m-154.03-15.618l37.8-39.097m-37.8 39.097l31.8-38.278m133.56-39.707l33.3 8.804m0 .001l-7.14 13.557" stroke="#fff" stroke-width="2.722" stroke-linecap="round" stroke-linejoin="round"/><path d="M1355.63 349.828l41-24.137 82.57 85.491-123.57-61.354z" stroke="#fff" stroke-width=".681" stroke-linecap="round" stroke-linejoin="round"/><path d="M1355.63 349.828l-97.37 42.992 138.37-67.129-41 24.137z" stroke="#505153" stroke-width=".681" stroke-linecap="round" stroke-linejoin="round"/><path d="M1355.63 349.828l123.56 61.354-149.87 88.956 26.31-150.31z" stroke="#747578" stroke-width=".681" stroke-linecap="round" stroke-linejoin="round"/><path d="M1355.63 349.828l-26.31 150.31-71.06-107.318 97.37-42.992z" stroke="#747578" stroke-width=".681" stroke-linecap="round" stroke-linejoin="round"/><path d="M1329.32 500.138l-71.06-107.318m151.5 59.578l-80.44 47.74m0 0l13.63-77.867m-84.69-29.451l21.99-10.673m-21.99 10.673l20.02-8.84" stroke="#fff" stroke-width="2.722" stroke-linecap="round" stroke-linejoin="round"/><path d="M1604.08 399.669l-113.63 13.894 145.64-42.285-32.01 28.391z" stroke="#fff" stroke-width=".681" stroke-linecap="round" stroke-linejoin="round"/><path d="M1604.08 399.669l32.01-28.391 84.62 123.875-116.63-95.484z" stroke="#505153" stroke-width=".681" stroke-linecap="round" stroke-linejoin="round"/><path d="M1604.08 399.669l116.63 95.484-169.03 60.771 52.4-156.255zm0 0l-52.4 156.255-61.23-142.361 113.63-13.894z" stroke="#747578" stroke-width=".681" stroke-linecap="round" stroke-linejoin="round"/><path d="M1720.71 495.152l-169.03 60.771m0 0l52.4-156.255 23.55-20.888m-75.95 177.143l-61.23-142.36m0 0l131.91-38.299m30.24 20.186l68.11 99.702" stroke="#fff" stroke-width="2.722" stroke-linecap="round" stroke-linejoin="round"/><path d="M1490.45 413.563l113.63-13.895 116.63 95.484" stroke="#fff" stroke-width="2.722" stroke-linecap="round" stroke-linejoin="round"/><path d="M1694.32 264.061l-140.68 65.326 110.19-76.38 30.49 11.054z" stroke="#515153" stroke-width=".681" stroke-linecap="round" stroke-linejoin="round"/><path d="M1694.32 264.061l116.96 65.646L1707.3 431.97l-12.98-167.909z" stroke="#747578" stroke-width=".681" stroke-linecap="round" stroke-linejoin="round"/><path d="M1694.32 264.061l12.98 167.909-153.66-102.583 140.68-65.326z" stroke="#939598" stroke-width=".681" stroke-linecap="round" stroke-linejoin="round"/><path d="M1694.32 264.061l12.98 167.909m0 0l-122.46-81.756m226.44-20.507L1707.3 431.97m-89.04-132.591l76.06-35.318m-76.95 21.151l46.46-32.205 30.49 11.054 116.96 65.646" stroke="#fff" stroke-width="2.722" stroke-linecap="round" stroke-linejoin="round"/><path d="M1283.13 86.281l101.78 29.601 18.79 83.593-120.57-113.194z" stroke="#505153" stroke-width=".681" stroke-linecap="round" stroke-linejoin="round"/><path d="M1283.13 86.281l120.57 113.194-209.03 28.592 88.46-141.786z" stroke="#939598" stroke-width=".681" stroke-linecap="round" stroke-linejoin="round"/><path d="M1283.13 86.281l-88.46 141.786 18.82-92.958 69.64-48.828z" stroke="#747578" stroke-width=".681" stroke-linecap="round" stroke-linejoin="round"/><path d="M1403.7 199.475l-209.03 28.592m0 0l88.46-141.786m0 0l120.57 113.194m-209.03 28.592l18.82-92.958 69.64-48.828 101.78 29.601m.01 0l18.78 83.593" stroke="#fff" stroke-width="2.722" stroke-linecap="round" stroke-linejoin="round"/><path d="M1756.56 96.901l-132.47 109.011 43.7-83.207 88.77-25.804zm0 0l85.44 54.273-8.02 96.953-77.42-151.226z" stroke="#515153" stroke-width=".681" stroke-linecap="round" stroke-linejoin="round"/><path d="M1756.56 96.901l77.42 151.226-209.89-42.215 132.47-109.01z" stroke="#939598" stroke-width=".681" stroke-linecap="round" stroke-linejoin="round"/><path d="M1833.98 248.127l-209.89-42.215m0 0l132.47-109.01m0-.001l77.42 151.226m8.02-96.953l-8.02 96.953m-209.89-42.215l43.7-83.207 88.77-25.804 85.44 54.273" stroke="#fff" stroke-width="2.722" stroke-linecap="round" stroke-linejoin="round"/><path d="M1402.18 292.609l-10.76-13.671 149.17 51.843-138.41-38.172z" stroke="#505153" stroke-width=".681" stroke-linecap="round" stroke-linejoin="round"/><path d="M1402.18 292.609l-130.52 97.514 119.76-111.185 10.76 13.671zm0 0l138.41 38.172-100.16 135.45-38.25-173.622z" stroke="#515153" stroke-width=".681" stroke-linecap="round" stroke-linejoin="round"/><path d="M1402.18 292.609l38.25 173.622-168.77-76.108 130.52-97.514z" stroke="#939598" stroke-width=".681" stroke-linecap="round" stroke-linejoin="round"/><path d="M1440.43 466.231l-168.77-76.108m0 0l113.83-105.678m142.33 63.599l-87.39 118.188m-168.77-76.109l104.03-77.731m37.74 31.298l27 122.541" stroke="#fff" stroke-width="2.722" stroke-linecap="round" stroke-linejoin="round"/><path d="M1500.73 179.643l-135.36 162.219 48.19-137.529 87.17-24.69z" stroke="#747578" stroke-width=".681" stroke-linecap="round" stroke-linejoin="round"/><path d="M1500.73 179.643l111.91 30.561 8.92 141.405-120.83-171.966z" stroke="#515153" stroke-width=".681" stroke-linecap="round" stroke-linejoin="round"/><path d="M1500.73 179.643l120.83 171.966-256.19-9.747 135.36-162.219z" stroke="#939598" stroke-width=".681" stroke-linecap="round" stroke-linejoin="round"/><path d="M1621.56 351.609l-256.19-9.747m0 0l135.36-162.219m0 0l120.83 171.966m-256.19-9.747l48.19-137.529 87.17-24.69 111.91 30.561m0 0l8.92 141.405" stroke="#fff" stroke-width="2.722" stroke-linecap="round" stroke-linejoin="round"/></g></svg>