<svg width="626" height="374" viewBox="0 0 626 374" fill="none" xmlns="http://www.w3.org/2000/svg">
<g filter="url(#filter0_f_1_13786)">
<ellipse cx="81.5156" cy="103.912" rx="21.5594" ry="21.5342" fill="#8851F8"/>
</g>
<g filter="url(#filter1_f_1_13786)">
<ellipse cx="181.767" cy="263.804" rx="21.5594" ry="21.5342" fill="#8851F8"/>
</g>
<g filter="url(#filter2_f_1_13786)">
<ellipse cx="545.044" cy="292.875" rx="21.5594" ry="21.5342" fill="#8851F8"/>
</g>
<g filter="url(#filter3_f_1_13786)">
<ellipse cx="348.854" cy="81.3013" rx="21.5594" ry="21.5342" fill="#8851F8"/>
</g>
<g filter="url(#filter4_f_1_13786)">
<ellipse cx="477.671" cy="156.133" rx="21.5594" ry="21.5342" fill="#8851F8"/>
</g>
<g filter="url(#filter5_f_1_13786)">
<ellipse cx="320.286" cy="211.583" rx="21.5594" ry="21.5342" fill="#8851F8"/>
</g>
<path opacity="0.5" fill-rule="evenodd" clip-rule="evenodd" d="M437.345 57.694L446.221 52.5809L455.098 57.694V67.9081L446.221 73.0213L437.345 67.9081V57.694ZM446.221 49L458.2 55.9005V68.0804L468.802 74.1872L478.6 68.543L489.216 74.658L499.831 68.5427L510.052 74.4303L521.63 67.7608L532.587 74.0726L543.544 67.7608L555.523 74.6614V88.4625L543.544 95.363L532.587 89.0513L522.426 94.9047V107.539L511.811 113.654V126.154L500.854 132.466V142.733L511.47 148.848V162.649L500.855 168.764V181.264L490.566 187.191V200.246L478.587 207.146L466.608 200.246V187.753L457.05 182.247L445.954 188.639V201.418L433.975 208.319L421.996 201.418V187.617L433.736 180.854V168.914L424.488 163.587L413.711 169.795L401.732 162.894V150.579L390.796 144.279V131.512L380.662 125.674L369.885 131.882L359.969 126.17L349.808 132.023V144.524L337.829 151.425L327.052 145.217L316.275 151.425L304.296 144.524V132.209L293.358 125.908V112.107L304.617 105.622V93.8129L315.17 87.734V75.0523L327.149 68.1517L339.128 75.0523V87.661L347.305 92.3714L358.227 86.0798V74.2707L370.206 67.3702L380.823 73.4856L391.439 67.3702L402.519 73.7531L413.01 67.7102V55.9005L424.989 49L435.605 55.1154L446.221 49ZM456.827 129.883L466.3 124.427V113.839L455.977 107.893L447.243 112.923V124.362L456.827 129.883ZM456.836 70.8755L447.96 75.9887V86.2028L456.836 91.3159L465.713 86.2028V75.9887L456.836 70.8755ZM435.284 71.1963L426.407 76.3094V86.5235L435.284 91.6367L444.16 86.5235V76.3094L435.284 71.1963ZM424.668 89.4909L415.791 94.6041V104.818L424.668 109.931L433.544 104.818V94.6041L424.668 89.4909ZM437.345 94.6041L446.221 89.4909L455.097 94.6041V104.818L446.221 109.931L437.345 104.818V94.6041ZM424.989 52.5809L416.113 57.694V67.9081L424.989 73.0213L433.865 67.9081V57.694L424.989 52.5809ZM404.855 75.9887L413.731 70.8755L422.607 75.9887V86.2028L413.731 91.3159L404.855 86.2028V75.9887ZM521.63 71.3417L512.754 76.4548V86.669L521.63 91.7821L530.507 86.669V76.4548L521.63 71.3417ZM490.955 77.2368L499.831 72.1236L508.708 77.2368V87.4509L499.831 92.564L490.955 87.4509V77.2368ZM510.447 90.418L501.57 95.5312V105.745L510.447 110.858L519.323 105.745V95.5312L510.447 90.418ZM488.895 90.7393L480.019 95.8524V106.067L488.895 111.18L497.771 106.067V95.8524L488.895 90.7393ZM478.279 109.034L469.402 114.147V124.361L478.279 129.474L487.155 124.361V114.147L478.279 109.034ZM490.955 114.147L499.831 109.034L508.708 114.147V124.361L499.831 129.474L490.955 124.361V114.147ZM534.668 76.4548L543.544 71.3417L552.42 76.4548V86.669L543.544 91.7821L534.668 86.669V76.4548ZM478.6 72.1239L469.724 77.237V87.4511L478.6 92.5643L487.476 87.4511V77.237L478.6 72.1239ZM458.465 95.5312L467.341 90.418L476.217 95.5312V105.745L467.341 110.858L458.465 105.745V95.5312ZM361.33 76.0642L370.206 70.9511L379.083 76.0642V86.2783L370.206 91.3914L361.33 86.2783V76.0642ZM391.439 70.9511L382.563 76.0642V86.2784L391.439 91.3915L400.315 86.2784V76.0642L391.439 70.9511ZM393.178 94.3583L402.054 89.2452L410.93 94.3583V104.572L402.054 109.686L393.178 104.572V94.3583ZM371.625 94.6793L380.501 89.5662L389.378 94.6793V104.893L380.501 110.007L371.625 104.893V94.6793ZM361.009 112.974L369.885 107.861L378.761 112.974V123.188L369.885 128.301L361.009 123.188V112.974ZM391.439 107.861L382.563 112.974V123.188L391.439 128.301L400.315 123.188V112.974L391.439 107.861ZM358.949 89.2452L350.072 94.3583V104.572L358.949 109.686L367.825 104.572V94.3583L358.949 89.2452ZM426.388 113.977L435.264 108.864L444.14 113.977V124.191L435.264 129.304L426.388 124.191V113.977ZM445.88 127.158L437.004 132.271V142.485L445.88 147.599L454.757 142.485V132.271L445.88 127.158ZM415.451 132.592L424.328 127.479L433.204 132.592V142.806L424.328 147.919L415.451 142.806V132.592ZM404.835 150.886L413.711 145.773L422.588 150.886V161.101L413.711 166.214L404.835 161.101V150.886ZM386.237 170.227L377.36 175.34V185.554L386.237 190.667L395.113 185.554V175.34L386.237 170.227ZM386.867 167.009V154.786L374.888 147.885L363.396 154.505L352.582 148.276L340.603 155.177V168.978L352.582 175.879L364.075 169.258L374.258 175.124V187.348L386.237 194.248L398.216 187.348V173.547L386.867 167.009ZM366.012 156.579L374.888 151.466L383.764 156.579V166.793L374.888 171.906L366.012 166.793V156.579ZM352.582 151.857L343.706 156.97V167.185L352.582 172.298L361.459 167.185V156.97L352.582 151.857ZM426.388 150.886L435.264 145.773L444.14 150.886V161.101L435.264 166.214L426.388 161.101V150.886ZM445.715 164.755L436.839 169.868V180.082L445.715 185.196L454.591 180.082V169.868L445.715 164.755ZM425.099 189.411L433.975 184.297L442.851 189.411V199.625L433.975 204.738L425.099 199.625V189.411ZM414.034 108.864L405.157 113.977V124.191L414.034 129.304L422.91 124.191V113.977L414.034 108.864ZM393.899 132.271L402.775 127.158L411.651 132.271V142.485L402.775 147.599L393.899 142.485V132.271ZM488.875 127.233L479.999 132.346V142.56L488.875 147.674L497.752 142.56V132.346L488.875 127.233ZM468.363 161.162V150.84L478.26 145.139L487.511 150.469V161.348L478.099 166.77L468.363 161.162ZM490.614 150.641L499.491 145.528L508.367 150.641V160.855L499.491 165.968L490.614 160.855V150.641ZM458.446 169.257L467.323 164.143L476.199 169.257V179.471L467.323 184.584L458.446 179.471V169.257ZM479.999 169.257L488.875 164.143L497.752 169.257V179.471L488.875 184.584L479.999 179.471V169.257ZM478.587 183.125L469.711 188.238V198.452L478.587 203.565L487.464 198.452V188.238L478.587 183.125ZM458.768 132.346L467.644 127.233L476.52 132.346V142.56L467.644 147.674L458.768 142.56V132.346ZM456.384 145.528L447.508 150.641V160.855L456.384 165.968L465.26 160.855V150.641L456.384 145.528ZM558.144 249.602L567.02 244.488L575.896 249.602V259.816L567.02 264.929L558.144 259.816V249.602ZM567.02 240.907L578.999 247.808V261.609L567.767 268.079V279.53L578.382 285.645V299.446L567.767 305.561V318.062L555.787 324.962L545.011 318.754L534.234 324.962L522.255 318.062V305.746L511.317 299.446V285.645L522.576 279.159V267.35L534.555 260.45L545.171 266.565L555.041 260.88V247.808L567.02 240.907ZM535.974 287.759L544.85 282.646L553.726 287.759V297.973L544.85 303.087L535.974 297.973V287.759ZM525.358 306.054L534.234 300.941L543.11 306.054V316.268L534.234 321.381L525.358 316.268V306.054ZM555.787 300.941L546.911 306.054V316.268L555.787 321.381L564.664 316.268V306.054L555.787 300.941ZM566.403 282.325L557.526 287.438V297.653L566.403 302.766L575.279 297.653V287.438L566.403 282.325ZM546.911 269.144L555.787 264.031L564.664 269.144V279.358L555.787 284.471L546.911 279.358V269.144ZM534.555 264.031L525.679 269.144V279.358L534.555 284.471L543.431 279.358V269.144L534.555 264.031ZM514.42 287.438L523.296 282.325L532.173 287.438V297.653L523.296 302.766L514.42 297.653V287.438ZM327.149 71.7326L318.273 76.8458V87.0599L327.149 92.173L336.025 87.0599V76.8458L327.149 71.7326ZM328.952 95.6064L337.829 90.4933L346.705 95.6064V105.821L337.829 110.934L328.952 105.821V95.6064ZM348.444 108.788L339.568 113.901V124.115L348.444 129.228L357.32 124.115V113.901L348.444 108.788ZM326.891 109.109L318.015 114.222V124.436L326.891 129.549L335.767 124.436V114.222L326.891 109.109ZM316.275 127.403L307.399 132.516V142.731L316.275 147.844L325.151 142.731V132.516L316.275 127.403ZM328.952 132.516L337.829 127.403L346.705 132.516V142.731L337.829 147.844L328.952 142.731V132.516ZM307.72 95.6064L316.596 90.4933L325.472 95.6064V105.821L316.596 110.934L307.72 105.821V95.6064ZM305.337 108.788L296.461 113.901V124.115L305.337 129.228L314.214 124.115V113.901L305.337 108.788ZM312.404 168.696L321.281 163.583L330.157 168.696V178.91L321.281 184.023L312.404 178.91V168.696ZM321.281 160.002L333.26 166.902V180.577L342.083 185.66L352.7 179.544L364.679 186.445V198.625L375.292 204.739V218.54L364.679 224.654V237.156L354.027 243.292V256.017L364.202 261.879V275.68L352.823 282.234V294.05L340.844 300.95L340.692 300.863V312.42L328.713 319.32L316.734 312.42V298.619L328.713 291.718L328.865 291.806V281.54L318.691 275.68V262.389L308.516 256.528V242.727L319.167 236.592V223.355L329.783 217.239V206.176L319.986 200.533L310.679 205.895V218.395L298.7 225.296L287.923 219.088L277.146 225.296L265.167 218.395V206.08L254.229 199.78V185.979L265.489 179.492V167.684L277.468 160.783L288.084 166.899L298.7 160.783L309.312 166.896L321.281 160.002ZM298.7 164.364L289.823 169.477V179.692L298.7 184.805L307.576 179.692V169.477L298.7 164.364ZM300.439 187.772L309.315 182.659L318.191 187.772V197.986L309.315 203.099L300.439 197.986V187.772ZM278.886 188.093L287.762 182.98L296.638 188.093V198.307L287.762 203.42L278.886 198.307V188.093ZM268.27 206.388L277.146 201.274L286.022 206.388V216.602L277.146 221.715L268.27 216.602V206.388ZM298.7 201.274L289.823 206.388V216.602L298.7 221.715L307.576 216.602V206.388L298.7 201.274ZM277.468 164.364L268.592 169.477V179.692L277.468 184.805L286.344 179.692V169.477L277.468 164.364ZM257.332 187.772L266.208 182.659L275.085 187.772V197.986L266.208 203.099L257.332 197.986V187.772ZM343.823 188.238L352.7 183.125L361.576 188.238V198.452L352.7 203.566L343.823 198.452V188.238ZM363.313 201.42L354.437 206.533V216.747L363.313 221.86L372.189 216.747V206.533L363.313 201.42ZM341.762 201.741L332.886 206.854V217.068L341.762 222.181L350.638 217.068V206.854L341.762 201.741ZM331.146 220.035L322.27 225.148V235.362L331.146 240.476L340.022 235.362V225.148L331.146 220.035ZM311.619 244.521L320.496 239.407L329.372 244.521V254.735L320.496 259.848L311.619 254.735V244.521ZM330.67 258.559L321.794 263.672V273.886L330.67 278.999L339.547 273.886V263.672L330.67 258.559ZM343.823 225.148L352.7 220.035L361.576 225.148V235.362L352.7 240.476L343.823 235.362V225.148ZM342.048 239.407L333.172 244.521V254.735L342.048 259.848L350.924 254.735V244.521L342.048 239.407ZM343.347 263.672L352.223 258.559L361.099 263.672V273.886L352.223 278.999L343.347 273.886V263.672ZM340.844 276.929L331.968 282.042V292.256L340.844 297.37L349.72 292.256V282.042L340.844 276.929ZM319.837 300.412L328.713 295.299L337.59 300.412V310.626L328.713 315.74L319.837 310.626V300.412ZM331.467 183.125L322.591 188.238V198.452L331.467 203.566L340.343 198.452V188.238L331.467 183.125ZM139.834 203.09L148.71 197.977L157.587 203.09V213.305L148.71 218.418L139.834 213.305V203.09ZM148.71 194.396L160.69 201.297V213.129L171.212 219.19L182.364 212.766L194.343 219.667V232.501L204.632 238.428V250.607L215.247 256.722V270.523L204.632 276.638V289.139L193.952 295.291V307.729L182.212 314.492V326.099L170.233 333L158.254 326.099V312.298L169.994 305.535V295.402L159.121 289.139V276.824L148.183 270.523V258.6L137.124 252.229V238.428L148.081 232.116V221.636L136.731 215.098V201.297L148.71 194.396ZM160.06 216.347L151.184 221.46V231.674L160.06 236.787L168.936 231.674V221.46L160.06 216.347ZM173.487 221.46L182.364 216.347L191.24 221.46V231.674L182.364 236.787L173.487 231.674V221.46ZM183.776 240.221L192.653 235.108L201.529 240.221V250.435L192.653 255.548L183.776 250.435V240.221ZM203.268 253.402L194.392 258.516V268.73L203.268 273.843L212.144 268.73V258.516L203.268 253.402ZM181.715 253.723L172.839 258.837V269.051L181.715 274.164L190.591 269.051V258.837L181.715 253.723ZM171.1 272.018L162.224 277.131V287.345L171.1 292.458L179.976 287.345V277.131L171.1 272.018ZM183.776 277.131L192.653 272.018L201.529 277.131V287.345L192.653 292.458L183.776 287.345V277.131ZM181.973 290.609L173.097 295.722V305.936L181.973 311.049L190.849 305.936V295.722L181.973 290.609ZM161.357 314.092L170.233 308.979L179.109 314.092V324.306L170.233 329.419L161.357 324.306V314.092ZM171.421 235.108L162.545 240.221V250.435L171.421 255.548L180.298 250.435V240.221L171.421 235.108ZM160.163 253.402L151.286 258.516V268.73L160.163 273.843L169.039 268.73V258.516L160.163 253.402ZM140.227 240.221L149.103 235.108L157.979 240.221V250.435L149.103 255.548L140.227 250.435V240.221ZM114.002 111.599L105.126 116.712V126.927L114.002 132.04L122.878 126.927V116.712L114.002 111.599ZM101.646 116.859L92.6429 111.673L83.8939 116.712V126.927L92.7702 132.04L101.646 126.927V116.859ZM81.6512 114.423L90.6423 109.244V98.2051L80.9639 92.6299L71.5118 98.0748V108.583L81.6512 114.423ZM69.532 135.044V147.014L80.4695 153.315V165.63L90.9519 171.668V183.83L102.931 190.73L114.91 183.83V172.007L125.982 165.63V153.129L136.597 147.014V134.995L148.169 128.329V115.82L158.344 109.959V97.0583L168.029 91.4789L178.843 97.7081L190.822 90.8075V77.0064L178.843 70.1059L167.351 76.7258L156.538 70.4966L145.051 77.1135L136.154 71.9887V59.8089L124.175 52.9084L113.559 59.0238L102.943 52.9084L90.9637 59.809V71.6179L81.1901 77.2479L70.47 71.0727L59.8539 77.188L49.2377 71.0726L37.2585 77.9731V89.7822L25.9998 96.2678V110.069L36.9363 116.369V128.684L48.9154 135.585L59.6928 129.377L69.532 135.044ZM93.7452 98.5127V108.58L102.749 113.767L111.498 108.727V98.5127L102.621 93.3995L93.7452 98.5127ZM115.741 135.007L124.618 129.894L133.494 135.007V145.221L124.618 150.334L115.741 145.221V135.007ZM103.064 130.214L94.1876 135.328V145.542L103.064 150.655L111.94 145.542V135.328L103.064 130.214ZM92.4486 148.509L83.5724 153.622V163.836L92.4486 168.949L101.325 163.836V153.622L92.4486 148.509ZM105.126 153.622L114.002 148.509L122.879 153.622V163.836L114.002 168.949L105.126 163.836V153.622ZM102.931 166.709L94.0548 171.822V182.036L102.931 187.149L111.807 182.036V171.822L102.931 166.709ZM81.5111 129.894L72.6349 135.007V145.221L81.5111 150.334L90.3874 145.221V135.007L81.5111 129.894ZM115.299 61.6024L124.175 56.4892L133.051 61.6024V71.8165L124.175 76.9296L115.299 71.8165V61.6024ZM178.843 73.6868L169.967 78.7999V89.014L178.843 94.1272L187.719 89.014V78.7999L178.843 73.6868ZM147.661 79.1907L156.538 74.0775L165.414 79.1907V89.4048L156.538 94.5179L147.661 89.4048V79.1907ZM134.79 74.7839L125.914 79.897V90.1111L134.79 95.2243L143.667 90.1111V79.897L134.79 74.7839ZM113.238 75.1049L104.361 80.218V90.4321L113.238 95.5453L122.114 90.4321V80.218L113.238 75.1049ZM115.299 98.5127L124.175 93.3995L133.051 98.5127V108.727L124.175 113.84L115.299 108.727V98.5127ZM127.314 116.322L136.19 111.209L145.066 116.322V126.536L136.19 131.649L127.314 126.536V116.322ZM146.365 92.8385L137.488 97.9517V108.166L146.365 113.279L155.241 108.166V97.9517L146.365 92.8385ZM102.943 56.4893L94.0666 61.6025V71.8166L102.943 76.9297L111.819 71.8166V61.6025L102.943 56.4893ZM82.8077 79.897L91.684 74.7839L100.56 79.897V90.1111L91.684 95.2243L82.8077 90.1111V79.897ZM40.3614 79.7666L49.2377 74.6535L58.114 79.7666V89.9808L49.2377 95.0939L40.3614 89.9808V79.7666ZM70.47 74.6536L61.5938 79.7667V89.9808L70.47 95.094L79.3463 89.9808V79.7667L70.47 74.6536ZM59.5326 93.2689L50.6564 98.382V108.596L59.5326 113.709L68.4089 108.596V98.382L59.5326 93.2689ZM48.9154 111.564L40.0392 116.677V126.891L48.9154 132.004L57.7917 126.891V116.677L48.9154 111.564ZM61.5939 116.677L70.4701 111.564L79.3464 116.677V126.891L70.4701 132.004L61.5939 126.891V116.677ZM37.9789 92.9481L29.1027 98.0613V108.275L37.9789 113.389L46.8552 108.275V98.0613L37.9789 92.9481Z" fill="#4226C3"/>
<path d="M309.781 205.636L320.208 199.629L330.636 205.636V217.643L320.208 223.65L309.781 217.643V205.636Z" fill="#8851F8" stroke="#4226C3" stroke-width="3.1029"/>
<path d="M171.159 257.604L181.586 251.597L192.014 257.604V269.611L181.586 275.618L171.159 269.611V257.604Z" fill="#8851F8" stroke="#4226C3" stroke-width="3.1029"/>
<path d="M534.435 286.675L544.863 280.668L555.29 286.675V298.682L544.863 304.689L534.435 298.682V286.675Z" fill="#8851F8" stroke="#4226C3" stroke-width="3.1029"/>
<path d="M70.9067 97.7121L81.3344 91.7052L91.7621 97.7121V109.72L81.3344 115.727L70.9067 109.72V97.7121Z" fill="#8851F8" stroke="#4226C3" stroke-width="3.1029"/>
<path d="M337.851 75.1676L348.279 69.1607L358.706 75.1676V87.1752L348.279 93.182L337.851 87.1752V75.1676Z" fill="#8851F8" stroke="#4226C3" stroke-width="3.1029"/>
<path d="M467.508 150.065L477.936 144.058L488.364 150.065V162.073L477.936 168.08L467.508 162.073V150.065Z" fill="#8851F8" stroke="#4226C3" stroke-width="3.1029"/>
<g filter="url(#filter6_i_1_13786)">
<ellipse cx="81.515" cy="103.912" rx="5.38986" ry="5.38355" fill="white"/>
</g>
<g filter="url(#filter7_i_1_13786)">
<ellipse cx="348.314" cy="81.3014" rx="5.38986" ry="5.38355" fill="white"/>
</g>
<g filter="url(#filter8_i_1_13786)">
<ellipse cx="477.67" cy="156.132" rx="5.38986" ry="5.38355" fill="white"/>
</g>
<g filter="url(#filter9_i_1_13786)">
<ellipse cx="320.286" cy="211.583" rx="5.38986" ry="5.38355" fill="white"/>
</g>
<g filter="url(#filter10_i_1_13786)">
<ellipse cx="181.663" cy="263.551" rx="5.38986" ry="5.38355" fill="white"/>
</g>
<g filter="url(#filter11_i_1_13786)">
<ellipse cx="544.941" cy="292.622" rx="5.38986" ry="5.38355" fill="white"/>
</g>
<g filter="url(#filter12_i_1_13786)">
<path d="M348.349 82.188C348.988 82.3173 349.61 81.9047 349.739 81.2663C349.869 80.6279 349.456 80.0056 348.818 79.8763L348.349 82.188ZM211.142 68.9193L211.035 67.7447L211.142 68.9193ZM80.4337 103.712C80.1746 104.31 80.449 105.004 81.0466 105.263L90.7847 109.486C91.3823 109.745 92.0768 109.47 92.3359 108.873C92.595 108.275 92.3206 107.581 91.723 107.322L83.0669 103.569L86.82 94.9125C87.079 94.3149 86.8047 93.6204 86.2071 93.3613C85.6095 93.1022 84.915 93.3766 84.6559 93.9742L80.4337 103.712ZM348.583 81.0322C348.818 79.8763 348.817 79.8762 348.816 79.8761C348.816 79.8759 348.815 79.8757 348.813 79.8754C348.811 79.8749 348.807 79.8741 348.801 79.873C348.791 79.8709 348.775 79.8678 348.755 79.8637C348.714 79.8554 348.653 79.8432 348.572 79.8271C348.411 79.7949 348.171 79.7473 347.857 79.6855C347.227 79.5619 346.298 79.3814 345.098 79.1536C342.697 78.698 339.208 78.0529 334.854 77.294C326.148 75.7765 313.98 73.8039 300.133 71.9834C272.463 68.3455 237.995 65.3016 211.035 67.7447L211.248 70.0938C237.934 67.6754 272.186 70.688 299.826 74.3219C313.633 76.1373 325.767 78.1044 334.449 79.6177C338.79 80.3743 342.267 81.0173 344.658 81.4709C345.854 81.6978 346.777 81.8773 347.402 81.9999C347.714 82.0613 347.952 82.1084 348.111 82.1401C348.19 82.156 348.25 82.168 348.29 82.1761C348.31 82.1801 348.325 82.1831 348.335 82.1851C348.34 82.1861 348.343 82.1868 348.346 82.1873C348.347 82.1876 348.348 82.1877 348.348 82.1879C348.349 82.188 348.349 82.188 348.583 81.0322ZM211.035 67.7447C184.701 70.1313 152.193 78.9806 126.322 87.2072C113.375 91.3242 102.068 95.2923 93.9976 98.2314C89.9623 99.701 86.7354 100.913 84.5165 101.759C83.407 102.182 82.5495 102.513 81.9689 102.738C81.6785 102.851 81.4574 102.937 81.3086 102.996C81.2343 103.025 81.1779 103.047 81.1401 103.062C81.1212 103.069 81.1069 103.075 81.0972 103.079C81.0924 103.081 81.0888 103.082 81.0863 103.083C81.085 103.084 81.0841 103.084 81.0835 103.084C81.0828 103.084 81.0824 103.085 81.5157 104.181C81.9491 105.278 81.9493 105.278 81.9498 105.278C81.9504 105.278 81.9512 105.277 81.9523 105.277C81.9545 105.276 81.9579 105.275 81.9624 105.273C81.9716 105.269 81.9853 105.264 82.0037 105.257C82.0405 105.242 82.0958 105.221 82.1691 105.192C82.3158 105.134 82.5347 105.049 82.8228 104.937C83.399 104.713 84.2518 104.384 85.3564 103.963C87.5655 103.121 90.7814 101.913 94.8048 100.448C102.852 97.517 114.127 93.5599 127.037 89.455C152.879 81.2377 185.183 72.4559 211.248 70.0938L211.035 67.7447Z" fill="#F10160"/>
</g>
<g filter="url(#filter13_i_1_13786)">
<path d="M478.488 155.407C478.236 154.807 477.545 154.524 476.945 154.776L467.156 158.88C466.556 159.132 466.273 159.823 466.525 160.424C466.777 161.025 467.468 161.307 468.068 161.055L476.769 157.407L480.417 166.108C480.669 166.708 481.36 166.991 481.961 166.739C482.562 166.487 482.845 165.796 482.593 165.196L478.488 155.407ZM427.275 222.081L427.819 223.127L427.275 222.081ZM320.75 210.499C320.152 210.243 319.458 210.52 319.202 211.119C318.946 211.718 319.223 212.411 319.822 212.667L320.75 210.499ZM477.401 155.863C476.309 155.417 476.309 155.417 476.309 155.417C476.309 155.417 476.309 155.418 476.309 155.418C476.308 155.42 476.307 155.422 476.306 155.424C476.304 155.43 476.3 155.439 476.295 155.451C476.286 155.474 476.271 155.51 476.251 155.557C476.212 155.652 476.152 155.793 476.073 155.98C475.915 156.352 475.679 156.902 475.368 157.609C474.745 159.023 473.821 161.063 472.62 163.56C470.218 168.555 466.713 175.371 462.301 182.657C453.441 197.286 441.051 213.59 426.731 221.035L427.819 223.127C442.756 215.361 455.429 198.557 464.318 183.879C468.78 176.512 472.32 169.626 474.746 164.582C475.959 162.059 476.894 159.995 477.526 158.56C477.842 157.843 478.083 157.282 478.245 156.9C478.326 156.709 478.387 156.563 478.429 156.464C478.449 156.414 478.465 156.376 478.476 156.35C478.481 156.337 478.485 156.328 478.488 156.321C478.489 156.318 478.49 156.315 478.491 156.313C478.491 156.312 478.492 156.311 478.492 156.311C478.492 156.31 478.492 156.31 477.401 155.863ZM426.731 221.035C417.655 225.753 406.527 227.506 394.855 227.43C383.194 227.354 371.074 225.454 360.078 222.943C349.087 220.433 339.248 217.32 332.157 214.833C328.612 213.59 325.756 212.505 323.788 211.731C322.804 211.344 322.042 211.035 321.527 210.823C321.27 210.717 321.075 210.636 320.944 210.581C320.879 210.553 320.83 210.533 320.797 210.519C320.781 210.512 320.769 210.507 320.761 210.504C320.757 210.502 320.754 210.501 320.753 210.5C320.752 210.5 320.751 210.499 320.751 210.499C320.75 210.499 320.75 210.499 320.286 211.583C319.822 212.667 319.823 212.668 319.823 212.668C319.824 212.668 319.825 212.669 319.826 212.669C319.829 212.67 319.832 212.672 319.837 212.674C319.846 212.677 319.859 212.683 319.876 212.69C319.911 212.705 319.963 212.727 320.031 212.756C320.166 212.813 320.367 212.896 320.63 213.004C321.155 213.221 321.928 213.534 322.924 213.926C324.916 214.709 327.8 215.805 331.376 217.059C338.526 219.566 348.452 222.708 359.553 225.242C370.649 227.776 382.95 229.711 394.84 229.788C406.72 229.865 418.275 228.09 427.819 223.127L426.731 221.035Z" fill="#F10160"/>
</g>
<g filter="url(#filter14_i_1_13786)">
<path d="M182.204 262.439C181.599 262.198 180.913 262.493 180.671 263.098C180.43 263.703 180.725 264.389 181.33 264.63L182.204 262.439ZM360.441 311.987L360.344 313.162L360.441 311.987ZM545.77 293.507C546.119 292.957 545.956 292.228 545.406 291.879L536.443 286.193C535.893 285.844 535.164 286.007 534.815 286.557C534.467 287.107 534.63 287.836 535.18 288.185L543.146 293.239L538.092 301.206C537.743 301.756 537.906 302.484 538.456 302.833C539.006 303.182 539.735 303.019 540.084 302.469L545.77 293.507ZM181.767 263.535C181.33 264.63 181.33 264.63 181.331 264.631C181.332 264.631 181.333 264.631 181.335 264.632C181.338 264.634 181.343 264.635 181.35 264.638C181.363 264.643 181.383 264.651 181.409 264.662C181.461 264.682 181.538 264.713 181.641 264.754C181.846 264.835 182.151 264.955 182.551 265.112C183.352 265.426 184.535 265.886 186.065 266.475C189.126 267.651 193.578 269.338 199.145 271.38C210.278 275.464 225.873 280.972 243.723 286.665C279.399 298.042 324.174 310.191 360.344 313.162L360.537 310.811C324.648 307.863 280.086 295.786 244.44 284.417C226.629 278.737 211.067 273.241 199.957 269.166C194.403 267.128 189.963 265.446 186.912 264.273C185.386 263.687 184.208 263.228 183.412 262.916C183.014 262.76 182.711 262.64 182.509 262.56C182.407 262.52 182.331 262.49 182.28 262.469C182.254 262.459 182.235 262.452 182.222 262.447C182.216 262.444 182.211 262.442 182.208 262.441C182.207 262.44 182.206 262.44 182.205 262.44C182.204 262.439 182.204 262.439 181.767 263.535ZM360.344 313.162C396.65 316.144 442.846 311.348 479.904 305.825C498.446 303.062 514.724 300.113 526.367 297.854C532.189 296.725 536.853 295.769 540.062 295.094C541.667 294.757 542.908 294.49 543.749 294.307C544.169 294.216 544.489 294.146 544.704 294.098C544.812 294.075 544.893 294.057 544.948 294.044C544.975 294.038 544.996 294.034 545.01 294.031C545.017 294.029 545.022 294.028 545.026 294.027C545.028 294.027 545.029 294.026 545.03 294.026C545.031 294.026 545.031 294.026 544.774 292.875C544.516 291.724 544.516 291.724 544.515 291.724C544.515 291.725 544.513 291.725 544.512 291.725C544.508 291.726 544.504 291.727 544.497 291.728C544.484 291.731 544.463 291.736 544.437 291.742C544.383 291.754 544.303 291.772 544.196 291.795C543.983 291.842 543.666 291.912 543.248 292.002C542.412 292.184 541.177 292.45 539.577 292.786C536.379 293.458 531.727 294.412 525.918 295.539C514.3 297.792 498.057 300.735 479.556 303.492C442.53 309.01 396.559 313.77 360.537 310.811L360.344 313.162Z" fill="#F10160"/>
</g>
<rect x="393.448" y="96.475" width="168.781" height="36.5978" rx="4.26449" fill="#E5D9FF"/>
<g clip-path="url(#clip0_1_13786)">
<path d="M412.212 125.009C417.884 125.009 422.447 120.446 422.447 114.774C422.447 109.102 417.884 104.539 412.212 104.539C406.54 104.539 401.977 109.102 401.977 114.774C401.977 120.446 406.54 125.009 412.212 125.009Z" fill="#8851F8"/>
<path d="M410.938 117.959H409.379L410.619 114.189L411.392 116.59L410.938 117.959Z" fill="white"/>
<path d="M415.1 117.953H413.535L415.794 111.838H417.329L415.1 117.953Z" fill="white"/>
<path d="M408.851 111.795H407.095L408.519 115.583L409.323 113.256L408.851 111.795Z" fill="white"/>
<path d="M412.975 111.788H411.391L412.68 115.607L413.497 113.403L412.975 111.788Z" fill="white"/>
</g>
<path d="M433.298 112.142L431.168 104.698H432.888L434.12 109.87H434.181L435.541 104.698H437.013L438.368 109.881H438.434L439.666 104.698H441.385L439.255 112.142H437.721L436.304 107.275H436.246L434.832 112.142H433.298ZM442.227 112.142V104.698H447.156V105.996H443.801V107.769H446.829V109.067H443.801V112.142H442.227ZM454.782 107.304H453.19C453.161 107.098 453.101 106.915 453.012 106.755C452.922 106.593 452.807 106.455 452.667 106.341C452.526 106.227 452.364 106.14 452.18 106.079C451.998 106.019 451.8 105.989 451.587 105.989C451.202 105.989 450.866 106.084 450.58 106.276C450.294 106.465 450.073 106.741 449.915 107.104C449.758 107.465 449.679 107.904 449.679 108.42C449.679 108.951 449.758 109.397 449.915 109.758C450.075 110.119 450.298 110.391 450.584 110.575C450.87 110.759 451.201 110.852 451.576 110.852C451.787 110.852 451.982 110.824 452.161 110.768C452.343 110.712 452.504 110.631 452.645 110.524C452.785 110.415 452.902 110.283 452.994 110.128C453.088 109.973 453.154 109.796 453.19 109.598L454.782 109.605C454.741 109.947 454.638 110.276 454.473 110.593C454.311 110.908 454.091 111.191 453.815 111.44C453.541 111.687 453.214 111.884 452.834 112.029C452.456 112.172 452.028 112.244 451.551 112.244C450.887 112.244 450.293 112.093 449.77 111.793C449.249 111.492 448.837 111.057 448.534 110.488C448.234 109.919 448.083 109.229 448.083 108.42C448.083 107.608 448.236 106.918 448.541 106.348C448.847 105.779 449.261 105.345 449.784 105.047C450.308 104.747 450.897 104.597 451.551 104.597C451.982 104.597 452.382 104.657 452.75 104.778C453.121 104.899 453.449 105.076 453.735 105.309C454.021 105.539 454.254 105.821 454.433 106.156C454.615 106.49 454.731 106.873 454.782 107.304Z" fill="#03010F"/>
<path d="M432.456 119.444V124.406H431.407V119.444H432.456ZM434.332 122.255V124.406H433.3V120.685H434.284V121.341H434.327C434.41 121.125 434.548 120.953 434.742 120.827C434.936 120.7 435.171 120.636 435.447 120.636C435.705 120.636 435.931 120.693 436.123 120.806C436.315 120.919 436.465 121.08 436.571 121.29C436.678 121.499 436.731 121.747 436.731 122.037V124.406H435.699V122.221C435.7 121.993 435.642 121.815 435.524 121.688C435.406 121.558 435.244 121.494 435.037 121.494C434.898 121.494 434.776 121.524 434.669 121.583C434.564 121.643 434.482 121.73 434.422 121.845C434.364 121.958 434.334 122.095 434.332 122.255ZM439.524 120.685V121.46H437.283V120.685H439.524ZM437.792 119.793H438.824V123.263C438.824 123.358 438.838 123.432 438.868 123.486C438.897 123.537 438.937 123.574 438.989 123.595C439.042 123.616 439.103 123.626 439.173 123.626C439.221 123.626 439.27 123.622 439.318 123.614C439.367 123.604 439.404 123.597 439.43 123.592L439.592 124.36C439.54 124.376 439.468 124.395 439.374 124.416C439.28 124.439 439.166 124.452 439.032 124.457C438.784 124.467 438.565 124.434 438.378 124.358C438.192 124.282 438.048 124.164 437.944 124.004C437.841 123.844 437.79 123.642 437.792 123.398V119.793ZM441.853 124.479C441.47 124.479 441.14 124.401 440.864 124.246C440.589 124.09 440.378 123.868 440.229 123.582C440.081 123.295 440.006 122.955 440.006 122.562C440.006 122.18 440.081 121.844 440.229 121.554C440.378 121.265 440.587 121.04 440.857 120.878C441.128 120.717 441.446 120.636 441.812 120.636C442.057 120.636 442.286 120.676 442.497 120.755C442.71 120.832 442.896 120.949 443.055 121.106C443.214 121.263 443.339 121.46 443.428 121.697C443.516 121.933 443.561 122.209 443.561 122.526V122.809H440.418V122.17H442.589C442.589 122.021 442.557 121.89 442.492 121.775C442.428 121.66 442.338 121.571 442.223 121.506C442.11 121.44 441.979 121.407 441.828 121.407C441.672 121.407 441.533 121.443 441.412 121.516C441.292 121.587 441.198 121.683 441.131 121.804C441.063 121.923 441.028 122.057 441.026 122.204V122.812C441.026 122.996 441.06 123.155 441.128 123.289C441.198 123.423 441.295 123.527 441.421 123.599C441.547 123.672 441.697 123.708 441.87 123.708C441.984 123.708 442.089 123.692 442.185 123.66C442.28 123.628 442.362 123.579 442.429 123.515C442.497 123.45 442.549 123.371 442.584 123.277L443.539 123.34C443.491 123.57 443.391 123.77 443.241 123.941C443.092 124.111 442.9 124.243 442.664 124.338C442.43 124.432 442.16 124.479 441.853 124.479ZM444.235 124.406V120.685H445.235V121.334H445.274C445.342 121.103 445.456 120.928 445.616 120.811C445.776 120.691 445.96 120.631 446.168 120.631C446.22 120.631 446.275 120.634 446.335 120.641C446.395 120.647 446.448 120.656 446.493 120.668V121.583C446.444 121.569 446.377 121.556 446.292 121.545C446.206 121.533 446.128 121.528 446.057 121.528C445.905 121.528 445.769 121.561 445.65 121.627C445.532 121.692 445.438 121.782 445.368 121.898C445.301 122.015 445.267 122.149 445.267 122.301V124.406H444.235ZM448.549 124.479C448.166 124.479 447.837 124.401 447.561 124.246C447.286 124.09 447.074 123.868 446.926 123.582C446.777 123.295 446.703 122.955 446.703 122.562C446.703 122.18 446.777 121.844 446.926 121.554C447.074 121.265 447.284 121.04 447.553 120.878C447.825 120.717 448.143 120.636 448.508 120.636C448.754 120.636 448.982 120.676 449.194 120.755C449.407 120.832 449.593 120.949 449.751 121.106C449.911 121.263 450.035 121.46 450.124 121.697C450.213 121.933 450.257 122.209 450.257 122.526V122.809H447.115V122.17H449.286C449.286 122.021 449.254 121.89 449.189 121.775C449.124 121.66 449.035 121.571 448.92 121.506C448.807 121.44 448.675 121.407 448.525 121.407C448.368 121.407 448.229 121.443 448.108 121.516C447.989 121.587 447.895 121.683 447.827 121.804C447.759 121.923 447.725 122.057 447.723 122.204V122.812C447.723 122.996 447.757 123.155 447.825 123.289C447.894 123.423 447.992 123.527 448.118 123.599C448.244 123.672 448.393 123.708 448.566 123.708C448.681 123.708 448.786 123.692 448.881 123.66C448.977 123.628 449.058 123.579 449.126 123.515C449.194 123.45 449.245 123.371 449.281 123.277L450.236 123.34C450.187 123.57 450.088 123.77 449.938 123.941C449.789 124.111 449.597 124.243 449.361 124.338C449.127 124.432 448.856 124.479 448.549 124.479ZM454.028 121.746L453.083 121.804C453.067 121.723 453.032 121.65 452.979 121.586C452.925 121.52 452.855 121.467 452.768 121.428C452.682 121.388 452.58 121.368 452.46 121.368C452.3 121.368 452.165 121.402 452.055 121.47C451.946 121.536 451.891 121.625 451.891 121.736C451.891 121.825 451.926 121.9 451.997 121.961C452.068 122.023 452.19 122.072 452.363 122.109L453.037 122.245C453.399 122.319 453.668 122.439 453.846 122.604C454.024 122.768 454.112 122.985 454.112 123.253C454.112 123.497 454.041 123.711 453.897 123.895C453.755 124.079 453.559 124.223 453.31 124.326C453.063 124.428 452.778 124.479 452.455 124.479C451.962 124.479 451.57 124.376 451.278 124.171C450.987 123.964 450.816 123.683 450.766 123.328L451.782 123.275C451.812 123.425 451.887 123.54 452.004 123.619C452.122 123.696 452.273 123.735 452.458 123.735C452.638 123.735 452.784 123.7 452.894 123.631C453.005 123.56 453.062 123.469 453.063 123.357C453.062 123.263 453.022 123.187 452.945 123.127C452.867 123.066 452.748 123.019 452.586 122.986L451.941 122.858C451.578 122.785 451.307 122.659 451.13 122.48C450.954 122.301 450.866 122.072 450.866 121.794C450.866 121.555 450.93 121.349 451.059 121.176C451.19 121.004 451.374 120.87 451.61 120.777C451.847 120.683 452.125 120.636 452.443 120.636C452.913 120.636 453.283 120.735 453.553 120.934C453.824 121.133 453.982 121.403 454.028 121.746ZM456.742 120.685V121.46H454.501V120.685H456.742ZM455.01 119.793H456.042V123.263C456.042 123.358 456.056 123.432 456.085 123.486C456.114 123.537 456.155 123.574 456.207 123.595C456.26 123.616 456.321 123.626 456.391 123.626C456.439 123.626 456.488 123.622 456.536 123.614C456.585 123.604 456.622 123.597 456.648 123.592L456.81 124.36C456.758 124.376 456.686 124.395 456.592 124.416C456.498 124.439 456.384 124.452 456.25 124.457C456.001 124.467 455.783 124.434 455.596 124.358C455.41 124.282 455.266 124.164 455.162 124.004C455.059 123.844 455.008 123.642 455.01 123.398V119.793ZM460.055 124.477C459.817 124.477 459.606 124.435 459.42 124.353C459.234 124.269 459.087 124.145 458.979 123.982C458.872 123.817 458.819 123.612 458.819 123.367C458.819 123.16 458.857 122.986 458.933 122.846C459.009 122.705 459.112 122.592 459.243 122.507C459.374 122.421 459.523 122.356 459.689 122.313C459.857 122.269 460.033 122.238 460.217 122.221C460.434 122.198 460.608 122.177 460.741 122.158C460.873 122.137 460.969 122.106 461.029 122.066C461.089 122.025 461.119 121.965 461.119 121.886V121.872C461.119 121.718 461.07 121.6 460.973 121.516C460.878 121.432 460.742 121.39 460.566 121.39C460.38 121.39 460.233 121.431 460.123 121.513C460.013 121.594 459.94 121.696 459.905 121.818L458.95 121.741C458.998 121.515 459.094 121.319 459.236 121.155C459.378 120.988 459.561 120.861 459.786 120.772C460.012 120.681 460.274 120.636 460.571 120.636C460.778 120.636 460.976 120.66 461.165 120.709C461.355 120.757 461.524 120.832 461.671 120.934C461.82 121.036 461.937 121.167 462.022 121.327C462.108 121.485 462.151 121.675 462.151 121.896V124.406H461.172V123.89H461.143C461.083 124.006 461.003 124.109 460.903 124.198C460.803 124.285 460.682 124.354 460.542 124.404C460.401 124.452 460.239 124.477 460.055 124.477ZM460.351 123.764C460.502 123.764 460.636 123.734 460.753 123.675C460.869 123.613 460.96 123.531 461.027 123.427C461.093 123.324 461.126 123.207 461.126 123.076V122.681C461.094 122.702 461.049 122.721 460.993 122.739C460.938 122.755 460.875 122.771 460.806 122.785C460.737 122.798 460.667 122.81 460.598 122.822C460.528 122.831 460.465 122.84 460.409 122.848C460.288 122.866 460.182 122.894 460.091 122.933C460.001 122.972 459.931 123.024 459.88 123.091C459.83 123.155 459.805 123.236 459.805 123.333C459.805 123.473 459.856 123.581 459.958 123.655C460.061 123.728 460.192 123.764 460.351 123.764ZM464.633 124.479C464.252 124.479 463.924 124.398 463.649 124.237C463.376 124.073 463.166 123.847 463.019 123.558C462.874 123.269 462.801 122.936 462.801 122.56C462.801 122.179 462.875 121.844 463.022 121.557C463.17 121.268 463.381 121.042 463.654 120.881C463.927 120.718 464.252 120.636 464.628 120.636C464.953 120.636 465.237 120.695 465.481 120.813C465.725 120.931 465.918 121.096 466.06 121.31C466.202 121.523 466.281 121.773 466.295 122.061H465.321C465.294 121.875 465.221 121.726 465.103 121.613C464.987 121.498 464.834 121.44 464.645 121.44C464.485 121.44 464.346 121.484 464.226 121.571C464.108 121.657 464.016 121.782 463.95 121.947C463.884 122.112 463.851 122.311 463.851 122.545C463.851 122.783 463.883 122.985 463.947 123.151C464.014 123.318 464.107 123.444 464.226 123.532C464.346 123.619 464.485 123.662 464.645 123.662C464.763 123.662 464.869 123.638 464.963 123.59C465.058 123.541 465.136 123.471 465.198 123.379C465.261 123.285 465.302 123.173 465.321 123.042H466.295C466.279 123.326 466.202 123.577 466.063 123.793C465.925 124.008 465.736 124.176 465.493 124.297C465.251 124.418 464.964 124.479 464.633 124.479ZM468.638 124.479C468.257 124.479 467.929 124.398 467.654 124.237C467.381 124.073 467.171 123.847 467.024 123.558C466.879 123.269 466.806 122.936 466.806 122.56C466.806 122.179 466.879 121.844 467.026 121.557C467.175 121.268 467.386 121.042 467.659 120.881C467.932 120.718 468.257 120.636 468.633 120.636C468.958 120.636 469.242 120.695 469.486 120.813C469.73 120.931 469.923 121.096 470.065 121.31C470.207 121.523 470.285 121.773 470.3 122.061H469.326C469.298 121.875 469.226 121.726 469.108 121.613C468.992 121.498 468.839 121.44 468.65 121.44C468.49 121.44 468.35 121.484 468.231 121.571C468.113 121.657 468.021 121.782 467.954 121.947C467.888 122.112 467.855 122.311 467.855 122.545C467.855 122.783 467.887 122.985 467.952 123.151C468.018 123.318 468.111 123.444 468.231 123.532C468.35 123.619 468.49 123.662 468.65 123.662C468.768 123.662 468.874 123.638 468.967 123.59C469.063 123.541 469.141 123.471 469.202 123.379C469.265 123.285 469.307 123.173 469.326 123.042H470.3C470.284 123.326 470.206 123.577 470.067 123.793C469.93 124.008 469.74 124.176 469.498 124.297C469.256 124.418 468.969 124.479 468.638 124.479ZM472.642 124.479C472.266 124.479 471.941 124.399 471.666 124.239C471.393 124.078 471.182 123.853 471.034 123.565C470.885 123.276 470.811 122.941 470.811 122.56C470.811 122.175 470.885 121.839 471.034 121.552C471.182 121.263 471.393 121.038 471.666 120.878C471.941 120.717 472.266 120.636 472.642 120.636C473.019 120.636 473.343 120.717 473.616 120.878C473.891 121.038 474.103 121.263 474.251 121.552C474.4 121.839 474.474 122.175 474.474 122.56C474.474 122.941 474.4 123.276 474.251 123.565C474.103 123.853 473.891 124.078 473.616 124.239C473.343 124.399 473.019 124.479 472.642 124.479ZM472.647 123.679C472.818 123.679 472.961 123.631 473.076 123.534C473.191 123.435 473.277 123.301 473.335 123.132C473.395 122.962 473.425 122.769 473.425 122.553C473.425 122.336 473.395 122.143 473.335 121.974C473.277 121.804 473.191 121.67 473.076 121.571C472.961 121.473 472.818 121.424 472.647 121.424C472.474 121.424 472.329 121.473 472.211 121.571C472.095 121.67 472.007 121.804 471.947 121.974C471.889 122.143 471.86 122.336 471.86 122.553C471.86 122.769 471.889 122.962 471.947 123.132C472.007 123.301 472.095 123.435 472.211 123.534C472.329 123.631 472.474 123.679 472.647 123.679ZM477.532 122.822V120.685H478.564V124.406H477.573V123.73H477.534C477.45 123.948 477.311 124.124 477.115 124.256C476.921 124.388 476.685 124.455 476.405 124.455C476.157 124.455 475.938 124.398 475.749 124.285C475.56 124.172 475.412 124.011 475.305 123.803C475.2 123.595 475.147 123.345 475.145 123.054V120.685H476.178V122.87C476.179 123.09 476.238 123.263 476.354 123.391C476.471 123.519 476.627 123.582 476.822 123.582C476.946 123.582 477.063 123.554 477.171 123.498C477.279 123.439 477.366 123.354 477.433 123.241C477.501 123.128 477.534 122.988 477.532 122.822ZM480.422 122.255V124.406H479.39V120.685H480.374V121.341H480.417C480.5 121.125 480.638 120.953 480.832 120.827C481.025 120.7 481.26 120.636 481.537 120.636C481.795 120.636 482.02 120.693 482.213 120.806C482.405 120.919 482.554 121.08 482.661 121.29C482.768 121.499 482.821 121.747 482.821 122.037V124.406H481.789V122.221C481.79 121.993 481.732 121.815 481.614 121.688C481.496 121.558 481.334 121.494 481.127 121.494C480.988 121.494 480.865 121.524 480.759 121.583C480.654 121.643 480.571 121.73 480.512 121.845C480.454 121.958 480.424 122.095 480.422 122.255ZM485.614 120.685V121.46H483.373V120.685H485.614ZM483.881 119.793H484.914V123.263C484.914 123.358 484.928 123.432 484.957 123.486C484.986 123.537 485.027 123.574 485.078 123.595C485.132 123.616 485.193 123.626 485.263 123.626C485.311 123.626 485.36 123.622 485.408 123.614C485.456 123.604 485.494 123.597 485.519 123.592L485.682 124.36C485.63 124.376 485.557 124.395 485.464 124.416C485.37 124.439 485.256 124.452 485.122 124.457C484.873 124.467 484.655 124.434 484.468 124.358C484.282 124.282 484.138 124.164 484.034 124.004C483.931 123.844 483.88 123.642 483.881 123.398V119.793ZM489.336 121.746L488.391 121.804C488.375 121.723 488.34 121.65 488.287 121.586C488.234 121.52 488.164 121.467 488.076 121.428C487.991 121.388 487.888 121.368 487.769 121.368C487.609 121.368 487.474 121.402 487.364 121.47C487.254 121.536 487.199 121.625 487.199 121.736C487.199 121.825 487.235 121.9 487.306 121.961C487.377 122.023 487.499 122.072 487.672 122.109L488.345 122.245C488.707 122.319 488.977 122.439 489.155 122.604C489.332 122.768 489.421 122.985 489.421 123.253C489.421 123.497 489.349 123.711 489.205 123.895C489.063 124.079 488.868 124.223 488.619 124.326C488.372 124.428 488.087 124.479 487.764 124.479C487.271 124.479 486.879 124.376 486.586 124.171C486.295 123.964 486.125 123.683 486.075 123.328L487.09 123.275C487.121 123.425 487.195 123.54 487.313 123.619C487.431 123.696 487.582 123.735 487.766 123.735C487.947 123.735 488.092 123.7 488.202 123.631C488.314 123.56 488.37 123.469 488.372 123.357C488.37 123.263 488.331 123.187 488.253 123.127C488.176 123.066 488.056 123.019 487.895 122.986L487.25 122.858C486.887 122.785 486.616 122.659 486.438 122.48C486.262 122.301 486.174 122.072 486.174 121.794C486.174 121.555 486.239 121.349 486.368 121.176C486.499 121.004 486.682 120.87 486.918 120.777C487.156 120.683 487.433 120.636 487.752 120.636C488.222 120.636 488.592 120.735 488.861 120.934C489.133 121.133 489.291 121.403 489.336 121.746Z" fill="#03010F" fill-opacity="0.8"/>
<path d="M503.015 117.232V113.137H503.83V117.232H503.015ZM501.377 115.59V114.779H505.472V115.59H501.377ZM511.032 119.049V111.296H511.529V119.049H511.032ZM512.586 113.7C512.553 113.414 512.42 113.192 512.186 113.034C511.952 112.875 511.657 112.795 511.301 112.795C511.047 112.795 510.827 112.835 510.641 112.916C510.455 112.995 510.311 113.104 510.208 113.243C510.107 113.38 510.057 113.537 510.057 113.713C510.057 113.86 510.091 113.987 510.16 114.094C510.23 114.201 510.322 114.291 510.435 114.364C510.55 114.434 510.673 114.494 510.805 114.542C510.936 114.589 511.062 114.627 511.183 114.658L511.789 114.815C511.987 114.863 512.19 114.929 512.398 115.012C512.606 115.095 512.799 115.204 512.976 115.339C513.154 115.474 513.297 115.642 513.406 115.842C513.517 116.042 513.573 116.281 513.573 116.56C513.573 116.911 513.482 117.223 513.3 117.495C513.121 117.768 512.859 117.983 512.516 118.141C512.175 118.298 511.762 118.377 511.277 118.377C510.813 118.377 510.411 118.303 510.072 118.156C509.732 118.008 509.467 117.799 509.275 117.529C509.083 117.256 508.977 116.933 508.957 116.56H509.896C509.914 116.784 509.987 116.97 510.114 117.12C510.243 117.267 510.408 117.377 510.608 117.45C510.81 117.521 511.031 117.556 511.271 117.556C511.536 117.556 511.771 117.515 511.977 117.432C512.185 117.347 512.348 117.23 512.467 117.081C512.587 116.929 512.646 116.752 512.646 116.551C512.646 116.367 512.594 116.216 512.489 116.099C512.386 115.982 512.245 115.885 512.068 115.808C511.892 115.732 511.693 115.664 511.471 115.606L510.738 115.406C510.241 115.27 509.848 115.071 509.557 114.809C509.268 114.546 509.124 114.199 509.124 113.767C509.124 113.41 509.221 113.098 509.414 112.831C509.608 112.565 509.871 112.358 510.202 112.21C510.533 112.061 510.907 111.986 511.323 111.986C511.743 111.986 512.113 112.06 512.434 112.207C512.757 112.355 513.012 112.558 513.197 112.816C513.383 113.072 513.48 113.367 513.488 113.7H512.586ZM516.96 112.071V118.274H516.021V113.01H515.985L514.5 113.979V113.083L516.048 112.071H516.96ZM519.47 117.426L519.424 117.756C519.394 117.998 519.343 118.251 519.27 118.513C519.199 118.778 519.126 119.023 519.049 119.249C518.974 119.475 518.913 119.655 518.864 119.788H518.222C518.248 119.663 518.285 119.493 518.331 119.279C518.378 119.067 518.423 118.83 518.467 118.568C518.512 118.305 518.545 118.038 518.567 117.765L518.598 117.426H519.47ZM520.606 117.062V116.305L523.287 112.071H523.884V113.186H523.505L521.588 116.22V116.269H525.262V117.062H520.606ZM523.547 118.274V116.832L523.553 116.487V112.071H524.441V118.274H523.547ZM526.187 117.062V116.305L528.867 112.071H529.464V113.186H529.085L527.168 116.22V116.269H530.842V117.062H526.187ZM529.128 118.274V116.832L529.134 116.487V112.071H530.021V118.274H529.128ZM534.063 118.359C533.787 118.355 533.514 118.304 533.245 118.207C532.979 118.11 532.737 117.949 532.519 117.723C532.3 117.496 532.126 117.193 531.995 116.811C531.865 116.429 531.801 115.953 531.801 115.381C531.801 114.84 531.854 114.36 531.961 113.94C532.07 113.52 532.227 113.165 532.431 112.877C532.635 112.586 532.881 112.365 533.17 112.213C533.458 112.062 533.783 111.986 534.142 111.986C534.511 111.986 534.84 112.059 535.126 112.204C535.413 112.35 535.645 112.551 535.823 112.807C536.003 113.063 536.117 113.355 536.165 113.682H535.241C535.179 113.424 535.055 113.213 534.869 113.049C534.683 112.886 534.441 112.804 534.142 112.804C533.688 112.804 533.333 113.002 533.079 113.398C532.826 113.793 532.699 114.344 532.697 115.048H532.743C532.85 114.873 532.981 114.723 533.136 114.6C533.294 114.475 533.47 114.379 533.663 114.312C533.859 114.244 534.065 114.209 534.281 114.209C534.641 114.209 534.966 114.297 535.257 114.473C535.549 114.646 535.783 114.887 535.956 115.194C536.13 115.501 536.217 115.852 536.217 116.248C536.217 116.643 536.127 117.002 535.947 117.323C535.769 117.644 535.519 117.898 535.196 118.086C534.873 118.272 534.495 118.363 534.063 118.359ZM534.06 117.571C534.298 117.571 534.511 117.513 534.699 117.396C534.887 117.278 535.035 117.121 535.144 116.923C535.254 116.725 535.308 116.504 535.308 116.26C535.308 116.021 535.255 115.804 535.148 115.609C535.043 115.413 534.897 115.257 534.711 115.142C534.528 115.027 534.318 114.969 534.081 114.969C533.902 114.969 533.735 115.004 533.582 115.072C533.43 115.141 533.297 115.236 533.182 115.357C533.067 115.478 532.976 115.618 532.909 115.775C532.845 115.931 532.812 116.095 532.812 116.269C532.812 116.501 532.866 116.716 532.973 116.914C533.082 117.112 533.23 117.271 533.418 117.392C533.608 117.512 533.822 117.571 534.06 117.571ZM537.645 118.331C537.48 118.331 537.338 118.273 537.218 118.156C537.099 118.037 537.04 117.893 537.04 117.726C537.04 117.56 537.099 117.419 537.218 117.302C537.338 117.183 537.48 117.123 537.645 117.123C537.811 117.123 537.953 117.183 538.073 117.302C538.192 117.419 538.251 117.56 538.251 117.726C538.251 117.837 538.223 117.939 538.166 118.032C538.112 118.122 538.039 118.195 537.948 118.25C537.857 118.304 537.757 118.331 537.645 118.331ZM541.34 118.359C540.906 118.359 540.522 118.284 540.189 118.135C539.858 117.985 539.598 117.779 539.41 117.517C539.223 117.254 539.13 116.955 539.132 116.62C539.13 116.358 539.183 116.116 539.292 115.896C539.403 115.674 539.554 115.489 539.744 115.342C539.933 115.193 540.145 115.098 540.38 115.057V115.021C540.071 114.946 539.823 114.781 539.638 114.524C539.452 114.268 539.36 113.973 539.362 113.64C539.36 113.323 539.444 113.04 539.613 112.792C539.785 112.541 540.02 112.345 540.319 112.201C540.618 112.058 540.958 111.986 541.34 111.986C541.717 111.986 542.055 112.059 542.351 112.204C542.65 112.348 542.885 112.544 543.057 112.795C543.229 113.043 543.316 113.325 543.318 113.64C543.316 113.973 543.221 114.268 543.033 114.524C542.845 114.781 542.601 114.946 542.3 115.021V115.057C542.532 115.098 542.741 115.193 542.927 115.342C543.115 115.489 543.264 115.674 543.375 115.896C543.488 116.116 543.546 116.358 543.548 116.62C543.546 116.955 543.451 117.254 543.263 117.517C543.075 117.779 542.815 117.985 542.482 118.135C542.151 118.284 541.77 118.359 541.34 118.359ZM541.34 117.592C541.596 117.592 541.818 117.55 542.006 117.465C542.194 117.378 542.339 117.258 542.442 117.105C542.545 116.949 542.598 116.768 542.6 116.56C542.598 116.344 542.541 116.153 542.43 115.987C542.321 115.822 542.173 115.691 541.985 115.596C541.797 115.502 541.582 115.454 541.34 115.454C541.095 115.454 540.878 115.502 540.689 115.596C540.499 115.691 540.349 115.822 540.24 115.987C540.131 116.153 540.078 116.344 540.08 116.56C540.078 116.768 540.127 116.949 540.228 117.105C540.331 117.258 540.478 117.378 540.667 117.465C540.857 117.55 541.081 117.592 541.34 117.592ZM541.34 114.706C541.546 114.706 541.728 114.665 541.888 114.582C542.048 114.499 542.173 114.384 542.264 114.237C542.356 114.089 542.404 113.916 542.406 113.719C542.404 113.525 542.357 113.355 542.267 113.21C542.178 113.064 542.054 112.952 541.894 112.874C541.735 112.793 541.55 112.752 541.34 112.752C541.126 112.752 540.938 112.793 540.776 112.874C540.617 112.952 540.493 113.064 540.404 113.21C540.315 113.355 540.272 113.525 540.274 113.719C540.272 113.916 540.316 114.089 540.407 114.237C540.498 114.384 540.623 114.499 540.783 114.582C540.944 114.665 541.13 114.706 541.34 114.706ZM546.986 112.071V118.274H546.047V113.01H546.011L544.527 113.979V113.083L546.075 112.071H546.986Z" fill="black"/>
<rect x="495.882" y="105.573" width="57.4023" height="18.4023" rx="2.99533" stroke="#00934C" stroke-width="0.832513"/>
<rect x="235.318" y="151.085" width="169.831" height="36.8255" rx="4.29102" fill="#E5D9FF"/>
<g clip-path="url(#clip1_1_13786)">
<path d="M254.198 179.796C259.905 179.796 264.497 175.205 264.497 169.498C264.497 163.791 259.905 159.199 254.198 159.199C248.491 159.199 243.9 163.791 243.9 169.498C243.9 175.205 248.491 179.796 254.198 179.796Z" fill="#8851F8"/>
<path d="M252.915 172.702H251.346L252.594 168.909L253.373 171.325L252.915 172.702Z" fill="white"/>
<path d="M257.104 172.696H255.529L257.803 166.543H259.347L257.104 172.696Z" fill="white"/>
<path d="M250.815 166.5H249.048L250.482 170.312L251.291 167.97L250.815 166.5Z" fill="white"/>
<path d="M254.966 166.494H253.373L254.67 170.336L255.492 168.119L254.966 166.494Z" fill="white"/>
</g>
<path d="M275.415 166.852L273.272 159.362H275.002L276.242 164.567H276.304L277.672 159.362H279.153L280.517 164.578H280.583L281.822 159.362H283.552L281.409 166.852H279.866L278.44 161.955H278.381L276.958 166.852H275.415ZM284.4 166.852V159.362H289.359V160.668H285.983V162.453H289.03V163.758H285.983V166.852H284.4ZM297.032 161.985H295.431C295.401 161.777 295.342 161.593 295.251 161.432C295.161 161.269 295.045 161.13 294.904 161.015C294.763 160.901 294.599 160.813 294.414 160.752C294.231 160.691 294.032 160.661 293.818 160.661C293.43 160.661 293.092 160.757 292.805 160.95C292.517 161.14 292.294 161.418 292.135 161.783C291.977 162.147 291.898 162.588 291.898 163.107C291.898 163.641 291.977 164.09 292.135 164.453C292.296 164.816 292.521 165.091 292.808 165.276C293.096 165.461 293.429 165.554 293.807 165.554C294.019 165.554 294.215 165.526 294.396 165.47C294.578 165.414 294.741 165.332 294.882 165.225C295.023 165.115 295.14 164.982 295.233 164.826C295.328 164.67 295.394 164.492 295.431 164.292L297.032 164.3C296.991 164.643 296.887 164.975 296.721 165.294C296.558 165.611 296.337 165.895 296.06 166.146C295.784 166.395 295.455 166.593 295.072 166.739C294.692 166.883 294.261 166.955 293.781 166.955C293.113 166.955 292.516 166.803 291.989 166.501C291.465 166.199 291.051 165.761 290.746 165.188C290.443 164.615 290.292 163.922 290.292 163.107C290.292 162.291 290.446 161.596 290.753 161.023C291.06 160.45 291.477 160.013 292.004 159.714C292.53 159.411 293.123 159.26 293.781 159.26C294.215 159.26 294.617 159.321 294.988 159.443C295.361 159.565 295.691 159.743 295.979 159.977C296.267 160.208 296.501 160.493 296.681 160.829C296.864 161.165 296.981 161.551 297.032 161.985Z" fill="#03010F"/>
<path d="M274.568 174.15V179.143H273.512V174.15H274.568ZM276.456 176.978V179.143H275.417V175.398H276.407V176.059H276.451C276.534 175.841 276.673 175.669 276.868 175.542C277.063 175.414 277.299 175.35 277.577 175.35C277.837 175.35 278.064 175.406 278.257 175.52C278.451 175.634 278.601 175.797 278.708 176.008C278.816 176.218 278.869 176.468 278.869 176.759V179.143H277.831V176.944C277.832 176.715 277.774 176.536 277.655 176.408C277.536 176.278 277.373 176.213 277.165 176.213C277.025 176.213 276.902 176.243 276.794 176.303C276.689 176.363 276.606 176.451 276.546 176.566C276.487 176.68 276.457 176.817 276.456 176.978ZM281.68 175.398V176.179H279.425V175.398H281.68ZM279.937 174.501H280.975V177.992C280.975 178.088 280.99 178.163 281.019 178.217C281.048 178.269 281.089 178.305 281.141 178.326C281.195 178.348 281.256 178.358 281.326 178.358C281.375 178.358 281.424 178.354 281.473 178.346C281.521 178.336 281.559 178.329 281.585 178.324L281.748 179.097C281.696 179.113 281.623 179.132 281.529 179.153C281.434 179.176 281.32 179.19 281.185 179.194C280.935 179.204 280.715 179.171 280.527 179.094C280.34 179.018 280.194 178.899 280.09 178.739C279.986 178.578 279.935 178.374 279.937 178.129V174.501ZM284.023 179.216C283.638 179.216 283.306 179.138 283.028 178.982C282.752 178.825 282.539 178.602 282.389 178.314C282.24 178.025 282.165 177.683 282.165 177.288C282.165 176.903 282.24 176.565 282.389 176.274C282.539 175.983 282.749 175.756 283.021 175.593C283.294 175.431 283.614 175.35 283.981 175.35C284.228 175.35 284.458 175.389 284.671 175.469C284.886 175.547 285.073 175.665 285.232 175.823C285.393 175.98 285.518 176.179 285.608 176.417C285.697 176.655 285.742 176.933 285.742 177.251V177.537H282.579V176.893H284.764C284.764 176.743 284.731 176.611 284.666 176.495C284.601 176.38 284.511 176.29 284.396 176.225C284.282 176.158 284.15 176.125 283.998 176.125C283.841 176.125 283.701 176.161 283.579 176.235C283.459 176.306 283.364 176.403 283.296 176.525C283.228 176.645 283.193 176.779 283.191 176.927V177.539C283.191 177.724 283.226 177.884 283.294 178.019C283.364 178.154 283.462 178.258 283.589 178.331C283.716 178.405 283.866 178.441 284.04 178.441C284.155 178.441 284.261 178.425 284.357 178.392C284.453 178.36 284.535 178.311 284.603 178.246C284.671 178.181 284.723 178.101 284.759 178.007L285.72 178.07C285.671 178.301 285.571 178.503 285.42 178.675C285.27 178.846 285.077 178.979 284.84 179.075C284.604 179.169 284.332 179.216 284.023 179.216ZM286.419 179.143V175.398H287.426V176.052H287.465C287.534 175.819 287.648 175.644 287.809 175.525C287.97 175.405 288.155 175.345 288.365 175.345C288.417 175.345 288.473 175.348 288.533 175.354C288.593 175.361 288.646 175.37 288.692 175.381V176.303C288.643 176.288 288.575 176.275 288.489 176.264C288.403 176.253 288.324 176.247 288.253 176.247C288.1 176.247 287.964 176.28 287.843 176.347C287.725 176.412 287.63 176.503 287.56 176.62C287.492 176.737 287.458 176.872 287.458 177.025V179.143H286.419ZM290.761 179.216C290.376 179.216 290.044 179.138 289.766 178.982C289.49 178.825 289.277 178.602 289.127 178.314C288.978 178.025 288.903 177.683 288.903 177.288C288.903 176.903 288.978 176.565 289.127 176.274C289.277 175.983 289.488 175.756 289.759 175.593C290.032 175.431 290.352 175.35 290.72 175.35C290.967 175.35 291.197 175.389 291.41 175.469C291.624 175.547 291.811 175.665 291.97 175.823C292.131 175.98 292.256 176.179 292.346 176.417C292.435 176.655 292.48 176.933 292.48 177.251V177.537H289.318V176.893H291.502C291.502 176.743 291.47 176.611 291.405 176.495C291.34 176.38 291.249 176.29 291.134 176.225C291.02 176.158 290.888 176.125 290.737 176.125C290.579 176.125 290.439 176.161 290.317 176.235C290.197 176.306 290.103 176.403 290.034 176.525C289.966 176.645 289.931 176.779 289.93 176.927V177.539C289.93 177.724 289.964 177.884 290.032 178.019C290.102 178.154 290.2 178.258 290.327 178.331C290.454 178.405 290.604 178.441 290.778 178.441C290.893 178.441 290.999 178.425 291.095 178.392C291.191 178.36 291.273 178.311 291.341 178.246C291.41 178.181 291.462 178.101 291.497 178.007L292.458 178.07C292.409 178.301 292.309 178.503 292.158 178.675C292.008 178.846 291.815 178.979 291.578 179.075C291.342 179.169 291.07 179.216 290.761 179.216ZM296.273 176.466L295.323 176.525C295.306 176.443 295.271 176.37 295.218 176.305C295.164 176.239 295.093 176.186 295.006 176.147C294.92 176.106 294.816 176.086 294.696 176.086C294.535 176.086 294.399 176.12 294.289 176.188C294.178 176.255 294.123 176.344 294.123 176.456C294.123 176.546 294.159 176.621 294.23 176.683C294.302 176.745 294.425 176.795 294.599 176.832L295.276 176.968C295.64 177.043 295.912 177.164 296.091 177.329C296.269 177.495 296.359 177.713 296.359 177.983C296.359 178.228 296.287 178.444 296.142 178.629C295.999 178.814 295.802 178.959 295.552 179.063C295.303 179.165 295.016 179.216 294.691 179.216C294.195 179.216 293.8 179.113 293.506 178.907C293.214 178.699 293.042 178.416 292.992 178.058L294.013 178.005C294.044 178.156 294.119 178.271 294.238 178.351C294.356 178.429 294.508 178.468 294.694 178.468C294.876 178.468 295.022 178.433 295.132 178.363C295.245 178.292 295.302 178.2 295.303 178.088C295.302 177.993 295.262 177.916 295.184 177.856C295.106 177.794 294.985 177.747 294.823 177.715L294.174 177.585C293.809 177.512 293.536 177.385 293.358 177.205C293.18 177.025 293.092 176.795 293.092 176.515C293.092 176.274 293.157 176.067 293.287 175.893C293.419 175.719 293.603 175.585 293.84 175.491C294.079 175.397 294.359 175.35 294.679 175.35C295.152 175.35 295.524 175.45 295.796 175.649C296.069 175.849 296.228 176.122 296.273 176.466ZM299.005 175.398V176.179H296.75V175.398H299.005ZM297.262 174.501H298.3V177.992C298.3 178.088 298.315 178.163 298.344 178.217C298.373 178.269 298.414 178.305 298.466 178.326C298.52 178.348 298.581 178.358 298.651 178.358C298.7 178.358 298.749 178.354 298.798 178.346C298.846 178.336 298.884 178.329 298.91 178.324L299.073 179.097C299.021 179.113 298.948 179.132 298.854 179.153C298.759 179.176 298.645 179.19 298.51 179.194C298.26 179.204 298.04 179.171 297.852 179.094C297.665 179.018 297.519 178.899 297.415 178.739C297.311 178.578 297.26 178.374 297.262 178.129V174.501ZM302.338 179.214C302.099 179.214 301.886 179.173 301.699 179.09C301.513 179.005 301.365 178.881 301.256 178.717C301.148 178.551 301.095 178.344 301.095 178.097C301.095 177.889 301.133 177.715 301.209 177.573C301.286 177.432 301.39 177.318 301.521 177.232C301.653 177.146 301.803 177.081 301.97 177.037C302.139 176.993 302.316 176.962 302.502 176.944C302.719 176.921 302.895 176.9 303.028 176.881C303.161 176.86 303.258 176.829 303.318 176.788C303.378 176.747 303.409 176.687 303.409 176.608V176.593C303.409 176.439 303.36 176.319 303.262 176.235C303.166 176.15 303.03 176.108 302.853 176.108C302.666 176.108 302.517 176.149 302.406 176.232C302.296 176.313 302.223 176.416 302.187 176.539L301.226 176.461C301.275 176.234 301.371 176.037 301.514 175.871C301.657 175.704 301.842 175.576 302.068 175.486C302.295 175.395 302.558 175.35 302.858 175.35C303.066 175.35 303.265 175.374 303.455 175.423C303.647 175.472 303.817 175.547 303.964 175.649C304.114 175.752 304.232 175.884 304.318 176.044C304.404 176.204 304.447 176.395 304.447 176.617V179.143H303.462V178.624H303.433C303.373 178.741 303.292 178.844 303.192 178.934C303.091 179.021 302.97 179.09 302.828 179.141C302.687 179.19 302.524 179.214 302.338 179.214ZM302.636 178.497C302.788 178.497 302.923 178.467 303.04 178.407C303.157 178.345 303.249 178.262 303.316 178.158C303.383 178.054 303.416 177.936 303.416 177.805V177.407C303.383 177.428 303.339 177.448 303.282 177.466C303.226 177.482 303.164 177.498 303.094 177.512C303.024 177.525 302.954 177.537 302.884 177.549C302.814 177.558 302.751 177.567 302.694 177.576C302.572 177.593 302.466 177.622 302.375 177.661C302.284 177.7 302.213 177.753 302.163 177.819C302.112 177.884 302.087 177.966 302.087 178.063C302.087 178.205 302.138 178.313 302.241 178.387C302.345 178.461 302.476 178.497 302.636 178.497ZM306.945 179.216C306.561 179.216 306.231 179.135 305.955 178.973C305.68 178.808 305.469 178.581 305.321 178.29C305.175 177.999 305.102 177.664 305.102 177.285C305.102 176.902 305.176 176.565 305.324 176.276C305.473 175.985 305.685 175.758 305.96 175.596C306.235 175.432 306.561 175.35 306.94 175.35C307.267 175.35 307.553 175.409 307.798 175.528C308.044 175.646 308.238 175.813 308.381 176.027C308.524 176.242 308.603 176.494 308.617 176.783H307.637C307.61 176.596 307.537 176.446 307.418 176.332C307.301 176.217 307.147 176.159 306.957 176.159C306.796 176.159 306.656 176.203 306.535 176.291C306.417 176.377 306.324 176.503 306.257 176.669C306.191 176.834 306.157 177.035 306.157 177.271C306.157 177.51 306.19 177.713 306.255 177.88C306.322 178.048 306.415 178.175 306.535 178.263C306.656 178.351 306.796 178.395 306.957 178.395C307.076 178.395 307.182 178.37 307.277 178.322C307.372 178.273 307.451 178.202 307.513 178.11C307.576 178.015 307.618 177.902 307.637 177.771H308.617C308.601 178.057 308.523 178.309 308.383 178.526C308.245 178.743 308.054 178.912 307.81 179.034C307.567 179.155 307.278 179.216 306.945 179.216ZM310.974 179.216C310.591 179.216 310.261 179.135 309.985 178.973C309.71 178.808 309.499 178.581 309.351 178.29C309.204 177.999 309.131 177.664 309.131 177.285C309.131 176.902 309.205 176.565 309.353 176.276C309.503 175.985 309.715 175.758 309.99 175.596C310.264 175.432 310.591 175.35 310.97 175.35C311.296 175.35 311.582 175.409 311.828 175.528C312.073 175.646 312.267 175.813 312.411 176.027C312.554 176.242 312.632 176.494 312.647 176.783H311.667C311.639 176.596 311.566 176.446 311.447 176.332C311.33 176.217 311.177 176.159 310.987 176.159C310.826 176.159 310.685 176.203 310.565 176.291C310.446 176.377 310.354 176.503 310.287 176.669C310.22 176.834 310.187 177.035 310.187 177.271C310.187 177.51 310.219 177.713 310.285 177.88C310.351 178.048 310.445 178.175 310.565 178.263C310.685 178.351 310.826 178.395 310.987 178.395C311.105 178.395 311.212 178.37 311.306 178.322C311.402 178.273 311.481 178.202 311.543 178.11C311.606 178.015 311.647 177.902 311.667 177.771H312.647C312.631 178.057 312.553 178.309 312.413 178.526C312.275 178.743 312.084 178.912 311.84 179.034C311.596 179.155 311.308 179.216 310.974 179.216ZM315.004 179.216C314.625 179.216 314.298 179.136 314.021 178.975C313.747 178.812 313.535 178.587 313.385 178.297C313.236 178.006 313.161 177.669 313.161 177.285C313.161 176.899 313.236 176.561 313.385 176.271C313.535 175.98 313.747 175.754 314.021 175.593C314.298 175.431 314.625 175.35 315.004 175.35C315.383 175.35 315.709 175.431 315.984 175.593C316.26 175.754 316.473 175.98 316.623 176.271C316.772 176.561 316.847 176.899 316.847 177.285C316.847 177.669 316.772 178.006 316.623 178.297C316.473 178.587 316.26 178.812 315.984 178.975C315.709 179.136 315.383 179.216 315.004 179.216ZM315.009 178.412C315.181 178.412 315.325 178.363 315.44 178.266C315.556 178.166 315.643 178.031 315.701 177.861C315.761 177.69 315.792 177.496 315.792 177.278C315.792 177.06 315.761 176.866 315.701 176.695C315.643 176.525 315.556 176.39 315.44 176.291C315.325 176.192 315.181 176.142 315.009 176.142C314.835 176.142 314.689 176.192 314.57 176.291C314.453 176.39 314.364 176.525 314.304 176.695C314.246 176.866 314.217 177.06 314.217 177.278C314.217 177.496 314.246 177.69 314.304 177.861C314.364 178.031 314.453 178.166 314.57 178.266C314.689 178.363 314.835 178.412 315.009 178.412ZM319.924 177.549V175.398H320.963V179.143H319.966V178.463H319.927C319.842 178.682 319.701 178.859 319.505 178.992C319.31 179.125 319.072 179.192 318.79 179.192C318.54 179.192 318.32 179.135 318.13 179.021C317.939 178.908 317.791 178.746 317.683 178.536C317.578 178.326 317.524 178.075 317.523 177.783V175.398H318.561V177.598C318.563 177.819 318.622 177.993 318.739 178.122C318.856 178.25 319.013 178.314 319.21 178.314C319.335 178.314 319.452 178.286 319.561 178.229C319.67 178.17 319.757 178.084 319.824 177.971C319.892 177.857 319.926 177.716 319.924 177.549ZM322.832 176.978V179.143H321.793V175.398H322.783V176.059H322.827C322.91 175.841 323.049 175.669 323.244 175.542C323.439 175.414 323.676 175.35 323.954 175.35C324.214 175.35 324.44 175.406 324.634 175.52C324.827 175.634 324.978 175.797 325.085 176.008C325.192 176.218 325.246 176.468 325.246 176.759V179.143H324.207V176.944C324.209 176.715 324.15 176.536 324.032 176.408C323.913 176.278 323.75 176.213 323.542 176.213C323.402 176.213 323.278 176.243 323.171 176.303C323.065 176.363 322.982 176.451 322.922 176.566C322.864 176.68 322.834 176.817 322.832 176.978ZM328.056 175.398V176.179H325.801V175.398H328.056ZM326.313 174.501H327.352V177.992C327.352 178.088 327.366 178.163 327.396 178.217C327.425 178.269 327.465 178.305 327.517 178.326C327.571 178.348 327.633 178.358 327.703 178.358C327.752 178.358 327.8 178.354 327.849 178.346C327.898 178.336 327.935 178.329 327.961 178.324L328.125 179.097C328.073 179.113 327.999 179.132 327.905 179.153C327.811 179.176 327.696 179.19 327.561 179.194C327.311 179.204 327.092 179.171 326.903 179.094C326.716 179.018 326.571 178.899 326.467 178.739C326.363 178.578 326.311 178.374 326.313 178.129V174.501ZM331.802 176.466L330.851 176.525C330.835 176.443 330.8 176.37 330.746 176.305C330.692 176.239 330.622 176.186 330.534 176.147C330.448 176.106 330.345 176.086 330.224 176.086C330.063 176.086 329.928 176.12 329.817 176.188C329.707 176.255 329.651 176.344 329.651 176.456C329.651 176.546 329.687 176.621 329.759 176.683C329.83 176.745 329.953 176.795 330.127 176.832L330.805 176.968C331.169 177.043 331.44 177.164 331.619 177.329C331.798 177.495 331.887 177.713 331.887 177.983C331.887 178.228 331.815 178.444 331.67 178.629C331.527 178.814 331.33 178.959 331.08 179.063C330.831 179.165 330.545 179.216 330.219 179.216C329.724 179.216 329.329 179.113 329.035 178.907C328.742 178.699 328.57 178.416 328.52 178.058L329.542 178.005C329.573 178.156 329.647 178.271 329.766 178.351C329.885 178.429 330.037 178.468 330.222 178.468C330.404 178.468 330.55 178.433 330.661 178.363C330.773 178.292 330.83 178.2 330.831 178.088C330.83 177.993 330.79 177.916 330.712 177.856C330.634 177.794 330.514 177.747 330.351 177.715L329.703 177.585C329.337 177.512 329.065 177.385 328.886 177.205C328.709 177.025 328.62 176.795 328.62 176.515C328.62 176.274 328.685 176.067 328.815 175.893C328.947 175.719 329.131 175.585 329.369 175.491C329.607 175.397 329.887 175.35 330.207 175.35C330.68 175.35 331.052 175.45 331.324 175.649C331.597 175.849 331.756 176.122 331.802 176.466Z" fill="#03010F" fill-opacity="0.8"/>
<path d="M347.788 169.481V170.273H345.021V169.481H347.788ZM353.188 173.778V165.976H353.688V173.778H353.188ZM354.751 168.396C354.719 168.107 354.585 167.884 354.349 167.725C354.113 167.565 353.817 167.485 353.459 167.485C353.203 167.485 352.981 167.525 352.795 167.607C352.608 167.686 352.462 167.796 352.359 167.936C352.257 168.074 352.206 168.231 352.206 168.408C352.206 168.556 352.241 168.684 352.31 168.792C352.381 168.9 352.474 168.99 352.587 169.063C352.703 169.134 352.827 169.194 352.959 169.243C353.091 169.29 353.218 169.328 353.34 169.359L353.95 169.517C354.149 169.566 354.353 169.632 354.562 169.716C354.771 169.799 354.965 169.909 355.144 170.045C355.323 170.181 355.467 170.349 355.577 170.551C355.689 170.752 355.745 170.992 355.745 171.273C355.745 171.626 355.653 171.94 355.47 172.215C355.29 172.489 355.026 172.705 354.681 172.864C354.338 173.022 353.922 173.101 353.435 173.101C352.967 173.101 352.563 173.027 352.222 172.879C351.88 172.731 351.613 172.52 351.42 172.248C351.227 171.974 351.12 171.649 351.1 171.273H352.045C352.063 171.498 352.136 171.686 352.264 171.837C352.394 171.985 352.56 172.096 352.761 172.169C352.964 172.24 353.187 172.276 353.428 172.276C353.695 172.276 353.931 172.234 354.139 172.151C354.348 172.065 354.512 171.947 354.632 171.797C354.752 171.645 354.812 171.467 354.812 171.264C354.812 171.079 354.759 170.927 354.654 170.81C354.55 170.692 354.409 170.594 354.23 170.517C354.053 170.44 353.853 170.372 353.63 170.313L352.892 170.112C352.392 169.976 351.996 169.775 351.704 169.511C351.413 169.247 351.268 168.898 351.268 168.463C351.268 168.103 351.365 167.789 351.56 167.521C351.755 167.253 352.019 167.045 352.353 166.897C352.686 166.746 353.062 166.671 353.48 166.671C353.903 166.671 354.276 166.745 354.599 166.893C354.924 167.042 355.18 167.246 355.367 167.506C355.554 167.764 355.651 168.061 355.659 168.396H354.751ZM359.153 166.756V172.998H358.208V167.701H358.171L356.678 168.676V167.774L358.235 166.756H359.153ZM361.678 172.144L361.633 172.477C361.602 172.72 361.55 172.974 361.477 173.239C361.406 173.505 361.332 173.752 361.255 173.979C361.18 174.207 361.118 174.388 361.069 174.522H360.423C360.449 174.396 360.486 174.225 360.532 174.01C360.579 173.796 360.625 173.558 360.67 173.293C360.714 173.029 360.748 172.76 360.77 172.486L360.801 172.144H361.678ZM362.822 171.779V171.017L365.519 166.756H366.119V167.878H365.738L363.809 170.932V170.98H367.506V171.779H362.822ZM365.781 172.998V171.547L365.787 171.2V166.756H366.68V172.998H365.781ZM368.437 171.779V171.017L371.134 166.756H371.735V167.878H371.354L369.425 170.932V170.98H373.121V171.779H368.437ZM371.396 172.998V171.547L371.402 171.2V166.756H372.295V172.998H371.396ZM376.362 173.083C376.084 173.079 375.81 173.028 375.54 172.931C375.271 172.833 375.028 172.671 374.808 172.443C374.589 172.216 374.413 171.91 374.281 171.526C374.151 171.142 374.086 170.662 374.086 170.087C374.086 169.543 374.14 169.059 374.247 168.637C374.357 168.214 374.515 167.858 374.72 167.567C374.925 167.274 375.173 167.052 375.463 166.9C375.754 166.747 376.08 166.671 376.442 166.671C376.813 166.671 377.144 166.744 377.432 166.89C377.721 167.037 377.954 167.239 378.133 167.497C378.314 167.755 378.429 168.049 378.477 168.378H377.548C377.485 168.118 377.36 167.905 377.173 167.741C376.986 167.576 376.742 167.494 376.442 167.494C375.984 167.494 375.628 167.693 375.372 168.091C375.118 168.489 374.99 169.043 374.988 169.752H375.034C375.141 169.575 375.273 169.425 375.43 169.301C375.588 169.175 375.765 169.079 375.96 169.012C376.157 168.942 376.364 168.908 376.582 168.908C376.943 168.908 377.271 168.996 377.563 169.173C377.858 169.348 378.092 169.59 378.267 169.898C378.442 170.207 378.529 170.561 378.529 170.959C378.529 171.357 378.439 171.718 378.258 172.041C378.079 172.364 377.827 172.62 377.502 172.809C377.177 172.996 376.797 173.087 376.362 173.083ZM376.359 172.291C376.599 172.291 376.813 172.232 377.002 172.114C377.191 171.996 377.341 171.838 377.45 171.639C377.56 171.439 377.615 171.217 377.615 170.971C377.615 170.731 377.561 170.513 377.453 170.316C377.348 170.119 377.201 169.962 377.015 169.847C376.83 169.731 376.618 169.673 376.381 169.673C376.2 169.673 376.032 169.707 375.878 169.776C375.725 169.846 375.591 169.941 375.476 170.063C375.36 170.185 375.268 170.325 375.201 170.484C375.136 170.64 375.104 170.806 375.104 170.98C375.104 171.214 375.158 171.43 375.265 171.629C375.375 171.829 375.524 171.989 375.713 172.111C375.904 172.231 376.12 172.291 376.359 172.291ZM379.967 173.056C379.8 173.056 379.657 172.997 379.537 172.879C379.417 172.759 379.357 172.615 379.357 172.446C379.357 172.28 379.417 172.137 379.537 172.02C379.657 171.9 379.8 171.84 379.967 171.84C380.134 171.84 380.277 171.9 380.397 172.02C380.517 172.137 380.576 172.28 380.576 172.446C380.576 172.558 380.548 172.661 380.491 172.754C380.436 172.845 380.363 172.919 380.272 172.973C380.18 173.028 380.079 173.056 379.967 173.056ZM383.684 173.083C383.247 173.083 382.861 173.008 382.526 172.858C382.193 172.707 381.932 172.5 381.743 172.236C381.554 171.972 381.461 171.671 381.463 171.334C381.461 171.07 381.514 170.827 381.624 170.605C381.736 170.382 381.887 170.196 382.078 170.048C382.269 169.897 382.482 169.802 382.718 169.761V169.725C382.407 169.65 382.158 169.483 381.971 169.225C381.785 168.967 381.692 168.67 381.694 168.335C381.692 168.016 381.776 167.732 381.947 167.482C382.12 167.23 382.356 167.032 382.657 166.887C382.958 166.743 383.3 166.671 383.684 166.671C384.064 166.671 384.403 166.744 384.702 166.89C385.003 167.035 385.24 167.233 385.412 167.485C385.585 167.735 385.672 168.018 385.674 168.335C385.672 168.67 385.577 168.967 385.388 169.225C385.199 169.483 384.953 169.65 384.65 169.725V169.761C384.884 169.802 385.094 169.897 385.281 170.048C385.47 170.196 385.62 170.382 385.732 170.605C385.846 170.827 385.904 171.07 385.906 171.334C385.904 171.671 385.808 171.972 385.619 172.236C385.431 172.5 385.168 172.707 384.833 172.858C384.5 173.008 384.117 173.083 383.684 173.083ZM383.684 172.312C383.942 172.312 384.166 172.269 384.355 172.184C384.544 172.097 384.69 171.976 384.794 171.821C384.897 171.665 384.95 171.482 384.952 171.273C384.95 171.055 384.893 170.863 384.781 170.697C384.672 170.53 384.522 170.399 384.333 170.304C384.144 170.208 383.928 170.16 383.684 170.16C383.438 170.16 383.22 170.208 383.029 170.304C382.838 170.399 382.688 170.53 382.578 170.697C382.468 170.863 382.414 171.055 382.416 171.273C382.414 171.482 382.464 171.665 382.566 171.821C382.669 171.976 382.817 172.097 383.008 172.184C383.199 172.269 383.424 172.312 383.684 172.312ZM383.684 169.408C383.891 169.408 384.075 169.366 384.236 169.283C384.396 169.199 384.522 169.084 384.614 168.935C384.707 168.787 384.755 168.613 384.757 168.414C384.755 168.219 384.708 168.049 384.617 167.902C384.527 167.756 384.402 167.643 384.242 167.564C384.081 167.483 383.896 167.442 383.684 167.442C383.469 167.442 383.28 167.483 383.117 167.564C382.957 167.643 382.832 167.756 382.743 167.902C382.653 168.049 382.609 168.219 382.611 168.414C382.609 168.613 382.654 168.787 382.746 168.935C382.837 169.084 382.963 169.199 383.123 169.283C383.286 169.366 383.473 169.408 383.684 169.408ZM389.366 166.756V172.998H388.421V167.701H388.384L386.891 168.676V167.774L388.448 166.756H389.366Z" fill="black"/>
<rect x="339.687" y="160.267" width="56.4607" height="18.4607" rx="3.01397" stroke="#FF0000" stroke-width="0.837692"/>
<defs>
<filter id="filter0_f_1_13786" x="0.989338" y="23.4112" width="161.053" height="161.002" filterUnits="userSpaceOnUse" color-interpolation-filters="sRGB">
<feFlood flood-opacity="0" result="BackgroundImageFix"/>
<feBlend mode="normal" in="SourceGraphic" in2="BackgroundImageFix" result="shape"/>
<feGaussianBlur stdDeviation="29.4834" result="effect1_foregroundBlur_1_13786"/>
</filter>
<filter id="filter1_f_1_13786" x="101.24" y="183.303" width="161.053" height="161.002" filterUnits="userSpaceOnUse" color-interpolation-filters="sRGB">
<feFlood flood-opacity="0" result="BackgroundImageFix"/>
<feBlend mode="normal" in="SourceGraphic" in2="BackgroundImageFix" result="shape"/>
<feGaussianBlur stdDeviation="29.4834" result="effect1_foregroundBlur_1_13786"/>
</filter>
<filter id="filter2_f_1_13786" x="464.518" y="212.374" width="161.053" height="161.002" filterUnits="userSpaceOnUse" color-interpolation-filters="sRGB">
<feFlood flood-opacity="0" result="BackgroundImageFix"/>
<feBlend mode="normal" in="SourceGraphic" in2="BackgroundImageFix" result="shape"/>
<feGaussianBlur stdDeviation="29.4834" result="effect1_foregroundBlur_1_13786"/>
</filter>
<filter id="filter3_f_1_13786" x="268.327" y="0.800282" width="161.053" height="161.002" filterUnits="userSpaceOnUse" color-interpolation-filters="sRGB">
<feFlood flood-opacity="0" result="BackgroundImageFix"/>
<feBlend mode="normal" in="SourceGraphic" in2="BackgroundImageFix" result="shape"/>
<feGaussianBlur stdDeviation="29.4834" result="effect1_foregroundBlur_1_13786"/>
</filter>
<filter id="filter4_f_1_13786" x="397.145" y="75.6316" width="161.053" height="161.002" filterUnits="userSpaceOnUse" color-interpolation-filters="sRGB">
<feFlood flood-opacity="0" result="BackgroundImageFix"/>
<feBlend mode="normal" in="SourceGraphic" in2="BackgroundImageFix" result="shape"/>
<feGaussianBlur stdDeviation="29.4834" result="effect1_foregroundBlur_1_13786"/>
</filter>
<filter id="filter5_f_1_13786" x="239.76" y="131.082" width="161.053" height="161.002" filterUnits="userSpaceOnUse" color-interpolation-filters="sRGB">
<feFlood flood-opacity="0" result="BackgroundImageFix"/>
<feBlend mode="normal" in="SourceGraphic" in2="BackgroundImageFix" result="shape"/>
<feGaussianBlur stdDeviation="29.4834" result="effect1_foregroundBlur_1_13786"/>
</filter>
<filter id="filter6_i_1_13786" x="76.1251" y="96.17" width="10.7797" height="13.1258" filterUnits="userSpaceOnUse" color-interpolation-filters="sRGB">
<feFlood flood-opacity="0" result="BackgroundImageFix"/>
<feBlend mode="normal" in="SourceGraphic" in2="BackgroundImageFix" result="shape"/>
<feColorMatrix in="SourceAlpha" type="matrix" values="0 0 0 0 0 0 0 0 0 0 0 0 0 0 0 0 0 0 127 0" result="hardAlpha"/>
<feOffset dy="-2.35867"/>
<feGaussianBlur stdDeviation="1.17934"/>
<feComposite in2="hardAlpha" operator="arithmetic" k2="-1" k3="1"/>
<feColorMatrix type="matrix" values="0 0 0 0 0 0 0 0 0 0 0 0 0 0 0 0 0 0 0.25 0"/>
<feBlend mode="normal" in2="shape" result="effect1_innerShadow_1_13786"/>
</filter>
<filter id="filter7_i_1_13786" x="342.924" y="73.5591" width="10.7797" height="13.1258" filterUnits="userSpaceOnUse" color-interpolation-filters="sRGB">
<feFlood flood-opacity="0" result="BackgroundImageFix"/>
<feBlend mode="normal" in="SourceGraphic" in2="BackgroundImageFix" result="shape"/>
<feColorMatrix in="SourceAlpha" type="matrix" values="0 0 0 0 0 0 0 0 0 0 0 0 0 0 0 0 0 0 127 0" result="hardAlpha"/>
<feOffset dy="-2.35867"/>
<feGaussianBlur stdDeviation="1.17934"/>
<feComposite in2="hardAlpha" operator="arithmetic" k2="-1" k3="1"/>
<feColorMatrix type="matrix" values="0 0 0 0 0 0 0 0 0 0 0 0 0 0 0 0 0 0 0.25 0"/>
<feBlend mode="normal" in2="shape" result="effect1_innerShadow_1_13786"/>
</filter>
<filter id="filter8_i_1_13786" x="472.28" y="148.39" width="10.7797" height="13.1258" filterUnits="userSpaceOnUse" color-interpolation-filters="sRGB">
<feFlood flood-opacity="0" result="BackgroundImageFix"/>
<feBlend mode="normal" in="SourceGraphic" in2="BackgroundImageFix" result="shape"/>
<feColorMatrix in="SourceAlpha" type="matrix" values="0 0 0 0 0 0 0 0 0 0 0 0 0 0 0 0 0 0 127 0" result="hardAlpha"/>
<feOffset dy="-2.35867"/>
<feGaussianBlur stdDeviation="1.17934"/>
<feComposite in2="hardAlpha" operator="arithmetic" k2="-1" k3="1"/>
<feColorMatrix type="matrix" values="0 0 0 0 0 0 0 0 0 0 0 0 0 0 0 0 0 0 0.25 0"/>
<feBlend mode="normal" in2="shape" result="effect1_innerShadow_1_13786"/>
</filter>
<filter id="filter9_i_1_13786" x="314.897" y="203.841" width="10.7797" height="13.1258" filterUnits="userSpaceOnUse" color-interpolation-filters="sRGB">
<feFlood flood-opacity="0" result="BackgroundImageFix"/>
<feBlend mode="normal" in="SourceGraphic" in2="BackgroundImageFix" result="shape"/>
<feColorMatrix in="SourceAlpha" type="matrix" values="0 0 0 0 0 0 0 0 0 0 0 0 0 0 0 0 0 0 127 0" result="hardAlpha"/>
<feOffset dy="-2.35867"/>
<feGaussianBlur stdDeviation="1.17934"/>
<feComposite in2="hardAlpha" operator="arithmetic" k2="-1" k3="1"/>
<feColorMatrix type="matrix" values="0 0 0 0 0 0 0 0 0 0 0 0 0 0 0 0 0 0 0.25 0"/>
<feBlend mode="normal" in2="shape" result="effect1_innerShadow_1_13786"/>
</filter>
<filter id="filter10_i_1_13786" x="176.274" y="255.809" width="10.7797" height="13.1258" filterUnits="userSpaceOnUse" color-interpolation-filters="sRGB">
<feFlood flood-opacity="0" result="BackgroundImageFix"/>
<feBlend mode="normal" in="SourceGraphic" in2="BackgroundImageFix" result="shape"/>
<feColorMatrix in="SourceAlpha" type="matrix" values="0 0 0 0 0 0 0 0 0 0 0 0 0 0 0 0 0 0 127 0" result="hardAlpha"/>
<feOffset dy="-2.35867"/>
<feGaussianBlur stdDeviation="1.17934"/>
<feComposite in2="hardAlpha" operator="arithmetic" k2="-1" k3="1"/>
<feColorMatrix type="matrix" values="0 0 0 0 0 0 0 0 0 0 0 0 0 0 0 0 0 0 0.25 0"/>
<feBlend mode="normal" in2="shape" result="effect1_innerShadow_1_13786"/>
</filter>
<filter id="filter11_i_1_13786" x="539.551" y="284.88" width="10.7797" height="13.1258" filterUnits="userSpaceOnUse" color-interpolation-filters="sRGB">
<feFlood flood-opacity="0" result="BackgroundImageFix"/>
<feBlend mode="normal" in="SourceGraphic" in2="BackgroundImageFix" result="shape"/>
<feColorMatrix in="SourceAlpha" type="matrix" values="0 0 0 0 0 0 0 0 0 0 0 0 0 0 0 0 0 0 127 0" result="hardAlpha"/>
<feOffset dy="-2.35867"/>
<feGaussianBlur stdDeviation="1.17934"/>
<feComposite in2="hardAlpha" operator="arithmetic" k2="-1" k3="1"/>
<feColorMatrix type="matrix" values="0 0 0 0 0 0 0 0 0 0 0 0 0 0 0 0 0 0 0.25 0"/>
<feBlend mode="normal" in2="shape" result="effect1_innerShadow_1_13786"/>
</filter>
<filter id="filter12_i_1_13786" x="80.3361" y="64.506" width="269.427" height="45.0772" filterUnits="userSpaceOnUse" color-interpolation-filters="sRGB">
<feFlood flood-opacity="0" result="BackgroundImageFix"/>
<feBlend mode="normal" in="SourceGraphic" in2="BackgroundImageFix" result="shape"/>
<feColorMatrix in="SourceAlpha" type="matrix" values="0 0 0 0 0 0 0 0 0 0 0 0 0 0 0 0 0 0 127 0" result="hardAlpha"/>
<feOffset dy="-2.35867"/>
<feGaussianBlur stdDeviation="1.17934"/>
<feComposite in2="hardAlpha" operator="arithmetic" k2="-1" k3="1"/>
<feColorMatrix type="matrix" values="0 0 0 0 0 0 0 0 0 0 0 0 0 0 0 0 0 0 0.3 0"/>
<feBlend mode="normal" in2="shape" result="effect1_innerShadow_1_13786"/>
</filter>
<filter id="filter13_i_1_13786" x="319.107" y="152.325" width="163.578" height="77.4655" filterUnits="userSpaceOnUse" color-interpolation-filters="sRGB">
<feFlood flood-opacity="0" result="BackgroundImageFix"/>
<feBlend mode="normal" in="SourceGraphic" in2="BackgroundImageFix" result="shape"/>
<feColorMatrix in="SourceAlpha" type="matrix" values="0 0 0 0 0 0 0 0 0 0 0 0 0 0 0 0 0 0 127 0" result="hardAlpha"/>
<feOffset dy="-2.35867"/>
<feGaussianBlur stdDeviation="1.17934"/>
<feComposite in2="hardAlpha" operator="arithmetic" k2="-1" k3="1"/>
<feColorMatrix type="matrix" values="0 0 0 0 0 0 0 0 0 0 0 0 0 0 0 0 0 0 0.3 0"/>
<feBlend mode="normal" in2="shape" result="effect1_innerShadow_1_13786"/>
</filter>
<filter id="filter14_i_1_13786" x="180.587" y="259.996" width="365.366" height="54.0808" filterUnits="userSpaceOnUse" color-interpolation-filters="sRGB">
<feFlood flood-opacity="0" result="BackgroundImageFix"/>
<feBlend mode="normal" in="SourceGraphic" in2="BackgroundImageFix" result="shape"/>
<feColorMatrix in="SourceAlpha" type="matrix" values="0 0 0 0 0 0 0 0 0 0 0 0 0 0 0 0 0 0 127 0" result="hardAlpha"/>
<feOffset dy="-2.35867"/>
<feGaussianBlur stdDeviation="1.17934"/>
<feComposite in2="hardAlpha" operator="arithmetic" k2="-1" k3="1"/>
<feColorMatrix type="matrix" values="0 0 0 0 0 0 0 0 0 0 0 0 0 0 0 0 0 0 0.3 0"/>
<feBlend mode="normal" in2="shape" result="effect1_innerShadow_1_13786"/>
</filter>
<clipPath id="clip0_1_13786">
<rect width="20.4695" height="20.4695" fill="white" transform="translate(401.977 104.539)"/>
</clipPath>
<clipPath id="clip1_1_13786">
<rect width="20.5969" height="20.5969" fill="white" transform="translate(243.9 159.199)"/>
</clipPath>
</defs>
</svg>
