<svg width="553" height="506" viewBox="0 0 553 506" fill="none" xmlns="http://www.w3.org/2000/svg">
<path opacity="0.2" fill-rule="evenodd" clip-rule="evenodd" d="M84.3901 6.07456L46.476 27.9412V69.6354L84.2122 91.3994L119.653 70.959V26.4124L84.3901 6.07456ZM86.3523 139.851V98.4746L123.61 76.9866L156.879 96.1746V143.021L125.061 161.372L87.0492 139.449L86.3523 139.851ZM162.044 146.744L130.225 165.095V207.957L162.829 226.761L196.763 207.191V166.767L162.044 146.744ZM206.655 214.546L239.299 233.374V271.298L202.049 292.782L167.45 272.828V237.157L206.655 214.546ZM200.598 211.053L201.388 211.509L167.45 231.082V230.171L200.598 211.053ZM244.561 231.077L278.517 211.493L309.77 229.537V274.361L277.829 292.782L244.561 273.595V231.077ZM352.095 167.05V205.016L314.939 226.445L283.115 208.072V166.928L317.5 147.076L352.095 167.05ZM388.208 98.5373V140.462L354.5 159.924L320.341 140.202V100.364L355.875 79.8698L388.208 98.5373ZM352.312 29.0684V74.2632L318.115 94.0064L280.636 72.3904V29.7314L317.049 8.7307L352.312 29.0684ZM353.966 23.9477L395.488 0L436.346 23.5644L472.598 2.65614L515.774 27.5577V72.4924L553 93.962V143.765L513.115 166.768V207.957L550.34 229.427V279.23L513.115 300.699V341.326L551.67 363.563V413.366L514.444 434.836V481.098L471.268 506L432.049 483.381L392.83 506L351.972 482.435L315.719 503.344L275.847 480.348L235.975 503.344L201.04 483.195L161.5 506L122.945 483.764L84.39 506L41.2139 481.098V437.697L1.33008 414.694V364.891L43.873 340.355V302.233L3.98779 279.23V229.427L43.873 206.423V166.937L43.1762 167.339L0 142.437V92.6338L41.2139 68.8639V24.9016L84.3901 0L123.61 22.6197L162.829 0L203.595 23.5113L239.5 2.99986L278.16 25.0851L317.049 2.65614L353.966 23.9477ZM360.225 73.194V27.5577L359.232 26.985L395.488 6.07456L431.079 26.6017L429.422 27.5577V71.5201L393.372 92.3115L360.225 73.194ZM394.77 141.888V99.1923L395.488 99.6063L431.74 78.698L466.647 98.8305V140.019L429.07 161.691L394.77 141.888ZM357.77 205.45V165.55L390.706 146.534L425.642 166.683V205.212L391.5 224.924L357.77 205.45ZM315.032 232.575L317.5 234L355.489 212.067L386.878 230.17V274.361L354.274 293.166L315.719 270.929L315.032 271.326V232.575ZM206.006 71.8053V28.1944L239.5 9.06009L273.872 28.6963V71.3035L239.5 90.9396L206.006 71.8053ZM197.443 158.646L166.121 140.581V97.7077L202.658 76.6356L234.495 94.9975L233.988 95.2898V137.569L197.443 158.646ZM207.335 164.468L237.459 147.095L277.164 169.995L277.23 169.957V206.161L240.726 227.215L207.335 207.957V164.468ZM202.073 167.503V204.922L202.025 204.894V167.531L202.073 167.503ZM198.364 26.5686L162.829 6.07456L127.566 26.4124V71.7255L161.5 91.2968L198.364 70.0361V26.5686ZM428.092 479.588V437.697L389.862 415.648L358.895 433.508V478.442L357.238 479.398L392.83 499.925L428.092 479.588ZM431.384 348.299L396.121 368.637V408.292L432.049 429.013L465.318 409.826V367.87L431.384 348.299ZM388.208 367.871L354.274 348.299L319.011 368.637V405.636L356.577 427.302L388.208 409.059V367.871ZM349.653 302.232L310.815 279.832L283.095 295.819L283.115 295.831V342.86L313.239 360.234L349.653 339.232V302.232ZM471.268 499.925L436.006 479.588V436.93L471.091 416.696L508.494 438.268L509.182 437.87V478.059L471.268 499.925ZM512.247 430.028L474.561 408.293V367.87L511.583 346.517L546.408 366.603V410.326L512.247 430.028ZM507.853 339.031L468.788 361.561L436.005 342.654V300.699L468.609 281.895L507.164 304.131L507.853 303.734V339.031ZM426.762 302.233V342.655L394.467 361.281L358.895 340.766V300.7L391.5 281.895L426.762 302.233ZM196.763 301.466V345.22L163.78 364.242L130.225 344.89V300.699L162.829 281.895L196.763 301.466ZM202.049 342.608L202.025 342.594V303.762L202.073 303.734V342.594L202.049 342.608ZM207.315 345.646L207.335 345.634V300.699L244.18 279.45L272.563 295.819L272.543 295.831V340.56L235.52 361.913L207.315 345.646ZM165.735 369.627L200.73 349.444L232.659 367.859V408.599L199.818 427.539L165.735 407.882V369.627ZM87.6824 370.17L125.548 348.332L159.529 367.931V407.53L122.945 428.63L87.6824 408.293V370.17ZM120.983 340.354V302.233L85.7191 281.895L49.1352 302.994V342.594L83.1169 362.193L120.983 340.354ZM49.1352 205.662L85.7191 226.761L120.983 206.423V167.535L84.9336 146.744L49.1352 167.39V205.662ZM90.3401 230.171V231.083L120.983 213.41V212.498L90.3401 230.171ZM90.3401 237.157V272.827L125.604 293.166L158.208 274.361V235.623L125.604 216.819L90.3401 237.157ZM9.2499 232.466L43.873 212.498V214.154L81.0981 235.623V274.362L43.873 295.831V296.159L9.2499 276.19V232.466ZM41.4166 74.8216L79.769 96.9411V140.159L43.1762 161.264L5.2621 139.397V95.6734L41.4166 74.8216ZM277.829 298.857L277.805 298.871V339.798L277.853 339.825V298.871L277.829 298.857ZM195.08 432.586L195.731 432.211L164.791 414.367V414.694L127.566 436.164V480.354L161.5 499.925L195.774 480.158L195.08 479.758V432.586ZM349.654 435.042L315.541 415.367L277.805 437.131V475.402L315.719 497.269L349.654 477.697V435.042ZM118.324 480.354V437.697L83.0607 417.36L46.476 438.46V478.059L84.39 499.925L118.324 480.354ZM235.975 497.59L204.676 479.538V432.805L235.52 415.016L271.886 435.99V476.879L235.975 497.59ZM78.439 409.826L41.2139 431.295V431.622L6.59218 411.655V367.931L44.5062 346.064L78.439 365.634V409.826ZM238.632 369.782V410.532L272.543 430.09V428.639L309.769 407.169V367.104L277.829 348.683L239.939 370.536L238.632 369.782ZM396.122 272.829L431.384 293.166L463.988 274.361V234.295L426.762 212.826V212.498L396.122 230.17V272.829ZM507.853 167.53L471.755 146.711L432.025 169.625V205.661L468.609 226.761L507.164 204.525L507.853 204.922V167.53ZM509.823 69.0604L510.512 69.4575V30.5974L472.598 8.7307L438.664 28.3018V74.5871L469.452 92.3441L509.823 69.0604ZM547.737 140.725L511.096 161.858L474.56 140.786V101.131L514.728 77.9639L547.737 97.0016V140.725ZM473.231 235.829V272.828L512.069 295.228L545.078 276.19V232.466L512.069 213.429L473.231 235.829ZM243.232 96.0332V136.036L283.115 159.038V160.488L314.23 142.543V100.637L274.74 77.8611L243.232 96.0332ZM243.232 143.765L242.725 144.057L277.164 163.92L277.853 163.523V162.078L243.232 142.11V143.765Z" fill="#4226C3"/>
<rect x="14.5923" y="114.215" width="268.555" height="184.604" rx="10" fill="#E5D9FF"/>
<g clip-path="url(#clip0_1_13970)">
<path d="M52.5923 193.017C62.5673 193.017 70.5923 184.992 70.5923 175.017C70.5923 165.042 62.5673 157.017 52.5923 157.017C42.6172 157.017 34.5923 165.042 34.5923 175.017C34.5923 184.992 42.6172 193.017 52.5923 193.017Z" fill="#8851F8"/>
<path d="M50.6898 181.017H47.5923L50.0557 174.017L51.5923 178.475L50.6898 181.017Z" fill="white"/>
<path d="M57.4806 181.017H54.5923L58.7606 170.017H61.5923L57.4806 181.017Z" fill="white"/>
<path d="M46.7438 170.017H43.5923L46.1488 177.017L47.5923 172.717L46.7438 170.017Z" fill="white"/>
<path d="M54.601 170.017H51.5923L54.0413 177.017L55.5923 172.977L54.601 170.017Z" fill="white"/>
</g>
<path d="M86.0383 184.017L81.044 166.563H85.0752L87.9644 178.69H88.1093L91.2968 166.563H94.7485L97.9275 178.716H98.0809L100.97 166.563H105.001L100.007 184.017H96.4105L93.0866 172.605H92.9502L89.6349 184.017H86.0383ZM106.977 184.017V166.563H118.533V169.605H110.667V173.764H117.766V176.807H110.667V184.017H106.977ZM136.416 172.673H132.683C132.615 172.19 132.476 171.761 132.266 171.386C132.055 171.006 131.785 170.682 131.456 170.415C131.126 170.148 130.746 169.943 130.314 169.801C129.888 169.659 129.425 169.588 128.925 169.588C128.021 169.588 127.234 169.813 126.564 170.261C125.893 170.705 125.374 171.352 125.004 172.205C124.635 173.051 124.45 174.08 124.45 175.29C124.45 176.534 124.635 177.58 125.004 178.426C125.379 179.273 125.902 179.912 126.572 180.344C127.243 180.776 128.018 180.992 128.899 180.992C129.393 180.992 129.851 180.926 130.271 180.795C130.697 180.665 131.075 180.474 131.405 180.224C131.734 179.969 132.007 179.659 132.223 179.295C132.445 178.932 132.598 178.517 132.683 178.051L136.416 178.068C136.32 178.869 136.078 179.642 135.692 180.386C135.311 181.125 134.797 181.787 134.149 182.372C133.507 182.952 132.74 183.412 131.848 183.753C130.962 184.088 129.959 184.256 128.839 184.256C127.283 184.256 125.891 183.903 124.663 183.199C123.442 182.494 122.476 181.474 121.766 180.139C121.061 178.804 120.709 177.188 120.709 175.29C120.709 173.386 121.067 171.767 121.783 170.432C122.499 169.097 123.47 168.08 124.697 167.381C125.925 166.676 127.305 166.324 128.839 166.324C129.851 166.324 130.788 166.466 131.652 166.75C132.521 167.034 133.291 167.449 133.962 167.994C134.632 168.534 135.178 169.196 135.598 169.98C136.024 170.764 136.297 171.662 136.416 172.673Z" fill="#03010F"/>
<path d="M216.159 181.017V169.381H223.863V171.409H218.619V174.182H223.352V176.21H218.619V181.017H216.159ZM225.518 181.017V169.381H230.109C230.988 169.381 231.738 169.538 232.359 169.852C232.984 170.163 233.459 170.604 233.785 171.176C234.115 171.744 234.28 172.413 234.28 173.182C234.28 173.955 234.113 174.619 233.78 175.176C233.446 175.729 232.963 176.153 232.331 176.449C231.702 176.744 230.941 176.892 230.047 176.892H226.973V174.915H229.649C230.119 174.915 230.509 174.85 230.819 174.722C231.13 174.593 231.361 174.4 231.513 174.142C231.668 173.885 231.745 173.564 231.745 173.182C231.745 172.795 231.668 172.47 231.513 172.205C231.361 171.939 231.128 171.739 230.814 171.602C230.503 171.462 230.111 171.392 229.638 171.392H227.978V181.017H225.518ZM231.802 175.722L234.694 181.017H231.978L229.149 175.722H231.802ZM246.711 175.199C246.711 176.468 246.471 177.547 245.99 178.438C245.513 179.328 244.861 180.008 244.035 180.477C243.213 180.943 242.289 181.176 241.263 181.176C240.228 181.176 239.3 180.941 238.478 180.472C237.656 180.002 237.007 179.322 236.53 178.432C236.052 177.542 235.814 176.464 235.814 175.199C235.814 173.93 236.052 172.85 236.53 171.96C237.007 171.07 237.656 170.392 238.478 169.926C239.3 169.456 240.228 169.222 241.263 169.222C242.289 169.222 243.213 169.456 244.035 169.926C244.861 170.392 245.513 171.07 245.99 171.96C246.471 172.85 246.711 173.93 246.711 175.199ZM244.217 175.199C244.217 174.377 244.094 173.684 243.848 173.119C243.605 172.555 243.263 172.127 242.819 171.835C242.376 171.544 241.857 171.398 241.263 171.398C240.668 171.398 240.149 171.544 239.706 171.835C239.263 172.127 238.918 172.555 238.672 173.119C238.429 173.684 238.308 174.377 238.308 175.199C238.308 176.021 238.429 176.714 238.672 177.278C238.918 177.843 239.263 178.271 239.706 178.563C240.149 178.854 240.668 179 241.263 179C241.857 179 242.376 178.854 242.819 178.563C243.263 178.271 243.605 177.843 243.848 177.278C244.094 176.714 244.217 176.021 244.217 175.199ZM248.534 169.381H251.568L254.772 177.199H254.909L258.113 169.381H261.147V181.017H258.761V173.443H258.665L255.653 180.96H254.028L251.017 173.415H250.92V181.017H248.534V169.381Z" fill="#03010F" fill-opacity="0.8"/>
<path d="M41.8707 237.199V215.381H43.2684V237.199H41.8707ZM45.5781 222.582C45.5099 221.895 45.2173 221.361 44.7002 220.98C44.1832 220.599 43.4815 220.409 42.5951 220.409C41.9929 220.409 41.4843 220.494 41.0696 220.665C40.6548 220.83 40.3366 221.06 40.115 221.355C39.8991 221.651 39.7911 221.986 39.7911 222.361C39.7798 222.673 39.8451 222.946 39.9872 223.179C40.1349 223.412 40.3366 223.614 40.5923 223.784C40.848 223.949 41.1434 224.094 41.4786 224.219C41.8139 224.338 42.1718 224.44 42.5525 224.526L44.1207 224.901C44.8821 225.071 45.5809 225.298 46.2173 225.582C46.8536 225.867 47.4048 226.216 47.8707 226.631C48.3366 227.045 48.6974 227.534 48.9531 228.097C49.2144 228.659 49.348 229.304 49.3536 230.031C49.348 231.099 49.0752 232.026 48.5355 232.81C48.0014 233.588 47.2286 234.193 46.2173 234.625C45.2116 235.051 43.9985 235.264 42.5781 235.264C41.169 235.264 39.9417 235.048 38.8963 234.617C37.8565 234.185 37.044 233.545 36.4588 232.699C35.8792 231.847 35.5752 230.793 35.5468 229.537H39.1179C39.1576 230.122 39.3252 230.611 39.6207 231.003C39.9218 231.389 40.3224 231.682 40.8224 231.881C41.3281 232.074 41.8991 232.17 42.5355 232.17C43.1605 232.17 43.7031 232.08 44.1633 231.898C44.6292 231.716 44.99 231.463 45.2457 231.139C45.5014 230.815 45.6292 230.443 45.6292 230.023C45.6292 229.631 45.5127 229.301 45.2798 229.034C45.0525 228.767 44.7173 228.54 44.2741 228.352C43.8366 228.165 43.2997 227.994 42.6633 227.841L40.7627 227.364C39.2911 227.006 38.1292 226.446 37.2769 225.685C36.4247 224.923 36.0014 223.898 36.0071 222.608C36.0014 221.551 36.2826 220.628 36.8508 219.838C37.4247 219.048 38.2116 218.432 39.2116 217.989C40.2116 217.545 41.348 217.324 42.6207 217.324C43.9161 217.324 45.0468 217.545 46.0127 217.989C46.9843 218.432 47.74 219.048 48.2798 219.838C48.8196 220.628 49.098 221.543 49.115 222.582H45.5781ZM58.049 217.324C58.9467 217.324 59.8103 217.474 60.6399 217.776C61.4751 218.077 62.2194 218.557 62.8728 219.216C63.5319 219.875 64.0518 220.75 64.4325 221.841C64.8188 222.926 65.0149 224.259 65.0206 225.838C65.0206 227.321 64.8529 228.645 64.5177 229.81C64.1882 230.969 63.7137 231.955 63.0944 232.767C62.4751 233.58 61.7279 234.199 60.8529 234.625C59.9779 235.045 59.0007 235.256 57.9211 235.256C56.7563 235.256 55.7279 235.031 54.8359 234.582C53.9438 234.128 53.2251 233.511 52.6796 232.733C52.1399 231.949 51.8132 231.068 51.6995 230.091H55.3387C55.4808 230.727 55.7791 231.222 56.2336 231.574C56.6882 231.92 57.2507 232.094 57.9211 232.094C59.0575 232.094 59.9211 231.599 60.512 230.611C61.1029 229.617 61.4012 228.256 61.4069 226.528H61.2876C61.0262 227.04 60.674 227.48 60.2308 227.849C59.7876 228.213 59.2791 228.494 58.7052 228.693C58.137 228.892 57.5319 228.992 56.8899 228.992C55.8615 228.992 54.9438 228.75 54.137 228.267C53.3302 227.784 52.6938 227.119 52.2279 226.273C51.762 225.426 51.5291 224.46 51.5291 223.375C51.5234 222.205 51.7933 221.162 52.3387 220.247C52.8842 219.332 53.6456 218.617 54.6228 218.099C55.6058 217.577 56.7478 217.318 58.049 217.324ZM58.0745 220.222C57.5007 220.222 56.9893 220.358 56.5404 220.631C56.0973 220.903 55.745 221.27 55.4836 221.73C55.2279 222.19 55.1029 222.705 55.1086 223.273C55.1086 223.847 55.2336 224.364 55.4836 224.824C55.7393 225.278 56.0859 225.642 56.5234 225.915C56.9666 226.182 57.4723 226.315 58.0404 226.315C58.4666 226.315 58.8615 226.236 59.2251 226.077C59.5887 225.918 59.9041 225.699 60.1711 225.42C60.4438 225.136 60.6569 224.81 60.8103 224.44C60.9637 224.071 61.0404 223.679 61.0404 223.264C61.0348 222.713 60.9041 222.207 60.6484 221.747C60.3927 221.287 60.0404 220.918 59.5916 220.639C59.1427 220.361 58.637 220.222 58.0745 220.222ZM74.0887 235.256C72.7762 235.256 71.6086 235.043 70.5859 234.617C69.5688 234.185 68.7706 233.597 68.191 232.852C67.6115 232.108 67.3217 231.264 67.3217 230.321C67.3217 229.594 67.4865 228.926 67.816 228.318C68.1512 227.705 68.6058 227.196 69.1796 226.793C69.7535 226.384 70.3956 226.122 71.1058 226.009V225.889C70.174 225.702 69.4183 225.25 68.8387 224.534C68.2592 223.813 67.9694 222.974 67.9694 222.02C67.9694 221.117 68.2336 220.313 68.762 219.608C69.2904 218.898 70.0149 218.341 70.9353 217.938C71.8615 217.528 72.9126 217.324 74.0887 217.324C75.2649 217.324 76.3132 217.528 77.2336 217.938C78.1598 218.347 78.887 218.906 79.4154 219.617C79.9438 220.321 80.2109 221.122 80.2166 222.02C80.2109 222.98 79.9154 223.818 79.3302 224.534C78.745 225.25 77.995 225.702 77.0802 225.889V226.009C77.7791 226.122 78.4126 226.384 78.9808 226.793C79.5546 227.196 80.0092 227.705 80.3444 228.318C80.6853 228.926 80.8586 229.594 80.8643 230.321C80.8586 231.264 80.566 232.108 79.9865 232.852C79.4069 233.597 78.6058 234.185 77.5831 234.617C76.566 235.043 75.4012 235.256 74.0887 235.256ZM74.0887 232.545C74.674 232.545 75.1853 232.44 75.6228 232.23C76.0603 232.014 76.4012 231.719 76.6456 231.344C76.8956 230.963 77.0206 230.526 77.0206 230.031C77.0206 229.526 76.8927 229.08 76.637 228.693C76.3813 228.301 76.0348 227.994 75.5973 227.773C75.1598 227.545 74.6569 227.432 74.0887 227.432C73.5262 227.432 73.0234 227.545 72.5802 227.773C72.137 227.994 71.7876 228.301 71.5319 228.693C71.2819 229.08 71.1569 229.526 71.1569 230.031C71.1569 230.526 71.2791 230.963 71.5234 231.344C71.7677 231.719 72.1115 232.014 72.5546 232.23C72.9978 232.44 73.5092 232.545 74.0887 232.545ZM74.0887 224.747C74.5774 224.747 75.012 224.648 75.3927 224.449C75.7734 224.25 76.0717 223.974 76.2876 223.622C76.5035 223.27 76.6115 222.864 76.6115 222.403C76.6115 221.949 76.5035 221.551 76.2876 221.21C76.0717 220.864 75.7762 220.594 75.4012 220.401C75.0262 220.202 74.5887 220.102 74.0887 220.102C73.5944 220.102 73.1569 220.202 72.7762 220.401C72.3956 220.594 72.0973 220.864 71.8813 221.21C71.6711 221.551 71.566 221.949 71.566 222.403C71.566 222.864 71.674 223.27 71.8899 223.622C72.1058 223.974 72.4041 224.25 72.7848 224.449C73.1654 224.648 73.6001 224.747 74.0887 224.747ZM84.1349 235.017L91.3707 220.699V220.58H82.9417V217.563H95.1889V220.622L87.9446 235.017H84.1349ZM96.8742 235.239C96.3117 235.239 95.8288 235.04 95.4254 234.642C95.0277 234.239 94.8288 233.756 94.8288 233.193C94.8288 232.636 95.0277 232.159 95.4254 231.761C95.8288 231.364 96.3117 231.165 96.8742 231.165C97.4197 231.165 97.897 231.364 98.3061 231.761C98.7152 232.159 98.9197 232.636 98.9197 233.193C98.9197 233.568 98.8231 233.912 98.6299 234.224C98.4424 234.531 98.1953 234.778 97.8885 234.966C97.5816 235.148 97.2436 235.239 96.8742 235.239ZM108.007 235.401C106.541 235.395 105.28 235.034 104.223 234.318C103.172 233.602 102.362 232.565 101.794 231.207C101.231 229.849 100.953 228.216 100.959 226.307C100.959 224.403 101.24 222.781 101.803 221.44C102.371 220.099 103.18 219.08 104.231 218.381C105.288 217.676 106.547 217.324 108.007 217.324C109.467 217.324 110.723 217.676 111.774 218.381C112.831 219.085 113.643 220.108 114.212 221.449C114.78 222.784 115.061 224.403 115.055 226.307C115.055 228.222 114.771 229.858 114.203 231.216C113.641 232.574 112.834 233.611 111.783 234.327C110.731 235.043 109.473 235.401 108.007 235.401ZM108.007 232.341C109.007 232.341 109.805 231.838 110.402 230.832C110.999 229.827 111.294 228.318 111.288 226.307C111.288 224.983 111.152 223.881 110.879 223C110.612 222.119 110.231 221.457 109.737 221.014C109.249 220.571 108.672 220.349 108.007 220.349C107.013 220.349 106.217 220.847 105.621 221.841C105.024 222.835 104.723 224.324 104.717 226.307C104.717 227.648 104.851 228.767 105.118 229.665C105.391 230.557 105.774 231.227 106.268 231.676C106.763 232.119 107.342 232.341 108.007 232.341ZM124.53 235.401C123.065 235.395 121.803 235.034 120.746 234.318C119.695 233.602 118.886 232.565 118.317 231.207C117.755 229.849 117.477 228.216 117.482 226.307C117.482 224.403 117.763 222.781 118.326 221.44C118.894 220.099 119.704 219.08 120.755 218.381C121.812 217.676 123.07 217.324 124.53 217.324C125.991 217.324 127.246 217.676 128.298 218.381C129.354 219.085 130.167 220.108 130.735 221.449C131.303 222.784 131.584 224.403 131.579 226.307C131.579 228.222 131.295 229.858 130.727 231.216C130.164 232.574 129.357 233.611 128.306 234.327C127.255 235.043 125.996 235.401 124.53 235.401ZM124.53 232.341C125.53 232.341 126.329 231.838 126.925 230.832C127.522 229.827 127.817 228.318 127.812 226.307C127.812 224.983 127.675 223.881 127.403 223C127.136 222.119 126.755 221.457 126.261 221.014C125.772 220.571 125.195 220.349 124.53 220.349C123.536 220.349 122.741 220.847 122.144 221.841C121.548 222.835 121.246 224.324 121.241 226.307C121.241 227.648 121.374 228.767 121.641 229.665C121.914 230.557 122.298 231.227 122.792 231.676C123.286 232.119 123.866 232.341 124.53 232.341Z" fill="#03010F"/>
<path d="M38.7215 256.5C37.9886 256.497 37.3579 256.317 36.8295 255.959C36.3039 255.601 35.8991 255.082 35.615 254.403C35.3338 253.724 35.1946 252.908 35.1974 251.953C35.1974 251.001 35.338 250.19 35.6193 249.52C35.9034 248.849 36.3082 248.339 36.8338 247.99C37.3622 247.638 37.9914 247.462 38.7215 247.462C39.4517 247.462 40.0795 247.638 40.6051 247.99C41.1335 248.342 41.5397 248.854 41.8238 249.524C42.1079 250.192 42.2485 251.001 42.2457 251.953C42.2457 252.91 42.1036 253.729 41.8196 254.408C41.5383 255.087 41.1349 255.605 40.6093 255.963C40.0838 256.321 39.4545 256.5 38.7215 256.5ZM38.7215 254.97C39.2215 254.97 39.6207 254.719 39.919 254.216C40.2173 253.713 40.365 252.959 40.3622 251.953C40.3622 251.291 40.294 250.74 40.1576 250.3C40.0241 249.859 39.8338 249.528 39.5866 249.307C39.3423 249.085 39.0539 248.974 38.7215 248.974C38.2244 248.974 37.8267 249.223 37.5284 249.72C37.2301 250.217 37.0795 250.962 37.0767 251.953C37.0767 252.623 37.1434 253.183 37.2769 253.632C37.4133 254.078 37.6051 254.413 37.8522 254.638C38.0994 254.859 38.3892 254.97 38.7215 254.97ZM44.288 256.419C44.0067 256.419 43.7652 256.319 43.5635 256.121C43.3647 255.919 43.2652 255.677 43.2652 255.396C43.2652 255.118 43.3647 254.879 43.5635 254.68C43.7652 254.481 44.0067 254.382 44.288 254.382C44.5607 254.382 44.7993 254.481 45.0039 254.68C45.2084 254.879 45.3107 255.118 45.3107 255.396C45.3107 255.584 45.2624 255.756 45.1658 255.912C45.072 256.065 44.9485 256.189 44.7951 256.283C44.6416 256.373 44.4726 256.419 44.288 256.419ZM49.8544 256.5C49.1214 256.497 48.4907 256.317 47.9623 255.959C47.4367 255.601 47.0319 255.082 46.7478 254.403C46.4666 253.724 46.3274 252.908 46.3302 251.953C46.3302 251.001 46.4708 250.19 46.7521 249.52C47.0362 248.849 47.441 248.339 47.9666 247.99C48.495 247.638 49.1242 247.462 49.8544 247.462C50.5845 247.462 51.2123 247.638 51.7379 247.99C52.2663 248.342 52.6725 248.854 52.9566 249.524C53.2407 250.192 53.3813 251.001 53.3785 251.953C53.3785 252.91 53.2365 253.729 52.9524 254.408C52.6711 255.087 52.2677 255.605 51.7421 255.963C51.2166 256.321 50.5873 256.5 49.8544 256.5ZM49.8544 254.97C50.3544 254.97 50.7535 254.719 51.0518 254.216C51.3501 253.713 51.4978 252.959 51.495 251.953C51.495 251.291 51.4268 250.74 51.2904 250.3C51.1569 249.859 50.9666 249.528 50.7194 249.307C50.4751 249.085 50.1867 248.974 49.8544 248.974C49.3572 248.974 48.9595 249.223 48.6612 249.72C48.3629 250.217 48.2123 250.962 48.2095 251.953C48.2095 252.623 48.2762 253.183 48.4098 253.632C48.5461 254.078 48.7379 254.413 48.985 254.638C49.2322 254.859 49.522 254.97 49.8544 254.97ZM57.8817 256.427C57.2794 256.427 56.7425 256.317 56.2709 256.095C55.8022 255.873 55.43 255.568 55.1544 255.179C54.8789 254.79 54.7354 254.344 54.724 253.841H56.5138C56.5337 254.179 56.6757 254.453 56.9399 254.663C57.2041 254.873 57.5181 254.979 57.8817 254.979C58.1715 254.979 58.4272 254.915 58.6487 254.787C58.8732 254.656 59.0479 254.476 59.1729 254.246C59.3007 254.013 59.3647 253.746 59.3647 253.444C59.3647 253.138 59.2993 252.868 59.1686 252.635C59.0408 252.402 58.8632 252.22 58.636 252.089C58.4087 251.959 58.1487 251.892 57.8561 251.889C57.6005 251.889 57.3519 251.942 57.1104 252.047C56.8718 252.152 56.6857 252.295 56.5522 252.477L54.9115 252.183L55.3249 247.581H60.6601V249.089H56.8462L56.6203 251.275H56.6715C56.8249 251.06 57.0564 250.881 57.3661 250.739C57.6757 250.596 58.0223 250.525 58.4059 250.525C58.9314 250.525 59.4002 250.649 59.8121 250.896C60.224 251.143 60.5493 251.483 60.788 251.915C61.0266 252.344 61.1445 252.838 61.1416 253.398C61.1445 253.986 61.0081 254.508 60.7326 254.966C60.4598 255.42 60.0777 255.778 59.5862 256.04C59.0976 256.298 58.5294 256.427 57.8817 256.427ZM65.778 256.427C65.3291 256.425 64.8959 256.349 64.4783 256.202C64.0635 256.054 63.6914 255.814 63.3618 255.481C63.0323 255.149 62.7709 254.709 62.5777 254.16C62.3874 253.612 62.2922 252.939 62.2922 252.14C62.2951 251.408 62.3789 250.753 62.5436 250.176C62.7112 249.596 62.9499 249.105 63.2595 248.702C63.572 248.298 63.9456 247.991 64.3803 247.781C64.8149 247.568 65.3022 247.462 65.8419 247.462C66.4243 247.462 66.9385 247.575 67.3845 247.802C67.8306 248.027 68.1885 248.332 68.4584 248.719C68.7311 249.105 68.8959 249.538 68.9527 250.018H67.1331C67.0621 249.714 66.913 249.476 66.6857 249.302C66.4584 249.129 66.1772 249.042 65.8419 249.042C65.2737 249.042 64.8419 249.29 64.5465 249.784C64.2539 250.278 64.1047 250.95 64.099 251.8H64.1587C64.2894 251.541 64.4655 251.321 64.6871 251.139C64.9115 250.954 65.1658 250.814 65.4499 250.717C65.7368 250.618 66.0394 250.568 66.3576 250.568C66.8746 250.568 67.3348 250.69 67.7382 250.935C68.1416 251.176 68.4598 251.508 68.6928 251.932C68.9257 252.355 69.0422 252.839 69.0422 253.385C69.0422 253.976 68.9044 254.501 68.6289 254.962C68.3561 255.422 67.974 255.783 67.4826 256.044C66.9939 256.302 66.4257 256.43 65.778 256.427ZM65.7695 254.979C66.0536 254.979 66.3078 254.91 66.5323 254.774C66.7567 254.638 66.9328 254.453 67.0607 254.22C67.1885 253.987 67.2524 253.726 67.2524 253.436C67.2524 253.146 67.1885 252.886 67.0607 252.656C66.9357 252.426 66.7624 252.243 66.5408 252.106C66.3192 251.97 66.0664 251.902 65.7823 251.902C65.5692 251.902 65.3718 251.942 65.1899 252.021C65.011 252.101 64.8533 252.212 64.7169 252.354C64.5834 252.496 64.4783 252.66 64.4016 252.848C64.3249 253.033 64.2865 253.23 64.2865 253.44C64.2865 253.721 64.3505 253.979 64.4783 254.212C64.609 254.444 64.7851 254.631 65.0067 254.77C65.2311 254.909 65.4854 254.979 65.7695 254.979ZM70.2184 254.774V253.321L73.8618 247.581H75.1147V249.592H74.3732L72.0763 253.227V253.295H77.2539V254.774H70.2184ZM74.4073 256.308V254.331L74.4414 253.687V247.581H76.1715V256.308H74.4073ZM81.7091 256.427C81.0728 256.427 80.506 256.318 80.0088 256.099C79.5145 255.878 79.1239 255.574 78.837 255.187C78.5529 254.798 78.4066 254.349 78.398 253.841H80.256C80.2674 254.054 80.337 254.241 80.4648 254.403C80.5955 254.562 80.7688 254.686 80.9847 254.774C81.2006 254.862 81.4435 254.906 81.7134 254.906C81.9946 254.906 82.2432 254.856 82.4591 254.757C82.675 254.658 82.8441 254.52 82.9662 254.344C83.0884 254.167 83.1495 253.964 83.1495 253.734C83.1495 253.501 83.0841 253.295 82.9534 253.116C82.8256 252.935 82.6409 252.792 82.3995 252.69C82.1608 252.588 81.8767 252.537 81.5472 252.537H80.7333V251.182H81.5472C81.8256 251.182 82.0713 251.133 82.2844 251.037C82.5003 250.94 82.6679 250.807 82.7872 250.636C82.9066 250.463 82.9662 250.261 82.9662 250.031C82.9662 249.812 82.9137 249.621 82.8085 249.456C82.7063 249.288 82.5614 249.158 82.3739 249.064C82.1892 248.97 81.9733 248.923 81.7262 248.923C81.4762 248.923 81.2475 248.969 81.0401 249.06C80.8327 249.148 80.6665 249.274 80.5415 249.439C80.4165 249.604 80.3497 249.797 80.3412 250.018H78.5728C78.5813 249.515 78.7247 249.072 79.0032 248.689C79.2816 248.305 79.6566 248.006 80.1282 247.79C80.6026 247.571 81.1381 247.462 81.7347 247.462C82.337 247.462 82.8639 247.571 83.3157 247.79C83.7674 248.008 84.1182 248.304 84.3682 248.676C84.621 249.045 84.746 249.46 84.7432 249.92C84.746 250.409 84.5941 250.817 84.2872 251.143C83.9833 251.47 83.587 251.677 83.0983 251.765V251.834C83.7404 251.916 84.229 252.139 84.5642 252.503C84.9023 252.864 85.0699 253.315 85.0671 253.858C85.0699 254.355 84.9264 254.797 84.6367 255.183C84.3497 255.569 83.9534 255.873 83.4478 256.095C82.9421 256.317 82.3625 256.427 81.7091 256.427Z" fill="#03010F" fill-opacity="0.8"/>
<rect x="90.5923" y="243.308" width="34" height="17" rx="8.5" fill="#7231FF"/>
<path d="M97.8615 255.308L95.7805 248.035H97.4602L98.664 253.089H98.7244L100.053 248.035H101.491L102.815 253.099H102.879L104.083 248.035H105.763L103.682 255.308H102.183L100.798 250.553H100.741L99.36 255.308H97.8615ZM106.586 255.308V248.035H111.401V249.303H108.123V251.036H111.081V252.304H108.123V255.308H106.586ZM118.852 250.582H117.297C117.268 250.38 117.21 250.202 117.123 250.045C117.035 249.887 116.923 249.752 116.785 249.64C116.648 249.529 116.49 249.444 116.31 249.385C116.132 249.326 115.939 249.296 115.731 249.296C115.354 249.296 115.026 249.39 114.747 249.577C114.468 249.761 114.251 250.031 114.097 250.386C113.943 250.739 113.866 251.167 113.866 251.672C113.866 252.19 113.943 252.626 114.097 252.979C114.254 253.331 114.471 253.598 114.751 253.778C115.03 253.957 115.353 254.047 115.72 254.047C115.926 254.047 116.117 254.02 116.292 253.966C116.469 253.911 116.627 253.832 116.764 253.728C116.901 253.621 117.015 253.492 117.105 253.341C117.197 253.189 117.261 253.016 117.297 252.822L118.852 252.829C118.812 253.163 118.711 253.485 118.55 253.795C118.392 254.103 118.178 254.379 117.908 254.623C117.64 254.864 117.321 255.056 116.949 255.198C116.58 255.338 116.162 255.408 115.695 255.408C115.047 255.408 114.467 255.261 113.955 254.967C113.446 254.674 113.044 254.249 112.748 253.692C112.454 253.136 112.307 252.462 112.307 251.672C112.307 250.879 112.457 250.204 112.755 249.648C113.053 249.091 113.458 248.667 113.969 248.376C114.481 248.083 115.056 247.936 115.695 247.936C116.117 247.936 116.507 247.995 116.867 248.114C117.229 248.232 117.55 248.405 117.83 248.632C118.109 248.857 118.336 249.133 118.511 249.459C118.689 249.786 118.803 250.16 118.852 250.582Z" fill="white"/>
<g filter="url(#filter0_d_1_13970)">
<rect x="227.31" y="233.743" width="312.428" height="156.714" rx="10" fill="#E5D9FF" shape-rendering="crispEdges"/>
<g clip-path="url(#clip1_1_13970)">
<path d="M265.31 307.1C275.285 307.1 283.31 299.075 283.31 289.1C283.31 279.125 275.285 271.1 265.31 271.1C255.335 271.1 247.31 279.125 247.31 289.1C247.31 299.075 255.335 307.1 265.31 307.1Z" fill="white"/>
<path fill-rule="evenodd" clip-rule="evenodd" d="M268.958 285.106C268.755 285.116 268.481 285.149 268.272 285.187C268.009 285.236 267.668 285.333 267.465 285.418C267.453 285.423 267.414 285.439 267.378 285.454C267.308 285.483 267.116 285.575 267.087 285.592C267.077 285.598 267.049 285.614 267.025 285.628C266.829 285.737 266.635 285.878 266.476 286.027C266.391 286.106 266.369 286.129 266.304 286.203C266.287 286.222 266.269 286.242 266.265 286.246C266.243 286.267 266.141 286.407 266.098 286.474C265.914 286.758 265.806 287.066 265.764 287.42C265.751 287.527 265.747 287.738 265.755 287.837C265.784 288.164 265.898 288.447 266.112 288.725C266.132 288.75 266.149 288.773 266.151 288.774C266.153 288.776 266.175 288.8 266.199 288.827C266.363 289.007 266.576 289.178 266.858 289.354C266.952 289.413 266.983 289.431 267.115 289.505C267.143 289.521 267.172 289.537 267.179 289.54C267.185 289.544 267.235 289.571 267.289 289.599C267.344 289.628 267.398 289.656 267.409 289.662C267.432 289.674 267.573 289.747 267.655 289.789C267.684 289.804 267.717 289.821 267.728 289.827C267.74 289.833 267.771 289.849 267.797 289.863C268.333 290.14 268.566 290.331 268.65 290.56C268.666 290.602 268.67 290.627 268.673 290.689C268.676 290.778 268.668 290.832 268.639 290.903C268.531 291.172 268.211 291.375 267.773 291.451C267.526 291.494 267.156 291.495 266.81 291.453C266.618 291.43 266.305 291.368 266.133 291.319C265.854 291.238 265.643 291.161 265.411 291.052C265.33 291.014 265.262 290.984 265.261 290.985C265.26 290.986 265.256 291.003 265.252 291.023C265.244 291.06 265.23 291.123 265.185 291.322C265.156 291.448 265.134 291.545 265.088 291.755C265.071 291.833 265.049 291.93 265.04 291.969C265.03 292.007 265.012 292.091 264.998 292.154C264.984 292.218 264.966 292.294 264.959 292.325C264.921 292.478 264.885 292.664 264.891 292.671C264.894 292.675 264.906 292.682 264.916 292.686C264.926 292.689 264.963 292.703 264.997 292.715C265.119 292.76 265.328 292.823 265.527 292.876C265.778 292.943 266.077 293 266.429 293.048C266.687 293.084 267.083 293.105 267.378 293.099C268.023 293.086 268.556 292.992 269.083 292.797C269.197 292.754 269.251 292.731 269.392 292.663C269.616 292.555 269.797 292.443 269.984 292.295C270.063 292.233 270.235 292.071 270.293 292.004C270.315 291.977 270.337 291.952 270.341 291.948C270.364 291.925 270.421 291.849 270.478 291.766C270.646 291.525 270.76 291.256 270.823 290.959C270.889 290.647 270.893 290.325 270.836 290.05C270.726 289.518 270.383 289.084 269.762 288.691C269.662 288.628 269.549 288.561 269.473 288.519C269.447 288.505 269.397 288.478 269.36 288.458C269.324 288.438 269.266 288.407 269.232 288.39C269.129 288.338 268.976 288.26 268.837 288.189C268.765 288.152 268.688 288.113 268.667 288.102C268.646 288.091 268.626 288.08 268.622 288.078C268.618 288.075 268.593 288.061 268.567 288.048C268.52 288.023 268.363 287.929 268.314 287.896C268.056 287.72 267.939 287.561 267.939 287.381C267.939 287.243 267.997 287.126 268.122 287.014C268.306 286.849 268.584 286.75 268.955 286.717C269.194 286.695 269.641 286.722 269.887 286.772C269.912 286.777 269.951 286.785 269.974 286.789C270.204 286.83 270.673 286.973 270.844 287.055C270.863 287.064 270.882 287.071 270.887 287.071C270.894 287.071 270.902 287.051 270.912 287.004C270.92 286.967 270.934 286.903 270.943 286.861C270.953 286.819 270.971 286.737 270.985 286.677C270.998 286.617 271.022 286.514 271.038 286.447C271.065 286.33 271.083 286.247 271.142 285.99C271.157 285.925 271.175 285.843 271.183 285.809C271.191 285.775 271.204 285.717 271.212 285.681C271.219 285.645 271.23 285.599 271.235 285.579C271.243 285.551 271.266 285.448 271.266 285.443C271.266 285.436 270.974 285.341 270.875 285.316C270.844 285.308 270.804 285.297 270.785 285.292C270.745 285.282 270.587 285.245 270.49 285.225C270.371 285.199 270.16 285.165 269.994 285.144C269.67 285.105 269.279 285.09 268.958 285.106ZM252.327 285.342C252.315 285.408 252.308 285.463 252.31 285.466C252.312 285.469 252.328 285.474 252.345 285.476C252.445 285.491 252.804 285.572 253.001 285.625C253.314 285.709 253.444 285.75 253.786 285.873C254.258 286.042 254.449 286.139 254.598 286.283C254.668 286.351 254.712 286.411 254.754 286.496C254.815 286.62 254.838 286.698 255.041 287.446C255.055 287.499 255.081 287.593 255.099 287.657C255.116 287.72 255.144 287.824 255.161 287.887C255.179 287.95 255.217 288.092 255.248 288.202C255.278 288.313 255.326 288.486 255.353 288.587C255.381 288.688 255.417 288.82 255.433 288.88C255.449 288.939 255.478 289.046 255.497 289.116C255.55 289.311 255.585 289.438 255.615 289.547C255.646 289.657 255.683 289.792 255.752 290.047C255.777 290.141 255.81 290.261 255.824 290.313C255.878 290.508 255.914 290.642 255.952 290.78C255.973 290.858 256.008 290.983 256.029 291.059C256.05 291.135 256.093 291.295 256.126 291.415C256.158 291.534 256.197 291.676 256.212 291.73C256.274 291.959 256.297 292.042 256.344 292.213C256.37 292.313 256.405 292.439 256.42 292.493C256.467 292.662 256.488 292.739 256.517 292.848C256.533 292.906 256.547 292.958 256.549 292.965C256.553 292.976 256.612 292.976 257.66 292.976H258.766L258.785 292.932C258.816 292.858 258.866 292.745 258.884 292.708C258.894 292.689 258.902 292.672 258.902 292.67C258.902 292.668 258.917 292.631 258.936 292.589C258.955 292.547 258.998 292.447 259.033 292.368C259.068 292.288 259.141 292.124 259.194 292.003C259.247 291.882 259.301 291.759 259.314 291.73C259.326 291.701 259.358 291.63 259.383 291.572C259.409 291.514 259.442 291.44 259.456 291.408C259.47 291.375 259.486 291.338 259.492 291.326C259.513 291.28 259.574 291.144 259.599 291.086C259.613 291.053 259.639 290.993 259.657 290.951C259.676 290.909 259.706 290.84 259.725 290.796C259.744 290.753 259.777 290.678 259.799 290.629C259.821 290.58 259.853 290.506 259.872 290.464C259.89 290.423 259.92 290.353 259.94 290.31C260.005 290.162 260.029 290.106 260.163 289.804C260.236 289.637 260.3 289.492 260.305 289.481C260.31 289.47 260.325 289.436 260.339 289.406C260.388 289.29 260.414 289.231 260.428 289.202C260.436 289.186 260.458 289.137 260.476 289.093C260.509 289.019 260.522 288.988 260.61 288.788C260.657 288.681 260.799 288.358 260.842 288.262C260.873 288.192 260.946 288.027 261.008 287.884C261.022 287.851 261.039 287.814 261.045 287.801C261.051 287.789 261.066 287.756 261.077 287.728C261.089 287.7 261.104 287.665 261.112 287.649C261.126 287.619 261.163 287.537 261.213 287.42C261.229 287.382 261.26 287.311 261.282 287.262C261.322 287.173 261.362 287.082 261.424 286.94C261.442 286.898 261.522 286.718 261.601 286.539C261.68 286.36 261.784 286.125 261.831 286.016C261.879 285.908 261.93 285.792 261.944 285.76C261.985 285.669 262.06 285.498 262.093 285.421C262.119 285.364 262.137 285.322 262.178 285.232C262.181 285.225 261.958 285.224 261.077 285.224H259.972L259.964 285.242C259.947 285.28 259.926 285.331 259.861 285.487C259.824 285.575 259.765 285.717 259.73 285.802C259.694 285.887 259.643 286.012 259.615 286.079C259.588 286.145 259.558 286.216 259.549 286.235C259.54 286.254 259.532 286.272 259.532 286.276C259.532 286.279 259.528 286.292 259.522 286.304C259.516 286.315 259.476 286.412 259.431 286.519C259.33 286.763 259.237 286.986 259.158 287.177C259.124 287.258 259.06 287.412 259.016 287.519C258.971 287.625 258.908 287.776 258.876 287.854C258.844 287.932 258.791 288.057 258.759 288.133C258.728 288.209 258.687 288.307 258.669 288.35C258.651 288.394 258.604 288.508 258.564 288.604C258.524 288.699 258.471 288.827 258.446 288.886C258.421 288.946 258.375 289.057 258.344 289.133C258.312 289.209 258.268 289.314 258.247 289.366C258.226 289.419 258.196 289.49 258.181 289.524C258.166 289.558 258.14 289.621 258.123 289.662C258.106 289.704 258.065 289.801 258.033 289.879C257.902 290.193 257.828 290.372 257.807 290.423C257.795 290.453 257.782 290.479 257.779 290.481C257.776 290.482 257.771 290.473 257.769 290.459C257.766 290.446 257.76 290.414 257.754 290.389C257.741 290.331 257.698 290.115 257.626 289.751C257.596 289.595 257.556 289.399 257.539 289.314C257.522 289.229 257.495 289.098 257.481 289.024C257.466 288.95 257.445 288.85 257.436 288.802C257.419 288.72 257.326 288.253 257.304 288.143C257.278 288.011 257.25 287.872 257.228 287.762C257.214 287.695 257.199 287.618 257.193 287.591C257.176 287.506 257.109 287.169 257.068 286.966C257.047 286.86 257.026 286.756 257.022 286.736C257.019 286.716 257.007 286.657 256.996 286.605C256.985 286.552 256.97 286.477 256.962 286.437C256.954 286.397 256.938 286.319 256.927 286.263C256.915 286.207 256.895 286.105 256.881 286.037C256.852 285.891 256.828 285.819 256.777 285.72C256.675 285.519 256.478 285.357 256.247 285.281C256.176 285.258 256.153 285.253 256.056 285.237C255.974 285.224 255.948 285.224 254.16 285.224L252.347 285.224L252.327 285.342ZM263.071 285.232C263.069 285.237 263.064 285.256 263.06 285.276C263.038 285.377 262.988 285.601 262.966 285.697C262.953 285.757 262.937 285.828 262.931 285.855C262.925 285.882 262.913 285.938 262.903 285.98C262.893 286.022 262.874 286.11 262.859 286.177C262.836 286.283 262.82 286.355 262.759 286.624C262.753 286.651 262.742 286.702 262.734 286.736C262.727 286.77 262.708 286.853 262.693 286.92C262.677 286.987 262.659 287.07 262.651 287.104C262.644 287.139 262.63 287.201 262.621 287.242C262.563 287.498 262.508 287.746 262.478 287.88C262.459 287.965 262.433 288.084 262.419 288.143C262.405 288.203 262.38 288.315 262.363 288.393C262.346 288.471 262.32 288.589 262.304 288.656C262.289 288.723 262.269 288.812 262.26 288.853C262.251 288.895 262.218 289.043 262.187 289.182C262.156 289.321 262.115 289.503 262.096 289.587C262.078 289.67 262.05 289.794 262.034 289.863C262.019 289.931 261.982 290.099 261.951 290.234C261.921 290.37 261.868 290.607 261.833 290.76C261.771 291.038 261.763 291.076 261.709 291.317C261.694 291.387 261.672 291.485 261.66 291.534C261.649 291.584 261.629 291.674 261.615 291.733C261.602 291.793 261.58 291.892 261.566 291.954C261.552 292.015 261.533 292.099 261.524 292.141C261.515 292.183 261.489 292.301 261.466 292.404C261.442 292.507 261.414 292.631 261.404 292.68C261.393 292.729 261.374 292.813 261.362 292.867C261.35 292.921 261.343 292.967 261.346 292.971C261.35 292.974 261.823 292.975 262.399 292.975L263.445 292.973L263.467 292.874C263.48 292.82 263.497 292.74 263.507 292.697C263.516 292.653 263.532 292.584 263.541 292.542C263.55 292.501 263.571 292.409 263.586 292.338C263.602 292.268 263.626 292.163 263.639 292.105C263.669 291.972 263.7 291.833 263.754 291.592C263.777 291.487 263.832 291.242 263.875 291.046C263.919 290.851 263.97 290.622 263.989 290.537C264.032 290.339 264.066 290.186 264.089 290.086C264.099 290.043 264.113 289.979 264.121 289.945C264.128 289.911 264.147 289.826 264.162 289.758C264.178 289.689 264.204 289.57 264.221 289.494C264.238 289.419 264.261 289.315 264.272 289.264C264.284 289.214 264.306 289.115 264.321 289.046C264.337 288.976 264.362 288.864 264.377 288.796C264.51 288.198 264.57 287.933 264.599 287.801C264.631 287.655 264.664 287.508 264.696 287.367C264.704 287.333 264.718 287.269 264.727 287.226C264.736 287.183 264.757 287.091 264.772 287.022C264.788 286.953 264.814 286.834 264.832 286.756C264.849 286.678 264.872 286.575 264.883 286.526C264.894 286.477 264.914 286.387 264.928 286.325C264.941 286.264 264.961 286.178 264.97 286.134C265.001 285.999 265.018 285.921 265.094 285.579C265.134 285.396 265.169 285.242 265.171 285.235C265.175 285.224 265.122 285.224 264.124 285.224C263.29 285.224 263.073 285.225 263.071 285.232ZM274.683 285.231C274.406 285.265 274.197 285.391 274.031 285.625C273.98 285.696 273.896 285.847 273.86 285.934C273.835 285.992 273.768 286.145 273.703 286.292C273.677 286.35 273.646 286.421 273.633 286.45C273.621 286.479 273.597 286.532 273.581 286.568C273.566 286.605 273.536 286.673 273.515 286.72C273.495 286.767 273.464 286.838 273.446 286.877C273.415 286.946 273.384 287.018 273.349 287.098C273.34 287.118 273.317 287.171 273.297 287.216C273.277 287.261 273.248 287.329 273.231 287.367C273.215 287.405 273.187 287.469 273.169 287.509C273.139 287.575 273.102 287.661 273.023 287.841C273.007 287.879 272.975 287.95 272.954 287.999C272.932 288.047 272.906 288.109 272.895 288.135C272.877 288.177 272.863 288.208 272.84 288.258C272.832 288.274 272.782 288.388 272.722 288.528C272.652 288.689 272.578 288.856 272.565 288.883C272.56 288.894 272.529 288.965 272.496 289.041C272.463 289.117 272.421 289.213 272.403 289.254C272.385 289.296 272.356 289.363 272.338 289.404C272.32 289.445 272.3 289.491 272.293 289.506C272.28 289.532 272.129 289.877 272.069 290.017C272.054 290.052 272.026 290.114 272.008 290.155C271.955 290.273 271.816 290.592 271.782 290.67C271.75 290.745 271.689 290.883 271.617 291.046C271.568 291.155 271.336 291.684 271.273 291.829C271.251 291.879 271.22 291.95 271.204 291.987C271.125 292.167 271.089 292.248 271.067 292.299C271.054 292.33 271.038 292.367 271.031 292.381C271.024 292.396 271.004 292.441 270.986 292.483C270.911 292.656 270.837 292.826 270.799 292.91C270.785 292.94 270.776 292.968 270.78 292.971C270.783 292.974 271.279 292.975 271.883 292.975L272.981 292.973L272.998 292.927C273.043 292.805 273.127 292.572 273.145 292.522C273.156 292.492 273.177 292.433 273.193 292.391C273.209 292.349 273.232 292.286 273.245 292.25C273.274 292.168 273.327 292.023 273.373 291.898C273.392 291.846 273.408 291.802 273.408 291.801C273.408 291.8 274.015 291.799 274.756 291.799H276.104L276.108 291.814C276.11 291.822 276.119 291.863 276.128 291.904C276.137 291.946 276.159 292.045 276.177 292.125C276.195 292.204 276.22 292.318 276.233 292.378C276.255 292.478 276.267 292.534 276.316 292.753C276.326 292.798 276.341 292.866 276.349 292.904L276.364 292.973L277.334 292.975C277.867 292.975 278.306 292.974 278.309 292.971C278.313 292.967 278.3 292.903 278.239 292.628C278.227 292.575 278.211 292.504 278.204 292.47C278.197 292.435 278.181 292.364 278.17 292.312C278.124 292.106 278.083 291.919 278.066 291.839C278.049 291.763 277.991 291.497 277.961 291.365C277.95 291.313 277.934 291.242 277.927 291.207C277.919 291.173 277.904 291.102 277.892 291.05C277.854 290.878 277.837 290.797 277.823 290.734C277.816 290.7 277.8 290.629 277.789 290.576C277.777 290.524 277.754 290.417 277.737 290.339C277.719 290.262 277.696 290.155 277.684 290.103C277.672 290.05 277.657 289.979 277.65 289.945C277.642 289.911 277.627 289.84 277.615 289.787C277.591 289.678 277.565 289.562 277.546 289.471C277.538 289.437 277.523 289.366 277.511 289.314C277.5 289.261 277.476 289.155 277.459 289.077C277.442 288.999 277.419 288.893 277.407 288.84C277.395 288.788 277.38 288.717 277.372 288.682C277.365 288.648 277.35 288.577 277.338 288.525C277.313 288.416 277.288 288.3 277.268 288.209C277.261 288.175 277.246 288.104 277.234 288.051C277.222 287.999 277.199 287.892 277.182 287.814C277.165 287.737 277.141 287.63 277.13 287.578C277.118 287.525 277.102 287.454 277.095 287.42C277.088 287.386 277.072 287.315 277.06 287.262C277.049 287.21 277.032 287.133 277.023 287.091C277.014 287.05 276.998 286.979 276.988 286.933C276.978 286.888 276.964 286.823 276.957 286.789C276.942 286.721 276.887 286.469 276.853 286.315C276.841 286.263 276.818 286.156 276.801 286.079C276.784 286.001 276.76 285.894 276.749 285.842C276.737 285.789 276.721 285.718 276.714 285.684C276.707 285.65 276.691 285.579 276.679 285.526C276.668 285.474 276.649 285.387 276.637 285.332C276.625 285.278 276.614 285.232 276.613 285.229C276.608 285.222 274.74 285.224 274.683 285.231ZM275.148 287.42C275.175 287.543 275.195 287.634 275.203 287.667C275.208 287.685 275.22 287.739 275.231 287.788C275.268 287.956 275.329 288.225 275.335 288.252C275.339 288.266 275.357 288.349 275.377 288.436C275.465 288.829 275.538 289.155 275.561 289.254C275.575 289.314 275.593 289.396 275.602 289.435C275.621 289.524 275.694 289.844 275.727 289.991C275.753 290.103 275.777 290.214 275.778 290.223C275.778 290.225 275.384 290.228 274.902 290.228C274.336 290.228 274.025 290.225 274.025 290.221C274.025 290.218 274.035 290.187 274.049 290.154C274.062 290.12 274.09 290.046 274.111 289.988C274.133 289.93 274.171 289.831 274.195 289.767C274.219 289.704 274.277 289.552 274.323 289.429C274.369 289.306 274.413 289.19 274.42 289.172C274.451 289.091 274.532 288.877 274.555 288.814C274.569 288.776 274.585 288.735 274.59 288.722C274.601 288.696 274.678 288.493 274.71 288.406C274.738 288.331 274.848 288.04 274.86 288.012C274.865 287.999 274.882 287.953 274.898 287.91C274.914 287.866 274.944 287.787 274.965 287.732C274.986 287.678 275.023 287.58 275.047 287.515C275.071 287.45 275.098 287.379 275.106 287.357C275.122 287.318 275.122 287.318 275.128 287.338C275.131 287.349 275.14 287.386 275.148 287.42Z" fill="url(#paint0_linear_1_13970)"/>
</g>
<path d="M300.817 281.554V296.1H297.741V284.473H297.656L294.325 286.561V283.834L297.926 281.554H300.817ZM304.274 296.1V293.884L309.451 289.09C309.892 288.664 310.261 288.28 310.559 287.939C310.862 287.598 311.092 287.265 311.248 286.938C311.404 286.606 311.483 286.249 311.483 285.865C311.483 285.439 311.385 285.072 311.191 284.765C310.997 284.452 310.732 284.213 310.396 284.047C310.06 283.877 309.679 283.791 309.252 283.791C308.807 283.791 308.419 283.881 308.088 284.061C307.756 284.241 307.501 284.499 307.321 284.836C307.141 285.172 307.051 285.572 307.051 286.036H304.132C304.132 285.084 304.347 284.258 304.778 283.557C305.209 282.856 305.813 282.314 306.589 281.931C307.366 281.547 308.26 281.355 309.274 281.355C310.315 281.355 311.222 281.54 311.994 281.909C312.77 282.274 313.374 282.781 313.805 283.429C314.236 284.078 314.451 284.821 314.451 285.659C314.451 286.209 314.342 286.751 314.125 287.286C313.911 287.821 313.53 288.415 312.981 289.068C312.432 289.717 311.658 290.496 310.659 291.405L308.535 293.486V293.586H314.643V296.1H304.274ZM322.248 296.299C321.187 296.299 320.243 296.116 319.414 295.752C318.59 295.382 317.939 294.876 317.461 294.232C316.987 293.583 316.744 292.835 316.729 291.988H319.826C319.845 292.343 319.961 292.655 320.174 292.925C320.392 293.19 320.681 293.396 321.04 293.543C321.4 293.69 321.805 293.763 322.255 293.763C322.724 293.763 323.138 293.68 323.498 293.515C323.858 293.349 324.139 293.119 324.343 292.826C324.547 292.532 324.648 292.193 324.648 291.81C324.648 291.422 324.539 291.078 324.322 290.78C324.109 290.477 323.801 290.24 323.398 290.07C323.001 289.899 322.527 289.814 321.978 289.814H320.621V287.556H321.978C322.442 287.556 322.851 287.475 323.207 287.314C323.566 287.153 323.846 286.931 324.045 286.647C324.244 286.358 324.343 286.022 324.343 285.638C324.343 285.274 324.255 284.954 324.08 284.679C323.91 284.4 323.668 284.182 323.356 284.026C323.048 283.87 322.688 283.791 322.276 283.791C321.86 283.791 321.478 283.867 321.133 284.019C320.787 284.166 320.51 284.376 320.302 284.651C320.093 284.925 319.982 285.247 319.968 285.617H317.021C317.035 284.779 317.274 284.04 317.738 283.401C318.202 282.762 318.827 282.262 319.613 281.902C320.404 281.538 321.296 281.355 322.29 281.355C323.294 281.355 324.172 281.538 324.925 281.902C325.678 282.267 326.263 282.759 326.68 283.38C327.101 283.995 327.309 284.686 327.305 285.453C327.309 286.268 327.056 286.947 326.545 287.492C326.038 288.036 325.378 288.382 324.563 288.529V288.642C325.633 288.78 326.448 289.151 327.006 289.757C327.57 290.359 327.849 291.112 327.844 292.016C327.849 292.845 327.61 293.581 327.127 294.225C326.649 294.869 325.988 295.375 325.146 295.745C324.303 296.114 323.337 296.299 322.248 296.299ZM329.835 293.543V291.121L335.907 281.554H337.995V284.907H336.759L332.931 290.965V291.078H341.561V293.543H329.835ZM336.816 296.1V292.804L336.873 291.732V281.554H339.757V296.1H336.816ZM350.035 296.284C349.567 296.284 349.164 296.119 348.828 295.787C348.497 295.451 348.331 295.049 348.331 294.58C348.331 294.116 348.497 293.718 348.828 293.387C349.164 293.055 349.567 292.89 350.035 292.89C350.49 292.89 350.888 293.055 351.229 293.387C351.57 293.718 351.74 294.116 351.74 294.58C351.74 294.892 351.659 295.179 351.498 295.439C351.342 295.695 351.136 295.901 350.881 296.057C350.625 296.209 350.343 296.284 350.035 296.284ZM355.992 296.284C355.524 296.284 355.121 296.119 354.785 295.787C354.454 295.451 354.288 295.049 354.288 294.58C354.288 294.116 354.454 293.718 354.785 293.387C355.121 293.055 355.524 292.89 355.992 292.89C356.447 292.89 356.845 293.055 357.186 293.387C357.527 293.718 357.697 294.116 357.697 294.58C357.697 294.892 357.617 295.179 357.456 295.439C357.299 295.695 357.093 295.901 356.838 296.057C356.582 296.209 356.3 296.284 355.992 296.284ZM361.949 296.284C361.481 296.284 361.078 296.119 360.742 295.787C360.411 295.451 360.245 295.049 360.245 294.58C360.245 294.116 360.411 293.718 360.742 293.387C361.078 293.055 361.481 292.89 361.949 292.89C362.404 292.89 362.802 293.055 363.143 293.387C363.484 293.718 363.654 294.116 363.654 294.58C363.654 294.892 363.574 295.179 363.413 295.439C363.256 295.695 363.05 295.901 362.795 296.057C362.539 296.209 362.257 296.284 361.949 296.284ZM367.907 296.284C367.438 296.284 367.035 296.119 366.699 295.787C366.368 295.451 366.202 295.049 366.202 294.58C366.202 294.116 366.368 293.718 366.699 293.387C367.035 293.055 367.438 292.89 367.907 292.89C368.361 292.89 368.759 293.055 369.1 293.387C369.441 293.718 369.611 294.116 369.611 294.58C369.611 294.892 369.531 295.179 369.37 295.439C369.213 295.695 369.007 295.901 368.752 296.057C368.496 296.209 368.214 296.284 367.907 296.284ZM381.324 296.299C380.321 296.299 379.426 296.114 378.64 295.745C377.859 295.375 377.238 294.866 376.779 294.218C376.32 293.569 376.081 292.826 376.062 291.988H379.045C379.078 292.551 379.315 293.008 379.755 293.358C380.195 293.709 380.718 293.884 381.324 293.884C381.807 293.884 382.234 293.777 382.603 293.564C382.977 293.346 383.268 293.046 383.476 292.662C383.69 292.274 383.796 291.829 383.796 291.327C383.796 290.816 383.687 290.366 383.469 289.978C383.256 289.589 382.96 289.286 382.582 289.068C382.203 288.851 381.77 288.739 381.282 288.735C380.856 288.735 380.441 288.822 380.039 288.997C379.641 289.173 379.331 289.412 379.109 289.715L376.374 289.225L377.063 281.554H385.955V284.068H379.599L379.222 287.712H379.307C379.563 287.352 379.949 287.054 380.465 286.817C380.981 286.58 381.559 286.462 382.198 286.462C383.074 286.462 383.855 286.668 384.542 287.08C385.228 287.492 385.771 288.058 386.168 288.777C386.566 289.492 386.762 290.316 386.758 291.249C386.762 292.229 386.535 293.1 386.076 293.863C385.621 294.62 384.985 295.217 384.165 295.652C383.351 296.083 382.404 296.299 381.324 296.299ZM394.485 296.299C393.737 296.294 393.015 296.168 392.319 295.922C391.628 295.676 391.007 295.276 390.458 294.722C389.909 294.168 389.473 293.434 389.151 292.52C388.834 291.606 388.675 290.484 388.675 289.154C388.68 287.932 388.82 286.841 389.094 285.88C389.374 284.914 389.771 284.095 390.288 283.422C390.808 282.75 391.431 282.238 392.155 281.888C392.88 281.533 393.692 281.355 394.592 281.355C395.562 281.355 396.419 281.545 397.163 281.924C397.906 282.298 398.503 282.807 398.952 283.451C399.407 284.095 399.681 284.817 399.776 285.617H396.744C396.625 285.11 396.377 284.712 395.998 284.424C395.619 284.135 395.15 283.99 394.592 283.99C393.645 283.99 392.925 284.402 392.432 285.226C391.945 286.05 391.696 287.17 391.687 288.586H391.786C392.004 288.155 392.297 287.788 392.667 287.485C393.041 287.177 393.465 286.943 393.938 286.782C394.416 286.616 394.921 286.533 395.451 286.533C396.313 286.533 397.08 286.737 397.752 287.144C398.424 287.546 398.955 288.1 399.343 288.806C399.731 289.511 399.925 290.318 399.925 291.228C399.925 292.212 399.696 293.088 399.236 293.855C398.782 294.622 398.145 295.224 397.326 295.659C396.512 296.09 395.565 296.303 394.485 296.299ZM394.471 293.884C394.944 293.884 395.368 293.77 395.742 293.543C396.116 293.316 396.41 293.008 396.623 292.62C396.836 292.231 396.942 291.796 396.942 291.313C396.942 290.83 396.836 290.397 396.623 290.013C396.414 289.63 396.126 289.324 395.756 289.097C395.387 288.87 394.966 288.756 394.492 288.756C394.137 288.756 393.808 288.822 393.505 288.955C393.207 289.087 392.944 289.272 392.717 289.509C392.494 289.746 392.319 290.02 392.191 290.333C392.063 290.64 391.999 290.97 391.999 291.32C391.999 291.789 392.106 292.217 392.319 292.605C392.537 292.994 392.83 293.304 393.199 293.536C393.574 293.768 393.997 293.884 394.471 293.884ZM402.681 296.1L408.711 284.168V284.068H401.687V281.554H411.893V284.104L405.856 296.1H402.681ZM419.133 296.299C418.04 296.299 417.067 296.121 416.214 295.766C415.367 295.406 414.702 294.916 414.219 294.296C413.736 293.675 413.494 292.972 413.494 292.186C413.494 291.58 413.632 291.024 413.906 290.517C414.186 290.006 414.564 289.582 415.043 289.246C415.521 288.905 416.056 288.687 416.648 288.593V288.493C415.871 288.337 415.241 287.961 414.758 287.364C414.275 286.763 414.034 286.064 414.034 285.269C414.034 284.516 414.254 283.846 414.695 283.259C415.135 282.667 415.739 282.203 416.506 281.867C417.277 281.526 418.153 281.355 419.133 281.355C420.114 281.355 420.987 281.526 421.754 281.867C422.526 282.208 423.132 282.674 423.572 283.266C424.013 283.853 424.235 284.521 424.24 285.269C424.235 286.069 423.989 286.767 423.501 287.364C423.014 287.961 422.389 288.337 421.626 288.493V288.593C422.209 288.687 422.737 288.905 423.21 289.246C423.688 289.582 424.067 290.006 424.347 290.517C424.631 291.024 424.775 291.58 424.78 292.186C424.775 292.972 424.531 293.675 424.048 294.296C423.565 294.916 422.898 295.406 422.045 295.766C421.198 296.121 420.227 296.299 419.133 296.299ZM419.133 294.04C419.621 294.04 420.047 293.952 420.412 293.777C420.776 293.597 421.061 293.351 421.264 293.039C421.472 292.721 421.577 292.357 421.577 291.945C421.577 291.524 421.47 291.152 421.257 290.83C421.044 290.503 420.755 290.247 420.391 290.063C420.026 289.873 419.607 289.779 419.133 289.779C418.665 289.779 418.246 289.873 417.876 290.063C417.507 290.247 417.216 290.503 417.003 290.83C416.794 291.152 416.69 291.524 416.69 291.945C416.69 292.357 416.792 292.721 416.996 293.039C417.199 293.351 417.486 293.597 417.855 293.777C418.224 293.952 418.65 294.04 419.133 294.04ZM419.133 287.541C419.541 287.541 419.903 287.459 420.22 287.293C420.537 287.127 420.786 286.898 420.966 286.604C421.146 286.31 421.236 285.972 421.236 285.588C421.236 285.21 421.146 284.878 420.966 284.594C420.786 284.305 420.54 284.08 420.227 283.919C419.915 283.754 419.55 283.671 419.133 283.671C418.722 283.671 418.357 283.754 418.04 283.919C417.722 284.08 417.474 284.305 417.294 284.594C417.119 284.878 417.031 285.21 417.031 285.588C417.031 285.972 417.121 286.31 417.301 286.604C417.481 286.898 417.73 287.127 418.047 287.293C418.364 287.459 418.726 287.541 419.133 287.541Z" fill="#03010F"/>
<path d="M497.306 285.492V283.463H506.863V285.492H503.3V295.1H500.868V285.492H497.306ZM518.598 289.282C518.598 290.55 518.358 291.63 517.877 292.52C517.4 293.41 516.748 294.09 515.922 294.56C515.1 295.026 514.176 295.259 513.15 295.259C512.116 295.259 511.187 295.024 510.366 294.554C509.544 294.085 508.894 293.405 508.417 292.515C507.939 291.624 507.701 290.547 507.701 289.282C507.701 288.013 507.939 286.933 508.417 286.043C508.894 285.153 509.544 284.475 510.366 284.009C511.187 283.539 512.116 283.304 513.15 283.304C514.176 283.304 515.1 283.539 515.922 284.009C516.748 284.475 517.4 285.153 517.877 286.043C518.358 286.933 518.598 288.013 518.598 289.282ZM516.104 289.282C516.104 288.46 515.981 287.766 515.735 287.202C515.492 286.638 515.15 286.21 514.706 285.918C514.263 285.626 513.744 285.48 513.15 285.48C512.555 285.48 512.036 285.626 511.593 285.918C511.15 286.21 510.805 286.638 510.559 287.202C510.316 287.766 510.195 288.46 510.195 289.282C510.195 290.104 510.316 290.797 510.559 291.361C510.805 291.925 511.15 292.354 511.593 292.645C512.036 292.937 512.555 293.083 513.15 293.083C513.744 293.083 514.263 292.937 514.706 292.645C515.15 292.354 515.492 291.925 515.735 291.361C515.981 290.797 516.104 290.104 516.104 289.282Z" fill="#03010F" fill-opacity="0.8"/>
<path d="M254.588 351.282V329.463H255.986V351.282H254.588ZM258.295 336.665C258.227 335.978 257.935 335.443 257.418 335.063C256.9 334.682 256.199 334.492 255.312 334.492C254.71 334.492 254.202 334.577 253.787 334.747C253.372 334.912 253.054 335.142 252.832 335.438C252.616 335.733 252.508 336.068 252.508 336.443C252.497 336.756 252.562 337.029 252.704 337.262C252.852 337.495 253.054 337.696 253.31 337.867C253.565 338.032 253.861 338.176 254.196 338.301C254.531 338.421 254.889 338.523 255.27 338.608L256.838 338.983C257.599 339.154 258.298 339.381 258.935 339.665C259.571 339.949 260.122 340.299 260.588 340.713C261.054 341.128 261.415 341.617 261.67 342.179C261.932 342.742 262.065 343.387 262.071 344.114C262.065 345.182 261.793 346.108 261.253 346.892C260.719 347.671 259.946 348.276 258.935 348.708C257.929 349.134 256.716 349.347 255.295 349.347C253.886 349.347 252.659 349.131 251.614 348.699C250.574 348.267 249.761 347.628 249.176 346.782C248.597 345.929 248.293 344.875 248.264 343.62H251.835C251.875 344.205 252.043 344.693 252.338 345.086C252.639 345.472 253.04 345.765 253.54 345.963C254.045 346.157 254.616 346.253 255.253 346.253C255.878 346.253 256.42 346.162 256.881 345.98C257.347 345.799 257.707 345.546 257.963 345.222C258.219 344.898 258.347 344.526 258.347 344.105C258.347 343.713 258.23 343.384 257.997 343.117C257.77 342.85 257.435 342.622 256.991 342.435C256.554 342.247 256.017 342.077 255.381 341.924L253.48 341.446C252.008 341.088 250.847 340.529 249.994 339.767C249.142 339.006 248.719 337.98 248.724 336.691C248.719 335.634 249 334.711 249.568 333.921C250.142 333.131 250.929 332.515 251.929 332.071C252.929 331.628 254.065 331.407 255.338 331.407C256.633 331.407 257.764 331.628 258.73 332.071C259.702 332.515 260.457 333.131 260.997 333.921C261.537 334.711 261.815 335.625 261.832 336.665H258.295ZM270.766 331.407C271.664 331.407 272.528 331.557 273.357 331.858C274.192 332.159 274.937 332.64 275.59 333.299C276.249 333.958 276.769 334.833 277.15 335.924C277.536 337.009 277.732 338.341 277.738 339.921C277.738 341.404 277.57 342.728 277.235 343.892C276.905 345.051 276.431 346.037 275.812 346.85C275.192 347.662 274.445 348.282 273.57 348.708C272.695 349.128 271.718 349.338 270.638 349.338C269.474 349.338 268.445 349.114 267.553 348.665C266.661 348.211 265.942 347.594 265.397 346.816C264.857 346.032 264.53 345.151 264.417 344.174H268.056C268.198 344.81 268.496 345.304 268.951 345.657C269.405 346.003 269.968 346.176 270.638 346.176C271.775 346.176 272.638 345.682 273.229 344.693C273.82 343.699 274.119 342.338 274.124 340.611H274.005C273.744 341.122 273.391 341.563 272.948 341.932C272.505 342.296 271.996 342.577 271.422 342.776C270.854 342.975 270.249 343.074 269.607 343.074C268.579 343.074 267.661 342.833 266.854 342.35C266.047 341.867 265.411 341.202 264.945 340.355C264.479 339.509 264.246 338.543 264.246 337.458C264.241 336.287 264.511 335.245 265.056 334.33C265.601 333.415 266.363 332.699 267.34 332.182C268.323 331.659 269.465 331.401 270.766 331.407ZM270.792 334.304C270.218 334.304 269.707 334.441 269.258 334.713C268.815 334.986 268.462 335.353 268.201 335.813C267.945 336.273 267.82 336.787 267.826 337.355C267.826 337.929 267.951 338.446 268.201 338.907C268.457 339.361 268.803 339.725 269.241 339.997C269.684 340.265 270.19 340.398 270.758 340.398C271.184 340.398 271.579 340.318 271.942 340.159C272.306 340 272.621 339.782 272.888 339.503C273.161 339.219 273.374 338.892 273.528 338.523C273.681 338.154 273.758 337.762 273.758 337.347C273.752 336.796 273.621 336.29 273.366 335.83C273.11 335.37 272.758 335 272.309 334.722C271.86 334.443 271.354 334.304 270.792 334.304ZM286.806 349.338C285.494 349.338 284.326 349.125 283.303 348.699C282.286 348.267 281.488 347.679 280.908 346.935C280.329 346.191 280.039 345.347 280.039 344.404C280.039 343.676 280.204 343.009 280.533 342.401C280.869 341.787 281.323 341.279 281.897 340.875C282.471 340.466 283.113 340.205 283.823 340.091V339.972C282.891 339.784 282.136 339.333 281.556 338.617C280.976 337.895 280.687 337.057 280.687 336.103C280.687 335.199 280.951 334.395 281.479 333.691C282.008 332.98 282.732 332.424 283.653 332.02C284.579 331.611 285.63 331.407 286.806 331.407C287.982 331.407 289.03 331.611 289.951 332.02C290.877 332.429 291.604 332.989 292.133 333.699C292.661 334.404 292.928 335.205 292.934 336.103C292.928 337.063 292.633 337.901 292.047 338.617C291.462 339.333 290.712 339.784 289.797 339.972V340.091C290.496 340.205 291.13 340.466 291.698 340.875C292.272 341.279 292.726 341.787 293.062 342.401C293.403 343.009 293.576 343.676 293.582 344.404C293.576 345.347 293.283 346.191 292.704 346.935C292.124 347.679 291.323 348.267 290.3 348.699C289.283 349.125 288.119 349.338 286.806 349.338ZM286.806 346.628C287.391 346.628 287.903 346.523 288.34 346.313C288.778 346.097 289.119 345.801 289.363 345.426C289.613 345.046 289.738 344.608 289.738 344.114C289.738 343.608 289.61 343.162 289.354 342.776C289.099 342.384 288.752 342.077 288.315 341.855C287.877 341.628 287.374 341.515 286.806 341.515C286.244 341.515 285.741 341.628 285.297 341.855C284.854 342.077 284.505 342.384 284.249 342.776C283.999 343.162 283.874 343.608 283.874 344.114C283.874 344.608 283.996 345.046 284.241 345.426C284.485 345.801 284.829 346.097 285.272 346.313C285.715 346.523 286.226 346.628 286.806 346.628ZM286.806 338.83C287.295 338.83 287.729 338.73 288.11 338.532C288.491 338.333 288.789 338.057 289.005 337.705C289.221 337.353 289.329 336.946 289.329 336.486C289.329 336.032 289.221 335.634 289.005 335.293C288.789 334.946 288.494 334.676 288.119 334.483C287.744 334.284 287.306 334.185 286.806 334.185C286.312 334.185 285.874 334.284 285.494 334.483C285.113 334.676 284.815 334.946 284.599 335.293C284.388 335.634 284.283 336.032 284.283 336.486C284.283 336.946 284.391 337.353 284.607 337.705C284.823 338.057 285.121 338.333 285.502 338.532C285.883 338.73 286.317 338.83 286.806 338.83ZM296.852 349.1L304.088 334.782V334.662H295.659V331.645H307.906V334.705L300.662 349.1H296.852ZM309.592 349.321C309.029 349.321 308.546 349.122 308.143 348.725C307.745 348.321 307.546 347.838 307.546 347.276C307.546 346.719 307.745 346.242 308.143 345.844C308.546 345.446 309.029 345.247 309.592 345.247C310.137 345.247 310.614 345.446 311.023 345.844C311.432 346.242 311.637 346.719 311.637 347.276C311.637 347.651 311.54 347.995 311.347 348.307C311.16 348.614 310.913 348.861 310.606 349.049C310.299 349.23 309.961 349.321 309.592 349.321ZM320.724 349.483C319.258 349.478 317.997 349.117 316.94 348.401C315.889 347.685 315.079 346.648 314.511 345.29C313.949 343.932 313.67 342.299 313.676 340.39C313.676 338.486 313.957 336.864 314.52 335.523C315.088 334.182 315.898 333.162 316.949 332.463C318.006 331.759 319.264 331.407 320.724 331.407C322.185 331.407 323.44 331.759 324.491 332.463C325.548 333.168 326.361 334.191 326.929 335.532C327.497 336.867 327.778 338.486 327.773 340.39C327.773 342.304 327.489 343.941 326.92 345.299C326.358 346.657 325.551 347.693 324.5 348.409C323.449 349.125 322.19 349.483 320.724 349.483ZM320.724 346.424C321.724 346.424 322.523 345.921 323.119 344.915C323.716 343.909 324.011 342.401 324.006 340.39C324.006 339.066 323.869 337.963 323.597 337.083C323.329 336.202 322.949 335.54 322.454 335.097C321.966 334.654 321.389 334.432 320.724 334.432C319.73 334.432 318.935 334.929 318.338 335.924C317.741 336.918 317.44 338.407 317.435 340.39C317.435 341.73 317.568 342.85 317.835 343.747C318.108 344.64 318.491 345.31 318.986 345.759C319.48 346.202 320.06 346.424 320.724 346.424ZM337.248 349.483C335.782 349.478 334.521 349.117 333.464 348.401C332.413 347.685 331.603 346.648 331.035 345.29C330.472 343.932 330.194 342.299 330.199 340.39C330.199 338.486 330.481 336.864 331.043 335.523C331.611 334.182 332.421 333.162 333.472 332.463C334.529 331.759 335.788 331.407 337.248 331.407C338.708 331.407 339.964 331.759 341.015 332.463C342.072 333.168 342.884 334.191 343.452 335.532C344.021 336.867 344.302 338.486 344.296 340.39C344.296 342.304 344.012 343.941 343.444 345.299C342.881 346.657 342.074 347.693 341.023 348.409C339.972 349.125 338.714 349.483 337.248 349.483ZM337.248 346.424C338.248 346.424 339.046 345.921 339.643 344.915C340.239 343.909 340.535 342.401 340.529 340.39C340.529 339.066 340.393 337.963 340.12 337.083C339.853 336.202 339.472 335.54 338.978 335.097C338.489 334.654 337.913 334.432 337.248 334.432C336.253 334.432 335.458 334.929 334.861 335.924C334.265 336.918 333.964 338.407 333.958 340.39C333.958 341.73 334.092 342.85 334.359 343.747C334.631 344.64 335.015 345.31 335.509 345.759C336.003 346.202 336.583 346.424 337.248 346.424Z" fill="#03010F"/>
</g>
<defs>
<filter id="filter0_d_1_13970" x="218.31" y="224.743" width="324.428" height="168.714" filterUnits="userSpaceOnUse" color-interpolation-filters="sRGB">
<feFlood flood-opacity="0" result="BackgroundImageFix"/>
<feColorMatrix in="SourceAlpha" type="matrix" values="0 0 0 0 0 0 0 0 0 0 0 0 0 0 0 0 0 0 127 0" result="hardAlpha"/>
<feOffset dx="-3" dy="-3"/>
<feGaussianBlur stdDeviation="3"/>
<feComposite in2="hardAlpha" operator="out"/>
<feColorMatrix type="matrix" values="0 0 0 0 0 0 0 0 0 0 0 0 0 0 0 0 0 0 0.25 0"/>
<feBlend mode="normal" in2="BackgroundImageFix" result="effect1_dropShadow_1_13970"/>
<feBlend mode="normal" in="SourceGraphic" in2="effect1_dropShadow_1_13970" result="shape"/>
</filter>
<linearGradient id="paint0_linear_1_13970" x1="252.31" y1="289.098" x2="278.308" y2="289.098" gradientUnits="userSpaceOnUse">
<stop stop-color="#181B60"/>
<stop offset="1" stop-color="#00279C"/>
</linearGradient>
<clipPath id="clip0_1_13970">
<rect width="36" height="36" fill="white" transform="translate(34.5923 157.017)"/>
</clipPath>
<clipPath id="clip1_1_13970">
<rect width="36" height="36" fill="white" transform="translate(247.31 271.1)"/>
</clipPath>
</defs>
</svg>
