<svg width="554" height="506" viewBox="0 0 554 506" fill="none" xmlns="http://www.w3.org/2000/svg">
<path opacity="0.2" fill-rule="evenodd" clip-rule="evenodd" d="M48.2104 28.9427L84.3907 8.07599L119.654 28.414V70.9593L84.2129 91.3999L48.2104 70.6356V28.9427ZM43.8748 214.153V166.935L43.1758 167.338L-0.000244141 142.437V92.6335L41.2146 68.8631V24.9016L84.3907 0L123.61 22.6198L162.83 0L206.006 24.9016V72.4926L243.231 93.9617V137.363L278.494 157.701L311.097 138.897V93.9617L352.314 70.1901V24.9016L395.49 0L436.348 23.5643L472.6 2.65625L515.776 27.5578V72.4924L553.001 93.9621V143.765L513.117 166.768V212.825L473.233 235.829V272.828L513.117 295.831V341.327L551.672 363.563V413.366L514.447 434.836V481.098L471.271 505.999L432.049 483.379L392.828 506L349.652 481.098V435.04L309.769 412.037V367.103L277.83 348.682L241.901 369.404V412.037L204.676 433.507V481.098L161.5 506L122.945 483.763L84.3897 506L41.2136 481.098V437.696L1.32983 414.694V364.891L43.8748 340.353V295.831L81.0994 274.362V235.622L43.8748 214.153ZM397.45 140.018V98.4763L431.742 78.6982L466.649 98.8306V140.019L432.051 159.974L397.45 140.018ZM360.225 208.722V165.769L392.141 147.361L426.765 167.331V206.423L391.502 226.761L360.225 208.722ZM316.767 234.908L317.049 235.071L353.302 214.162L386.881 233.528V274.362L354.277 293.166L316.767 271.532V234.908ZM350.984 166.769V205.657L315.518 226.112L283.115 207.423V163.112L313.879 145.369L350.984 166.769ZM388.21 96.7087V141.018L357.444 158.762L318.093 136.067V98.0029L354.273 77.1361L388.21 96.7087ZM309.771 230.873V274.359L277.83 292.781L244.562 273.594V232.404L278.494 212.834L309.771 230.873ZM205.503 215.21L237.566 233.702V272.297L202.048 292.782L167.451 272.828V237.156L205.503 215.21ZM163.778 147.744L196.762 166.768V207.191L162.831 226.761L130.227 207.957V167.095L163.778 147.744ZM156.879 96.7068V141.021L123.328 160.371L87.0508 139.448L86.7661 139.612V98.2363L123.148 77.253L156.879 96.7068ZM199.01 69.6625L161.962 91.0298L127.567 71.1923V28.414L162.83 8.07599L199.01 28.9427V69.6625ZM240.142 226.877L273.873 207.423V163.112L241.779 144.602L207.335 164.467V207.956L240.142 226.877ZM198.595 159.309L236.235 137.6V98.0029L200.923 77.6367L166.122 97.7075V140.58L198.595 159.309ZM394.467 361.28L426.765 342.653V302.233L391.502 281.895L358.896 300.7V340.765L394.467 361.28ZM436.007 342.655L468.789 361.562L506.122 340.031V299.872L471.781 280.067L436.007 300.699V342.655ZM474.56 367.872V408.29L510.515 429.027L544.676 409.325V367.604L509.85 347.519L474.56 367.872ZM436.004 436.93V477.584L471.271 497.923L507.451 477.057V437.665L471.091 416.694L436.004 436.93ZM283.116 297.809L312.55 280.832L349.655 302.232V339.23L312.55 360.631L283.116 343.654V297.809ZM316.765 369.932L354.274 348.299L388.208 367.87V408.526L352.945 428.863L316.765 407.996V369.932ZM396.121 408.293V368.638L431.386 348.299L465.32 367.871V409.825L432.049 429.014L396.121 408.293ZM390.323 415.914L428.094 437.698V477.584L392.828 497.924L356.648 477.057V435.336L390.323 415.914ZM120.983 340.354L84.8526 361.192L50.8706 341.593V299.872L83.881 280.834L120.983 302.232V340.354ZM196.763 301.465V338.464L159.658 359.864L130.227 342.89V300.699L162.831 281.895L196.763 301.465ZM87.6819 370.172V408.292L122.945 428.63L155.549 409.826V367.635L123.814 349.333L87.6819 370.172ZM164.792 370.171V408.292L199.592 428.363L234.905 407.996V367.631L202.05 348.682L164.792 370.171ZM207.335 342.299L241.115 361.781L272.544 343.654V297.809L242.446 280.45L207.335 300.7V342.299ZM79.356 96.7026L43.1516 75.8219L6.9956 96.6747V138.395L43.1758 159.262L79.356 138.395V96.7026ZM86.6693 147.744L50.8706 168.391V210.112L82.7296 228.486L120.983 206.424V167.535L86.6693 147.744ZM125.605 216.819L88.0952 238.452V271.532L125.605 293.166L158.21 274.361V235.623L125.605 216.819ZM127.566 436.164V478.352L161.5 497.924L197.68 477.057V436.337L162.473 416.031L127.566 436.164ZM83.0611 417.359L118.324 437.696V478.352L84.3897 497.924L48.2095 477.057V437.459L83.0611 417.359ZM78.4402 409.825L42.6652 430.458L8.32568 410.652V368.932L44.5059 348.065L78.4402 367.636V409.825ZM395.49 8.07599L359.31 28.9427V70.6636L395.11 91.311L429.424 71.5208V27.6469L395.49 8.07599ZM396.123 272.828L431.386 293.166L466.237 273.066V235.59L432.051 215.874L396.123 236.595V272.828ZM469.454 92.3446L508.78 69.6635V31.599L472.6 10.7322L438.666 30.3031V74.5882L469.454 92.3446ZM509.825 160.591L474.562 140.253V101.131L512.995 78.9647L546.005 98.0033V139.724L509.825 160.591ZM437.336 166.564V208.723L471.782 228.59L506.122 208.784V167.063L471.296 146.978L437.336 166.564Z" fill="#F10160"/>
<g filter="url(#filter0_b_1_14053)">
<rect x="98.3507" y="173.979" width="356.3" height="187.26" rx="13.2948" fill="#03010F" fill-opacity="0.7"/>
<path d="M126.621 224.237V204.899H134.364C135.786 204.899 136.973 205.11 137.923 205.531C138.874 205.953 139.588 206.539 140.067 207.288C140.545 208.031 140.785 208.887 140.785 209.856C140.785 210.611 140.633 211.276 140.331 211.848C140.029 212.415 139.614 212.881 139.085 213.246C138.562 213.605 137.964 213.86 137.291 214.011V214.2C138.027 214.231 138.717 214.439 139.359 214.823C140.007 215.207 140.533 215.745 140.936 216.437C141.338 217.123 141.54 217.942 141.54 218.892C141.54 219.918 141.285 220.834 140.775 221.64C140.271 222.44 139.526 223.072 138.537 223.538C137.549 224.004 136.331 224.237 134.883 224.237H126.621ZM130.71 220.894H134.043C135.182 220.894 136.013 220.677 136.535 220.243C137.058 219.802 137.319 219.217 137.319 218.486C137.319 217.951 137.19 217.479 136.932 217.07C136.674 216.661 136.306 216.34 135.827 216.107C135.355 215.874 134.792 215.757 134.137 215.757H130.71V220.894ZM130.71 212.991H133.741C134.301 212.991 134.798 212.893 135.232 212.698C135.673 212.497 136.019 212.213 136.271 211.848C136.529 211.483 136.658 211.046 136.658 210.536C136.658 209.837 136.41 209.274 135.912 208.846C135.421 208.418 134.723 208.204 133.816 208.204H130.71V212.991ZM153.425 218.061V209.733H157.448V224.237H153.586V221.602H153.435C153.108 222.452 152.563 223.135 151.801 223.651C151.046 224.167 150.124 224.426 149.035 224.426C148.065 224.426 147.212 224.205 146.476 223.765C145.739 223.324 145.163 222.698 144.748 221.886C144.339 221.074 144.131 220.101 144.125 218.968V209.733H148.147V218.25C148.153 219.106 148.383 219.783 148.836 220.28C149.29 220.778 149.897 221.026 150.659 221.026C151.144 221.026 151.597 220.916 152.018 220.696C152.44 220.469 152.78 220.136 153.038 219.695C153.303 219.254 153.432 218.71 153.425 218.061ZM163.149 229.675C162.639 229.675 162.16 229.635 161.713 229.553C161.273 229.477 160.908 229.38 160.618 229.26L161.525 226.257C161.997 226.402 162.422 226.481 162.799 226.493C163.183 226.506 163.514 226.418 163.791 226.229C164.074 226.04 164.304 225.719 164.48 225.266L164.716 224.652L159.513 209.733H163.743L166.746 220.384H166.897L169.928 209.733H174.187L168.55 225.804C168.279 226.585 167.911 227.265 167.445 227.844C166.985 228.429 166.403 228.879 165.698 229.194C164.993 229.515 164.143 229.675 163.149 229.675ZM188.952 224.52C187.467 224.52 186.189 224.205 185.119 223.576C184.055 222.94 183.236 222.059 182.664 220.932C182.097 219.805 181.814 218.508 181.814 217.042C181.814 215.556 182.1 214.253 182.673 213.133C183.252 212.006 184.074 211.128 185.137 210.498C186.201 209.862 187.467 209.544 188.933 209.544C190.198 209.544 191.306 209.774 192.257 210.234C193.207 210.693 193.96 211.338 194.514 212.169C195.068 213 195.373 213.976 195.43 215.097H191.634C191.527 214.373 191.243 213.79 190.784 213.35C190.331 212.903 189.736 212.679 188.999 212.679C188.376 212.679 187.832 212.849 187.366 213.189C186.906 213.523 186.547 214.011 186.289 214.653C186.031 215.295 185.902 216.072 185.902 216.985C185.902 217.91 186.028 218.697 186.28 219.346C186.538 219.994 186.9 220.488 187.366 220.828C187.832 221.168 188.376 221.338 188.999 221.338C189.459 221.338 189.871 221.243 190.236 221.055C190.608 220.866 190.913 220.592 191.152 220.233C191.398 219.868 191.558 219.431 191.634 218.921H195.43C195.367 220.029 195.064 221.004 194.523 221.848C193.988 222.685 193.248 223.34 192.304 223.812C191.36 224.284 190.243 224.52 188.952 224.52ZM198.005 224.237V209.733H201.905V212.264H202.056C202.32 211.364 202.764 210.684 203.387 210.224C204.01 209.758 204.728 209.526 205.54 209.526C205.741 209.526 205.958 209.538 206.191 209.563C206.424 209.589 206.629 209.623 206.805 209.667V213.236C206.616 213.18 206.355 213.129 206.021 213.085C205.688 213.041 205.383 213.019 205.106 213.019C204.514 213.019 203.985 213.148 203.519 213.406C203.06 213.658 202.695 214.011 202.424 214.464C202.16 214.917 202.027 215.44 202.027 216.031V224.237H198.005ZM211.81 229.675C211.3 229.675 210.821 229.635 210.374 229.553C209.934 229.477 209.569 229.38 209.279 229.26L210.185 226.257C210.658 226.402 211.083 226.481 211.46 226.493C211.844 226.506 212.175 226.418 212.452 226.229C212.735 226.04 212.965 225.719 213.141 225.266L213.377 224.652L208.174 209.733H212.404L215.407 220.384H215.558L218.589 209.733H222.848L217.211 225.804C216.94 226.585 216.572 227.265 216.106 227.844C215.646 228.429 215.064 228.879 214.359 229.194C213.654 229.515 212.804 229.675 211.81 229.675ZM224.906 229.675V209.733H228.872V212.169H229.051C229.227 211.779 229.482 211.383 229.816 210.98C230.156 210.571 230.597 210.231 231.138 209.96C231.686 209.683 232.365 209.544 233.178 209.544C234.235 209.544 235.211 209.821 236.105 210.375C236.999 210.923 237.713 211.751 238.248 212.859C238.783 213.96 239.051 215.342 239.051 217.004C239.051 218.622 238.789 219.988 238.267 221.102C237.751 222.21 237.046 223.05 236.152 223.623C235.264 224.189 234.27 224.473 233.168 224.473C232.388 224.473 231.723 224.344 231.176 224.086C230.634 223.828 230.191 223.503 229.844 223.113C229.498 222.716 229.234 222.317 229.051 221.914H228.928V229.675H224.906ZM228.844 216.985C228.844 217.847 228.963 218.6 229.202 219.242C229.442 219.884 229.788 220.384 230.241 220.743C230.694 221.096 231.245 221.272 231.893 221.272C232.548 221.272 233.102 221.092 233.555 220.734C234.008 220.368 234.352 219.865 234.584 219.223C234.824 218.574 234.943 217.829 234.943 216.985C234.943 216.148 234.827 215.411 234.594 214.775C234.361 214.14 234.018 213.642 233.565 213.284C233.111 212.925 232.554 212.745 231.893 212.745C231.239 212.745 230.685 212.919 230.232 213.265C229.785 213.611 229.442 214.102 229.202 214.738C228.963 215.374 228.844 216.123 228.844 216.985ZM249.447 209.733V212.755H240.712V209.733H249.447ZM242.695 206.259H246.718V219.78C246.718 220.151 246.774 220.441 246.888 220.649C247.001 220.85 247.158 220.992 247.36 221.074C247.568 221.155 247.807 221.196 248.077 221.196C248.266 221.196 248.455 221.181 248.644 221.149C248.833 221.111 248.978 221.083 249.078 221.064L249.711 224.057C249.51 224.12 249.226 224.193 248.861 224.274C248.496 224.363 248.052 224.416 247.53 224.435C246.56 224.473 245.711 224.344 244.98 224.048C244.257 223.752 243.693 223.292 243.29 222.669C242.887 222.046 242.689 221.259 242.695 220.309V206.259ZM258.464 224.52C256.997 224.52 255.729 224.208 254.659 223.585C253.595 222.956 252.773 222.081 252.194 220.96C251.615 219.833 251.326 218.527 251.326 217.042C251.326 215.543 251.615 214.234 252.194 213.114C252.773 211.987 253.595 211.112 254.659 210.489C255.729 209.859 256.997 209.544 258.464 209.544C259.931 209.544 261.196 209.859 262.26 210.489C263.33 211.112 264.155 211.987 264.734 213.114C265.313 214.234 265.602 215.543 265.602 217.042C265.602 218.527 265.313 219.833 264.734 220.96C264.155 222.081 263.33 222.956 262.26 223.585C261.196 224.208 259.931 224.52 258.464 224.52ZM258.483 221.404C259.15 221.404 259.707 221.215 260.154 220.837C260.601 220.453 260.938 219.931 261.165 219.27C261.397 218.609 261.514 217.857 261.514 217.013C261.514 216.17 261.397 215.418 261.165 214.757C260.938 214.096 260.601 213.573 260.154 213.189C259.707 212.805 259.15 212.613 258.483 212.613C257.809 212.613 257.243 212.805 256.783 213.189C256.33 213.573 255.987 214.096 255.754 214.757C255.527 215.418 255.414 216.17 255.414 217.013C255.414 217.857 255.527 218.609 255.754 219.27C255.987 219.931 256.33 220.453 256.783 220.837C257.243 221.215 257.809 221.404 258.483 221.404Z" fill="white"/>
<path d="M125.949 257.531V245.929H130.594C131.448 245.929 132.16 246.055 132.73 246.308C133.301 246.561 133.729 246.913 134.016 247.362C134.303 247.808 134.447 248.321 134.447 248.903C134.447 249.356 134.356 249.755 134.175 250.099C133.994 250.438 133.744 250.718 133.427 250.937C133.114 251.152 132.755 251.305 132.351 251.396V251.509C132.793 251.528 133.206 251.653 133.591 251.883C133.98 252.113 134.296 252.436 134.537 252.852C134.779 253.264 134.9 253.755 134.9 254.325C134.9 254.941 134.747 255.49 134.441 255.974C134.139 256.453 133.691 256.833 133.098 257.112C132.505 257.392 131.775 257.531 130.906 257.531H125.949ZM128.402 255.526H130.402C131.085 255.526 131.584 255.396 131.897 255.135C132.211 254.871 132.368 254.519 132.368 254.081C132.368 253.76 132.29 253.477 132.135 253.231C131.98 252.986 131.76 252.793 131.472 252.654C131.189 252.514 130.851 252.444 130.458 252.444H128.402V255.526ZM128.402 250.784H130.22C130.557 250.784 130.855 250.725 131.116 250.608C131.38 250.488 131.588 250.318 131.739 250.099C131.894 249.879 131.971 249.617 131.971 249.311C131.971 248.892 131.822 248.554 131.523 248.297C131.229 248.04 130.81 247.912 130.266 247.912H128.402V250.784ZM142.031 253.826V248.829H144.445V257.531H142.128V255.951H142.037C141.841 256.461 141.514 256.871 141.057 257.18C140.604 257.49 140.05 257.645 139.397 257.645C138.815 257.645 138.304 257.513 137.862 257.248C137.42 256.984 137.074 256.608 136.825 256.121C136.579 255.634 136.455 255.05 136.451 254.37V248.829H138.864V253.94C138.868 254.453 139.006 254.859 139.278 255.158C139.55 255.456 139.914 255.605 140.371 255.605C140.662 255.605 140.934 255.539 141.187 255.407C141.44 255.271 141.644 255.071 141.799 254.806C141.958 254.542 142.035 254.215 142.031 253.826ZM147.865 260.795C147.559 260.795 147.272 260.77 147.004 260.721C146.74 260.676 146.521 260.617 146.347 260.545L146.891 258.744C147.174 258.831 147.429 258.878 147.656 258.886C147.886 258.893 148.084 258.84 148.251 258.727C148.421 258.614 148.558 258.421 148.664 258.149L148.806 257.781L145.684 248.829H148.222L150.024 255.22H150.114L151.933 248.829H154.488L151.106 258.472C150.943 258.94 150.723 259.348 150.443 259.696C150.167 260.047 149.818 260.317 149.395 260.506C148.972 260.698 148.462 260.795 147.865 260.795ZM162.622 257.673C161.961 257.673 161.363 257.503 160.826 257.163C160.294 256.82 159.871 256.315 159.557 255.651C159.248 254.982 159.093 254.162 159.093 253.192C159.093 252.195 159.253 251.366 159.574 250.705C159.895 250.04 160.322 249.543 160.855 249.215C161.391 248.882 161.978 248.716 162.617 248.716C163.104 248.716 163.51 248.799 163.835 248.965C164.163 249.128 164.428 249.332 164.628 249.577C164.832 249.819 164.987 250.057 165.092 250.291H165.166V245.929H167.574V257.531H165.194V256.138H165.092C164.979 256.38 164.818 256.619 164.611 256.857C164.407 257.091 164.141 257.286 163.812 257.441C163.487 257.596 163.091 257.673 162.622 257.673ZM163.387 255.753C163.776 255.753 164.105 255.647 164.373 255.435C164.645 255.22 164.852 254.92 164.996 254.535C165.143 254.149 165.217 253.698 165.217 253.18C165.217 252.663 165.145 252.214 165.002 251.832C164.858 251.451 164.65 251.156 164.378 250.948C164.107 250.741 163.776 250.637 163.387 250.637C162.99 250.637 162.656 250.744 162.384 250.96C162.112 251.175 161.906 251.473 161.767 251.855C161.627 252.236 161.557 252.678 161.557 253.18C161.557 253.687 161.627 254.134 161.767 254.523C161.91 254.908 162.116 255.211 162.384 255.43C162.656 255.645 162.99 255.753 163.387 255.753ZM169.558 257.531V248.829H171.972V257.531H169.558ZM170.77 247.708C170.412 247.708 170.104 247.589 169.847 247.351C169.594 247.109 169.467 246.82 169.467 246.484C169.467 246.152 169.594 245.866 169.847 245.629C170.104 245.387 170.412 245.266 170.77 245.266C171.129 245.266 171.435 245.387 171.688 245.629C171.945 245.866 172.073 246.152 172.073 246.484C172.073 246.82 171.945 247.109 171.688 247.351C171.435 247.589 171.129 247.708 170.77 247.708ZM177.825 260.976C177.043 260.976 176.373 260.868 175.814 260.653C175.259 260.442 174.817 260.153 174.488 259.786C174.16 259.42 173.946 259.008 173.848 258.551L176.08 258.251C176.148 258.425 176.256 258.587 176.403 258.738C176.551 258.889 176.745 259.01 176.987 259.101C177.232 259.195 177.531 259.242 177.882 259.242C178.407 259.242 178.839 259.114 179.179 258.857C179.523 258.604 179.695 258.179 179.695 257.582V255.991H179.593C179.487 256.232 179.328 256.461 179.117 256.676C178.905 256.891 178.634 257.067 178.301 257.203C177.969 257.339 177.572 257.407 177.111 257.407C176.458 257.407 175.863 257.256 175.327 256.954C174.794 256.648 174.369 256.181 174.052 255.554C173.739 254.924 173.582 254.127 173.582 253.163C173.582 252.178 173.742 251.354 174.063 250.693C174.385 250.032 174.811 249.538 175.344 249.209C175.88 248.88 176.467 248.716 177.106 248.716C177.593 248.716 178.001 248.799 178.33 248.965C178.658 249.128 178.922 249.332 179.123 249.577C179.327 249.819 179.483 250.057 179.593 250.291H179.684V248.829H182.08V257.616C182.08 258.357 181.899 258.976 181.536 259.475C181.174 259.973 180.671 260.347 180.029 260.596C179.391 260.85 178.656 260.976 177.825 260.976ZM177.876 255.594C178.265 255.594 178.594 255.498 178.862 255.305C179.134 255.109 179.342 254.829 179.485 254.467C179.633 254.1 179.706 253.662 179.706 253.152C179.706 252.642 179.634 252.2 179.491 251.826C179.347 251.449 179.14 251.156 178.868 250.948C178.596 250.741 178.265 250.637 177.876 250.637C177.48 250.637 177.145 250.744 176.873 250.96C176.602 251.171 176.396 251.466 176.256 251.843C176.116 252.221 176.046 252.657 176.046 253.152C176.046 253.654 176.116 254.089 176.256 254.455C176.399 254.818 176.605 255.099 176.873 255.299C177.145 255.496 177.48 255.594 177.876 255.594ZM184.001 257.531V248.829H186.414V257.531H184.001ZM185.213 247.708C184.854 247.708 184.546 247.589 184.289 247.351C184.036 247.109 183.91 246.82 183.91 246.484C183.91 246.152 184.036 245.866 184.289 245.629C184.546 245.387 184.854 245.266 185.213 245.266C185.572 245.266 185.878 245.387 186.131 245.629C186.388 245.866 186.516 246.152 186.516 246.484C186.516 246.82 186.388 247.109 186.131 247.351C185.878 247.589 185.572 247.708 185.213 247.708ZM192.976 248.829V250.642H187.735V248.829H192.976ZM188.925 246.745H191.339V254.857C191.339 255.08 191.373 255.254 191.441 255.379C191.509 255.5 191.603 255.584 191.724 255.634C191.849 255.683 191.992 255.707 192.154 255.707C192.268 255.707 192.381 255.698 192.494 255.679C192.608 255.656 192.695 255.639 192.755 255.628L193.135 257.424C193.014 257.462 192.844 257.505 192.625 257.554C192.406 257.607 192.139 257.639 191.826 257.65C191.244 257.673 190.734 257.596 190.296 257.418C189.862 257.241 189.524 256.965 189.282 256.591C189.04 256.217 188.921 255.745 188.925 255.175V246.745ZM197.03 257.696C196.474 257.696 195.98 257.599 195.545 257.407C195.111 257.21 194.767 256.922 194.514 256.54C194.265 256.155 194.14 255.675 194.14 255.101C194.14 254.618 194.229 254.212 194.406 253.883C194.584 253.554 194.826 253.29 195.132 253.09C195.438 252.89 195.785 252.739 196.174 252.637C196.567 252.535 196.979 252.463 197.409 252.421C197.915 252.368 198.323 252.319 198.633 252.274C198.943 252.225 199.167 252.153 199.307 252.059C199.447 251.964 199.517 251.825 199.517 251.639V251.605C199.517 251.247 199.403 250.969 199.177 250.773C198.954 250.576 198.637 250.478 198.225 250.478C197.791 250.478 197.445 250.574 197.188 250.767C196.931 250.956 196.761 251.194 196.678 251.481L194.446 251.3C194.559 250.771 194.782 250.314 195.115 249.929C195.447 249.54 195.876 249.241 196.401 249.033C196.929 248.822 197.541 248.716 198.236 248.716C198.72 248.716 199.182 248.773 199.624 248.886C200.07 248.999 200.465 249.175 200.808 249.413C201.156 249.651 201.43 249.957 201.63 250.331C201.83 250.701 201.93 251.145 201.93 251.662V257.531H199.641V256.325H199.573C199.434 256.597 199.247 256.837 199.012 257.044C198.778 257.248 198.497 257.409 198.168 257.526C197.84 257.639 197.46 257.696 197.03 257.696ZM197.721 256.03C198.076 256.03 198.389 255.96 198.661 255.821C198.933 255.677 199.146 255.484 199.301 255.243C199.456 255.001 199.534 254.727 199.534 254.421V253.498C199.458 253.547 199.354 253.592 199.222 253.634C199.094 253.671 198.948 253.707 198.786 253.741C198.623 253.772 198.461 253.8 198.299 253.826C198.136 253.849 197.989 253.87 197.857 253.889C197.573 253.93 197.326 253.996 197.115 254.087C196.903 254.178 196.739 254.3 196.622 254.455C196.505 254.606 196.446 254.795 196.446 255.022C196.446 255.35 196.565 255.601 196.803 255.775C197.045 255.945 197.351 256.03 197.721 256.03ZM206.216 245.929V257.531H203.803V245.929H206.216ZM214.323 257.696C213.768 257.696 213.273 257.599 212.839 257.407C212.404 257.21 212.061 256.922 211.808 256.54C211.558 256.155 211.434 255.675 211.434 255.101C211.434 254.618 211.523 254.212 211.7 253.883C211.878 253.554 212.119 253.29 212.425 253.09C212.731 252.89 213.079 252.739 213.468 252.637C213.86 252.535 214.272 252.463 214.703 252.421C215.209 252.368 215.617 252.319 215.926 252.274C216.236 252.225 216.461 252.153 216.601 252.059C216.74 251.964 216.81 251.825 216.81 251.639V251.605C216.81 251.247 216.697 250.969 216.47 250.773C216.247 250.576 215.93 250.478 215.519 250.478C215.084 250.478 214.739 250.574 214.482 250.767C214.225 250.956 214.055 251.194 213.972 251.481L211.74 251.3C211.853 250.771 212.076 250.314 212.408 249.929C212.741 249.54 213.169 249.241 213.694 249.033C214.223 248.822 214.835 248.716 215.53 248.716C216.013 248.716 216.476 248.773 216.918 248.886C217.364 248.999 217.758 249.175 218.102 249.413C218.449 249.651 218.723 249.957 218.923 250.331C219.124 250.701 219.224 251.145 219.224 251.662V257.531H216.935V256.325H216.867C216.727 256.597 216.54 256.837 216.306 257.044C216.072 257.248 215.79 257.409 215.462 257.526C215.133 257.639 214.754 257.696 214.323 257.696ZM215.014 256.03C215.369 256.03 215.683 255.96 215.955 255.821C216.227 255.677 216.44 255.484 216.595 255.243C216.75 255.001 216.827 254.727 216.827 254.421V253.498C216.752 253.547 216.648 253.592 216.516 253.634C216.387 253.671 216.242 253.707 216.079 253.741C215.917 253.772 215.755 253.8 215.592 253.826C215.43 253.849 215.282 253.87 215.15 253.889C214.867 253.93 214.62 253.996 214.408 254.087C214.197 254.178 214.032 254.3 213.915 254.455C213.798 254.606 213.74 254.795 213.74 255.022C213.74 255.35 213.859 255.601 214.097 255.775C214.338 255.945 214.644 256.03 215.014 256.03ZM228.336 251.311L226.127 251.447C226.089 251.258 226.008 251.088 225.883 250.937C225.759 250.782 225.594 250.659 225.39 250.569C225.19 250.474 224.95 250.427 224.671 250.427C224.297 250.427 223.982 250.506 223.725 250.665C223.468 250.82 223.34 251.028 223.34 251.288C223.34 251.496 223.423 251.672 223.589 251.815C223.755 251.959 224.04 252.074 224.444 252.161L226.019 252.478C226.865 252.652 227.496 252.931 227.912 253.316C228.327 253.702 228.535 254.208 228.535 254.835C228.535 255.405 228.367 255.906 228.031 256.336C227.698 256.767 227.241 257.103 226.66 257.345C226.082 257.582 225.415 257.701 224.66 257.701C223.508 257.701 222.59 257.462 221.906 256.982C221.226 256.499 220.828 255.841 220.711 255.01L223.085 254.886C223.156 255.237 223.33 255.505 223.606 255.69C223.882 255.872 224.235 255.962 224.665 255.962C225.088 255.962 225.428 255.881 225.685 255.719C225.946 255.552 226.078 255.339 226.082 255.078C226.078 254.859 225.985 254.68 225.804 254.54C225.623 254.397 225.343 254.287 224.966 254.212L223.459 253.911C222.609 253.741 221.976 253.447 221.561 253.028C221.149 252.608 220.943 252.074 220.943 251.424C220.943 250.865 221.094 250.384 221.396 249.98C221.702 249.575 222.131 249.264 222.682 249.045C223.238 248.826 223.887 248.716 224.631 248.716C225.73 248.716 226.595 248.948 227.226 249.413C227.861 249.878 228.231 250.51 228.336 251.311ZM237.295 251.311L235.085 251.447C235.048 251.258 234.966 251.088 234.842 250.937C234.717 250.782 234.553 250.659 234.349 250.569C234.149 250.474 233.909 250.427 233.629 250.427C233.255 250.427 232.94 250.506 232.683 250.665C232.426 250.82 232.298 251.028 232.298 251.288C232.298 251.496 232.381 251.672 232.547 251.815C232.713 251.959 232.999 252.074 233.403 252.161L234.978 252.478C235.824 252.652 236.454 252.931 236.87 253.316C237.285 253.702 237.493 254.208 237.493 254.835C237.493 255.405 237.325 255.906 236.989 256.336C236.657 256.767 236.2 257.103 235.618 257.345C235.04 257.582 234.373 257.701 233.618 257.701C232.466 257.701 231.548 257.462 230.865 256.982C230.185 256.499 229.786 255.841 229.669 255.01L232.043 254.886C232.115 255.237 232.289 255.505 232.564 255.69C232.84 255.872 233.193 255.962 233.624 255.962C234.047 255.962 234.387 255.881 234.643 255.719C234.904 255.552 235.036 255.339 235.04 255.078C235.036 254.859 234.944 254.68 234.762 254.54C234.581 254.397 234.302 254.287 233.924 254.212L232.417 253.911C231.567 253.741 230.935 253.447 230.519 253.028C230.107 252.608 229.902 252.074 229.902 251.424C229.902 250.865 230.053 250.384 230.355 249.98C230.661 249.575 231.089 249.264 231.641 249.045C232.196 248.826 232.846 248.716 233.59 248.716C234.689 248.716 235.554 248.948 236.184 249.413C236.819 249.878 237.189 250.51 237.295 251.311ZM242.979 257.701C242.084 257.701 241.313 257.52 240.667 257.158C240.025 256.791 239.53 256.274 239.183 255.605C238.835 254.933 238.662 254.138 238.662 253.22C238.662 252.325 238.835 251.539 239.183 250.863C239.53 250.187 240.019 249.66 240.65 249.283C241.285 248.905 242.029 248.716 242.882 248.716C243.456 248.716 243.991 248.809 244.486 248.994C244.984 249.175 245.419 249.449 245.789 249.815C246.163 250.182 246.453 250.642 246.661 251.198C246.869 251.749 246.973 252.395 246.973 253.135V253.798H239.625V252.302H244.701C244.701 251.955 244.625 251.647 244.474 251.379C244.323 251.111 244.114 250.901 243.845 250.75C243.581 250.595 243.273 250.518 242.922 250.518C242.556 250.518 242.231 250.603 241.948 250.773C241.668 250.939 241.449 251.164 241.29 251.447C241.132 251.726 241.051 252.038 241.047 252.382V253.804C241.047 254.234 241.126 254.606 241.285 254.92C241.447 255.233 241.676 255.475 241.97 255.645C242.265 255.815 242.614 255.9 243.018 255.9C243.286 255.9 243.532 255.862 243.755 255.787C243.978 255.711 244.168 255.598 244.327 255.447C244.486 255.296 244.607 255.11 244.69 254.891L246.922 255.039C246.808 255.575 246.576 256.043 246.225 256.444C245.877 256.84 245.428 257.15 244.877 257.373C244.329 257.592 243.696 257.701 242.979 257.701ZM253.176 248.829V250.642H247.936V248.829H253.176ZM249.126 246.745H251.539V254.857C251.539 255.08 251.573 255.254 251.641 255.379C251.709 255.5 251.803 255.584 251.924 255.634C252.049 255.683 252.192 255.707 252.355 255.707C252.468 255.707 252.581 255.698 252.695 255.679C252.808 255.656 252.895 255.639 252.955 255.628L253.335 257.424C253.214 257.462 253.044 257.505 252.825 257.554C252.606 257.607 252.34 257.639 252.026 257.65C251.445 257.673 250.935 257.596 250.497 257.418C250.062 257.241 249.724 256.965 249.483 256.591C249.241 256.217 249.122 255.745 249.126 255.175V246.745ZM261.88 251.311L259.67 251.447C259.633 251.258 259.551 251.088 259.427 250.937C259.302 250.782 259.138 250.659 258.934 250.569C258.734 250.474 258.494 250.427 258.214 250.427C257.84 250.427 257.525 250.506 257.268 250.665C257.011 250.82 256.883 251.028 256.883 251.288C256.883 251.496 256.966 251.672 257.132 251.815C257.298 251.959 257.584 252.074 257.988 252.161L259.563 252.478C260.409 252.652 261.039 252.931 261.455 253.316C261.87 253.702 262.078 254.208 262.078 254.835C262.078 255.405 261.91 255.906 261.574 256.336C261.241 256.767 260.784 257.103 260.203 257.345C259.625 257.582 258.958 257.701 258.203 257.701C257.051 257.701 256.133 257.462 255.45 256.982C254.77 256.499 254.371 255.841 254.254 255.01L256.628 254.886C256.7 255.237 256.873 255.505 257.149 255.69C257.425 255.872 257.778 255.962 258.209 255.962C258.632 255.962 258.972 255.881 259.228 255.719C259.489 255.552 259.621 255.339 259.625 255.078C259.621 254.859 259.529 254.68 259.347 254.54C259.166 254.397 258.887 254.287 258.509 254.212L257.002 253.911C256.152 253.741 255.519 253.447 255.104 253.028C254.692 252.608 254.486 252.074 254.486 251.424C254.486 250.865 254.638 250.384 254.94 249.98C255.246 249.575 255.674 249.264 256.226 249.045C256.781 248.826 257.431 248.716 258.175 248.716C259.274 248.716 260.139 248.948 260.769 249.413C261.404 249.878 261.774 250.51 261.88 251.311ZM273.041 260.795V256.138H272.967C272.854 256.38 272.693 256.619 272.485 256.857C272.281 257.091 272.015 257.286 271.687 257.441C271.362 257.596 270.965 257.673 270.497 257.673C269.836 257.673 269.237 257.503 268.701 257.163C268.168 256.82 267.745 256.315 267.432 255.651C267.122 254.982 266.967 254.162 266.967 253.192C266.967 252.195 267.128 251.366 267.449 250.705C267.77 250.04 268.197 249.543 268.729 249.215C269.266 248.882 269.853 248.716 270.491 248.716C270.978 248.716 271.384 248.799 271.709 248.965C272.038 249.128 272.302 249.332 272.502 249.577C272.706 249.819 272.861 250.057 272.967 250.291H273.069V248.829H275.448V260.795H273.041ZM271.262 255.753C271.651 255.753 271.979 255.647 272.247 255.435C272.519 255.22 272.727 254.92 272.871 254.535C273.018 254.149 273.092 253.698 273.092 253.18C273.092 252.663 273.02 252.214 272.876 251.832C272.733 251.451 272.525 251.156 272.253 250.948C271.981 250.741 271.651 250.637 271.262 250.637C270.865 250.637 270.531 250.744 270.259 250.96C269.987 251.175 269.781 251.473 269.641 251.855C269.502 252.236 269.432 252.678 269.432 253.18C269.432 253.687 269.502 254.134 269.641 254.523C269.785 254.908 269.991 255.211 270.259 255.43C270.531 255.645 270.865 255.753 271.262 255.753ZM282.966 253.826V248.829H285.38V257.531H283.063V255.951H282.972C282.776 256.461 282.449 256.871 281.992 257.18C281.539 257.49 280.985 257.645 280.332 257.645C279.75 257.645 279.239 257.513 278.797 257.248C278.355 256.984 278.009 256.608 277.76 256.121C277.514 255.634 277.39 255.05 277.386 254.37V248.829H279.799V253.94C279.803 254.453 279.941 254.859 280.213 255.158C280.485 255.456 280.849 255.605 281.306 255.605C281.597 255.605 281.869 255.539 282.122 255.407C282.375 255.271 282.579 255.071 282.734 254.806C282.893 254.542 282.97 254.215 282.966 253.826ZM287.31 257.531V248.829H289.724V257.531H287.31ZM288.523 247.708C288.164 247.708 287.856 247.589 287.599 247.351C287.346 247.109 287.22 246.82 287.22 246.484C287.22 246.152 287.346 245.866 287.599 245.629C287.856 245.387 288.164 245.266 288.523 245.266C288.882 245.266 289.187 245.387 289.44 245.629C289.697 245.866 289.826 246.152 289.826 246.484C289.826 246.82 289.697 247.109 289.44 247.351C289.187 247.589 288.882 247.708 288.523 247.708ZM295.589 257.701C294.697 257.701 293.931 257.513 293.289 257.135C292.65 256.753 292.159 256.225 291.816 255.549C291.476 254.873 291.306 254.094 291.306 253.214C291.306 252.323 291.478 251.541 291.821 250.869C292.169 250.193 292.662 249.666 293.3 249.288C293.938 248.907 294.697 248.716 295.578 248.716C296.337 248.716 297.001 248.854 297.572 249.13C298.142 249.405 298.593 249.793 298.926 250.291C299.258 250.79 299.441 251.375 299.475 252.047H297.198C297.134 251.613 296.964 251.264 296.688 250.999C296.416 250.731 296.059 250.597 295.617 250.597C295.243 250.597 294.917 250.699 294.637 250.903C294.361 251.103 294.146 251.396 293.991 251.781C293.836 252.166 293.759 252.633 293.759 253.18C293.759 253.736 293.834 254.208 293.986 254.597C294.14 254.986 294.358 255.282 294.637 255.486C294.917 255.69 295.243 255.792 295.617 255.792C295.893 255.792 296.14 255.736 296.359 255.622C296.582 255.509 296.765 255.345 296.909 255.129C297.056 254.91 297.152 254.648 297.198 254.342H299.475C299.438 255.007 299.256 255.592 298.931 256.098C298.61 256.6 298.167 256.993 297.6 257.277C297.034 257.56 296.363 257.701 295.589 257.701ZM303.207 255.027L303.213 252.132H303.564L306.352 248.829H309.122L305.377 253.203H304.805L303.207 255.027ZM301.021 257.531V245.929H303.434V257.531H301.021ZM306.459 257.531L303.899 253.741L305.508 252.036L309.286 257.531H306.459ZM312.72 245.929V257.531H310.306V245.929H312.72ZM316.143 260.795C315.837 260.795 315.55 260.77 315.282 260.721C315.017 260.676 314.798 260.617 314.625 260.545L315.168 258.744C315.452 258.831 315.707 258.878 315.933 258.886C316.164 258.893 316.362 258.84 316.528 258.727C316.698 258.614 316.836 258.421 316.942 258.149L317.083 257.781L313.962 248.829H316.5L318.301 255.22H318.392L320.211 248.829H322.766L319.383 258.472C319.221 258.94 319 259.348 318.721 259.696C318.445 260.047 318.096 260.317 317.673 260.506C317.25 260.698 316.74 260.795 316.143 260.795Z" fill="white" fill-opacity="0.8"/>
<g clip-path="url(#clip0_1_14053)">
<path d="M148.871 334.982C162.133 334.982 172.802 324.313 172.802 311.052C172.802 297.79 162.133 287.121 148.871 287.121C135.61 287.121 124.941 297.79 124.941 311.052C124.941 324.313 135.61 334.982 148.871 334.982Z" fill="#8851F8"/>
<path d="M146.341 319.027H142.223L145.498 309.722L147.54 315.648L146.341 319.027Z" fill="white"/>
<path d="M155.37 319.028H151.53L157.071 304.404H160.836L155.37 319.028Z" fill="white"/>
<path d="M141.095 304.404H136.906L140.304 313.709L142.223 307.994L141.095 304.404Z" fill="white"/>
<path d="M151.541 304.404H147.542L150.797 313.709L152.859 308.339L151.541 304.404Z" fill="white"/>
</g>
<path d="M193.442 317.606V304.235H196.823V317.606H193.442ZM188.447 312.611V309.23H201.818V312.611H188.447ZM219.473 320.976C217.848 320.97 216.451 320.57 215.28 319.777C214.116 318.984 213.219 317.835 212.589 316.331C211.966 314.826 211.657 313.017 211.664 310.901C211.664 308.793 211.975 306.996 212.599 305.51C213.228 304.024 214.125 302.894 215.29 302.12C216.46 301.34 217.855 300.949 219.473 300.949C221.09 300.949 222.481 301.34 223.646 302.12C224.817 302.901 225.717 304.034 226.347 305.519C226.976 306.999 227.288 308.793 227.281 310.901C227.281 313.023 226.967 314.836 226.337 316.34C225.714 317.845 224.82 318.994 223.655 319.787C222.491 320.58 221.097 320.976 219.473 320.976ZM219.473 317.587C220.58 317.587 221.465 317.03 222.126 315.915C222.787 314.801 223.114 313.13 223.108 310.901C223.108 309.435 222.957 308.214 222.655 307.238C222.359 306.262 221.937 305.529 221.389 305.038C220.848 304.547 220.209 304.301 219.473 304.301C218.371 304.301 217.49 304.852 216.829 305.954C216.168 307.055 215.834 308.705 215.828 310.901C215.828 312.387 215.976 313.627 216.272 314.622C216.574 315.61 216.999 316.353 217.546 316.85C218.094 317.341 218.736 317.587 219.473 317.587ZM231.807 320.797C231.183 320.797 230.648 320.577 230.201 320.136C229.761 319.689 229.54 319.154 229.54 318.531C229.54 317.914 229.761 317.385 230.201 316.945C230.648 316.504 231.183 316.284 231.807 316.284C232.411 316.284 232.94 316.504 233.393 316.945C233.846 317.385 234.073 317.914 234.073 318.531C234.073 318.946 233.966 319.327 233.752 319.673C233.544 320.013 233.27 320.287 232.93 320.495C232.59 320.696 232.216 320.797 231.807 320.797ZM244.141 320.976C242.516 320.97 241.119 320.57 239.948 319.777C238.784 318.984 237.887 317.835 237.257 316.331C236.634 314.826 236.325 313.017 236.332 310.901C236.332 308.793 236.643 306.996 237.267 305.51C237.896 304.024 238.793 302.894 239.958 302.12C241.128 301.34 242.523 300.949 244.141 300.949C245.758 300.949 247.15 301.34 248.314 302.12C249.485 302.901 250.385 304.034 251.015 305.519C251.644 306.999 251.956 308.793 251.949 310.901C251.949 313.023 251.635 314.836 251.005 316.34C250.382 317.845 249.488 318.994 248.324 319.787C247.159 320.58 245.765 320.976 244.141 320.976ZM244.141 317.587C245.248 317.587 246.133 317.03 246.794 315.915C247.455 314.801 247.782 313.13 247.776 310.901C247.776 309.435 247.625 308.214 247.323 307.238C247.027 306.262 246.605 305.529 246.057 305.038C245.516 304.547 244.877 304.301 244.141 304.301C243.039 304.301 242.158 304.852 241.497 305.954C240.836 307.055 240.502 308.705 240.496 310.901C240.496 312.387 240.644 313.627 240.94 314.622C241.242 315.61 241.667 316.353 242.214 316.85C242.762 317.341 243.404 317.587 244.141 317.587ZM262.447 320.976C260.823 320.97 259.425 320.57 258.254 319.777C257.09 318.984 256.193 317.835 255.563 316.331C254.94 314.826 254.632 313.017 254.638 310.901C254.638 308.793 254.95 306.996 255.573 305.51C256.202 304.024 257.099 302.894 258.264 302.12C259.435 301.34 260.829 300.949 262.447 300.949C264.065 300.949 265.456 301.34 266.62 302.12C267.791 302.901 268.691 304.034 269.321 305.519C269.95 306.999 270.262 308.793 270.256 310.901C270.256 313.023 269.941 314.836 269.311 316.34C268.688 317.845 267.794 318.994 266.63 319.787C265.465 320.58 264.071 320.976 262.447 320.976ZM262.447 317.587C263.555 317.587 264.439 317.03 265.1 315.915C265.761 314.801 266.088 313.13 266.082 310.901C266.082 309.435 265.931 308.214 265.629 307.238C265.333 306.262 264.911 305.529 264.364 305.038C263.822 304.547 263.183 304.301 262.447 304.301C261.345 304.301 260.464 304.852 259.803 305.954C259.142 307.055 258.808 308.705 258.802 310.901C258.802 312.387 258.95 313.627 259.246 314.622C259.548 315.61 259.973 316.353 260.521 316.85C261.068 317.341 261.71 317.587 262.447 317.587ZM280.593 320.816C279.598 320.81 278.638 320.643 277.713 320.315C276.794 319.988 275.969 319.456 275.239 318.72C274.509 317.983 273.929 317.007 273.501 315.793C273.08 314.578 272.869 313.086 272.869 311.317C272.875 309.693 273.061 308.242 273.426 306.964C273.797 305.68 274.326 304.591 275.012 303.697C275.705 302.803 276.532 302.123 277.496 301.657C278.459 301.185 279.538 300.949 280.734 300.949C282.025 300.949 283.164 301.201 284.152 301.705C285.141 302.202 285.934 302.879 286.532 303.735C287.136 304.591 287.501 305.551 287.627 306.615H283.595C283.438 305.941 283.107 305.412 282.604 305.028C282.1 304.644 281.477 304.452 280.734 304.452C279.475 304.452 278.518 305 277.864 306.095C277.215 307.191 276.885 308.679 276.872 310.562H277.005C277.294 309.989 277.684 309.501 278.175 309.098C278.673 308.689 279.236 308.377 279.866 308.163C280.501 307.943 281.172 307.833 281.877 307.833C283.022 307.833 284.042 308.103 284.936 308.645C285.83 309.18 286.535 309.916 287.051 310.854C287.567 311.792 287.825 312.865 287.825 314.074C287.825 315.383 287.52 316.548 286.91 317.568C286.305 318.588 285.459 319.387 284.37 319.966C283.287 320.539 282.028 320.822 280.593 320.816ZM280.574 317.606C281.203 317.606 281.767 317.454 282.264 317.152C282.761 316.85 283.151 316.441 283.435 315.925C283.718 315.409 283.86 314.829 283.86 314.187C283.86 313.545 283.718 312.969 283.435 312.459C283.158 311.95 282.774 311.544 282.283 311.241C281.792 310.939 281.232 310.788 280.602 310.788C280.13 310.788 279.692 310.876 279.29 311.053C278.893 311.229 278.544 311.474 278.241 311.789C277.946 312.104 277.713 312.469 277.543 312.884C277.373 313.294 277.288 313.731 277.288 314.197C277.288 314.82 277.429 315.39 277.713 315.906C278.002 316.422 278.393 316.834 278.884 317.143C279.381 317.451 279.944 317.606 280.574 317.606ZM291.489 320.552L299.506 304.688V304.556H290.167V301.214H303.736V304.603L295.71 320.552H291.489ZM313.362 320.816C311.908 320.816 310.614 320.58 309.481 320.108C308.355 319.629 307.47 318.978 306.828 318.153C306.186 317.329 305.865 316.394 305.865 315.349C305.865 314.543 306.048 313.803 306.413 313.13C306.784 312.45 307.288 311.887 307.923 311.44C308.559 310.986 309.27 310.697 310.057 310.571V310.439C309.025 310.231 308.188 309.731 307.546 308.937C306.904 308.138 306.583 307.21 306.583 306.152C306.583 305.151 306.875 304.26 307.461 303.48C308.046 302.693 308.849 302.076 309.868 301.629C310.895 301.176 312.059 300.949 313.362 300.949C314.665 300.949 315.827 301.176 316.846 301.629C317.872 302.082 318.678 302.702 319.264 303.489C319.849 304.27 320.145 305.157 320.151 306.152C320.145 307.216 319.818 308.144 319.169 308.937C318.521 309.731 317.69 310.231 316.676 310.439V310.571C317.451 310.697 318.153 310.986 318.782 311.44C319.418 311.887 319.921 312.45 320.293 313.13C320.671 313.803 320.862 314.543 320.869 315.349C320.862 316.394 320.538 317.329 319.896 318.153C319.254 318.978 318.367 319.629 317.234 320.108C316.107 320.58 314.816 320.816 313.362 320.816ZM313.362 317.813C314.011 317.813 314.577 317.697 315.062 317.464C315.546 317.225 315.924 316.897 316.195 316.482C316.472 316.06 316.61 315.575 316.61 315.028C316.61 314.468 316.469 313.973 316.185 313.545C315.902 313.111 315.518 312.771 315.033 312.526C314.549 312.274 313.992 312.148 313.362 312.148C312.739 312.148 312.182 312.274 311.691 312.526C311.2 312.771 310.813 313.111 310.529 313.545C310.252 313.973 310.114 314.468 310.114 315.028C310.114 315.575 310.249 316.06 310.52 316.482C310.791 316.897 311.172 317.225 311.663 317.464C312.154 317.697 312.72 317.813 313.362 317.813ZM313.362 309.174C313.904 309.174 314.385 309.063 314.807 308.843C315.229 308.623 315.559 308.317 315.798 307.927C316.037 307.537 316.157 307.087 316.157 306.577C316.157 306.073 316.037 305.633 315.798 305.255C315.559 304.871 315.232 304.572 314.816 304.358C314.401 304.138 313.916 304.027 313.362 304.027C312.814 304.027 312.33 304.138 311.908 304.358C311.486 304.572 311.156 304.871 310.917 305.255C310.684 305.633 310.567 306.073 310.567 306.577C310.567 307.087 310.687 307.537 310.926 307.927C311.165 308.317 311.496 308.623 311.917 308.843C312.339 309.063 312.821 309.174 313.362 309.174ZM323.435 317.152V313.932L331.508 301.214H334.284V305.67H332.641L327.552 313.725V313.876H339.024V317.152H323.435ZM332.717 320.552V316.17L332.792 314.744V301.214H336.626V320.552H332.717ZM348.896 320.816C347.486 320.816 346.23 320.574 345.128 320.089C344.033 319.598 343.168 318.924 342.532 318.068C341.902 317.206 341.578 316.211 341.559 315.084H345.676C345.701 315.557 345.856 315.972 346.139 316.331C346.428 316.683 346.812 316.957 347.291 317.152C347.769 317.347 348.307 317.445 348.905 317.445C349.529 317.445 350.079 317.335 350.558 317.115C351.036 316.894 351.411 316.589 351.681 316.199C351.952 315.808 352.087 315.358 352.087 314.848C352.087 314.332 351.943 313.876 351.653 313.479C351.37 313.076 350.961 312.762 350.426 312.535C349.897 312.308 349.267 312.195 348.537 312.195H346.734V309.192H348.537C349.154 309.192 349.699 309.085 350.171 308.871C350.649 308.657 351.02 308.361 351.285 307.984C351.549 307.6 351.681 307.153 351.681 306.643C351.681 306.158 351.565 305.733 351.332 305.368C351.105 304.997 350.784 304.707 350.369 304.5C349.96 304.292 349.481 304.188 348.934 304.188C348.38 304.188 347.873 304.289 347.413 304.49C346.954 304.685 346.586 304.965 346.309 305.331C346.032 305.696 345.884 306.124 345.865 306.615H341.946C341.965 305.5 342.283 304.518 342.9 303.669C343.517 302.819 344.348 302.155 345.393 301.676C346.444 301.192 347.631 300.949 348.953 300.949C350.287 300.949 351.455 301.192 352.456 301.676C353.457 302.161 354.234 302.816 354.788 303.64C355.348 304.459 355.625 305.378 355.619 306.397C355.625 307.48 355.288 308.384 354.609 309.107C353.935 309.831 353.057 310.291 351.974 310.486V310.637C353.397 310.82 354.479 311.314 355.222 312.12C355.971 312.919 356.343 313.92 356.336 315.122C356.343 316.224 356.025 317.203 355.383 318.059C354.747 318.915 353.869 319.588 352.748 320.079C351.628 320.57 350.344 320.816 348.896 320.816ZM369.896 320.552L364.362 301.214H368.829L372.03 314.65H372.19L375.722 301.214H379.546L383.068 314.678H383.238L386.439 301.214H390.905L385.372 320.552H381.387L377.704 307.908H377.553L373.88 320.552H369.896ZM393.093 320.552V301.214H405.897V304.585H397.182V309.192H405.047V312.563H397.182V320.552H393.093ZM425.709 307.984H421.573C421.498 307.449 421.344 306.973 421.111 306.558C420.878 306.136 420.579 305.777 420.214 305.482C419.849 305.186 419.427 304.959 418.948 304.802C418.476 304.644 417.963 304.566 417.409 304.566C416.408 304.566 415.537 304.814 414.794 305.312C414.051 305.803 413.475 306.52 413.066 307.464C412.657 308.402 412.452 309.542 412.452 310.883C412.452 312.261 412.657 313.419 413.066 314.357C413.481 315.295 414.06 316.003 414.803 316.482C415.546 316.96 416.405 317.199 417.381 317.199C417.929 317.199 418.435 317.127 418.901 316.982C419.373 316.838 419.792 316.627 420.157 316.35C420.522 316.066 420.824 315.723 421.064 315.32C421.309 314.918 421.479 314.458 421.573 313.942L425.709 313.961C425.602 314.848 425.335 315.704 424.907 316.529C424.485 317.347 423.915 318.081 423.197 318.729C422.486 319.371 421.636 319.881 420.648 320.259C419.666 320.63 418.555 320.816 417.315 320.816C415.59 320.816 414.048 320.426 412.688 319.645C411.335 318.864 410.265 317.735 409.478 316.255C408.697 314.776 408.307 312.985 408.307 310.883C408.307 308.774 408.704 306.98 409.497 305.5C410.29 304.021 411.366 302.894 412.726 302.12C414.086 301.34 415.615 300.949 417.315 300.949C418.435 300.949 419.474 301.107 420.431 301.421C421.394 301.736 422.247 302.196 422.99 302.8C423.733 303.398 424.337 304.131 424.803 305C425.275 305.869 425.577 306.863 425.709 307.984Z" fill="#00FF85"/>
</g>
<g clip-path="url(#clip1_1_14053)" filter="url(#filter1_f_1_14053)">
<g filter="url(#filter2_d_1_14053)">
<path d="M122.28 94.2942L123.701 94.9299L140.892 108.918L139.471 108.283L122.28 94.2942Z" fill="#150043"/>
<path d="M139.536 107.589L140.892 108.224L136.931 131.519L135.574 130.884L139.536 107.589Z" fill="#18004B"/>
<path d="M135.492 131.52L136.904 132.114L115.714 140.826L114.302 140.232L135.492 131.52Z" fill="#100032"/>
<path d="M122.964 94.2941L139.563 108.258L135.555 131.523L114.948 140.826L98.3495 126.862L102.357 103.596L122.964 94.2941Z" fill="#18004B"/>
</g>
<g filter="url(#filter3_d_1_14053)">
<path d="M113.009 126.81L114.303 127.531L110.279 126.923L108.985 126.202L113.009 126.81Z" fill="#3B4380"/>
<path d="M115.31 123.542L116.961 124.1L114.624 127.53L112.973 126.973L115.31 123.542Z" fill="#535EB3"/>
<path d="M114.303 115.566L115.914 116.197L116.961 123.542L115.349 122.911L114.303 115.566Z" fill="#616DD2"/>
<path d="M114.679 115.566L115.633 123.393L113.553 127.531L108.985 126.964L114.679 115.566Z" fill="#5D69C8"/>
</g>
<g filter="url(#filter4_d_1_14053)">
<path d="M124.978 126.811L126.268 127.531L122.241 126.923L120.951 126.202L124.978 126.811Z" fill="#2F2780"/>
<path d="M134.198 108.919L135.575 109.575L126.317 127.532L124.939 126.875L134.198 108.919Z" fill="#4136B1"/>
<path d="M134.246 109.466L125.168 127.532L120.951 126.973L130.111 108.919L134.246 109.466Z" fill="#4A3DC8"/>
</g>
<g filter="url(#filter5_d_1_14053)">
<path d="M110.316 107.589L111.266 108.246L111.646 112.906L110.696 112.248L110.316 107.589Z" fill="#8088D2"/>
<path d="M110.112 112.906L111.644 113.488L107.86 119.553L106.327 118.972L110.112 112.906Z" fill="#6D74B3"/>
<path d="M109.772 108.204L110.316 112.792L106.949 119.554L104.998 107.589L109.772 108.204Z" fill="#7B82C8"/>
</g>
<g filter="url(#filter6_d_1_14053)">
<path d="M120.952 107.589L122.798 108.191L123.611 112.906L121.765 112.303L120.952 107.589Z" fill="#616DD2"/>
<path d="M122.069 112.906L123.611 113.519L119.835 119.553L118.293 118.941L122.069 112.906Z" fill="#525CB1"/>
<path d="M121.632 108.141L122.282 113.192L118.664 119.554L116.964 107.589L121.632 108.141Z" fill="#5D69C8"/>
</g>
</g>
<g clip-path="url(#clip2_1_14053)" filter="url(#filter7_f_1_14053)">
<g filter="url(#filter8_d_1_14053)">
<path d="M432.048 369.208L433.469 369.843L450.661 383.832L449.239 383.196L432.048 369.208Z" fill="#150043"/>
<path d="M449.304 382.502L450.66 383.137L446.699 406.433L445.343 405.797L449.304 382.502Z" fill="#18004B"/>
<path d="M445.26 406.433L446.672 407.027L425.482 415.74L424.071 415.145L445.26 406.433Z" fill="#100032"/>
<path d="M432.732 369.208L449.331 383.171L445.323 406.436L424.716 415.739L408.118 401.775L412.126 378.51L432.732 369.208Z" fill="#18004B"/>
</g>
<g filter="url(#filter9_d_1_14053)">
<path d="M422.776 401.722L424.07 402.443L420.047 401.835L418.753 401.114L422.776 401.722Z" fill="#3B4380"/>
<path d="M425.078 398.455L426.729 399.012L424.392 402.443L422.741 401.885L425.078 398.455Z" fill="#535EB3"/>
<path d="M424.07 390.478L425.682 391.109L426.729 398.454L425.117 397.823L424.07 390.478Z" fill="#616DD2"/>
<path d="M424.446 390.478L425.4 398.305L423.321 402.444L418.753 401.876L424.446 390.478Z" fill="#5D69C8"/>
</g>
<g filter="url(#filter10_d_1_14053)">
<path d="M434.747 401.724L436.037 402.444L432.009 401.835L430.719 401.115L434.747 401.724Z" fill="#2F2780"/>
<path d="M443.966 383.832L445.343 384.488L436.085 402.444L434.707 401.788L443.966 383.832Z" fill="#4136B1"/>
<path d="M444.014 384.379L434.936 402.444L430.719 401.886L439.879 383.832L444.014 384.379Z" fill="#4A3DC8"/>
</g>
<g filter="url(#filter11_d_1_14053)">
<path d="M420.083 382.502L421.033 383.16L421.413 387.82L420.462 387.162L420.083 382.502Z" fill="#8088D2"/>
<path d="M419.881 387.82L421.413 388.401L417.628 394.467L416.095 393.886L419.881 387.82Z" fill="#6D74B3"/>
<path d="M419.54 383.118L420.084 387.706L416.717 394.468L414.766 382.502L419.54 383.118Z" fill="#7B82C8"/>
</g>
<g filter="url(#filter12_d_1_14053)">
<path d="M430.719 382.502L432.565 383.105L433.377 387.82L431.531 387.217L430.719 382.502Z" fill="#616DD2"/>
<path d="M431.836 387.82L433.377 388.433L429.602 394.467L428.06 393.855L431.836 387.82Z" fill="#525CB1"/>
<path d="M431.398 383.055L432.049 388.106L428.43 394.468L426.731 382.502L431.398 383.055Z" fill="#5D69C8"/>
</g>
</g>
<g clip-path="url(#clip3_1_14053)" filter="url(#filter13_f_1_14053)">
<g filter="url(#filter14_d_1_14053)">
<path d="M83.7256 450.22L84.2331 450.452L90.3722 455.538L89.8647 455.307L83.7256 450.22Z" fill="#150043"/>
<path d="M89.6941 455.538L90.3723 455.785L88.392 464.844L87.7136 464.597L89.6941 455.538Z" fill="#18004B"/>
<path d="M88.5448 463.515L89.043 463.77L81.5652 467.503L81.067 467.248L88.5448 463.515Z" fill="#100032"/>
<path d="M83.9473 450.22L90.3728 455.407L88.8213 464.048L80.8444 467.504L74.4191 462.317L75.9705 453.676L83.9473 450.22Z" fill="#18004B"/>
</g>
<g filter="url(#filter15_d_1_14053)">
<path d="M79.4142 462.364L79.7377 462.577L78.7318 462.398L78.4083 462.185L79.4142 462.364Z" fill="#3B4380"/>
<path d="M80.5167 460.856L81.067 461.042L80.288 462.185L79.7377 462L80.5167 460.856Z" fill="#535EB3"/>
<path d="M79.7377 458.197L80.5433 458.408L81.067 460.856L80.261 460.646L79.7377 458.197Z" fill="#616DD2"/>
<path d="M80.6854 458.198L81.067 460.806L80.2353 462.186L78.4083 461.997L80.6854 458.198Z" fill="#5D69C8"/>
</g>
<g filter="url(#filter16_d_1_14053)">
<path d="M85.7408 462.378L86.3858 462.606L84.3722 462.413L83.7272 462.186L85.7408 462.378Z" fill="#2F2780"/>
<path d="M88.528 455.538L89.0445 455.773L85.5732 462.185L85.0565 461.951L88.528 455.538Z" fill="#4136B1"/>
<path d="M89.0442 455.734L85.4137 462.185L83.7269 461.985L87.3905 455.538L89.0442 455.734Z" fill="#4A3DC8"/>
</g>
<g filter="url(#filter17_d_1_14053)">
<path d="M78.4081 455.538L79.3582 455.867L79.7374 458.197L78.7873 457.868L78.4081 455.538Z" fill="#8088D2"/>
<path d="M79.3544 458.198L79.7374 458.43L78.7913 460.856L78.4081 460.624L79.3544 458.198Z" fill="#6D74B3"/>
<path d="M79.4657 455.812L79.7376 457.851L78.0543 460.856L77.079 455.538L79.4657 455.812Z" fill="#7B82C8"/>
</g>
<g filter="url(#filter18_d_1_14053)">
<path d="M83.7253 455.538L84.6483 455.84L85.0547 458.197L84.1317 457.896L83.7253 455.538Z" fill="#616DD2"/>
<path d="M84.6693 458.198L85.0547 458.443L84.1109 460.856L83.7253 460.612L84.6693 458.198Z" fill="#525CB1"/>
<path d="M84.7295 455.784L85.0546 458.029L83.2457 460.856L82.396 455.538L84.7295 455.784Z" fill="#5D69C8"/>
</g>
</g>
<g clip-path="url(#clip4_1_14053)" filter="url(#filter19_f_1_14053)">
<g filter="url(#filter20_d_1_14053)">
<path d="M481.241 446.235L481.749 446.466L487.888 451.553L487.38 451.322L481.241 446.235Z" fill="#150043"/>
<path d="M487.21 451.553L487.888 451.8L485.908 460.859L485.229 460.612L487.21 451.553Z" fill="#18004B"/>
<path d="M486.06 459.53L486.559 459.785L479.081 463.518L478.583 463.263L486.06 459.53Z" fill="#100032"/>
<path d="M481.463 446.235L487.888 451.422L486.337 460.063L478.36 463.519L471.935 458.332L473.486 449.691L481.463 446.235Z" fill="#18004B"/>
</g>
<g filter="url(#filter21_d_1_14053)">
<path d="M476.928 458.38L477.251 458.592L476.245 458.413L475.922 458.201L476.928 458.38Z" fill="#3B4380"/>
<path d="M478.03 456.871L478.58 457.057L477.801 458.2L477.251 458.015L478.03 456.871Z" fill="#535EB3"/>
<path d="M477.251 454.212L478.057 454.423L478.58 456.871L477.774 456.661L477.251 454.212Z" fill="#616DD2"/>
<path d="M478.199 454.212L478.58 456.821L477.749 458.2L475.922 458.011L478.199 454.212Z" fill="#5D69C8"/>
</g>
<g filter="url(#filter22_d_1_14053)">
<path d="M483.253 458.394L483.898 458.622L481.885 458.429L481.24 458.201L483.253 458.394Z" fill="#2F2780"/>
<path d="M486.04 451.553L486.557 451.788L483.086 458.2L482.569 457.966L486.04 451.553Z" fill="#4136B1"/>
<path d="M486.557 451.749L482.926 458.2L481.24 458.001L484.903 451.553L486.557 451.749Z" fill="#4A3DC8"/>
</g>
<g filter="url(#filter23_d_1_14053)">
<path d="M475.922 451.554L476.872 451.883L477.251 454.212L476.301 453.884L475.922 451.554Z" fill="#8088D2"/>
<path d="M476.868 454.213L477.251 454.445L476.305 456.871L475.922 456.639L476.868 454.213Z" fill="#6D74B3"/>
<path d="M476.979 451.827L477.251 453.867L475.567 456.871L474.592 451.554L476.979 451.827Z" fill="#7B82C8"/>
</g>
<g filter="url(#filter24_d_1_14053)">
<path d="M481.24 451.553L482.163 451.855L482.57 454.212L481.647 453.911L481.24 451.553Z" fill="#616DD2"/>
<path d="M480.855 454.213L481.24 454.458L480.297 456.871L479.911 456.627L480.855 454.213Z" fill="#525CB1"/>
<path d="M482.245 451.799L482.57 454.044L480.761 456.871L479.911 451.553L482.245 451.799Z" fill="#5D69C8"/>
</g>
</g>
<g clip-path="url(#clip5_1_14053)" filter="url(#filter25_f_1_14053)">
<g filter="url(#filter26_d_1_14053)">
<path d="M394.824 38.5144L395.332 38.7455L401.471 43.8317L400.964 43.6006L394.824 38.5144Z" fill="#150043"/>
<path d="M400.793 43.8323L401.471 44.0793L399.491 53.1376L398.812 52.8905L400.793 43.8323Z" fill="#18004B"/>
<path d="M399.642 51.809L400.141 52.0636L392.663 55.7969L392.165 55.5423L399.642 51.809Z" fill="#100032"/>
<path d="M395.046 38.5145L401.472 43.701L399.92 52.3424L391.943 55.7977L385.518 50.6111L387.069 41.9697L395.046 38.5145Z" fill="#18004B"/>
</g>
<g filter="url(#filter27_d_1_14053)">
<path d="M390.511 50.6586L390.835 50.8709L389.829 50.6919L389.505 50.4796L390.511 50.6586Z" fill="#3B4380"/>
<path d="M391.614 49.1503L392.164 49.3361L391.385 50.4796L390.835 50.2937L391.614 49.1503Z" fill="#535EB3"/>
<path d="M390.835 46.491L391.64 46.7014L392.164 49.1496L391.358 48.9392L390.835 46.491Z" fill="#616DD2"/>
<path d="M391.783 46.4911L392.164 49.0998L391.333 50.4791L389.506 50.29L391.783 46.4911Z" fill="#5D69C8"/>
</g>
<g filter="url(#filter28_d_1_14053)">
<path d="M396.836 50.6724L397.481 50.9L395.468 50.7076L394.823 50.4797L396.836 50.6724Z" fill="#2F2780"/>
<path d="M399.624 43.8324L400.14 44.0667L396.669 50.479L396.152 50.2447L399.624 43.8324Z" fill="#4136B1"/>
<path d="M400.14 44.028L396.509 50.479L394.823 50.2795L398.486 43.8324L400.14 44.028Z" fill="#4A3DC8"/>
</g>
<g filter="url(#filter29_d_1_14053)">
<path d="M389.505 43.8324L390.455 44.1613L390.835 46.4911L389.885 46.1622L389.505 43.8324Z" fill="#8088D2"/>
<path d="M390.452 46.4911L390.835 46.7235L389.889 49.1497L389.505 48.9171L390.452 46.4911Z" fill="#6D74B3"/>
<path d="M390.563 44.1058L390.835 46.145L389.151 49.1497L388.176 43.8324L390.563 44.1058Z" fill="#7B82C8"/>
</g>
<g filter="url(#filter30_d_1_14053)">
<path d="M394.824 43.8324L395.747 44.1336L396.154 46.4911L395.231 46.1899L394.824 43.8324Z" fill="#616DD2"/>
<path d="M394.439 46.4911L394.824 46.7359L393.88 49.1497L393.495 48.9049L394.439 46.4911Z" fill="#525CB1"/>
<path d="M395.829 44.0779L396.154 46.3226L394.345 49.1498L393.495 43.8325L395.829 44.0779Z" fill="#5D69C8"/>
</g>
</g>
<defs>
<filter id="filter0_b_1_14053" x="90.3738" y="166.003" width="372.254" height="203.214" filterUnits="userSpaceOnUse" color-interpolation-filters="sRGB">
<feFlood flood-opacity="0" result="BackgroundImageFix"/>
<feGaussianBlur in="BackgroundImageFix" stdDeviation="3.98843"/>
<feComposite in2="SourceAlpha" operator="in" result="effect1_backgroundBlur_1_14053"/>
<feBlend mode="normal" in="SourceGraphic" in2="effect1_backgroundBlur_1_14053" result="shape"/>
</filter>
<filter id="filter1_f_1_14053" x="97.3947" y="93.338" width="48.4437" height="52.3792" filterUnits="userSpaceOnUse" color-interpolation-filters="sRGB">
<feFlood flood-opacity="0" result="BackgroundImageFix"/>
<feBlend mode="normal" in="SourceGraphic" in2="BackgroundImageFix" result="shape"/>
<feGaussianBlur stdDeviation="0.477998" result="effect1_foregroundBlur_1_14053"/>
</filter>
<filter id="filter2_d_1_14053" x="97.572" y="93.3092" width="46.6898" height="50.679" filterUnits="userSpaceOnUse" color-interpolation-filters="sRGB">
<feFlood flood-opacity="0" result="BackgroundImageFix"/>
<feColorMatrix in="SourceAlpha" type="matrix" values="0 0 0 0 0 0 0 0 0 0 0 0 0 0 0 0 0 0 127 0" result="hardAlpha"/>
<feOffset dx="1.29587" dy="1.08853"/>
<feGaussianBlur stdDeviation="1.0367"/>
<feComposite in2="hardAlpha" operator="out"/>
<feColorMatrix type="matrix" values="0 0 0 0 0 0 0 0 0 0 0 0 0 0 0 0 0 0 0.45 0"/>
<feBlend mode="normal" in2="BackgroundImageFix" result="effect1_dropShadow_1_14053"/>
<feBlend mode="normal" in="SourceGraphic" in2="effect1_dropShadow_1_14053" result="shape"/>
</filter>
<filter id="filter3_d_1_14053" x="108.467" y="113.493" width="10.0495" height="14.0387" filterUnits="userSpaceOnUse" color-interpolation-filters="sRGB">
<feFlood flood-opacity="0" result="BackgroundImageFix"/>
<feColorMatrix in="SourceAlpha" type="matrix" values="0 0 0 0 0 0 0 0 0 0 0 0 0 0 0 0 0 0 127 0" result="hardAlpha"/>
<feOffset dx="0.518348" dy="-1.0367"/>
<feGaussianBlur stdDeviation="0.518348"/>
<feComposite in2="hardAlpha" operator="out"/>
<feColorMatrix type="matrix" values="0 0 0 0 0.364706 0 0 0 0 0.411765 0 0 0 0 0.784314 0 0 0 0.4 0"/>
<feBlend mode="normal" in2="BackgroundImageFix" result="effect1_dropShadow_1_14053"/>
<feBlend mode="normal" in="SourceGraphic" in2="effect1_dropShadow_1_14053" result="shape"/>
</filter>
<filter id="filter4_d_1_14053" x="118.878" y="107.882" width="16.6973" height="20.6861" filterUnits="userSpaceOnUse" color-interpolation-filters="sRGB">
<feFlood flood-opacity="0" result="BackgroundImageFix"/>
<feColorMatrix in="SourceAlpha" type="matrix" values="0 0 0 0 0 0 0 0 0 0 0 0 0 0 0 0 0 0 127 0" result="hardAlpha"/>
<feOffset dx="-1.0367"/>
<feGaussianBlur stdDeviation="0.518348"/>
<feComposite in2="hardAlpha" operator="out"/>
<feColorMatrix type="matrix" values="0 0 0 0 0.290196 0 0 0 0 0.239216 0 0 0 0 0.784314 0 0 0 0.4 0"/>
<feBlend mode="normal" in2="BackgroundImageFix" result="effect1_dropShadow_1_14053"/>
<feBlend mode="normal" in="SourceGraphic" in2="effect1_dropShadow_1_14053" result="shape"/>
</filter>
<filter id="filter5_d_1_14053" x="104.116" y="107.589" width="8.72134" height="14.0387" filterUnits="userSpaceOnUse" color-interpolation-filters="sRGB">
<feFlood flood-opacity="0" result="BackgroundImageFix"/>
<feColorMatrix in="SourceAlpha" type="matrix" values="0 0 0 0 0 0 0 0 0 0 0 0 0 0 0 0 0 0 127 0" result="hardAlpha"/>
<feOffset dx="0.155504" dy="1.0367"/>
<feGaussianBlur stdDeviation="0.518348"/>
<feComposite in2="hardAlpha" operator="out"/>
<feColorMatrix type="matrix" values="0 0 0 0 0.482353 0 0 0 0 0.509804 0 0 0 0 0.784314 0 0 0 0.4 0"/>
<feBlend mode="normal" in2="BackgroundImageFix" result="effect1_dropShadow_1_14053"/>
<feBlend mode="normal" in="SourceGraphic" in2="effect1_dropShadow_1_14053" result="shape"/>
</filter>
<filter id="filter6_d_1_14053" x="116.031" y="107.589" width="8.72" height="14.039" filterUnits="userSpaceOnUse" color-interpolation-filters="sRGB">
<feFlood flood-opacity="0" result="BackgroundImageFix"/>
<feColorMatrix in="SourceAlpha" type="matrix" values="0 0 0 0 0 0 0 0 0 0 0 0 0 0 0 0 0 0 127 0" result="hardAlpha"/>
<feOffset dx="0.10367" dy="1.0367"/>
<feGaussianBlur stdDeviation="0.518348"/>
<feComposite in2="hardAlpha" operator="out"/>
<feColorMatrix type="matrix" values="0 0 0 0 0.364706 0 0 0 0 0.411765 0 0 0 0 0.784314 0 0 0 0.4 0"/>
<feBlend mode="normal" in2="BackgroundImageFix" result="effect1_dropShadow_1_14053"/>
<feBlend mode="normal" in="SourceGraphic" in2="effect1_dropShadow_1_14053" result="shape"/>
</filter>
<filter id="filter7_f_1_14053" x="407.162" y="368.251" width="48.4437" height="52.3792" filterUnits="userSpaceOnUse" color-interpolation-filters="sRGB">
<feFlood flood-opacity="0" result="BackgroundImageFix"/>
<feBlend mode="normal" in="SourceGraphic" in2="BackgroundImageFix" result="shape"/>
<feGaussianBlur stdDeviation="0.477998" result="effect1_foregroundBlur_1_14053"/>
</filter>
<filter id="filter8_d_1_14053" x="407.34" y="368.223" width="46.6899" height="50.6789" filterUnits="userSpaceOnUse" color-interpolation-filters="sRGB">
<feFlood flood-opacity="0" result="BackgroundImageFix"/>
<feColorMatrix in="SourceAlpha" type="matrix" values="0 0 0 0 0 0 0 0 0 0 0 0 0 0 0 0 0 0 127 0" result="hardAlpha"/>
<feOffset dx="1.29587" dy="1.08853"/>
<feGaussianBlur stdDeviation="1.0367"/>
<feComposite in2="hardAlpha" operator="out"/>
<feColorMatrix type="matrix" values="0 0 0 0 0 0 0 0 0 0 0 0 0 0 0 0 0 0 0.45 0"/>
<feBlend mode="normal" in2="BackgroundImageFix" result="effect1_dropShadow_1_14053"/>
<feBlend mode="normal" in="SourceGraphic" in2="effect1_dropShadow_1_14053" result="shape"/>
</filter>
<filter id="filter9_d_1_14053" x="418.235" y="388.405" width="10.0495" height="14.0387" filterUnits="userSpaceOnUse" color-interpolation-filters="sRGB">
<feFlood flood-opacity="0" result="BackgroundImageFix"/>
<feColorMatrix in="SourceAlpha" type="matrix" values="0 0 0 0 0 0 0 0 0 0 0 0 0 0 0 0 0 0 127 0" result="hardAlpha"/>
<feOffset dx="0.518348" dy="-1.0367"/>
<feGaussianBlur stdDeviation="0.518348"/>
<feComposite in2="hardAlpha" operator="out"/>
<feColorMatrix type="matrix" values="0 0 0 0 0.364706 0 0 0 0 0.411765 0 0 0 0 0.784314 0 0 0 0.4 0"/>
<feBlend mode="normal" in2="BackgroundImageFix" result="effect1_dropShadow_1_14053"/>
<feBlend mode="normal" in="SourceGraphic" in2="effect1_dropShadow_1_14053" result="shape"/>
</filter>
<filter id="filter10_d_1_14053" x="428.646" y="382.795" width="16.6974" height="20.6863" filterUnits="userSpaceOnUse" color-interpolation-filters="sRGB">
<feFlood flood-opacity="0" result="BackgroundImageFix"/>
<feColorMatrix in="SourceAlpha" type="matrix" values="0 0 0 0 0 0 0 0 0 0 0 0 0 0 0 0 0 0 127 0" result="hardAlpha"/>
<feOffset dx="-1.0367"/>
<feGaussianBlur stdDeviation="0.518348"/>
<feComposite in2="hardAlpha" operator="out"/>
<feColorMatrix type="matrix" values="0 0 0 0 0.290196 0 0 0 0 0.239216 0 0 0 0 0.784314 0 0 0 0.4 0"/>
<feBlend mode="normal" in2="BackgroundImageFix" result="effect1_dropShadow_1_14053"/>
<feBlend mode="normal" in="SourceGraphic" in2="effect1_dropShadow_1_14053" result="shape"/>
</filter>
<filter id="filter11_d_1_14053" x="413.885" y="382.502" width="8.72012" height="14.0387" filterUnits="userSpaceOnUse" color-interpolation-filters="sRGB">
<feFlood flood-opacity="0" result="BackgroundImageFix"/>
<feColorMatrix in="SourceAlpha" type="matrix" values="0 0 0 0 0 0 0 0 0 0 0 0 0 0 0 0 0 0 127 0" result="hardAlpha"/>
<feOffset dx="0.155504" dy="1.0367"/>
<feGaussianBlur stdDeviation="0.518348"/>
<feComposite in2="hardAlpha" operator="out"/>
<feColorMatrix type="matrix" values="0 0 0 0 0.482353 0 0 0 0 0.509804 0 0 0 0 0.784314 0 0 0 0.4 0"/>
<feBlend mode="normal" in2="BackgroundImageFix" result="effect1_dropShadow_1_14053"/>
<feBlend mode="normal" in="SourceGraphic" in2="effect1_dropShadow_1_14053" result="shape"/>
</filter>
<filter id="filter12_d_1_14053" x="425.798" y="382.502" width="8.72012" height="14.0387" filterUnits="userSpaceOnUse" color-interpolation-filters="sRGB">
<feFlood flood-opacity="0" result="BackgroundImageFix"/>
<feColorMatrix in="SourceAlpha" type="matrix" values="0 0 0 0 0 0 0 0 0 0 0 0 0 0 0 0 0 0 127 0" result="hardAlpha"/>
<feOffset dx="0.10367" dy="1.0367"/>
<feGaussianBlur stdDeviation="0.518348"/>
<feComposite in2="hardAlpha" operator="out"/>
<feColorMatrix type="matrix" values="0 0 0 0 0.364706 0 0 0 0 0.411765 0 0 0 0 0.784314 0 0 0 0.4 0"/>
<feBlend mode="normal" in2="BackgroundImageFix" result="effect1_dropShadow_1_14053"/>
<feBlend mode="normal" in="SourceGraphic" in2="effect1_dropShadow_1_14053" result="shape"/>
</filter>
<filter id="filter13_f_1_14053" x="73.6794" y="449.48" width="18.7645" height="21.4026" filterUnits="userSpaceOnUse" color-interpolation-filters="sRGB">
<feFlood flood-opacity="0" result="BackgroundImageFix"/>
<feBlend mode="normal" in="SourceGraphic" in2="BackgroundImageFix" result="shape"/>
<feGaussianBlur stdDeviation="0.370334" result="effect1_foregroundBlur_1_14053"/>
</filter>
<filter id="filter14_d_1_14053" x="74.1179" y="449.839" width="17.5601" height="18.8896" filterUnits="userSpaceOnUse" color-interpolation-filters="sRGB">
<feFlood flood-opacity="0" result="BackgroundImageFix"/>
<feColorMatrix in="SourceAlpha" type="matrix" values="0 0 0 0 0 0 0 0 0 0 0 0 0 0 0 0 0 0 127 0" result="hardAlpha"/>
<feOffset dx="0.501995" dy="0.421676"/>
<feGaussianBlur stdDeviation="0.401596"/>
<feComposite in2="hardAlpha" operator="out"/>
<feColorMatrix type="matrix" values="0 0 0 0 0 0 0 0 0 0 0 0 0 0 0 0 0 0 0.45 0"/>
<feBlend mode="normal" in2="BackgroundImageFix" result="effect1_dropShadow_1_14053"/>
<feBlend mode="normal" in="SourceGraphic" in2="effect1_dropShadow_1_14053" result="shape"/>
</filter>
<filter id="filter15_d_1_14053" x="78.2075" y="457.394" width="3.46188" height="5.18247" filterUnits="userSpaceOnUse" color-interpolation-filters="sRGB">
<feFlood flood-opacity="0" result="BackgroundImageFix"/>
<feColorMatrix in="SourceAlpha" type="matrix" values="0 0 0 0 0 0 0 0 0 0 0 0 0 0 0 0 0 0 127 0" result="hardAlpha"/>
<feOffset dx="0.200798" dy="-0.401596"/>
<feGaussianBlur stdDeviation="0.200798"/>
<feComposite in2="hardAlpha" operator="out"/>
<feColorMatrix type="matrix" values="0 0 0 0 0.364706 0 0 0 0 0.411765 0 0 0 0 0.784314 0 0 0 0.4 0"/>
<feBlend mode="normal" in2="BackgroundImageFix" result="effect1_dropShadow_1_14053"/>
<feBlend mode="normal" in="SourceGraphic" in2="effect1_dropShadow_1_14053" result="shape"/>
</filter>
<filter id="filter16_d_1_14053" x="82.9237" y="455.137" width="6.12082" height="7.87094" filterUnits="userSpaceOnUse" color-interpolation-filters="sRGB">
<feFlood flood-opacity="0" result="BackgroundImageFix"/>
<feColorMatrix in="SourceAlpha" type="matrix" values="0 0 0 0 0 0 0 0 0 0 0 0 0 0 0 0 0 0 127 0" result="hardAlpha"/>
<feOffset dx="-0.401596"/>
<feGaussianBlur stdDeviation="0.200798"/>
<feComposite in2="hardAlpha" operator="out"/>
<feColorMatrix type="matrix" values="0 0 0 0 0.290196 0 0 0 0 0.239216 0 0 0 0 0.784314 0 0 0 0.4 0"/>
<feBlend mode="normal" in2="BackgroundImageFix" result="effect1_dropShadow_1_14053"/>
<feBlend mode="normal" in="SourceGraphic" in2="effect1_dropShadow_1_14053" result="shape"/>
</filter>
<filter id="filter17_d_1_14053" x="76.7376" y="455.538" width="3.46188" height="6.12131" filterUnits="userSpaceOnUse" color-interpolation-filters="sRGB">
<feFlood flood-opacity="0" result="BackgroundImageFix"/>
<feColorMatrix in="SourceAlpha" type="matrix" values="0 0 0 0 0 0 0 0 0 0 0 0 0 0 0 0 0 0 127 0" result="hardAlpha"/>
<feOffset dx="0.0602394" dy="0.401596"/>
<feGaussianBlur stdDeviation="0.200798"/>
<feComposite in2="hardAlpha" operator="out"/>
<feColorMatrix type="matrix" values="0 0 0 0 0.482353 0 0 0 0 0.509804 0 0 0 0 0.784314 0 0 0 0.4 0"/>
<feBlend mode="normal" in2="BackgroundImageFix" result="effect1_dropShadow_1_14053"/>
<feBlend mode="normal" in="SourceGraphic" in2="effect1_dropShadow_1_14053" result="shape"/>
</filter>
<filter id="filter18_d_1_14053" x="82.0346" y="455.538" width="3.46188" height="6.12119" filterUnits="userSpaceOnUse" color-interpolation-filters="sRGB">
<feFlood flood-opacity="0" result="BackgroundImageFix"/>
<feColorMatrix in="SourceAlpha" type="matrix" values="0 0 0 0 0 0 0 0 0 0 0 0 0 0 0 0 0 0 127 0" result="hardAlpha"/>
<feOffset dx="0.0401596" dy="0.401596"/>
<feGaussianBlur stdDeviation="0.200798"/>
<feComposite in2="hardAlpha" operator="out"/>
<feColorMatrix type="matrix" values="0 0 0 0 0.364706 0 0 0 0 0.411765 0 0 0 0 0.784314 0 0 0 0.4 0"/>
<feBlend mode="normal" in2="BackgroundImageFix" result="effect1_dropShadow_1_14053"/>
<feBlend mode="normal" in="SourceGraphic" in2="effect1_dropShadow_1_14053" result="shape"/>
</filter>
<filter id="filter19_f_1_14053" x="471.193" y="445.495" width="18.7645" height="21.4026" filterUnits="userSpaceOnUse" color-interpolation-filters="sRGB">
<feFlood flood-opacity="0" result="BackgroundImageFix"/>
<feBlend mode="normal" in="SourceGraphic" in2="BackgroundImageFix" result="shape"/>
<feGaussianBlur stdDeviation="0.370334" result="effect1_foregroundBlur_1_14053"/>
</filter>
<filter id="filter20_d_1_14053" x="471.633" y="445.854" width="17.5601" height="18.8896" filterUnits="userSpaceOnUse" color-interpolation-filters="sRGB">
<feFlood flood-opacity="0" result="BackgroundImageFix"/>
<feColorMatrix in="SourceAlpha" type="matrix" values="0 0 0 0 0 0 0 0 0 0 0 0 0 0 0 0 0 0 127 0" result="hardAlpha"/>
<feOffset dx="0.501995" dy="0.421676"/>
<feGaussianBlur stdDeviation="0.401596"/>
<feComposite in2="hardAlpha" operator="out"/>
<feColorMatrix type="matrix" values="0 0 0 0 0 0 0 0 0 0 0 0 0 0 0 0 0 0 0.45 0"/>
<feBlend mode="normal" in2="BackgroundImageFix" result="effect1_dropShadow_1_14053"/>
<feBlend mode="normal" in="SourceGraphic" in2="effect1_dropShadow_1_14053" result="shape"/>
</filter>
<filter id="filter21_d_1_14053" x="475.721" y="453.409" width="3.46188" height="5.18308" filterUnits="userSpaceOnUse" color-interpolation-filters="sRGB">
<feFlood flood-opacity="0" result="BackgroundImageFix"/>
<feColorMatrix in="SourceAlpha" type="matrix" values="0 0 0 0 0 0 0 0 0 0 0 0 0 0 0 0 0 0 127 0" result="hardAlpha"/>
<feOffset dx="0.200798" dy="-0.401596"/>
<feGaussianBlur stdDeviation="0.200798"/>
<feComposite in2="hardAlpha" operator="out"/>
<feColorMatrix type="matrix" values="0 0 0 0 0.364706 0 0 0 0 0.411765 0 0 0 0 0.784314 0 0 0 0.4 0"/>
<feBlend mode="normal" in2="BackgroundImageFix" result="effect1_dropShadow_1_14053"/>
<feBlend mode="normal" in="SourceGraphic" in2="effect1_dropShadow_1_14053" result="shape"/>
</filter>
<filter id="filter22_d_1_14053" x="480.436" y="451.152" width="6.12058" height="7.87143" filterUnits="userSpaceOnUse" color-interpolation-filters="sRGB">
<feFlood flood-opacity="0" result="BackgroundImageFix"/>
<feColorMatrix in="SourceAlpha" type="matrix" values="0 0 0 0 0 0 0 0 0 0 0 0 0 0 0 0 0 0 127 0" result="hardAlpha"/>
<feOffset dx="-0.401596"/>
<feGaussianBlur stdDeviation="0.200798"/>
<feComposite in2="hardAlpha" operator="out"/>
<feColorMatrix type="matrix" values="0 0 0 0 0.290196 0 0 0 0 0.239216 0 0 0 0 0.784314 0 0 0 0.4 0"/>
<feBlend mode="normal" in2="BackgroundImageFix" result="effect1_dropShadow_1_14053"/>
<feBlend mode="normal" in="SourceGraphic" in2="effect1_dropShadow_1_14053" result="shape"/>
</filter>
<filter id="filter23_d_1_14053" x="474.251" y="451.554" width="3.46201" height="6.1207" filterUnits="userSpaceOnUse" color-interpolation-filters="sRGB">
<feFlood flood-opacity="0" result="BackgroundImageFix"/>
<feColorMatrix in="SourceAlpha" type="matrix" values="0 0 0 0 0 0 0 0 0 0 0 0 0 0 0 0 0 0 127 0" result="hardAlpha"/>
<feOffset dx="0.0602394" dy="0.401596"/>
<feGaussianBlur stdDeviation="0.200798"/>
<feComposite in2="hardAlpha" operator="out"/>
<feColorMatrix type="matrix" values="0 0 0 0 0.482353 0 0 0 0 0.509804 0 0 0 0 0.784314 0 0 0 0.4 0"/>
<feBlend mode="normal" in2="BackgroundImageFix" result="effect1_dropShadow_1_14053"/>
<feBlend mode="normal" in="SourceGraphic" in2="effect1_dropShadow_1_14053" result="shape"/>
</filter>
<filter id="filter24_d_1_14053" x="479.55" y="451.553" width="3.46188" height="6.12119" filterUnits="userSpaceOnUse" color-interpolation-filters="sRGB">
<feFlood flood-opacity="0" result="BackgroundImageFix"/>
<feColorMatrix in="SourceAlpha" type="matrix" values="0 0 0 0 0 0 0 0 0 0 0 0 0 0 0 0 0 0 127 0" result="hardAlpha"/>
<feOffset dx="0.0401596" dy="0.401596"/>
<feGaussianBlur stdDeviation="0.200798"/>
<feComposite in2="hardAlpha" operator="out"/>
<feColorMatrix type="matrix" values="0 0 0 0 0.364706 0 0 0 0 0.411765 0 0 0 0 0.784314 0 0 0 0.4 0"/>
<feBlend mode="normal" in2="BackgroundImageFix" result="effect1_dropShadow_1_14053"/>
<feBlend mode="normal" in="SourceGraphic" in2="effect1_dropShadow_1_14053" result="shape"/>
</filter>
<filter id="filter25_f_1_14053" x="384.777" y="37.774" width="18.7645" height="21.4026" filterUnits="userSpaceOnUse" color-interpolation-filters="sRGB">
<feFlood flood-opacity="0" result="BackgroundImageFix"/>
<feBlend mode="normal" in="SourceGraphic" in2="BackgroundImageFix" result="shape"/>
<feGaussianBlur stdDeviation="0.370334" result="effect1_foregroundBlur_1_14053"/>
</filter>
<filter id="filter26_d_1_14053" x="385.217" y="38.1329" width="17.5601" height="18.8897" filterUnits="userSpaceOnUse" color-interpolation-filters="sRGB">
<feFlood flood-opacity="0" result="BackgroundImageFix"/>
<feColorMatrix in="SourceAlpha" type="matrix" values="0 0 0 0 0 0 0 0 0 0 0 0 0 0 0 0 0 0 127 0" result="hardAlpha"/>
<feOffset dx="0.501995" dy="0.421676"/>
<feGaussianBlur stdDeviation="0.401596"/>
<feComposite in2="hardAlpha" operator="out"/>
<feColorMatrix type="matrix" values="0 0 0 0 0 0 0 0 0 0 0 0 0 0 0 0 0 0 0.45 0"/>
<feBlend mode="normal" in2="BackgroundImageFix" result="effect1_dropShadow_1_14053"/>
<feBlend mode="normal" in="SourceGraphic" in2="effect1_dropShadow_1_14053" result="shape"/>
</filter>
<filter id="filter27_d_1_14053" x="389.305" y="45.6878" width="3.46213" height="5.18308" filterUnits="userSpaceOnUse" color-interpolation-filters="sRGB">
<feFlood flood-opacity="0" result="BackgroundImageFix"/>
<feColorMatrix in="SourceAlpha" type="matrix" values="0 0 0 0 0 0 0 0 0 0 0 0 0 0 0 0 0 0 127 0" result="hardAlpha"/>
<feOffset dx="0.200798" dy="-0.401596"/>
<feGaussianBlur stdDeviation="0.200798"/>
<feComposite in2="hardAlpha" operator="out"/>
<feColorMatrix type="matrix" values="0 0 0 0 0.364706 0 0 0 0 0.411765 0 0 0 0 0.784314 0 0 0 0.4 0"/>
<feBlend mode="normal" in2="BackgroundImageFix" result="effect1_dropShadow_1_14053"/>
<feBlend mode="normal" in="SourceGraphic" in2="effect1_dropShadow_1_14053" result="shape"/>
</filter>
<filter id="filter28_d_1_14053" x="394.02" y="43.4308" width="6.12058" height="7.87082" filterUnits="userSpaceOnUse" color-interpolation-filters="sRGB">
<feFlood flood-opacity="0" result="BackgroundImageFix"/>
<feColorMatrix in="SourceAlpha" type="matrix" values="0 0 0 0 0 0 0 0 0 0 0 0 0 0 0 0 0 0 127 0" result="hardAlpha"/>
<feOffset dx="-0.401596"/>
<feGaussianBlur stdDeviation="0.200798"/>
<feComposite in2="hardAlpha" operator="out"/>
<feColorMatrix type="matrix" values="0 0 0 0 0.290196 0 0 0 0 0.239216 0 0 0 0 0.784314 0 0 0 0.4 0"/>
<feBlend mode="normal" in2="BackgroundImageFix" result="effect1_dropShadow_1_14053"/>
<feBlend mode="normal" in="SourceGraphic" in2="effect1_dropShadow_1_14053" result="shape"/>
</filter>
<filter id="filter29_d_1_14053" x="387.835" y="43.8324" width="3.46188" height="6.12058" filterUnits="userSpaceOnUse" color-interpolation-filters="sRGB">
<feFlood flood-opacity="0" result="BackgroundImageFix"/>
<feColorMatrix in="SourceAlpha" type="matrix" values="0 0 0 0 0 0 0 0 0 0 0 0 0 0 0 0 0 0 127 0" result="hardAlpha"/>
<feOffset dx="0.0602394" dy="0.401596"/>
<feGaussianBlur stdDeviation="0.200798"/>
<feComposite in2="hardAlpha" operator="out"/>
<feColorMatrix type="matrix" values="0 0 0 0 0.482353 0 0 0 0 0.509804 0 0 0 0 0.784314 0 0 0 0.4 0"/>
<feBlend mode="normal" in2="BackgroundImageFix" result="effect1_dropShadow_1_14053"/>
<feBlend mode="normal" in="SourceGraphic" in2="effect1_dropShadow_1_14053" result="shape"/>
</filter>
<filter id="filter30_d_1_14053" x="393.133" y="43.8324" width="3.46213" height="6.12058" filterUnits="userSpaceOnUse" color-interpolation-filters="sRGB">
<feFlood flood-opacity="0" result="BackgroundImageFix"/>
<feColorMatrix in="SourceAlpha" type="matrix" values="0 0 0 0 0 0 0 0 0 0 0 0 0 0 0 0 0 0 127 0" result="hardAlpha"/>
<feOffset dx="0.0401596" dy="0.401596"/>
<feGaussianBlur stdDeviation="0.200798"/>
<feComposite in2="hardAlpha" operator="out"/>
<feColorMatrix type="matrix" values="0 0 0 0 0.364706 0 0 0 0 0.411765 0 0 0 0 0.784314 0 0 0 0.4 0"/>
<feBlend mode="normal" in2="BackgroundImageFix" result="effect1_dropShadow_1_14053"/>
<feBlend mode="normal" in="SourceGraphic" in2="effect1_dropShadow_1_14053" result="shape"/>
</filter>
<clipPath id="clip0_1_14053">
<rect width="47.8612" height="47.8612" fill="white" transform="translate(124.94 287.121)"/>
</clipPath>
<clipPath id="clip1_1_14053">
<rect width="46.5317" height="50.4672" fill="white" transform="translate(98.3507 94.2939)"/>
</clipPath>
<clipPath id="clip2_1_14053">
<rect width="46.5317" height="50.4672" fill="white" transform="translate(408.118 369.207)"/>
</clipPath>
<clipPath id="clip3_1_14053">
<rect width="17.2832" height="19.9213" fill="white" transform="translate(74.42 450.22)"/>
</clipPath>
<clipPath id="clip4_1_14053">
<rect width="17.2832" height="19.9213" fill="white" transform="translate(471.934 446.236)"/>
</clipPath>
<clipPath id="clip5_1_14053">
<rect width="17.2832" height="19.9213" fill="white" transform="translate(385.518 38.5146)"/>
</clipPath>
</defs>
</svg>
